<svg xmlns="http://www.w3.org/2000/svg" width="53.738" height="19.613" viewBox="0 0 53.738 19.613">
  <g id="Group_946" data-name="Group 946" transform="translate(-160.57 -201.087)">
    <path id="Path_36" data-name="Path 36" d="M2325.917,335.238h-.005a2,2,0,0,0,.456,3.907,1.853,1.853,0,0,0,1.034-.288h0c.035-.022,5.7-4.036,6.117-4.35a.46.46,0,0,0,.17-.44.437.437,0,0,0-.531-.37C2332.615,333.813,2325.965,335.226,2325.917,335.238Z" transform="translate(-2137.885 -125.036)" fill="#0ba7fd"/>
    <path id="Path_37" data-name="Path 37" d="M2292.064,306.731a1.245,1.245,0,0,0-.7-.875,1.569,1.569,0,0,0-1.318,0,2.8,2.8,0,0,0-1.01.874,5.56,5.56,0,0,1-5.076,2.039,4.985,4.985,0,0,1-4.737-5.369,5.143,5.143,0,0,1,.812-2.255,5.777,5.777,0,0,1,4.487-2.425,5.893,5.893,0,0,1,1.874.167,2.636,2.636,0,0,1,.631.273.433.433,0,0,1,.186.258.386.386,0,0,1-.041.287.254.254,0,0,0-.042.162.268.268,0,0,0,.144.214.4.4,0,0,0,.216.031c.122-.023,1.125-.207,1.343-.251h0c.791-.147,1.536-.288,1.536-.288a.755.755,0,0,0,.521-.38.632.632,0,0,0-.131-.735,7.266,7.266,0,0,0-.84-.711,8.942,8.942,0,0,0-4.444-1.689c-4.741-.468-9.018,2.682-9.5,7.032-.48,4.3,2.96,8.265,7.668,8.637a8.947,8.947,0,0,0,7.136-2.6C2290.967,308.927,2292.226,307.585,2292.064,306.731Z" transform="translate(-2097.079 -91.553)" fill="#0f6db5"/>
    <path id="Path_38" data-name="Path 38" d="M2142.08,293.883l-5.138.021,1.376-1.685,2.891-3.539,2.556-3.129a3.419,3.419,0,0,0,.922-1.452,1.564,1.564,0,0,0-1.044-1.665,1.9,1.9,0,0,0-2.157.732q-.383.467-.764.935-1.215,1.488-2.428,2.977l-2.833,3.477q-1.142,1.4-2.283,2.807c-.265.326-.551.645-.8.984a1.712,1.712,0,0,0-.431,1.277,1.369,1.369,0,0,0,.112.379,1.757,1.757,0,0,0,1.575.95h8.443v3.36a1.937,1.937,0,0,0,3.824,0v-3.36h1.063a1.553,1.553,0,1,0,0-3.09H2145.9v-4.471c0-.416-.456-.5-.738-.507,0,0-.782,0-1.613-.006-.229,0-1.28,0-1.408,0a.415.415,0,0,0-.342.121.287.287,0,0,0-.063.243.3.3,0,0,0,.156.2c.062.031.185.066.184.146Z" transform="translate(-1971.366 -81.238)" fill="#0f6db5"/>
    <path id="Path_758" data-name="Path 758" d="M2142.08,293.883l-5.138.021,1.376-1.685,2.891-3.539,2.556-3.129a3.419,3.419,0,0,0,.922-1.452,1.564,1.564,0,0,0-1.044-1.665,1.9,1.9,0,0,0-2.157.732q-.383.467-.764.935-1.215,1.488-2.428,2.977l-2.833,3.477q-1.142,1.4-2.283,2.807c-.265.326-.551.645-.8.984a1.712,1.712,0,0,0-.431,1.277,1.369,1.369,0,0,0,.112.379,1.757,1.757,0,0,0,1.575.95h8.443v3.36a1.937,1.937,0,0,0,3.824,0v-3.36h1.063a1.553,1.553,0,1,0,0-3.09H2145.9v-4.471c0-.416-.456-.5-.738-.507,0,0-.782,0-1.613-.006-.229,0-1.28,0-1.408,0a.415.415,0,0,0-.342.121.287.287,0,0,0-.063.243.3.3,0,0,0,.156.2c.062.031.185.066.184.146Z" transform="translate(-1934.366 -81.238)" fill="#0f6db5"/>
  </g>
</svg>
