<svg xmlns="http://www.w3.org/2000/svg" width="175.681" height="176.479" viewBox="0 0 175.681 176.479">
  <g id="Group_18862" data-name="Group 18862" transform="translate(-280.992 -102.32)">
    <text id="月" transform="translate(281.683 143.8)" fill="#333" font-size="10" font-family="YuGothicUI-Regular, Yu Gothic UI"><tspan x="0" y="0">月</tspan></text>
    <text id="火" transform="translate(309.183 143.8)" fill="#333" font-size="10" font-family="YuGothicUI-Regular, Yu Gothic UI"><tspan x="0" y="0">火</tspan></text>
    <text id="水" transform="translate(336.683 143.8)" fill="#333" font-size="10" font-family="YuGothicUI-Regular, Yu Gothic UI"><tspan x="0" y="0">水</tspan></text>
    <text id="木" transform="translate(364.063 143.8)" fill="#333" font-size="10" font-family="YuGothicUI-Regular, Yu Gothic UI"><tspan x="0" y="0">木</tspan></text>
    <text id="金" transform="translate(391.442 143.8)" fill="#333" font-size="10" font-family="YuGothicUI-Regular, Yu Gothic UI"><tspan x="0" y="0">金</tspan></text>
    <text id="土" transform="translate(418.822 143.8)" fill="#c1272d" font-size="10" font-family="YuGothicUI-Regular, Yu Gothic UI"><tspan x="0" y="0">土</tspan></text>
    <text id="日" transform="translate(446.322 143.8)" fill="#c1272d" font-size="10" font-family="YuGothicUI-Regular, Yu Gothic UI"><tspan x="0" y="0">日</tspan></text>
    <text id="_27" data-name="27" transform="translate(280.992 179.8)" fill="#999" font-size="10" font-family="SegoeUI, Segoe UI"><tspan x="0" y="0">27</tspan></text>
    <text id="_28" data-name="28" transform="translate(308.492 179.8)" fill="#999" font-size="10" font-family="SegoeUI, Segoe UI"><tspan x="0" y="0">28</tspan></text>
    <text id="_29" data-name="29" transform="translate(335.992 179.8)" fill="#999" font-size="10" font-family="SegoeUI, Segoe UI"><tspan x="0" y="0">29</tspan></text>
    <text id="_30" data-name="30" transform="translate(363.373 179.8)" fill="#999" font-size="10" font-family="SegoeUI, Segoe UI"><tspan x="0" y="0">30</tspan></text>
    <text id="_31" data-name="31" transform="translate(390.753 179.8)" fill="#999" font-size="10" font-family="SegoeUI, Segoe UI"><tspan x="0" y="0">31</tspan></text>
    <text id="_1" data-name="1" transform="translate(420.982 179.8)" fill="#c1272d" font-size="10" font-family="SegoeUI, Segoe UI"><tspan x="0" y="0">1</tspan></text>
    <text id="_2" data-name="2" transform="translate(448.482 179.8)" fill="#c1272d" font-size="10" font-family="SegoeUI, Segoe UI"><tspan x="0" y="0">2</tspan></text>
    <text id="_3" data-name="3" transform="translate(283.853 203.8)" fill="#c1272d" font-size="10" font-family="SegoeUI, Segoe UI"><tspan x="0" y="0">3</tspan></text>
    <text id="_4" data-name="4" transform="translate(311.353 203.8)" fill="#333" font-size="10" font-family="SegoeUI, Segoe UI"><tspan x="0" y="0">4</tspan></text>
    <text id="_5" data-name="5" transform="translate(338.763 203.8)" fill="#030303" font-size="10" font-family="SegoeUI-Bold, Segoe UI" font-weight="700"><tspan x="0" y="0">5</tspan></text>
    <text id="_6" data-name="6" transform="translate(366.232 203.8)" fill="#333" font-size="10" font-family="SegoeUI, Segoe UI"><tspan x="0" y="0">6</tspan></text>
    <text id="_7" data-name="7" transform="translate(393.612 203.8)" fill="#333" font-size="10" font-family="SegoeUI, Segoe UI"><tspan x="0" y="0">7</tspan></text>
    <text id="_8" data-name="8" transform="translate(420.992 203.8)" fill="#c1272d" font-size="10" font-family="SegoeUI, Segoe UI"><tspan x="0" y="0">8</tspan></text>
    <text id="_9" data-name="9" transform="translate(448.492 203.8)" fill="#c1272d" font-size="10" font-family="SegoeUI, Segoe UI"><tspan x="0" y="0">9</tspan></text>
    <text id="_10" data-name="10" transform="translate(281.013 227.8)" fill="#c1272d" font-size="10" font-family="SegoeUI, Segoe UI"><tspan x="0" y="0">10</tspan></text>
    <text id="_11" data-name="11" transform="translate(308.513 227.8)" fill="#333" font-size="10" font-family="SegoeUI, Segoe UI"><tspan x="0" y="0">11</tspan></text>
    <text id="_12" data-name="12" transform="translate(336.013 227.8)" fill="#333" font-size="10" font-family="SegoeUI, Segoe UI"><tspan x="0" y="0">12</tspan></text>
    <text id="_13" data-name="13" transform="translate(363.393 227.8)" fill="#333" font-size="10" font-family="SegoeUI, Segoe UI"><tspan x="0" y="0">13</tspan></text>
    <text id="_14" data-name="14" transform="translate(390.772 227.8)" fill="#333" font-size="10" font-family="SegoeUI, Segoe UI"><tspan x="0" y="0">14</tspan></text>
    <text id="_15" data-name="15" transform="translate(418.152 227.8)" fill="#c1272d" font-size="10" font-family="SegoeUI, Segoe UI"><tspan x="0" y="0">15</tspan></text>
    <text id="_16" data-name="16" transform="translate(445.652 227.8)" fill="#c1272d" font-size="10" font-family="SegoeUI, Segoe UI"><tspan x="0" y="0">16</tspan></text>
    <text id="_17" data-name="17" transform="translate(281.022 251.8)" fill="#333" font-size="10" font-family="SegoeUI, Segoe UI"><tspan x="0" y="0">17</tspan></text>
    <text id="_18" data-name="18" transform="translate(308.522 251.8)" fill="#333" font-size="10" font-family="SegoeUI, Segoe UI"><tspan x="0" y="0">18</tspan></text>
    <text id="_19" data-name="19" transform="translate(336.022 251.8)" fill="#333" font-size="10" font-family="SegoeUI, Segoe UI"><tspan x="0" y="0">19</tspan></text>
    <text id="_20" data-name="20" transform="translate(363.402 251.8)" fill="#333" font-size="10" font-family="SegoeUI, Segoe UI"><tspan x="0" y="0">20</tspan></text>
    <text id="_21" data-name="21" transform="translate(390.782 251.8)" fill="#333" font-size="10" font-family="SegoeUI, Segoe UI"><tspan x="0" y="0">21</tspan></text>
    <text id="_22" data-name="22" transform="translate(418.163 251.8)" fill="#c1272d" font-size="10" font-family="SegoeUI, Segoe UI"><tspan x="0" y="0">22</tspan></text>
    <text id="_23" data-name="23" transform="translate(445.663 251.8)" fill="#c1272d" font-size="10" font-family="SegoeUI, Segoe UI"><tspan x="0" y="0">23</tspan></text>
    <text id="_24" data-name="24" transform="translate(281.032 275.8)" fill="#333" font-size="10" font-family="SegoeUI, Segoe UI"><tspan x="0" y="0">24</tspan></text>
    <text id="_25" data-name="25" transform="translate(308.532 275.8)" fill="#333" font-size="10" font-family="SegoeUI, Segoe UI"><tspan x="0" y="0">25</tspan></text>
    <text id="_26" data-name="26" transform="translate(336.032 275.8)" fill="#333" font-size="10" font-family="SegoeUI, Segoe UI"><tspan x="0" y="0">26</tspan></text>
    <text id="_27-2" data-name="27" transform="translate(363.413 275.8)" fill="#333" font-size="10" font-family="SegoeUI, Segoe UI"><tspan x="0" y="0">27</tspan></text>
    <text id="_28-2" data-name="28" transform="translate(390.793 275.8)" fill="#333" font-size="10" font-family="SegoeUI, Segoe UI"><tspan x="0" y="0">28</tspan></text>
    <text id="_29-2" data-name="29" transform="translate(418.173 275.8)" fill="#c1272d" font-size="10" font-family="SegoeUI, Segoe UI"><tspan x="0" y="0">29</tspan></text>
    <text id="_30-2" data-name="30" transform="translate(445.673 275.8)" fill="#c1272d" font-size="10" font-family="SegoeUI, Segoe UI"><tspan x="0" y="0">30</tspan></text>
    <path id="Path_14973" data-name="Path 14973" d="M3434.957,119.854l-.707-.707a.5.5,0,0,0-.707,0l-4.5,4.5a.5.5,0,0,0,0,.707l4.5,4.5a.5.5,0,0,0,.707,0l.707-.707a.5.5,0,0,0,0-.707l-3.439-3.44,3.439-3.439a.5.5,0,0,0,0-.707" transform="translate(-2998 -12)" fill="#999"/>
    <path id="Path_14974" data-name="Path 14974" d="M3457.043,128.146l.707.708a.5.5,0,0,0,.707,0l4.5-4.5a.5.5,0,0,0,0-.708l-4.5-4.5a.5.5,0,0,0-.707,0l-.707.708a.5.5,0,0,0,0,.707l3.439,3.439-3.439,3.44a.5.5,0,0,0,0,.706" transform="translate(-3007 -12)" fill="#999"/>
    <g id="Group_18860" data-name="Group 18860" transform="translate(-2130 68)">
      <path id="Path_19460" data-name="Path 19460" d="M2532.837,24.475c4.937,0,8.953,2.344,8.953,5.225v7.6c0,2.881-4.017,5.225-8.953,5.225h-39.07c-4.937,0-8.953-2.344-8.953-5.225V29.7c0-2.881,4.017-5.225,8.953-5.225h39.07m0-.475h-39.07c-5.394,0-9.767,2.552-9.767,5.7v7.6c0,3.148,4.373,5.7,9.767,5.7h39.07c5.394,0,9.767-2.552,9.767-5.7V29.7c0-3.148-4.374-5.7-9.767-5.7" transform="translate(13.396 10.32)" fill="#e5e5e5"/>
      <text id="_6月" data-name="6月" transform="translate(2507 49.32)" fill="#666" font-size="14" font-family="SegoeUI, Segoe UI"><tspan x="0" y="0">6</tspan><tspan y="0" font-family="YuGothicUI-Regular, Yu Gothic UI">月</tspan></text>
      <path id="Path_19461" data-name="Path 19461" d="M2541.414,46.4l4.439-4.438a.5.5,0,0,0,0-.708l-.707-.708a.5.5,0,0,0-.707,0L2540,44.983l-4.44-4.441a.5.5,0,0,0-.707,0l-.707.708a.5.5,0,0,0,0,.708l4.44,4.438,1.06,1.062a.5.5,0,0,0,.707,0Z" fill="#999"/>
    </g>
    <g id="Group_18861" data-name="Group 18861" transform="translate(-2214 69)">
      <path id="Path_19460-2" data-name="Path 19460" d="M2551.979,24.475c6.871,0,12.463,2.344,12.463,5.225v7.6c0,2.881-5.592,5.225-12.463,5.225H2497.6c-6.872,0-12.463-2.344-12.463-5.225V29.7c0-2.881,5.591-5.225,12.463-5.225h54.384m0-.475H2497.6c-7.508,0-13.6,2.552-13.6,5.7v7.6c0,3.148,6.087,5.7,13.6,5.7h54.384c7.508,0,13.6-2.552,13.6-5.7V29.7c0-3.148-6.088-5.7-13.6-5.7" transform="translate(11.798 10.32)" fill="#e5e5e5"/>
      <text id="_2019年" data-name="2019年" transform="translate(2503.373 49.32)" fill="#666" font-size="14" font-family="SegoeUI, Segoe UI"><tspan x="0" y="0">2019</tspan><tspan y="0" font-family="YuGothicUI-Regular, Yu Gothic UI">年</tspan></text>
      <path id="Path_19461-2" data-name="Path 19461" d="M2541.414,46.4l4.439-4.438a.5.5,0,0,0,0-.708l-.707-.708a.5.5,0,0,0-.707,0L2540,44.983l-4.44-4.441a.5.5,0,0,0-.707,0l-.707.708a.5.5,0,0,0,0,.708l4.44,4.438,1.06,1.062a.5.5,0,0,0,.707,0Z" transform="translate(21.939)" fill="#999"/>
    </g>
  </g>
</svg>
