<svg xmlns="http://www.w3.org/2000/svg" width="16" height="16" viewBox="0 0 16 16">
  <g id="Group_844" data-name="Group 844" transform="translate(-3296 -776)">
    <path id="Path_376" data-name="Path 376" d="M3311.854,790.439l-4.967-4.966a6.018,6.018,0,1,0-1.414,1.414l4.967,4.967a.5.5,0,0,0,.707,0l.707-.707A.5.5,0,0,0,3311.854,790.439Zm-5.9-7.807a4,4,0,1,1-4.583-4.583A4.016,4.016,0,0,1,3305.951,782.632Z" fill="#999"/>
    <path id="Path_377" data-name="Path 377" d="M3305,781h-2v-2h-2v2h-2v2h2v2h2v-2h2Z" fill="#999"/>
  </g>
</svg>
