<svg id="Group_26037" data-name="Group 26037" xmlns="http://www.w3.org/2000/svg" width="20" height="20" viewBox="0 0 20 20">
  <path id="Path_3595" data-name="Path 3595" d="M43,706H33a4,4,0,0,1-4-4V692a4,4,0,0,1,4-4H43a4,4,0,0,1,4,4v10a4,4,0,0,1-4,4" transform="translate(-27 -686)" fill="#0b537f"/>
  <path id="Path_3596" data-name="Path 3596" d="M41,704H31a4,4,0,0,1-4-4V690a4,4,0,0,1,4-4H41a4,4,0,0,1,4,4v10a4,4,0,0,1-4,4" transform="translate(-27 -686)" fill="#fff"/>
  <path id="Path_3638" data-name="Path 3638" d="M40.5,694H37v-3.5a.5.5,0,0,0-.5-.5h-1a.5.5,0,0,0-.5.5V694H31.5a.5.5,0,0,0-.5.5v1a.5.5,0,0,0,.5.5H35v3.5a.5.5,0,0,0,.5.5h1a.5.5,0,0,0,.5-.5V696h3.5a.5.5,0,0,0,.5-.5v-1a.5.5,0,0,0-.5-.5" transform="translate(-27 -686)" fill="#999"/>
  <path id="Path_3639" data-name="Path 3639" d="M43,706H33a4,4,0,0,1-4-4V692a4,4,0,0,1,4-4H43a4,4,0,0,1,4,4v10a4,4,0,0,1-4,4" transform="translate(-27 -686)" fill="#0b537f"/>
  <path id="Path_3640" data-name="Path 3640" d="M41,704H31a4,4,0,0,1-4-4V690a4,4,0,0,1,4-4H41a4,4,0,0,1,4,4v10a4,4,0,0,1-4,4" transform="translate(-27 -686)" fill="#fff"/>
  <path id="Path_3641" data-name="Path 3641" d="M40.5,694H37v-3.5a.5.5,0,0,0-.5-.5h-1a.5.5,0,0,0-.5.5V694H31.5a.5.5,0,0,0-.5.5v1a.5.5,0,0,0,.5.5H35v3.5a.5.5,0,0,0,.5.5h1a.5.5,0,0,0,.5-.5V696h3.5a.5.5,0,0,0,.5-.5v-1a.5.5,0,0,0-.5-.5" transform="translate(-27 -686)" fill="#999"/>
</svg>
