<svg xmlns="http://www.w3.org/2000/svg" width="24" height="24" viewBox="0 0 24 24">
  <g id="ボタン" transform="translate(-204 -159)">
    <g id="ボタン_閉じる" transform="translate(204 159)">
      <path id="Path_229" data-name="Path 229" d="M2765.906,2046.853l-.707-.707a.5.5,0,0,0-.707,0l-4.44,4.44-4.439-4.44a.5.5,0,0,0-.707,0l-.707.707a.5.5,0,0,0,0,.708l4.439,4.439-4.439,4.439a.5.5,0,0,0,0,.708l.707.707a.5.5,0,0,0,.707,0l4.439-4.44,4.44,4.44a.5.5,0,0,0,.707,0l.707-.707a.5.5,0,0,0,0-.708l-4.44-4.439,4.44-4.439A.5.5,0,0,0,2765.906,2046.853Z" transform="translate(-2748 -2040)" fill="#999"/>
      <rect id="Rectangle_222" data-name="Rectangle 222" width="24" height="24" rx="8" fill="none"/>
    </g>
  </g>
</svg>
