<svg xmlns="http://www.w3.org/2000/svg" width="20" height="20" viewBox="0 0 20 20">
  <path id="Path_10" data-name="Path 10" d="M782,318a10,10,0,1,0,10,10A10,10,0,0,0,782,318Zm4.063,6.562a1.25,1.25,0,1,1-1.25,1.25A1.25,1.25,0,0,1,786.063,324.562Zm-8.125,0a1.25,1.25,0,1,1-1.25,1.25A1.25,1.25,0,0,1,777.938,324.562ZM787.847,333l-1.007.756a5.583,5.583,0,0,0-.65-.9h0c-.032-.036-.072-.06-.105-.1a5.582,5.582,0,0,0-8.915,1.007l-1.016-.763a6.86,6.86,0,0,1,10.945-1l.023.023A6.851,6.851,0,0,1,787.847,333Z" transform="translate(-772 -318)" fill="#f92525"/>
</svg>
