<svg id="Layer_2" data-name="Layer 2" xmlns="http://www.w3.org/2000/svg" width="18.3" height="16.8" viewBox="0 0 18.3 16.8">
  <g id="レイヤー_1" data-name="レイヤー 1">
    <rect id="Rectangle_13" data-name="Rectangle 13" width="14.8" height="7.87" transform="translate(0 5.1)" fill="#d71c51"/>
    <path id="Path_28" data-name="Path 28" d="M5.9.4H5.5V16.8H18.3V4.2L14.1,0H5.5V.4h.4V.8h7.9l3.7,3.8V16H6.3V.4H5.9v0Z" fill="#d81950"/>
    <path id="Path_29" data-name="Path 29" d="M4.2,9.4v.8H3.6V7.9H5.4a.5.5,0,0,1,.4.3.4.4,0,0,1,.1.3.7.7,0,0,1-.3.6l-.8.2Zm0-.4h1c0-.1.1-.1.1-.2a.4.4,0,0,0-.1-.3h-1Z" fill="#fff"/>
    <path id="Path_30" data-name="Path 30" d="M7,9.4v.8H6.3V7.9H8.1c.2,0,.3.1.4.3a.4.4,0,0,1,.1.3.7.7,0,0,1-.3.6l-.8.2ZM7,9h.9c.1-.1.1-.1.1-.2s0-.3-.1-.3H7Z" fill="#fff"/>
    <path id="Path_31" data-name="Path 31" d="M11.3,8.3h-.9v1.9H9.8V8.3H8.9V7.9h2.4Z" fill="#fff"/>
  </g>
</svg>
