<svg xmlns="http://www.w3.org/2000/svg" width="20" height="20" viewBox="0 0 20 20">
  <path id="Path_9" data-name="Path 9" d="M574,318a10,10,0,1,0,10,10A10,10,0,0,0,574,318Zm4.063,6.562a1.25,1.25,0,1,1-1.25,1.25A1.25,1.25,0,0,1,578.063,324.562Zm-8.125,0a1.25,1.25,0,1,1-1.25,1.25A1.25,1.25,0,0,1,569.938,324.562Zm9.183,6.914-.023.023a6.878,6.878,0,0,1-10.945-1l1.016-.763a5.658,5.658,0,0,0,.744,1.005,5.579,5.579,0,0,0,8.171,0c.033-.035.073-.059.105-.1h0a5.583,5.583,0,0,0,.65-.9l1.007.756A6.851,6.851,0,0,1,579.121,331.476Z" transform="translate(-564 -318)" fill="#38c07c"/>
</svg>
