<svg xmlns="http://www.w3.org/2000/svg" width="22" height="16" viewBox="0 0 22 16">
  <g id="Group_26558" data-name="Group 26558" transform="translate(-392 -2188)">
    <path id="Path_30748" data-name="Path 30748" d="M316,36h-5a1,1,0,0,0-1,1V51a1,1,0,0,0,1,1h10a1,1,0,0,0,1-1V42Z" transform="translate(92 2152)" fill="#0f6eb5"/>
    <path id="Path_30749" data-name="Path 30749" d="M306,51a1.5,1.5,0,0,1-1.062-.439l-4.5-4.5a1.5,1.5,0,0,1,0-2.122l4.5-4.5a1.5,1.5,0,0,1,2.123,0l.706.707a1.5,1.5,0,0,1,0,2.122l-.732.732H312a1.5,1.5,0,0,1,1.5,1.5v1A1.5,1.5,0,0,1,312,47h-4.965l.732.732a1.5,1.5,0,0,1,0,2.122l-.706.707A1.5,1.5,0,0,1,306,51" transform="translate(92 2152)" fill="#fff"/>
    <path id="Path_30750" data-name="Path 30750" d="M301.146,45.354l4.5,4.5a.5.5,0,0,0,.707,0l.707-.707a.5.5,0,0,0,0-.707L304.62,46H312a.5.5,0,0,0,.5-.5v-1a.5.5,0,0,0-.5-.5h-7.379l2.439-2.439a.5.5,0,0,0,0-.707l-.707-.707a.5.5,0,0,0-.707,0l-4.5,4.5a.5.5,0,0,0,0,.707" transform="translate(92 2152)" fill="#0f6eb5"/>
  </g>
</svg>
