<svg xmlns="http://www.w3.org/2000/svg" width="21.11" height="13.555" viewBox="0 0 21.11 13.555">
  <g id="Group_14825" data-name="Group 14825" transform="translate(-28 -612.445)">
    <g id="Group_439" data-name="Group 439" transform="translate(-1691 -434)">
      <g id="Group_438" data-name="Group 438" opacity="0.5">
        <path id="Path_329" data-name="Path 329" d="M1732.684,1050.542a8.2,8.2,0,0,0-2.576.117c-.061-.04-.122-.082-.182-.119a3.75,3.75,0,0,0-.544-.28,1.646,1.646,0,0,0-.529-.126h0c-.272-.022-.535-.032-.778-.032a5.981,5.981,0,0,0-.918.06h0a.683.683,0,0,1-.106.008,1.658,1.658,0,0,1-.734-.232.387.387,0,0,0-.5.114l-2.781,3.834a.389.389,0,0,0-.008.442,1.546,1.546,0,0,1,.168.325,1.914,1.914,0,0,0,.231.433,3.873,3.873,0,0,0,.312.4l.044.042.519.428a.964.964,0,0,1,.875,1.44.737.737,0,0,0,.737.746.5.5,0,1,1,.478.83.732.732,0,0,0,.527.222h0a.736.736,0,0,0,.517-.211l.136-.136a.736.736,0,0,0,1.163.876l.083-.084.11.086.067.05.029.021.042.025a1.518,1.518,0,0,0,.423.149c.06.012.11.021.148.026l.046.006h.085a1.323,1.323,0,0,0,.708-.263,1.18,1.18,0,0,0,.213-.217,1.273,1.273,0,0,0,1.6-.783.4.4,0,0,0,.06-.008,1.194,1.194,0,0,0,.216.022,1.285,1.285,0,0,0,1.2-.834l0,0,.043,0a1.289,1.289,0,0,0,1.29-1.289,2.053,2.053,0,0,0-.1-.644,5.961,5.961,0,0,0,1.335-1.461,5.3,5.3,0,0,1,.514-.735l-2.758-3.8C1733.744,1050.182,1733.061,1050.606,1732.684,1050.542Z" fill="#666"/>
        <path id="Rectangle_270" data-name="Rectangle 270" d="M.277,0H2.314a.278.278,0,0,1,.278.278v6.34a.278.278,0,0,1-.278.278H.277A.277.277,0,0,1,0,6.618V.277A.277.277,0,0,1,.277,0Z" transform="matrix(0.81, -0.587, 0.587, 0.81, 1733.965, 1048.856)" fill="#666"/>
        <path id="Rectangle_271" data-name="Rectangle 271" d="M.277,0h6.34A.278.278,0,0,1,6.9.278V2.314a.278.278,0,0,1-.278.278H.277A.277.277,0,0,1,0,2.314V.277A.277.277,0,0,1,.277,0Z" transform="translate(1719.89 1052.917) rotate(-54.058)" fill="#666"/>
      </g>
      <path id="Path_330" data-name="Path 330" d="M1731.684,1049.542a8.2,8.2,0,0,0-2.576.117c-.061-.04-.122-.082-.182-.119a3.75,3.75,0,0,0-.544-.28,1.646,1.646,0,0,0-.529-.126h0c-.272-.022-.535-.032-.778-.032a5.981,5.981,0,0,0-.918.06h0a.683.683,0,0,1-.106.008,1.658,1.658,0,0,1-.734-.232.387.387,0,0,0-.5.114l-2.781,3.834a.389.389,0,0,0-.008.442,1.546,1.546,0,0,1,.168.325,1.914,1.914,0,0,0,.231.433,3.873,3.873,0,0,0,.312.4l.044.042.519.428a.964.964,0,0,1,.875,1.44.737.737,0,0,0,.737.746.5.5,0,1,1,.478.83.732.732,0,0,0,.527.222h0a.736.736,0,0,0,.517-.211l.136-.136a.736.736,0,0,0,1.163.876l.083-.084.11.086.067.05.029.021.042.025a1.518,1.518,0,0,0,.423.149c.06.012.11.021.148.026l.046.006h.085a1.323,1.323,0,0,0,.708-.263,1.18,1.18,0,0,0,.213-.217,1.273,1.273,0,0,0,1.6-.783.4.4,0,0,0,.06-.008,1.194,1.194,0,0,0,.216.022,1.288,1.288,0,0,0,1.2-.834l0,0,.043,0a1.289,1.289,0,0,0,1.29-1.289,2.053,2.053,0,0,0-.1-.644,5.961,5.961,0,0,0,1.335-1.461,5.219,5.219,0,0,1,.515-.735l-2.759-3.8C1732.744,1049.182,1732.061,1049.606,1731.684,1049.542Z" fill="#ffc86c"/>
      <path id="Path_331" data-name="Path 331" d="M1738.947,1051.692l-3.721-5.132a.277.277,0,0,0-.388-.062l-1.649,1.195a.278.278,0,0,0-.061.388l3.721,5.132a.278.278,0,0,0,.388.062l1.648-1.2A.278.278,0,0,0,1738.947,1051.692Z" fill="#ff5c5c"/>
      <path id="Path_332" data-name="Path 332" d="M1724.811,1047.693l-1.649-1.195a.277.277,0,0,0-.388.062l-3.721,5.132a.278.278,0,0,0,.062.388l1.648,1.2a.278.278,0,0,0,.388-.062l3.721-5.132A.278.278,0,0,0,1724.811,1047.693Z" fill="#00ccaf"/>
      <path id="Path_333" data-name="Path 333" d="M1723.709,1048.266a.463.463,0,1,1-.1-.646A.462.462,0,0,1,1723.709,1048.266Z" fill="#fff"/>
      <path id="Path_334" data-name="Path 334" d="M1737.681,1052.153a.463.463,0,1,1,.1-.647A.464.464,0,0,1,1737.681,1052.153Z" fill="#fff"/>
      <path id="Path_335" data-name="Path 335" d="M1733.333,1055.628a.514.514,0,0,1-.713.476l-.019-.005-.478-.582a.335.335,0,0,0-.508.438l.463.564a.512.512,0,0,1-.838.337l-.459-.559a.335.335,0,1,0-.507.438l.319.4a.376.376,0,0,0,0,.075.539.539,0,0,1,.008.086.516.516,0,0,1-.516.515.5.5,0,0,1-.206-.045l-.559-.588a.336.336,0,0,0-.46.489l.263.308a.41.41,0,0,1-.115.149.546.546,0,0,1-.269.1c-.031-.005-.073-.012-.124-.024a.757.757,0,0,1-.162-.055l-.086-.065-.084-.066a.735.735,0,0,0-.716-.909.731.731,0,0,0-.319.076l0,0,0,0a.736.736,0,0,0-.945-1.124.732.732,0,0,0-.049-.971.736.736,0,0,0-1.044-.01l-.124.123a.736.736,0,0,0-1.159-.882l-.082.083-.167-.137-.374-.309a3.2,3.2,0,0,1-.236-.3,1.187,1.187,0,0,1-.14-.256,2.172,2.172,0,0,0-.113-.258l2.444-3.37a2.082,2.082,0,0,0,.791.179,1.428,1.428,0,0,0,.233-.019h0a5.385,5.385,0,0,1,.789-.049c.222,0,.466.009.715.029h.017a.921.921,0,0,1,.288.074l.028.013c-1.044.471-2.524,1.378-3.01,1.541-.555.185-.6.925.647,1.064a4.5,4.5,0,0,0,2.638-.787,10.024,10.024,0,0,1,2.166.1c.31.306.581.589.778.8l1.54,1.883.007.007a1.957,1.957,0,0,1,.365.574A1.209,1.209,0,0,1,1733.333,1055.628Z" fill="#ffe9c4"/>
    </g>
  </g>
</svg>
