<svg xmlns="http://www.w3.org/2000/svg" width="24" height="24" viewBox="0 0 24 24">
  <g id="アイコン_添付" transform="translate(12 12)">
    <g id="Group_26598" data-name="Group 26598" transform="translate(-12 -12)">
      <circle id="Ellipse_24" data-name="Ellipse 24" cx="12" cy="12" r="12" fill="none"/>
      <path id="Path_30866" data-name="Path 30866" d="M12,4A4,4,0,0,0,8,8v9a3,3,0,0,0,6,0V9a2,2,0,0,0-4,0v8h1V9a1,1,0,0,1,2,0v8a2,2,0,0,1-4,0V8a3,3,0,0,1,6,0v5h1V8A4,4,0,0,0,12,4Z" fill="#999"/>
    </g>
  </g>
</svg>
