<svg xmlns="http://www.w3.org/2000/svg" viewBox="0 0 12 14.9"><defs><style>.cls-1{fill:#ccc;}</style></defs><title>ic-sb-new</title><g id="Layer_2" data-name="Layer 2"><g id="グローバルナビゲーション"><path class="cls-1" d="M2,2.9,4.3,4.4A2.6,2.6,0,0,0,6,4.9a2.6,2.6,0,0,0,1.7-.5L10,2.9v7.2L6,12.7,2,10.1V2.9M11,0l-.6.2L6.6,2.8H5.4L1.6.2,1,0A1,1,0,0,0,0,1v9.6a1.2,1.2,0,0,0,.4.8l5,3.4H6.6l5-3.4a1.2,1.2,0,0,0,.4-.8V1a1,1,0,0,0-1-1"/><path class="cls-1" d="M7.6,14.1l4-2.7a1.2,1.2,0,0,0,.4-.8V1A1,1,0,0,0,10.4.2l-4,2.6a1.3,1.3,0,0,0-.4.9v9.6a1,1,0,0,0,1.6.8"/></g></g></svg>