<svg xmlns="http://www.w3.org/2000/svg" viewBox="0 0 24 24"><defs><style>.cls-1{fill:#ededed;}.cls-2{fill:#0f6db5;}</style></defs><title>Asset 2</title><g id="Layer_2" data-name="Layer 2"><g id="レイヤー_1" data-name="レイヤー 1"><rect class="cls-1" width="24" height="24" rx="8" ry="8"/><path class="cls-2" d="M19.7,8.4H16.9a2,2,0,0,0-3.8,0H4.2L4,8.6v1c0,.1.1.3.2.3h8.9a2.1,2.1,0,0,0,3.8,0h2.8a.3.3,0,0,0,.3-.3v-1C20,8.5,19.9,8.4,19.7,8.4Z"/><path class="cls-2" d="M19.7,14.4H10.9a2,2,0,0,0-3.8,0H4.2l-.2.2v1c0,.1.1.3.2.3H7.1a2.1,2.1,0,0,0,3.8,0h8.8a.3.3,0,0,0,.3-.3v-1C20,14.5,19.9,14.4,19.7,14.4Z"/></g></g></svg>