<svg xmlns="http://www.w3.org/2000/svg" xmlnsXlink="http://www.w3.org/1999/xlink" width={24} height="23.999" viewBox="0 0 24 23.999">
  <defs>
    <clipPath id="clip-path">
      <rect id="Rectangle_143" data-="Rectangle 143" width={24} height="23.999" transform="translate(2440 32.001)" fill="none" />
    </clipPath>
  </defs>
  <g id="Group_110" data-="Group 110" transform="translate(-2440 -32.001)" clipPath="url(#clip-path)">
    <path id="Path_139" data-="Path 139" d="M2447.48,45H2445a1,1,0,0,1-1-1V37a1,1,0,0,1,1-1h2.48a1,1,0,0,1,1,1v7a1,1,0,0,1-1,1" fill="#999" />
    <path id="Path_140" data-="Path 140" d="M2453.24,43h-2.48a1,1,0,0,1-1-1V37a1,1,0,0,1,1-1h2.48a1,1,0,0,1,1,1v5a1,1,0,0,1-1,1" fill="#999" />
    <path id="Path_141" data-="Path 141" d="M2447.48,52H2445a1,1,0,0,1-1-1V48a1,1,0,0,1,1-1h2.48a1,1,0,0,1,1,1v3a1,1,0,0,1-1,1" fill="#999" />
    <path id="Path_142" data-="Path 142" d="M2459,45h-2.48a1,1,0,0,1-1-1V37a1,1,0,0,1,1-1H2459a1,1,0,0,1,1,1v7a1,1,0,0,1-1,1" fill="#999" />
    <path id="Path_143" data-="Path 143" d="M2459,52h-2.48a1,1,0,0,1-1-1V48a1,1,0,0,1,1-1H2459a1,1,0,0,1,1,1v3a1,1,0,0,1-1,1" fill="#999" />
    <path id="Path_144" data-="Path 144" d="M2453.24,52h-2.48a1,1,0,0,1-1-1V46a1,1,0,0,1,1-1h2.48a1,1,0,0,1,1,1v5a1,1,0,0,1-1,1" fill="#999" />
  </g>
</svg>