<svg id="Component_4_4" data-name="Component 4 – 4" xmlns="http://www.w3.org/2000/svg" width="24" height="19" viewBox="0 0 24 19">
  <path id="Path_3624" data-name="Path 3624" d="M45.889,251H33.111A4.989,4.989,0,0,1,28,246.143v-7.286A4.989,4.989,0,0,1,33.111,234H45.889A4.989,4.989,0,0,1,51,238.857v7.286A4.989,4.989,0,0,1,45.889,251" transform="translate(-27 -232)" fill="#0b537f"/>
  <path id="Path_3625" data-name="Path 3625" d="M44.889,249H32.111A4.989,4.989,0,0,1,27,244.143v-7.286A4.989,4.989,0,0,1,32.111,232H44.889A4.989,4.989,0,0,1,50,236.857v7.286A4.989,4.989,0,0,1,44.889,249" transform="translate(-27 -232)" fill="#fff"/>
  <rect id="Rectangle_2806" data-name="Rectangle 2806" width="6" height="1" transform="translate(12.462 7.2)" fill="#666"/>
  <rect id="Rectangle_2807" data-name="Rectangle 2807" width="6" height="1" transform="translate(12.462 4.8)" fill="#666"/>
  <rect id="Rectangle_2808" data-name="Rectangle 2808" width="6" height="2" transform="translate(12.462 9.714)" fill="#666"/>
  <path id="Path_3626" data-name="Path 3626" d="M34,236.5a1.5,1.5,0,1,1-1.5-1.5,1.5,1.5,0,0,1,1.5,1.5" transform="translate(-25.75 -231.308)" fill="#09f"/>
  <path id="Path_3627" data-name="Path 3627" d="M35,242H30v-1a2,2,0,0,1,2-2h1a2,2,0,0,1,2,2Z" transform="translate(-25.929 -230.385)" fill="#09f"/>
</svg>
