<svg xmlns="http://www.w3.org/2000/svg" width="12" height="13" viewBox="0 0 12 13">
  <g id="Group_25964" data-name="Group 25964" transform="translate(-339 -5112)">
    <g id="Rectangle_18379" data-name="Rectangle 18379" transform="translate(339 5112)" fill="#fff" stroke="#999" stroke-width="1">
      <rect width="12" height="13" rx="3" stroke="none"/>
      <rect x="0.5" y="0.5" width="11" height="12" rx="2.5" fill="none"/>
    </g>
    <circle id="Ellipse_165" data-name="Ellipse 165" cx="1" cy="1" r="1" transform="translate(343.938 5120.944)" fill="#e5e5e5" stroke="#999" stroke-width="1"/>
    <path id="Path_31073" data-name="Path 31073" d="M1782.329,5116.094a2.083,2.083,0,0,0-2.33-2.15,3,3,0,0,0-2.289,1.084l-.163.185,1.172,1.069.169-.174a1.292,1.292,0,0,1,.931-.484.532.532,0,0,1,.6.57c0,.3-.257.569-.555.879a2.417,2.417,0,0,0-.9,2.161l.032.213h1.773l-.029-.276c-.065-.6.289-.962.7-1.376A2.358,2.358,0,0,0,1782.329,5116.094Z" transform="translate(-1435 1)" fill="#e5e5e5" stroke="#999" stroke-width="1"/>
  </g>
</svg>
