<svg xmlns="http://www.w3.org/2000/svg" viewBox="0 0 17 21"><defs><style>.cls-1{fill:#999;}.cls-2{fill:#fff;}.cls-3{fill:#ffe4b5;}.cls-4{fill:#ededed;}.cls-5{fill:#bf6017;}</style></defs><title>ic-sbr1</title><g id="Layer_2" data-name="Layer 2"><g id="グローバルツール"><path class="cls-1" d="M13,21H5a4,4,0,0,1-4-4V7A4,4,0,0,1,5,3h8a4,4,0,0,1,4,4V17a4,4,0,0,1-4,4"/><rect class="cls-2" x="1" y="2" width="14" height="16" rx="3"/><path class="cls-3" d="M12,3a2,2,0,0,1,2,2V15a2,2,0,0,1-2,2H4a2,2,0,0,1-2-2V5A2,2,0,0,1,4,3h8m0-2H4A4,4,0,0,0,0,5V15a4,4,0,0,0,4,4h8a4,4,0,0,0,4-4V5a4,4,0,0,0-4-4"/><rect class="cls-4" x="3" y="5" width="10" height="1"/><rect class="cls-4" x="3" y="11" width="10" height="1"/><rect class="cls-4" x="3" y="8" width="10" height="1"/><rect class="cls-4" x="3" y="14" width="10" height="1"/><path class="cls-5" d="M10,2H6V1A.9.9,0,0,1,7,0H9a.9.9,0,0,1,1,1Z"/><path class="cls-5" d="M12,4H4V3A2,2,0,0,1,6,1h4a2,2,0,0,1,2,2Z"/></g></g></svg>