<svg xmlns="http://www.w3.org/2000/svg" xmlns:xlink="http://www.w3.org/1999/xlink" width="18" height="18" viewBox="0 0 18 18">
  <defs>
    <linearGradient id="linear-gradient" x1="0.5" x2="0.5" y2="1" gradientUnits="objectBoundingBox">
      <stop offset="0.044" stop-color="#fff"/>
      <stop offset="0.624" stop-color="#f9f9f9"/>
      <stop offset="1" stop-color="#e5e5e5"/>
    </linearGradient>
    <linearGradient id="linear-gradient-2" x1="0.5" x2="0.5" y2="1" gradientUnits="objectBoundingBox">
      <stop offset="0" stop-color="#00f4ff"/>
      <stop offset="1" stop-color="#009ed4"/>
    </linearGradient>
  </defs>
  <g id="Group_27159" data-name="Group 27159" transform="translate(-3 -3)">
    <g id="Group_15" data-name="Group 15">
      <path id="Path_1" data-name="Path 1" d="M19,21H5.005A2,2,0,0,1,3,19V8H21V19A2,2,0,0,1,19,21Z" fill="url(#linear-gradient)"/>
      <g id="Group_1" data-name="Group 1">
        <path id="Path_2" data-name="Path 2" d="M18,20.5A2.508,2.508,0,0,0,20.5,18v1A1.507,1.507,0,0,1,19,20.5Z" fill="#cae1f4"/>
        <path id="Path_3" data-name="Path 3" d="M21,8H20V18a2,2,0,0,1-2,2H4.005a1.99,1.99,0,0,1-.824-.181A2,2,0,0,0,5.005,21H19a2,2,0,0,0,2-2V8Z" fill="#d4e0f0"/>
      </g>
      <rect id="Rectangle_2" data-name="Rectangle 2" width="18" height="1" transform="translate(3 7)" fill="#6ce3ff"/>
      <g id="Group_3" data-name="Group 3">
        <g id="Group_2" data-name="Group 2">
          <path id="Path_4" data-name="Path 4" d="M19,3H5A2,2,0,0,0,3,5V7H21V5A2,2,0,0,0,19,3ZM6,6A1,1,0,1,1,7,5,1,1,0,0,1,6,6ZM18,6a1,1,0,1,1,1-1A1,1,0,0,1,18,6Z" fill="url(#linear-gradient-2)"/>
        </g>
      </g>
      <g id="Group_14" data-name="Group 14">
        <g id="Group_4" data-name="Group 4">
          <rect id="Rectangle_3" data-name="Rectangle 3" width="1" height="1" transform="translate(12.5 10.5)" fill="#3173b9"/>
          <path id="Path_5" data-name="Path 5" d="M14,10H12v2h2V10Z" fill="#1267a8"/>
        </g>
        <g id="Group_5" data-name="Group 5">
          <rect id="Rectangle_4" data-name="Rectangle 4" width="1" height="1" transform="translate(9.5 10.5)" fill="#3173b9"/>
          <path id="Path_6" data-name="Path 6" d="M11,10H9v2h2V10Z" fill="#1267a8"/>
        </g>
        <g id="Group_6" data-name="Group 6">
          <rect id="Rectangle_5" data-name="Rectangle 5" width="1" height="1" transform="translate(15.5 10.5)" fill="#3173b9"/>
          <path id="Path_7" data-name="Path 7" d="M17,10H15v2h2V10Z" fill="#1267a8"/>
        </g>
        <g id="Group_7" data-name="Group 7">
          <rect id="Rectangle_6" data-name="Rectangle 6" width="1" height="1" transform="translate(6.5 13.5)" fill="#3173b9"/>
          <path id="Path_8" data-name="Path 8" d="M8,13H6v2H8V13Z" fill="#1267a8"/>
        </g>
        <g id="Group_8" data-name="Group 8">
          <rect id="Rectangle_7" data-name="Rectangle 7" width="1" height="1" transform="translate(9.5 13.5)" fill="#3173b9"/>
          <path id="Path_9" data-name="Path 9" d="M11,13H9v2h2V13Z" fill="#1267a8"/>
        </g>
        <rect id="Rectangle_8" data-name="Rectangle 8" width="2" height="2" transform="translate(12 13)" fill="#ff156a"/>
        <g id="Group_9" data-name="Group 9">
          <rect id="Rectangle_9" data-name="Rectangle 9" width="1" height="1" transform="translate(15.5 13.5)" fill="#3173b9"/>
          <path id="Path_10" data-name="Path 10" d="M17,13H15v2h2V13Z" fill="#1267a8"/>
        </g>
        <g id="Group_10" data-name="Group 10">
          <rect id="Rectangle_10" data-name="Rectangle 10" width="1" height="1" transform="translate(6.5 16.5)" fill="#3173b9"/>
          <path id="Path_11" data-name="Path 11" d="M8,16H6v2H8V16Z" fill="#1267a8"/>
        </g>
        <g id="Group_11" data-name="Group 11">
          <rect id="Rectangle_11" data-name="Rectangle 11" width="1" height="1" transform="translate(9.5 16.5)" fill="#3173b9"/>
          <path id="Path_12" data-name="Path 12" d="M11,16H9v2h2V16Z" fill="#1267a8"/>
        </g>
        <g id="Group_12" data-name="Group 12">
          <rect id="Rectangle_12" data-name="Rectangle 12" width="1" height="1" transform="translate(12.5 16.5)" fill="#3173b9"/>
          <path id="Path_13" data-name="Path 13" d="M14,16H12v2h2V16Z" fill="#1267a8"/>
        </g>
        <g id="Group_13" data-name="Group 13">
          <rect id="Rectangle_13" data-name="Rectangle 13" width="1" height="1" transform="translate(15.5 16.5)" fill="#3173b9"/>
          <path id="Path_14" data-name="Path 14" d="M17,16H15v2h2V16Z" fill="#1267a8"/>
        </g>
      </g>
    </g>
  </g>
</svg>
