<svg id="Layer_1" data-name="Layer 1" xmlns="http://www.w3.org/2000/svg" viewBox="0 0 20 17.02"><defs><style>.cls-1{fill:#adc7e7;}.cls-2{fill:#ededee;}.cls-3{fill:#346fad;}.cls-4{fill:#265c9e;}.cls-5{fill:none;stroke:#cc4387;stroke-linecap:round;stroke-miterlimit:10;stroke-width:0.75px;}.cls-6{fill:#48a0b2;}</style></defs><path id="Path_7052" data-name="Path 7052" class="cls-1" d="M19.91,11.57,18.5,14.49H1.43V17H17.66a2.26,2.26,0,0,0,2.25-2.26h0V11.57Z"/><path id="Path_7053" data-name="Path 7053" class="cls-2" d="M16.54,15.74H1.62V.1H16.55a3.35,3.35,0,0,1,3.36,3.35h0v8.9a3.37,3.37,0,0,1-3.36,3.38h0"/><path id="Path_7054" data-name="Path 7054" class="cls-3" d="M12,4.61h5A.57.57,0,0,0,17.43,4a.59.59,0,0,0-.49-.49H12a.57.57,0,0,0,0,1.13"/><path id="Path_7055" data-name="Path 7055" class="cls-4" d="M16.94,3.48H12a.58.58,0,0,0-.49.64.59.59,0,0,0,.49.49h5a.57.57,0,0,0,0-1.13"/><path id="Path_7056" data-name="Path 7056" class="cls-3" d="M16.94,9.1H12a.58.58,0,0,0-.49.64.59.59,0,0,0,.49.49h5a.57.57,0,0,0,0-1.13"/><path id="Path_7057" data-name="Path 7057" class="cls-4" d="M16.94,9.1H12a.57.57,0,0,0,0,1.13h5a.56.56,0,0,0,.49-.63.57.57,0,0,0-.49-.5"/><path id="Path_7058" data-name="Path 7058" class="cls-3" d="M16.94,6.29H12a.57.57,0,0,0-.49.64.59.59,0,0,0,.49.49h5a.57.57,0,0,0,0-1.13"/><path id="Path_7059" data-name="Path 7059" class="cls-4" d="M16.94,6.29H12a.57.57,0,0,0-.49.64.59.59,0,0,0,.49.49h5a.57.57,0,0,0,0-1.13"/><path id="Path_7060" data-name="Path 7060" class="cls-3" d="M16.94,11.91H12a.58.58,0,0,0-.49.64A.59.59,0,0,0,12,13h5a.57.57,0,0,0,0-1.13"/><path id="Path_7061" data-name="Path 7061" class="cls-4" d="M16.94,11.91H12a.58.58,0,0,0-.49.64A.59.59,0,0,0,12,13h5a.57.57,0,0,0,0-1.13"/><path id="Path_7062" data-name="Path 7062" class="cls-5" d="M6.69,4.54l1,1,2-2"/><path id="Path_7063" data-name="Path 7063" class="cls-5" d="M6.69,7.92l1,1,2-2"/><path id="Path_7064" data-name="Path 7064" class="cls-5" d="M6.69,11.29l1,1,2-2"/><path id="Path_7065" data-name="Path 7065" class="cls-6" d="M2.33,17H1.74A1.65,1.65,0,0,1,.08,15.32V1.77A1.65,1.65,0,0,1,1.74.12h.59Z"/><path id="Path_7066" data-name="Path 7066" class="cls-6" d="M2.92,12.48H.08V4.61H2.93A1.65,1.65,0,0,1,4.58,6.26v4.56a1.65,1.65,0,0,1-1.65,1.65"/></svg>