<svg xmlns="http://www.w3.org/2000/svg" viewBox="0 0 19 20"><defs><style>.cls-1{fill:#0b537f;}.cls-2{fill:#fff;}.cls-3{fill:#ccc;}.cls-4{fill:#999;}.cls-5{fill:#333;}</style></defs><title>ic-sb13</title><g id="Layer_2" data-name="Layer 2"><g id="グローバルナビゲーション"><path class="cls-1" d="M19,11a9,9,0,1,1-9-9,9,9,0,0,1,9,9"/><path class="cls-2" d="M9,17.5A8.5,8.5,0,1,1,17.5,9,8.5,8.5,0,0,1,9,17.5"/><path class="cls-3" d="M9,1A8,8,0,1,1,1,9,8,8,0,0,1,9,1M9,0a9,9,0,1,0,9,9A9,9,0,0,0,9,0"/><rect class="cls-4" x="8" y="4" width="2" height="6"/><rect class="cls-5" x="8" y="8" width="5" height="2"/></g></g></svg>