<svg xmlns="http://www.w3.org/2000/svg" viewBox="0 0 19 20"><defs><style>.cls-1{fill:#0b537f;}.cls-2{fill:#fff;}.cls-3{fill:#00a148;}.cls-4{fill:#f66;}.cls-5{fill:#09f;}.cls-6{fill:#c0c;}.cls-7{fill:#999;}</style></defs><title>ic-sb11</title><g id="Layer_2" data-name="Layer 2"><g id="グローバルナビゲーション"><path class="cls-1" d="M15,20H5a4,4,0,0,1-4-4V6A4,4,0,0,1,5,2H15a4,4,0,0,1,4,4V16a4,4,0,0,1-4,4"/><path class="cls-2" d="M14,18H4a4,4,0,0,1-4-4V4A4,4,0,0,1,4,0H14a4,4,0,0,1,4,4V14a4,4,0,0,1-4,4"/><rect class="cls-3" x="3.5" y="7.5" width="2" height="4"/><rect class="cls-4" x="6.5" y="8.5" width="2" height="3"/><rect class="cls-5" x="9.3" y="3.3" width="2.5" height="8.5"/><path class="cls-2" d="M11.5,11.5h-2v-8h2ZM12,3H9v9h3V3Z"/><rect class="cls-6" x="12.5" y="5.5" width="2" height="6"/><rect class="cls-7" x="2" y="13.5" width="14" height="1"/></g></g></svg>