<svg xmlns="http://www.w3.org/2000/svg" viewBox="0 0 20 20"><defs><style>.cls-1{fill:#0b537f;}.cls-2{fill:#fff;}.cls-3{fill:#f5a500;}.cls-4{fill:none;stroke:#999;stroke-miterlimit:10;}.cls-5{fill:#00a148;}</style></defs><title>ic-sb12</title><g id="Layer_2" data-name="Layer 2"><g id="グローバルナビゲーション"><path class="cls-1" d="M16,20H6a4,4,0,0,1-4-4V6A4,4,0,0,1,6,2H16a4,4,0,0,1,4,4V16a4,4,0,0,1-4,4"/><path class="cls-2" d="M14,18H4a4,4,0,0,1-4-4V4A4,4,0,0,1,4,0H14a4,4,0,0,1,4,4V14a4,4,0,0,1-4,4"/><rect class="cls-3" x="13" y="4" width="2" height="2"/><rect class="cls-3" x="13" y="8" width="2" height="2"/><rect class="cls-3" x="13" y="12" width="2" height="2"/><line class="cls-4" x1="5" y1="9" x2="13" y2="9"/><polyline class="cls-4" points="13 13 9 13 9 5 13 5"/><rect class="cls-5" x="3" y="7.5" width="3" height="3"/></g></g></svg>