<svg xmlns="http://www.w3.org/2000/svg" viewBox="0 0 14.7 14.7"><defs><style>.cls-1{fill:#999;}</style></defs><title>Asset 1</title><g id="Layer_2" data-name="Layer 2"><g id="Layer_1-2" data-name="Layer 1"><path class="cls-1" d="M10.1.5A7.6,7.6,0,0,1,12.4,2l1.1-1c.1-.2.3-.2.5-.2s.4,0,.5.2.2.3.2.5v4a.6.6,0,0,1-.2.5l-.5.2H10L9.5,6c-.1-.2-.2-.3-.2-.5A.8.8,0,0,1,9.5,5l1.3-1.3-1.6-1a5.7,5.7,0,0,0-1.8-.3A5.4,5.4,0,0,0,4.9,3,4.7,4.7,0,0,0,3.1,4.9a4.3,4.3,0,0,0-.7,2.5A5.4,5.4,0,0,0,3,9.9a6.6,6.6,0,0,0,1.9,1.8,5.2,5.2,0,0,0,2.5.7A4.7,4.7,0,0,0,9.1,12a5.1,5.1,0,0,0,1.6-.9h.4l1.2,1.2a.4.4,0,0,1,.1.3c0,.1,0,.2-.1.2A6.8,6.8,0,0,1,10,14.2a5.8,5.8,0,0,1-2.6.5,6.6,6.6,0,0,1-3.7-1A7,7,0,0,1,1,11,6.5,6.5,0,0,1,0,7.4,6.6,6.6,0,0,1,1,3.7,8.7,8.7,0,0,1,3.7,1,6.6,6.6,0,0,1,7.4,0,8.1,8.1,0,0,1,10.1.5Z"/></g></g></svg>