<svg id="Component_3_2" data-name="Component 3 – 2" xmlns="http://www.w3.org/2000/svg" width="20" height="20" viewBox="0 0 20 20">
  <path id="Path_3618" data-name="Path 3618" d="M46.286,192H32.714c-1.5,0-2.714.9-2.714,2v11c0,1.1,1.216,2,2.714,2h9.5l4.071,3v-3c1.5,0,2.714-.9,2.714-2V194c0-1.1-1.216-2-2.714-2" transform="translate(-29 -190)" fill="#0b537f"/>
  <path id="Path_3619" data-name="Path 3619" d="M45.286,190H31.714c-1.5,0-2.714.9-2.714,2v11c0,1.1,1.216,2,2.714,2h9.5l4.071,3v-3c1.5,0,2.714-.9,2.714-2V192c0-1.1-1.216-2-2.714-2" transform="translate(-29 -190)" fill="#f7f9f8"/>
  <path id="Path_3620" data-name="Path 3620" d="M33,193a1,1,0,1,1-1-1,1,1,0,0,1,1,1" transform="translate(-29 -190)" fill="#00ccaf"/>
  <path id="Path_3621" data-name="Path 3621" d="M33,196a1,1,0,1,1-1-1,1,1,0,0,1,1,1" transform="translate(-29 -190)" fill="#09f"/>
  <path id="Path_3622" data-name="Path 3622" d="M33,199a1,1,0,1,1-1-1,1,1,0,0,1,1,1" transform="translate(-29 -190)" fill="#c0c"/>
  <rect id="Rectangle_2802" data-name="Rectangle 2802" width="7" height="1" transform="translate(8.125 2.5)" fill="#666"/>
  <rect id="Rectangle_2803" data-name="Rectangle 2803" width="4" height="1" transform="translate(7.273 5.5)" fill="#666"/>
  <rect id="Rectangle_2804" data-name="Rectangle 2804" width="5" height="1" transform="translate(7.5 8.5)" fill="#666"/>
  <path id="Path_3623" data-name="Path 3623" d="M33,202a1,1,0,1,1-1-1,1,1,0,0,1,1,1" transform="translate(-29 -190)" fill="#f60"/>
  <rect id="Rectangle_2805" data-name="Rectangle 2805" width="3" height="1" transform="translate(7.083 11.5)" fill="#666"/>
</svg>
