<svg id="Component_14_2" data-name="Component 14 – 2" xmlns="http://www.w3.org/2000/svg" width="20" height="20" viewBox="0 0 20 20">
  <path id="Path_3633" data-name="Path 3633" d="M45.625,634H32.563L29,636.571v12.857A2.48,2.48,0,0,0,31.375,652h14.25A2.48,2.48,0,0,0,48,649.429V636.571Z" transform="translate(-28 -632)" fill="#0b537f"/>
  <path id="Path_3634" data-name="Path 3634" d="M44.625,650H30.375A2.534,2.534,0,0,1,28,647.333V634H47v13.333A2.534,2.534,0,0,1,44.625,650" transform="translate(-28 -632)" fill="#ffc86c"/>
  <path id="Path_3635" data-name="Path 3635" d="M47,634H28l4.75-2H43.438Z" transform="translate(-28 -632)" fill="#bf7d06"/>
  <path id="Path_3636" data-name="Path 3636" d="M38,641l-1-.571L36,641l-1-.571L34,641v-7h4Z" transform="translate(-26.615 -632)" fill="#ff5c5c"/>
  <path id="Path_3637" data-name="Path 3637" d="M38,634H34l1-2h2Z" transform="translate(-26.615 -632)" fill="#8c1515"/>
  <rect id="Rectangle_2817" data-name="Rectangle 2817" width="1.895" height="1" transform="translate(2.08 14.364)" fill="#999"/>
  <rect id="Rectangle_2818" data-name="Rectangle 2818" width="1.895" height="1" transform="translate(5.962 14.364)" fill="#999"/>
</svg>
