<svg id="Component_9_2" data-name="Component 9 – 2" xmlns="http://www.w3.org/2000/svg" width="20" height="20" viewBox="0 0 20 20">
  <path id="Path_3587" data-name="Path 3587" d="M45.917,438.2a3.231,3.231,0,0,0,.027-.338,2.376,2.376,0,0,0-2.111-2.571H37.5A1.188,1.188,0,0,0,36.444,434H30.111a1.188,1.188,0,0,0-1.056,1.286v2.929A2.7,2.7,0,0,0,28,440.429v9A2.376,2.376,0,0,0,30.111,452H44.889A2.375,2.375,0,0,0,47,449.429v-9a2.691,2.691,0,0,0-1.083-2.233" transform="translate(-27 -432)" fill="#0b537f"/>
  <path id="Path_3588" data-name="Path 3588" d="M42.875,433H36.5a1.032,1.032,0,0,0-1.062-1H29.063A1.032,1.032,0,0,0,28,433v4H42.875a2,2,0,1,0,0-4" transform="translate(-27 -432)" fill="#04997c"/>
  <path id="Path_3589" data-name="Path 3589" d="M43.889,450H29.111C27.946,450,27,448.778,27,447.273v-9.545c0-1.505.946-2.727,2.111-2.727H43.889c1.165,0,2.111,1.222,2.111,2.727v9.545c0,1.505-.946,2.727-2.111,2.727" transform="translate(-27 -432)" fill="#00ccaf"/>
</svg>
