<svg xmlns="http://www.w3.org/2000/svg" viewBox="0 0 19 20"><defs><style>.cls-1{fill:#0b537f;}.cls-2{fill:#fff;}.cls-3{fill:#09f;}</style></defs><title>ic-sb9</title><g id="Layer_2" data-name="Layer 2"><g id="グローバルナビゲーション"><path class="cls-1" d="M10,20h0a9,9,0,1,1,9-9,9,9,0,0,1-9,9"/><path class="cls-2" d="M9,18H9a9,9,0,1,1,9-9,9,9,0,0,1-9,9"/><path class="cls-3" d="M7,6.5A1.5,1.5,0,0,1,5.5,8,1.5,1.5,0,0,1,4,6.5,1.5,1.5,0,0,1,5.5,5,1.5,1.5,0,0,1,7,6.5"/><path class="cls-3" d="M8.2,12H3V11A2,2,0,0,1,5,9H6.2a2,2,0,0,1,2,2Z"/><path class="cls-3" d="M14,6.5a1.5,1.5,0,0,1-3,0,1.5,1.5,0,0,1,3,0"/><path class="cls-3" d="M15,12H9.8V11a2,2,0,0,1,2-2H13a2,2,0,0,1,2,2Z"/><path class="cls-3" d="M9,8.3A2.3,2.3,0,0,1,6.8,6,2.2,2.2,0,0,1,9,3.8,2.3,2.3,0,0,1,11.3,6,2.4,2.4,0,0,1,9,8.3"/><path class="cls-2" d="M9,4A2,2,0,1,1,7,6,2,2,0,0,1,9,4m0-.5A2.5,2.5,0,1,0,11.5,6,2.5,2.5,0,0,0,9,3.5"/><path class="cls-3" d="M5.8,13.3V11A2.2,2.2,0,0,1,8,8.8h2A2.3,2.3,0,0,1,12.3,11v2.3Z"/><path class="cls-2" d="M10,9a2,2,0,0,1,2,2v2H6V11A2,2,0,0,1,8,9h2m0-.5H8A2.5,2.5,0,0,0,5.5,11v2.5h7V11A2.5,2.5,0,0,0,10,8.5"/></g></g></svg>