<svg xmlns="http://www.w3.org/2000/svg" viewBox="0 0 19 16"><defs><style>.cls-1{fill:#0b537f;}.cls-2{fill:#fff;}.cls-3{fill:#f66;}</style></defs><title>ic-sb8</title><g id="Layer_2" data-name="Layer 2"><g id="グローバルナビゲーション"><path class="cls-1" d="M15,16H5a4,4,0,0,1-4-4V6A4,4,0,0,1,5,2H15a4,4,0,0,1,4,4v6a4,4,0,0,1-4,4"/><path class="cls-2" d="M14,14H4a4,4,0,0,1-4-4V4A4,4,0,0,1,4,0H14a4,4,0,0,1,4,4v6a4,4,0,0,1-4,4"/><path class="cls-3" d="M7.4,5.5A1.5,1.5,0,0,1,5.9,7,1.5,1.5,0,0,1,4.4,5.5,1.5,1.5,0,0,1,5.9,4,1.5,1.5,0,0,1,7.4,5.5"/><path class="cls-3" d="M8.4,11h-5V10a2,2,0,0,1,2-2h1a2,2,0,0,1,2,2Z"/><path class="cls-3" d="M11,10a1,1,0,0,1,2,0,1,1,0,0,1-2,0"/><path class="cls-3" d="M12.8,5a.8.8,0,0,0-.9-.8,1.6,1.6,0,0,0-1.1.5L10,4a2.7,2.7,0,0,1,2.1-1,1.8,1.8,0,0,1,2.1,1.9c0,1.4-1.8,1.7-1.6,3.1H11.3c-.2-1.6,1.5-2,1.5-3"/></g></g></svg>