<svg id="Component_13_2" data-name="Component 13 – 2" xmlns="http://www.w3.org/2000/svg" xmlns:xlink="http://www.w3.org/1999/xlink" width="20" height="20" viewBox="0 0 20 20">
  <defs>
    <clipPath id="clip-path">
      <rect id="Rectangle_2788" data-name="Rectangle 2788" width="19" height="18" rx="2" fill="none"/>
    </clipPath>
  </defs>
  <path id="Path_3601" data-name="Path 3601" d="M44.889,613H30.111C28.946,613,28,611.656,28,610V598c0-1.656.946-3,2.111-3H44.889c1.165,0,2.111,1.344,2.111,3v12c0,1.656-.946,3-2.111,3" transform="translate(-27 -593)" fill="#0b537f"/>
  <path id="Path_3602" data-name="Path 3602" d="M43.889,611H29.111C27.946,611,27,609.656,27,608V596c0-1.656.946-3,2.111-3H43.889c1.165,0,2.111,1.344,2.111,3v12c0,1.656-.946,3-2.111,3" transform="translate(-27 -593)" fill="#fff"/>
  <g id="Group_2363" data-name="Group 2363" clip-path="url(#clip-path)">
    <path id="Path_3603" data-name="Path 3603" d="M46,609l-9.5-12L27,609" transform="translate(-27 -591)" fill="none" stroke="#ccc" stroke-linecap="round" stroke-linejoin="round" stroke-width="1"/>
    <path id="Path_3604" data-name="Path 3604" d="M27,593l9.5,12L46,593Z" transform="translate(-27 -593)" fill="#fff"/>
    <path id="Path_3605" data-name="Path 3605" d="M27,593l9.5,12L46,593" transform="translate(-27 -593)" fill="none" stroke="#ccc" stroke-miterlimit="10" stroke-width="1"/>
  </g>
</svg>
