<svg xmlns="http://www.w3.org/2000/svg" width="14.441" height="15.993" viewBox="0 0 14.441 15.993">
  <path id="strikethrough" d="M14.441,22.21H7.279c-2.232-.445-3.6-.831-3.6-2.817,0-2.081,1.907-2.82,3.54-2.82,1.747,0,3.06.766,3.427,2l1.216-.536a3.983,3.983,0,0,0-1.8-2.314A5.525,5.525,0,0,0,7.221,15c-2.891,0-4.833,1.765-4.833,4.393a3.972,3.972,0,0,0,.974,2.817H0v1.573H7.173c2.226.445,3.588.832,3.588,2.817,0,2.081-1.907,2.82-3.54,2.82-1.747,0-3.061-.766-3.427-2l-1.216.535a3.983,3.983,0,0,0,1.8,2.315,5.524,5.524,0,0,0,2.84.722c2.891,0,4.833-1.765,4.833-4.393a3.975,3.975,0,0,0-.973-2.817h3.36Z" transform="translate(0 -15)" fill="#0d6db5"/>
</svg>
