<svg xmlns="http://www.w3.org/2000/svg" width="16" height="15.267" viewBox="0 0 16 15.267">
  <path id="Path_1901" data-name="Path 1901" d="M7168,1632.632a.51.51,0,0,0-.5-.469h-5.363l-.668-2.056-.989-3.045a.5.5,0,0,0-.191-.26.514.514,0,0,0-.572,0,.5.5,0,0,0-.191.26l-.989,3.045-.668,2.056H7152.5a.5.5,0,0,0-.5.494.489.489,0,0,0,.208.413l4.339,3.152-1,3.068-.661,2.033a.493.493,0,0,0-.015.226.376.376,0,0,0,.009.048.488.488,0,0,0,.084.185l.009.009a.5.5,0,0,0,.148.12.343.343,0,0,0,.042.022.489.489,0,0,0,.2.047l.006,0a.5.5,0,0,0,.093-.015c.017,0,.034,0,.051-.008a.521.521,0,0,0,.149-.076l4.339-3.152,4.339,3.152a.521.521,0,0,0,.149.076c.017.005.034,0,.052.008a.49.49,0,0,0,.092.015l.006,0a.489.489,0,0,0,.2-.047.343.343,0,0,0,.042-.022.488.488,0,0,0,.147-.12l.01-.009a.488.488,0,0,0,.084-.185.376.376,0,0,0,.009-.048.493.493,0,0,0-.015-.226l-.661-2.033-1-3.068,4.339-3.152a.489.489,0,0,0,.208-.413A.232.232,0,0,0,7168,1632.632Z" transform="translate(-7152 -1626.715)" fill="#ffba46"/>
</svg>
