<svg xmlns="http://www.w3.org/2000/svg" viewBox="0 0 19 16"><defs><style>.cls-1{fill:#0b537f;}.cls-2{fill:#fff;}.cls-3{fill:#666;}.cls-4{fill:#09f;}</style></defs><title>ic-sb5</title><g id="Layer_2" data-name="Layer 2"><g id="グローバルナビゲーション"><path class="cls-1" d="M15,16H5a4,4,0,0,1-4-4V6A4,4,0,0,1,5,2H15a4,4,0,0,1,4,4v6a4,4,0,0,1-4,4"/><path class="cls-2" d="M14,14H4a4,4,0,0,1-4-4V4A4,4,0,0,1,4,0H14a4,4,0,0,1,4,4v6a4,4,0,0,1-4,4"/><rect class="cls-3" x="9" y="6" width="6" height="1"/><rect class="cls-3" x="9" y="4" width="6" height="1"/><rect class="cls-3" x="9" y="8" width="6" height="2"/><path class="cls-4" d="M7,4.5A1.5,1.5,0,0,1,5.5,6,1.5,1.5,0,0,1,4,4.5,1.5,1.5,0,0,1,5.5,3,1.5,1.5,0,0,1,7,4.5"/><path class="cls-4" d="M8,10H3V9A2,2,0,0,1,5,7H6A2,2,0,0,1,8,9Z"/></g></g></svg>