<svg xmlns="http://www.w3.org/2000/svg" viewBox="0 0 19 19"><defs><style>.cls-1{fill:#0b537f;}.cls-2{fill:#00ccaf;}.cls-3{fill:#f66;}.cls-4{fill:#fff;}.cls-5{fill:none;stroke:#fff;stroke-linecap:round;stroke-linejoin:round;}.cls-6{fill:#f5a500;}.cls-7{fill:#c0c;}</style></defs><title>ic-sb2</title><g id="Layer_2" data-name="Layer 2"><g id="グローバルナビゲーション"><rect class="cls-1" x="11" y="11" width="8" height="8"/><rect class="cls-1" x="11" y="1" width="8" height="8"/><path class="cls-1" d="M9,5A4,4,0,1,1,5,1,4,4,0,0,1,9,5"/><rect class="cls-2" x="10" width="8" height="8"/><rect class="cls-3" x="10" y="10" width="8" height="8"/><rect class="cls-4" x="15.5" y="11" width="1" height="6"/><rect class="cls-4" x="13.5" y="12" width="1" height="5"/><rect class="cls-4" x="11.5" y="13" width="1" height="4"/><polyline class="cls-5" points="12 6 12.9 2.9 14.3 4.5 15.4 2 16.4 3.1"/><path class="cls-6" d="M4,0V4H0A4,4,0,1,0,4,0"/><rect class="cls-1" x="1" y="11" width="8" height="8"/><rect class="cls-7" y="10" width="8" height="8"/><rect class="cls-4" x="1" y="15.5" width="6" height="1"/><rect class="cls-4" x="1" y="13.5" width="5" height="1"/><rect class="cls-4" x="1" y="11.5" width="4" height="1"/><path class="cls-4" d="M4,0A4,4,0,0,0,0,4H4Z"/></g></g></svg>