<svg xmlns="http://www.w3.org/2000/svg" viewBox="0 0 19 16.4"><defs><style>.cls-1{fill:#0b537f;}.cls-2{fill:#fff;}.cls-3{fill:#0f6eb5;}.cls-4{fill:#ccc;}.cls-5{fill:#666;}.cls-6{fill:#09f;}</style></defs><title>ic-sb7</title><g id="Layer_2" data-name="Layer 2"><g id="グローバルナビゲーション"><path class="cls-1" d="M17,16.4H3a2,2,0,0,1-2-2v-9H19v9a2,2,0,0,1-2,2"/><path class="cls-2" d="M16,14.4H2a2,2,0,0,1-2-2v-9H18v9a2,2,0,0,1-2,2"/><rect class="cls-3" x="7" y="2" width="4" height="2"/><path class="cls-4" d="M16,10.4H2a2,2,0,0,1-2-2v-5H18v5a2,2,0,0,1-2,2"/><path class="cls-5" d="M11,0H7A2,2,0,0,0,5,2V5A.9.9,0,0,0,6,6,.9.9,0,0,0,7,5V2h4V5a1,1,0,0,0,2,0V2a2,2,0,0,0-2-2"/><rect class="cls-6" x="7.8" y="8.8" width="2.5" height="4.5"/><path class="cls-2" d="M10,13H8V9h2Zm.5-4.5h-3v5h3v-5Z"/></g></g></svg>