<svg xmlns="http://www.w3.org/2000/svg" viewBox="0 0 15.6 10"><defs><style>.cls-1{fill:#999;}</style></defs><title>ic-tool4</title><g id="Layer_2" data-name="Layer 2"><g id="モーダルヘッダー_モーダルツール"><path class="cls-1" d="M7.8,1c3.5,0,5.9,2.8,6.8,4-.9,1.2-3.3,4-6.8,4S1.9,6.2,1,5c.9-1.2,3.3-4,6.8-4m0-1C3.9,0,1.2,3.1.2,4.4a.9.9,0,0,0,0,1.2C1.2,6.9,3.9,10,7.8,10s6.6-3.1,7.6-4.4a1.3,1.3,0,0,0,0-1.2C14.4,3.1,11.7,0,7.8,0"/><path class="cls-1" d="M7.8,2a2.9,2.9,0,0,0-3,3,2.9,2.9,0,0,0,3,3,3,3,0,1,0,0-6m1,3a.9.9,0,0,1-1-1,.9.9,0,0,1,1-1,1,1,0,0,1,0,2"/></g></g></svg>