<svg id="Layer_1" data-name="Layer 1" xmlns="http://www.w3.org/2000/svg" viewBox="0 0 15.5 16"><defs><style>.cls-1{fill:#0d6db5;}</style></defs><title>ic-tool-user</title><g id="Layer_2" data-name="Layer 2"><g id="モーダルヘッダー_モーダルツール" data-name="モーダルヘッダー モーダルツール"><path class="cls-1" d="M15.3,8.4h-2V8.2L13.1,8h-.4c-.2,0-.3.1-.3.2v.2H10.5c-.2,0-.2.1-.2.2v.5c0,.1,0,.2.2.2h.2v5.3a.4.4,0,0,0,.4.4h3.5c.2,0,.5-.2.5-.4V9.3h.2a.2.2,0,0,0,.2-.2V8.6l-.2-.2M12,14.1h-.4V10.2H12Zm1.1,0h-.4V10.2h.4Zm1.1,0h-.4V10.2h.4Z"/><path class="cls-1" d="M5.7,6.9A3.5,3.5,0,0,0,9.1,3.4a3.4,3.4,0,0,0-6.8,0A3.5,3.5,0,0,0,5.7,6.9"/><path class="cls-1" d="M7.4,9.1H4.6A4.7,4.7,0,0,0,0,13.7V16H9.7V9.8a4.8,4.8,0,0,0-2.3-.7"/></g></g></svg>