<svg id="Layer_1" data-name="Layer 1" xmlns="http://www.w3.org/2000/svg" viewBox="0 0 16 16"><defs><style>.cls-1{fill:#0d6db5;}</style></defs><title>ic-tool-edit-blue</title><g id="Layer_2" data-name="Layer 2"><g id="モーダルヘッダー_モーダルツール" data-name="モーダルヘッダー モーダルツール"><path class="cls-1" d="M14.3,8.1,8.4,14,8,15.8l.2.2,1.8-.4,5.9-5.9a.4.4,0,0,0,.1-.3L14.6,8h-.3" transform="translate(0 0)"/><path class="cls-1" d="M9,0H1A.9.9,0,0,0,0,.8V11a.9.9,0,0,0,.8,1H9a.9.9,0,0,0,1-.8V1a.9.9,0,0,0-.8-1H9M7.5,9h-5a.5.5,0,0,1,0-1h5a.5.5,0,0,1,0,1m0-2.5h-5a.5.5,0,0,1,0-1h5a.5.5,0,0,1,0,1M7.5,4h-5A.5.5,0,0,1,2,3.5.5.5,0,0,1,2.5,3h5a.5.5,0,0,1,.5.5.5.5,0,0,1-.5.5" transform="translate(0 0)"/></g></g></svg>