<svg xmlns="http://www.w3.org/2000/svg" width="15" height="20" viewBox="0 0 15 20">
  <g id="Group_934" data-name="Group 934" transform="translate(-4763 -2558.097)">
    <path id="Path_2999" data-name="Path 2999" d="M42,189H32a2,2,0,0,0-2,2v11a2,2,0,0,0,2,2h7l3,3v-3a2,2,0,0,0,2-2V191a2,2,0,0,0-2-2" transform="translate(4734 2371.097)" fill="#0b537f"/>
    <path id="Path_3000" data-name="Path 3000" d="M41,187H31a2,2,0,0,0-2,2v11a2,2,0,0,0,2,2h7l3,3v-3a2,2,0,0,0,2-2V189a2,2,0,0,0-2-2" transform="translate(4734 2371.097)" fill="#f7f9f8"/>
    <path id="Path_3001" data-name="Path 3001" d="M33,190a1,1,0,1,1-1-1,1,1,0,0,1,1,1" transform="translate(4734 2371.097)" fill="#00ccaf"/>
    <path id="Path_3002" data-name="Path 3002" d="M33,193a1,1,0,1,1-1-1,1,1,0,0,1,1,1" transform="translate(4734 2371.097)" fill="#09f"/>
    <path id="Path_3003" data-name="Path 3003" d="M33,196a1,1,0,1,1-1-1,1,1,0,0,1,1,1" transform="translate(4734 2371.097)" fill="#c0c"/>
    <rect id="Rectangle_624" data-name="Rectangle 624" width="7" height="1" transform="translate(4768 2560.597)" fill="#666"/>
    <rect id="Rectangle_625" data-name="Rectangle 625" width="4" height="1" transform="translate(4768 2563.597)" fill="#666"/>
    <rect id="Rectangle_626" data-name="Rectangle 626" width="5" height="1" transform="translate(4768 2566.597)" fill="#666"/>
    <path id="Path_3004" data-name="Path 3004" d="M33,199a1,1,0,1,1-1-1,1,1,0,0,1,1,1" transform="translate(4734 2371.097)" fill="#f60"/>
    <rect id="Rectangle_627" data-name="Rectangle 627" width="3" height="1" transform="translate(4768 2569.597)" fill="#666"/>
  </g>
</svg>
