<svg xmlns="http://www.w3.org/2000/svg" viewBox="0 0 16 16"><defs><style>.cls-1{fill:#999;}</style></defs><title>ic-tool5</title><g id="Layer_2" data-name="Layer 2"><g id="モーダルヘッダー_モーダルツール"><path class="cls-1" d="M14.3,8.1,8.4,14,8,15.8l.2.2,1.8-.4,5.9-5.9a.4.4,0,0,0,.1-.3L14.6,8h-.3"/><path class="cls-1" d="M9,0H1A.9.9,0,0,0,0,1V11a.9.9,0,0,0,1,1H9a.9.9,0,0,0,1-1V1A.9.9,0,0,0,9,0M7.5,9h-5a.5.5,0,0,1,0-1h5a.5.5,0,0,1,0,1m0-2.5h-5a.5.5,0,0,1,0-1h5a.5.5,0,0,1,0,1M7.5,4h-5A.5.5,0,0,1,2,3.5.5.5,0,0,1,2.5,3h5a.5.5,0,0,1,.5.5.5.5,0,0,1-.5.5"/></g></g></svg>