<svg xmlns="http://www.w3.org/2000/svg" width="60" height="60" viewBox="0 0 60 60">
  <g id="Group_804" data-name="Group 804" transform="translate(-168 -2676)">
    <circle id="Ellipse_13" data-name="Ellipse 13" cx="30" cy="30" r="30" transform="translate(168 2676)" fill="#77bdd1"/>
    <g id="Group_803" data-name="Group 803">
      <path id="Path_663" data-name="Path 663" d="M187.849,2703.4c.182,2.245-.229,4.09-3.528,3.051a5.705,5.705,0,0,0,5.38,5.941,4.8,4.8,0,0,0,4.5-2.422,5.6,5.6,0,0,0,.883-3.356V2703.4Z" fill="#3e3a39" fill-rule="evenodd"/>
      <rect id="Rectangle_568" data-name="Rectangle 568" width="9.89" height="14.505" transform="translate(192.08 2708.843)" fill="#f3c797"/>
      <rect id="Rectangle_569" data-name="Rectangle 569" width="19.166" height="28.212" rx="6.593" transform="translate(191.083 2688.312)" fill="#f3c797"/>
      <path id="Path_664" data-name="Path 664" d="M197.677,2688.312h5.865v14.676l2.523,2.225a.926.926,0,0,1-.1,1.46l-2.427,1.628v8.223h-5.865a6.613,6.613,0,0,1-6.594-6.593v-2.34a2.5,2.5,0,0,1-.782.22c-1.825.207-3.663-1.532-4.1-3.885s.68-4.428,2.505-4.635a3.166,3.166,0,0,1,2.382.814v-5.2A6.613,6.613,0,0,1,197.677,2688.312Z" fill="#fbe2c4" fill-rule="evenodd"/>
      <path id="Path_665" data-name="Path 665" d="M194.583,2685.688c4.2,0,13.154,3.485,10.634-4.5a8.41,8.41,0,0,1,8.763,7.926,7.071,7.071,0,0,1-3.569,6.643,8.265,8.265,0,0,1-4.946,1.3h-7.222a4.177,4.177,0,0,1-2.5-.829,3.583,3.583,0,0,0-2.756,3.481v2.14a1.637,1.637,0,0,1-3.274,0v-2.124c-.4-.631-1.95-.291-2.141,0V2692.7A7.03,7.03,0,0,1,194.583,2685.688Z" fill="#3e3a39" fill-rule="evenodd"/>
      <path id="Path_666" data-name="Path 666" d="M199.623,2709.18a.533.533,0,0,1,1.065,0,1.121,1.121,0,0,0,.352.808,1.215,1.215,0,0,0,.849.293H204.7a.531.531,0,0,1,0,1.061c-.962,0-1.924-.006-2.886,0a2.191,2.191,0,0,1-1.508-.59A2.152,2.152,0,0,1,199.623,2709.18Z" fill="#e6a26c"/>
      <path id="Path_667" data-name="Path 667" d="M205.629,2721.154l-3.657-1.4c-.1,1.235-2.275,2.223-4.947,2.223s-4.851-.988-4.947-2.223l-3.657,1.4c-3.29,1.255-6.4,2.881-6.4,6.4v3.835a30.011,30.011,0,0,0,30.01,1.13v-4.965C212.03,2724.034,208.918,2722.409,205.629,2721.154Z" fill="#595757" fill-rule="evenodd"/>
      <path id="Path_668" data-name="Path 668" d="M195.724,2699.79h6.627a.45.45,0,0,1,.449.449v.154h1.859v-.154a.45.45,0,0,1,.449-.449h6.626a.45.45,0,0,1,.449.449v1.708a2.25,2.25,0,0,1-2.245,2.246H206.9a2.25,2.25,0,0,1-2.245-2.246c0-.333.037-.83-.45-.83h-.96c-.487,0-.449.5-.449.83a2.25,2.25,0,0,1-2.246,2.246h-3.033a2.25,2.25,0,0,1-2.246-2.246v-1.708a.45.45,0,0,1,.449-.449Zm9.866.453a.45.45,0,0,0-.45.449v1.28a1.888,1.888,0,0,0,1.958,1.8h2.645a1.888,1.888,0,0,0,1.959-1.8v-1.28a.45.45,0,0,0-.45-.449Zm-9.384,0a.45.45,0,0,0-.449.449v1.28a1.887,1.887,0,0,0,1.957,1.8h2.646a1.888,1.888,0,0,0,1.959-1.8v-1.28a.45.45,0,0,0-.45-.449Z" fill="#3e3a39" fill-rule="evenodd"/>
    </g>
  </g>
</svg>
