<svg xmlns="http://www.w3.org/2000/svg" viewBox="0 0 48 48"><defs><style>.cls-1{fill:#77bdd1;}.cls-2{fill:#3e3a39;}.cls-2,.cls-4,.cls-6{fill-rule:evenodd;}.cls-3{fill:#f3c797;}.cls-4{fill:#fbe2c4;}.cls-5{fill:#e6a26c;}.cls-6{fill:#595757;}.cls-7{fill:#ccc;}</style></defs><title>ic-user1</title><g id="Layer_2" data-name="Layer 2"><g id="メインエリア"><g id="サムネイル"><circle class="cls-1" cx="24" cy="24" r="24"/><path class="cls-2" d="M15.9,21.9c.1,1.8-.2,3.3-2.8,2.5a4.5,4.5,0,0,0,4.3,4.7A4,4,0,0,0,21,27.2a5.4,5.4,0,0,0,.7-2.7V21.9Z"/><rect class="cls-3" x="19.3" y="26.3" width="7.9" height="11.6"/><rect class="cls-3" x="18.5" y="9.8" width="15.3" height="22.57" rx="5.3"/><path class="cls-4" d="M23.7,9.8h4.7V21.6l2.1,1.8a.7.7,0,0,1-.1,1.1l-2,1.3v6.6H23.7a5.2,5.2,0,0,1-5.2-5.3V25.3h-.7c-1.4.2-2.9-1.2-3.2-3.1s.5-3.5,2-3.7a3,3,0,0,1,1.9.7V15.1A5.2,5.2,0,0,1,23.7,9.8Z"/><path class="cls-2" d="M21.3,7.8c3.3,0,10.5,2.7,8.5-3.6a6.7,6.7,0,0,1,7,6.3,5.7,5.7,0,0,1-2.9,5.3A6.1,6.1,0,0,1,30,16.9H24.2a3.5,3.5,0,0,1-2-.7A2.8,2.8,0,0,0,20,19v1.7a1.3,1.3,0,0,1-2.6,0V19c-.3-.5-1.6-.2-1.7,0V13.4A5.6,5.6,0,0,1,21.3,7.8Z"/><path class="cls-5" d="M25.3,26.5a.4.4,0,0,1,.4-.4.5.5,0,0,1,.5.4c-.1.3.1.5.2.7a1,1,0,0,0,.7.2h2.3a.4.4,0,0,1,.4.4.5.5,0,0,1-.4.5H27a2.1,2.1,0,0,1-1.2-.5A2.1,2.1,0,0,1,25.3,26.5Z"/><path class="cls-6" d="M30.1,36.1,27.2,35c-.1,1-1.8,1.8-4,1.8S19.3,36,19.3,35l-3,1.1c-2.6,1-5.1,2.3-5.1,5.1v3.1A24.3,24.3,0,0,0,24,48a23.2,23.2,0,0,0,11.2-2.8v-4C35.2,38.4,32.7,37.1,30.1,36.1Z"/><path class="cls-2" d="M22.2,19h5.3c.2,0,.3.2.3.4h1.5a.4.4,0,0,1,.4-.4H35c.2,0,.3.2.3.4v1.4a1.8,1.8,0,0,1-1.7,1.8H31.1a1.9,1.9,0,0,1-1.8-1.8c0-.3.1-.7-.3-.7h-.8c-.4,0-.4.4-.4.7A1.9,1.9,0,0,1,26,22.6H23.6a1.9,1.9,0,0,1-1.8-1.8V19.4a.4.4,0,0,1,.4-.4Zm7.9.4a.4.4,0,0,0-.4.4v1a1.5,1.5,0,0,0,1.6,1.4h2.1A1.5,1.5,0,0,0,35,20.8v-1a.4.4,0,0,0-.4-.4Zm-7.5,0a.4.4,0,0,0-.4.4v1a1.5,1.5,0,0,0,1.6,1.4h2.1a1.5,1.5,0,0,0,1.6-1.4v-1a.4.4,0,0,0-.4-.4Z"/><g id="サムネイル-2" data-name="サムネイル"><path class="cls-7" d="M24,1A23,23,0,1,1,1,24,23,23,0,0,1,24,1m0-1A24,24,0,1,0,48,24,23.9,23.9,0,0,0,24,0Z"/></g></g></g></g></svg>