<svg xmlns="http://www.w3.org/2000/svg" viewBox="0 0 48 48"><defs><style>.cls-1{fill:#f1e6d3;}.cls-2{fill:#ec7324;}.cls-2,.cls-4,.cls-5,.cls-6,.cls-7{fill-rule:evenodd;}.cls-3,.cls-4{fill:#f3c797;}.cls-5{fill:#fbe2c4;}.cls-6{fill:#fff;}.cls-7{fill:#77bdd1;}.cls-8{fill:#ccc;}</style></defs><title>ic-user3</title><g id="Layer_2" data-name="Layer 2"><g id="メインエリア"><g id="サムネイル"><circle class="cls-1" cx="24" cy="24" r="24" transform="translate(-0.1 0.1) rotate(-0.1)"/><path class="cls-2" d="M35.6,26.6A3.4,3.4,0,0,0,34.4,24,3.4,3.4,0,0,0,36,21.2a3.3,3.3,0,0,0-2-3,2.8,2.8,0,0,0,.8-2A2.7,2.7,0,0,0,33,13.6a9.3,9.3,0,0,0-9.5-9.1,9.5,9.5,0,0,0-8.6,5.2,2.7,2.7,0,0,0-2,2.7,3.1,3.1,0,0,0,.3,1.3,2.7,2.7,0,0,0-2,2.7,3,3,0,0,0,.8,2,3.2,3.2,0,0,0-1.9,2.9,3.3,3.3,0,0,0,1.5,2.8,3.3,3.3,0,0,0,2.2,5.8H32.3C34.1,29.7,35.6,28.6,35.6,26.6Z"/><rect class="cls-3" x="18.8" y="21.1" width="7.9" height="15.34"/><path class="cls-4" d="M25.7,6.7c4.2,0,7.7,4.7,7.7,10.9S29,29.3,25.7,29.3,18,23.9,18,17.6,21.4,6.7,25.7,6.7Z"/><path class="cls-5" d="M26.2,6.7a6.1,6.1,0,0,1,1.8.5V17.9l1.6,2.2a1.4,1.4,0,0,1,.2.6.6.6,0,0,1-.3.6l-1.5.9v6.4a5.6,5.6,0,0,1-1.9.7h-.8C22.9,29,20,26,18.7,21.9l-.7.2c-1.1.1-2.3-1-2.6-2.5s.4-2.8,1.6-2.9a1.2,1.2,0,0,1,1,.2c.3-5.6,3.3-9.8,7.2-10.2Z"/><path class="cls-2" d="M25.5,5.6c4.5,0,8.3,3.2,8.5,7.6a1.2,1.2,0,0,1-1.2,1.2H21.5a2.2,2.2,0,0,0-2.3,2.2v.8a1,1,0,0,1-1,1,1,1,0,0,1-1.1-1V13.6C17.1,9.2,21.1,5.6,25.5,5.6Z"/><path class="cls-6" d="M29.8,23.8a2.7,2.7,0,0,1-2.6,1.9,2.7,2.7,0,0,1-2.5-1.9Z"/><path class="cls-6" d="M15.9,33.3l2.9-1.1c.1,1,1.8,3.7,4,3.7s3.8-2.7,3.9-3.7l3,1.1c2.6,1,5.1,2.3,5.1,5.1v7.1A24.5,24.5,0,0,1,24,48a23.9,23.9,0,0,1-13.2-4V38.4C10.8,35.6,13.3,34.3,15.9,33.3Z"/><path class="cls-7" d="M15.9,33.3l2.2-.8,4.7,15.4,4.7-15.4,2.2.8c2.6,1,5.1,2.3,5.1,5.1v7.1A24.5,24.5,0,0,1,24,48a23.9,23.9,0,0,1-13.2-4V38.4C10.8,35.6,13.3,34.3,15.9,33.3Z"/><g id="サムネイル-2" data-name="サムネイル"><path class="cls-8" d="M24,1A23,23,0,1,1,1,24,23,23,0,0,1,24,1m0-1A24,24,0,1,0,48,24,23.9,23.9,0,0,0,24,0Z"/></g></g></g></g></svg>