<svg xmlns="http://www.w3.org/2000/svg" viewBox="0 0 48 48"><defs><style>.cls-1{fill:#8ac891;}.cls-2{fill:#69493f;}.cls-2,.cls-4,.cls-5,.cls-6,.cls-7{fill-rule:evenodd;}.cls-3{fill:#efb27c;}.cls-4{fill:#f1e6d3;}.cls-5{fill:#ec724c;}.cls-6{fill:#f9cc99;}.cls-7{fill:#fff;}.cls-8{fill:#e6a26c;}.cls-9{fill:#ccc;}</style></defs><title>ic-user2</title><g id="Layer_2" data-name="Layer 2"><g id="メインエリア"><g id="サムネイル"><circle class="cls-1" cx="24" cy="24" r="24"/><path class="cls-2" d="M17.1,13.7a3.2,3.2,0,1,1,0,6.3,3.2,3.2,0,0,1,0-6.3Z"/><rect class="cls-3" x="18.9" y="24.4" width="7.9" height="12.5"/><path class="cls-4" d="M16,35.5H29.7a5.2,5.2,0,0,1,5.2,5.1v4.8A23.7,23.7,0,0,1,24,48a23.8,23.8,0,0,1-13.2-3.9V40.6A5.1,5.1,0,0,1,16,35.5Z"/><path class="cls-5" d="M21.5,35.5h2.7l-.6,2.4L24.4,48H24l-2.7-.2.8-9.9Z"/><rect class="cls-3" x="18.1" y="8.9" width="15.3" height="22.57" rx="5.3"/><path class="cls-6" d="M23.4,8.9h4.7V21l2,1.8a.7.7,0,0,1,.2.6.6.6,0,0,1-.3.6l-1.9,1.3v6.2H23.4a5.3,5.3,0,0,1-5.3-5.3V24.3l-.6.2c-1.5.2-3-1.2-3.3-3.1s.5-3.5,2-3.7a2.4,2.4,0,0,1,1.9.7V14.2A5.3,5.3,0,0,1,23.4,8.9Z"/><path class="cls-2" d="M20.9,6.8h.7a4.7,4.7,0,0,1,4.1-2.5,4.8,4.8,0,0,1,2.9,1,5.5,5.5,0,0,1,2.9-.8,6,6,0,0,1,5.7,5.7,5.6,5.6,0,0,1-3.3,5.2,6.8,6.8,0,0,1-2.9.5H23.8a3.6,3.6,0,0,1-2-.6A2.9,2.9,0,0,0,19.6,18v1.8a1.3,1.3,0,0,1-2.6,0V15.2H15.3V12.4A5.6,5.6,0,0,1,20.9,6.8Z"/><polygon class="cls-7" points="18.7 33.2 22.8 35.5 26.9 33.2 27.8 35.5 24.6 38.5 22.8 35.5 21 38.5 17.9 35.5 18.7 33.2"/><path class="cls-8" d="M24.9,25.6c0-.3.2-.4.5-.4a.4.4,0,0,1,.4.4.7.7,0,0,0,.3.6.9.9,0,0,0,.6.3H29a.4.4,0,0,1,0,.8H26.7a1.7,1.7,0,0,1-1.2-.5A1.7,1.7,0,0,1,24.9,25.6Z"/><g id="サムネイル-2" data-name="サムネイル"><path class="cls-9" d="M24,1A23,23,0,1,1,1,24,23,23,0,0,1,24,1m0-1A24,24,0,1,0,48,24,23.9,23.9,0,0,0,24,0Z"/></g></g></g></g></svg>