<svg xmlns="http://www.w3.org/2000/svg" viewBox="0 0 16 16"><defs><style>.cls-1{fill:#999;}</style></defs><title>ic-zoom</title><g id="Layer_2" data-name="Layer 2"><g id="モーダルヘッダー_モーダルツール"><path class="cls-1" d="M9.3,8.1,14,3.4V7.1a.5.5,0,0,0,.5.5h1a.5.5,0,0,0,.5-.5V.5a.5.5,0,0,0-.5-.5H8.9a.5.5,0,0,0-.5.5v1a.5.5,0,0,0,.5.5h3.7L7.9,6.7a.5.5,0,0,0,0,.7l.7.7a.5.5,0,0,0,.7,0"/><path class="cls-1" d="M14,10.5V14H2V2H5.5A.5.5,0,0,0,6,1.5V.5A.5.5,0,0,0,5.5,0H1A.9.9,0,0,0,0,1V15a.9.9,0,0,0,1,1H15a.9.9,0,0,0,1-1V10.5a.5.5,0,0,0-.5-.5h-1a.5.5,0,0,0-.5.5"/></g></g></svg>