<svg id="GM_calendar.svg" xmlns="http://www.w3.org/2000/svg" width="19" height="19" viewBox="0 0 19 19">
  <path id="Path_3610" data-name="Path 3610" d="M42,169H32a3.894,3.894,0,0,1-4-3.778v-9.444A3.894,3.894,0,0,1,32,152H42a3.894,3.894,0,0,1,4,3.778v9.444A3.894,3.894,0,0,1,42,169" transform="translate(-27 -150)" fill="#0b537f"/>
  <path id="Path_3611" data-name="Path 3611" d="M41,167H31a3.894,3.894,0,0,1-4-3.778v-9.444A3.894,3.894,0,0,1,31,150H41a3.894,3.894,0,0,1,4,3.778v9.444A3.894,3.894,0,0,1,41,167" transform="translate(-27 -150)" fill="#fff"/>
  <path id="Path_3612" data-name="Path 3612" d="M45,154H27a4,4,0,0,1,4-4H41a4,4,0,0,1,4,4" transform="translate(-27 -150)" fill="#d1d1d2"/>
  <path id="Path_3613" data-name="Path 3613" d="M45,155H27v-1a4,4,0,0,1,4-4H41a4,4,0,0,1,4,4Z" transform="translate(-27 -150)" fill="#f66"/>
  <path id="Path_3614" data-name="Path 3614" d="M33.131,162.8l.784-.15A.072.072,0,0,1,34,162.7a.633.633,0,0,0,.634.456.58.58,0,0,0,.6-.627.626.626,0,0,0-.676-.683h-.207a.068.068,0,0,1-.072-.072v-.69a.067.067,0,0,1,.072-.071h.192a.564.564,0,0,0,.6-.606.522.522,0,0,0-.549-.57.535.535,0,0,0-.548.449.068.068,0,0,1-.086.05l-.776-.15a.062.062,0,0,1-.057-.078A1.407,1.407,0,0,1,34.641,159a1.332,1.332,0,0,1,1.5,1.339,1.16,1.16,0,0,1-.541,1v.014a1.268,1.268,0,0,1,.635,1.175,1.622,1.622,0,0,1-3.156.363.08.08,0,0,1,.057-.092" transform="translate(-27 -150.6)" fill="#666"/>
  <path id="Path_3615" data-name="Path 3615" d="M37.93,160.2h-.014l-.769.527c-.043.028-.078.014-.078-.043V159.8a.117.117,0,0,1,.049-.1l.812-.584a.2.2,0,0,1,.128-.042h.8a.067.067,0,0,1,.071.071v4.7a.067.067,0,0,1-.071.071H38a.067.067,0,0,1-.072-.071Z" transform="translate(-27 -150.599)" fill="#666"/>
  <path id="Path_3616" data-name="Path 3616" d="M33,153a1,1,0,1,1-1-1,1,1,0,0,1,1,1" transform="translate(-27 -150)" fill="#fff"/>
  <path id="Path_3617" data-name="Path 3617" d="M41,153a1,1,0,1,1-1-1,1,1,0,0,1,1,1" transform="translate(-27 -150)" fill="#fff"/>
  <rect id="Rectangle_2801" data-name="Rectangle 2801" width="18" height="1" transform="translate(0 4.737)" fill="#f99"/>
</svg>
