<svg xmlns="http://www.w3.org/2000/svg" width="24.044" height="24.044" viewBox="0 0 24.044 24.044">
  <path id="iconfinder_misc-_paper_clip_1276854" d="M13.173,19.745l6.042-5.883A1.69,1.69,0,0,1,20.3,13.38a1.371,1.371,0,0,1,1.038.37h0a1.434,1.434,0,0,1-.109,2.06l-7.261,7.06c-1.317,1.285-3.074,1.444-4.061.489s-.987-2.348.527-3.812l9.031-8.8A4.145,4.145,0,0,1,22.122,9.56a3.362,3.362,0,0,1,2.548.91h0a3.516,3.516,0,0,1-.267,5.056l-7.878,7.681" transform="translate(-12.213 12.422) rotate(-45)" fill="none" stroke="#666" stroke-linecap="round" stroke-miterlimit="10" stroke-width="1.5"/>
</svg>
