<svg id="Component_13_1" data-name="Component 13 – 1" xmlns="http://www.w3.org/2000/svg" xmlns:xlink="http://www.w3.org/1999/xlink" width="19" height="19" viewBox="0 0 19 19">
  <defs>
    <clipPath id="clip-path">
      <rect id="Rectangle_2788" data-name="Rectangle 2788" width="18" height="17" rx="2" fill="none"/>
    </clipPath>
  </defs>
  <path id="Path_3601" data-name="Path 3601" d="M44,612H30c-1.1,0-2-1.269-2-2.833V597.833c0-1.564.9-2.833,2-2.833H44c1.1,0,2,1.269,2,2.833v11.333c0,1.564-.9,2.833-2,2.833" transform="translate(-27 -593)" fill="#0b537f"/>
  <path id="Path_3602" data-name="Path 3602" d="M43,610H29c-1.1,0-2-1.269-2-2.833V595.833c0-1.564.9-2.833,2-2.833H43c1.1,0,2,1.269,2,2.833v11.333c0,1.564-.9,2.833-2,2.833" transform="translate(-27 -593)" fill="#fff"/>
  <g id="Group_2363" data-name="Group 2363" clip-path="url(#clip-path)">
    <path id="Path_3603" data-name="Path 3603" d="M45,608.333,36,597l-9,11.333" transform="translate(-27 -591.333)" fill="none" stroke="#ccc" stroke-linecap="round" stroke-linejoin="round" stroke-width="1"/>
    <path id="Path_3604" data-name="Path 3604" d="M27,593l9,11.333L45,593Z" transform="translate(-27 -593)" fill="#fff"/>
    <path id="Path_3605" data-name="Path 3605" d="M27,593l9,11.333L45,593" transform="translate(-27 -593)" fill="none" stroke="#ccc" stroke-miterlimit="10" stroke-width="1"/>
  </g>
</svg>
