<svg xmlns="http://www.w3.org/2000/svg" xmlns:xlink="http://www.w3.org/1999/xlink" width="16" height="17" viewBox="0 0 16 17">
  <defs>
    <linearGradient id="linear-gradient" x1="0.5" x2="0.5" y2="1" gradientUnits="objectBoundingBox">
      <stop offset="0.307" stop-color="#aaf9ff"/>
      <stop offset="1" stop-color="#55f3ff"/>
    </linearGradient>
  </defs>
  <g id="Group_13" data-name="Group 13" transform="translate(-4 -3.5)">
    <g id="Group_12" data-name="Group 12">
      <g id="Group_2" data-name="Group 2">
        <g id="Group_1" data-name="Group 1">
          <path id="Path_1" data-name="Path 1" d="M19.5,10H17.8a5.992,5.992,0,0,0-.566-1.42l1.226-1.17A.5.5,0,0,0,18.48,6.7L17.1,5.256a.5.5,0,0,0-.707-.017L15.164,6.411A6,6,0,0,0,13.5,5.7V4a.5.5,0,0,0-.5-.5H11a.5.5,0,0,0-.5.5V5.7a6.014,6.014,0,0,0-1.447.582L7.876,5.058a.5.5,0,0,0-.707-.013L5.729,6.433a.5.5,0,0,0-.013.707L6.895,8.363A5.967,5.967,0,0,0,6.2,10H4.5a.5.5,0,0,0-.5.5v2a.5.5,0,0,0,.5.5H6.2a5.947,5.947,0,0,0,.6,1.483L5.587,15.669a.5.5,0,0,0-.008.707l1.4,1.43a.5.5,0,0,0,.707.008L8.9,16.627a5.973,5.973,0,0,0,1.6.676V19a.5.5,0,0,0,.5.5h2a.5.5,0,0,0,.5-.5V17.3a5.979,5.979,0,0,0,1.665-.715L16.4,17.76a.5.5,0,0,0,.707-.017l1.38-1.448a.5.5,0,0,0-.017-.707l-1.227-1.169A5.982,5.982,0,0,0,17.8,13h1.7a.5.5,0,0,0,.5-.5v-2A.5.5,0,0,0,19.5,10ZM12,13.5a2,2,0,1,1,2-2A2,2,0,0,1,12,13.5Z" fill="url(#linear-gradient)"/>
        </g>
      </g>
      <g id="Group_11" data-name="Group 11">
        <g id="Group_3" data-name="Group 3">
          <path id="Path_2" data-name="Path 2" d="M6.558,9.013a5.965,5.965,0,0,1,.337-.65L5.869,7.3l-.14.135a.5.5,0,0,0-.013.707Z" fill="#1267a8"/>
        </g>
        <g id="Group_4" data-name="Group 4">
          <path id="Path_3" data-name="Path 3" d="M17.564,9.268l.9-.858A.5.5,0,0,0,18.48,7.7l-.154-.162L17.237,8.58A6.021,6.021,0,0,1,17.564,9.268Z" fill="#1267a8"/>
        </g>
        <g id="Group_5" data-name="Group 5">
          <path id="Path_4" data-name="Path 4" d="M6.47,14.806l.331-.323A5.947,5.947,0,0,1,6.2,13H4.5a.5.5,0,0,1-.5-.5v1a.5.5,0,0,0,.5.5H6.2A6.111,6.111,0,0,0,6.47,14.806Z" fill="#1267a8"/>
        </g>
        <g id="Group_6" data-name="Group 6">
          <path id="Path_5" data-name="Path 5" d="M12,9.5a2,2,0,0,0-2,2,1.966,1.966,0,0,0,.071.5,1.99,1.99,0,0,1,3.858,0A1.966,1.966,0,0,0,14,11.5,2,2,0,0,0,12,9.5Z" fill="#1267a8"/>
        </g>
        <g id="Group_7" data-name="Group 7">
          <path id="Path_6" data-name="Path 6" d="M18.327,16.457,17.1,17.743a.5.5,0,0,1-.707.017l-1.23-1.172A5.979,5.979,0,0,1,13.5,17.3v1a5.979,5.979,0,0,0,1.665-.715L16.4,18.76a.5.5,0,0,0,.707-.017l1.38-1.448a.5.5,0,0,0-.017-.707Z" fill="#1267a8"/>
        </g>
        <g id="Group_8" data-name="Group 8">
          <path id="Path_7" data-name="Path 7" d="M10.5,17.3a5.973,5.973,0,0,1-1.6-.676L7.684,17.814a.5.5,0,0,1-.707-.008L5.73,16.53l-.143.139a.5.5,0,0,0-.008.707l1.4,1.43a.5.5,0,0,0,.707.008L8.9,17.627a5.973,5.973,0,0,0,1.6.676Z" fill="#1267a8"/>
        </g>
        <g id="Group_9" data-name="Group 9">
          <path id="Path_8" data-name="Path 8" d="M19.5,13H17.8a5.982,5.982,0,0,1-.565,1.419l.327.311A6.164,6.164,0,0,0,17.8,14h1.7a.5.5,0,0,0,.5-.5v-1A.5.5,0,0,1,19.5,13Z" fill="#1267a8"/>
        </g>
        <g id="Group_10" data-name="Group 10">
          <path id="Path_9" data-name="Path 9" d="M13,19.5H11a.5.5,0,0,1-.5-.5v1a.5.5,0,0,0,.5.5h2a.5.5,0,0,0,.5-.5V19A.5.5,0,0,1,13,19.5Z" fill="#1267a8"/>
        </g>
      </g>
    </g>
  </g>
</svg>
