<svg xmlns="http://www.w3.org/2000/svg" width="52.405" height="52.404" viewBox="0 0 52.405 52.404">
  <g id="Group_26603" data-name="Group 26603" transform="translate(-43.754 -528)">
    <g id="Group_26586" data-name="Group 26586">
      <g id="Layer_2" data-name="Layer 2" transform="translate(28 528.096)">
        <g id="ログイン">
          <path id="Path_224" data-name="Path 224" d="M43.6,12.8a15.4,15.4,0,0,1,7.3,3,2.1,2.1,0,0,1-.1,3.3L34.4,30.6a2.1,2.1,0,0,0-.6,2.9h0a2.1,2.1,0,0,0,3,.5L63.9,15a1,1,0,0,0-.1-1.7,27.6,27.6,0,0,0-20.3-2.5,1,1,0,0,0,.1,2Z" fill="#00a4e3"/>
          <path id="Path_225" data-name="Path 225" d="M58.5,26.5a2.2,2.2,0,0,0-.9,1.4A15.6,15.6,0,0,1,29.1,35a16,16,0,0,1,4.8-22.3A30.4,30.4,0,0,1,59.2,9.1a1.1,1.1,0,0,0,1-1.8,26.2,26.2,0,1,0,7.6,14.5,1,1,0,0,0-1.6-.7Z" fill="#10609c"/>
        </g>
      </g>
    </g>
  </g>
</svg>
