<svg xmlns="http://www.w3.org/2000/svg" viewBox="0 0 120 68"><defs><style>.cls-1{fill:#fff;}.cls-2{fill:#e5e5e5;}.cls-3{font-size:5.45px;}.cls-3,.cls-4,.cls-6{fill:#333;font-family:NotoSansCJKjp-Regular-90ms-RKSJ-H, Noto Sans CJK JP;}.cls-4{font-size:1.82px;}.cls-5{letter-spacing:0.25em;}.cls-6{font-size:3.64px;}</style></defs><title>img-table-default</title><g id="Layer_2" data-name="Layer 2"><g id="モーダル内容"><g id="名刺画像"><rect class="cls-1" x="0.5" y="0.5" width="119" height="67" rx="3.5"/><path class="cls-2" d="M116,1a2.9,2.9,0,0,1,3,3V64a2.9,2.9,0,0,1-3,3H4a2.9,2.9,0,0,1-3-3V4A2.9,2.9,0,0,1,4,1H116m0-1H4A4,4,0,0,0,0,4V64a4,4,0,0,0,4,4H116a4,4,0,0,0,4-4V4a4,4,0,0,0-4-4Z"/><text class="cls-3" transform="translate(10.9 24.8)">名刺 一郎</text><text class="cls-4" transform="translate(10.9 28.9)">めいしいちろう</text><text class="cls-4" transform="translate(10.9 50.7)">00<tspan class="cls-5" x="2" y="0">0ー</tspan><tspan x="5.8" y="0">000</tspan><tspan class="cls-5" x="8.8" y="0">0ー</tspan><tspan x="12.5" y="0">0000</tspan></text><text class="cls-4" transform="translate(10.9 54.3)">00<tspan class="cls-5" x="2" y="0">0ー</tspan><tspan x="5.8" y="0">000</tspan><tspan class="cls-5" x="8.8" y="0">0ー</tspan><tspan x="12.5" y="0">0000</tspan></text><text class="cls-4" transform="translate(10.9 58)">東京都○○区○○2-12 ○○ビル 4F</text><text class="cls-6" transform="translate(10.9 14.1)">サンプル株式会社</text></g></g></g></svg>