<svg xmlns="http://www.w3.org/2000/svg" width="210" height="120" viewBox="0 0 210 120">
  <g id="名刺画像" transform="translate(-690 -2904)">
    <path id="Path_31393" data-name="Path 31393" d="M4,0H206a4,4,0,0,1,4,4V116a4,4,0,0,1-4,4H4a4,4,0,0,1-4-4V4A4,4,0,0,1,4,0Z" transform="translate(690 2904)" fill="#fff"/>
    <text id="名刺_二郎" data-name="名刺 二郎" transform="translate(709.091 2937.4)" font-size="9.545" font-family="NotoSansCJKjp-Medium, Noto Sans CJK JP" font-weight="500"><tspan x="0" y="11">名刺 二郎</tspan></text>
    <text id="めいしじろう" transform="translate(709.091 2951.527)" font-size="3.182" font-family="NotoSansCJKjp-Medium, Noto Sans CJK JP" font-weight="500"><tspan x="0" y="4">めいしじろう</tspan></text>
    <text id="_000ー0000ー0000" data-name="000ー0000ー0000" transform="translate(709.091 2989.709)" font-size="3.182" font-family="NotoSansCJKjp-Medium, Noto Sans CJK JP" font-weight="500"><tspan x="0" y="4">000ー0000ー0000</tspan></text>
    <text id="_000ー0000ー0000-2" data-name="000ー0000ー0000" transform="translate(709.091 2996.073)" font-size="3.182" font-family="NotoSansCJKjp-Medium, Noto Sans CJK JP" font-weight="500"><tspan x="0" y="4">000ー0000ー0000</tspan></text>
    <text id="東京都_区_2-12_ビル_4F" data-name="東京都○○区○○2-12 ○○ビル 4F" transform="translate(709.091 3002.437)" font-size="3.182" font-family="NotoSansCJKjp-Medium, Noto Sans CJK JP" font-weight="500"><tspan x="0" y="4">東京都○○区○○2-12 ○○ビル 4F</tspan></text>
    <text id="サンプル株式会社" transform="translate(709.091 2921.691)" font-size="6.364" font-family="NotoSansCJKjp-Medium, Noto Sans CJK JP" font-weight="500"><tspan x="0" y="7">サンプル株式会社</tspan></text>
  </g>
</svg>
