<svg xmlns="http://www.w3.org/2000/svg" width="85.977" height="24" viewBox="0 0 85.977 24">
  <g id="Group_861" data-name="Group 861" transform="translate(-3064 -420)">
    <g id="Group_858" data-name="Group 858">
      <path id="Path_400" data-name="Path 400" d="M3075.295,429.336l-.009,0h0a2.816,2.816,0,1,0,2.194,5.126h0c.052-.032,8.387-5.718,9-6.162a.647.647,0,0,0-.532-1.148C3085.147,427.317,3075.364,429.318,3075.295,429.336Z" fill="#0ba7fd"/>
      <path id="Path_401" data-name="Path 401" d="M3086.516,436.344a1.864,1.864,0,0,0-.977-1.334,2.023,2.023,0,0,0-1.839,0,4.011,4.011,0,0,0-1.409,1.331,7.527,7.527,0,0,1-7.083,3.108,7.4,7.4,0,0,1-6.609-8.184,8.3,8.3,0,0,1,1.132-3.436,7.934,7.934,0,0,1,6.26-3.7,7.541,7.541,0,0,1,2.615.254,3.527,3.527,0,0,1,.88.416.666.666,0,0,1,.26.394.634.634,0,0,1-.058.438.421.421,0,0,0-.058.247.409.409,0,0,0,.2.326.5.5,0,0,0,.3.047c.17-.035,1.57-.316,1.873-.383h0c1.1-.224,2.144-.44,2.144-.44a1.073,1.073,0,0,0,.727-.579,1.031,1.031,0,0,0-.183-1.121,10.445,10.445,0,0,0-1.172-1.084,11.887,11.887,0,0,0-6.2-2.575,12.013,12.013,0,1,0,7.4,19.919C3084.986,439.691,3086.743,437.646,3086.516,436.344Z" fill="#0f6db5"/>
    </g>
    <g id="Group_860" data-name="Group 860">
      <path id="Path_402" data-name="Path 402" d="M3134.815,437.928a1.421,1.421,0,0,1-1.419-1.419v-5.59a2.229,2.229,0,0,0-2.342-2.341,2.475,2.475,0,0,0-2.475,2.341l0,1.411v4.179a1.42,1.42,0,0,1-2.839,0V432.33c0-.592.008-1,.008-1.411a2.43,2.43,0,0,0-.905-1.908,2.2,2.2,0,0,0-.986-.421,1.4,1.4,0,0,0-1.229.393c-.014.014-.071.078-.1.106a.328.328,0,0,1-.22.111.323.323,0,0,1-.35-.352,2.955,2.955,0,0,1,2.825-2.736,3.644,3.644,0,0,1,3.457,2.274,4.863,4.863,0,0,1,4.206-2.274,3.719,3.719,0,0,1,2.909,1.31,3.611,3.611,0,0,1,.875,2.493v6.594A1.421,1.421,0,0,1,3134.815,437.928Z" fill="#1c4378"/>
      <path id="Path_403" data-name="Path 403" d="M3119.539,437.927a1.414,1.414,0,0,1-1.406-1.419v-8.96a1.4,1.4,0,1,1,2.8,0l.013,8.96A1.413,1.413,0,0,1,3119.539,437.927Z" fill="#1c4378"/>
      <path id="Path_404" data-name="Path 404" d="M3140.122,424.862a.99.99,0,0,0-1.232.669.4.4,0,0,0-.015.062l-.016.1a.132.132,0,0,0-.006.033l-.572,3.191a.621.621,0,0,0,1.184.35l1.293-3.072a.877.877,0,0,0,.034-.1A.992.992,0,0,0,3140.122,424.862Zm-1.188.874Z" fill="#1c4378"/>
      <path id="Path_405" data-name="Path 405" d="M3110.826,438.189a4.93,4.93,0,0,1-2.946-.9,1.288,1.288,0,0,1-.53-.912,1.27,1.27,0,0,1,1.264-1.4,1.227,1.227,0,0,1,.734.252,2.849,2.849,0,0,0,1.635.638,1.3,1.3,0,0,0,1.441-1.157c0-.6-.553-1-1.384-1.428l-1-.513c-1.872-.947-2.782-2.091-2.782-3.5a3.435,3.435,0,0,1,3.705-3.282,4.658,4.658,0,0,1,2.694.837,1.213,1.213,0,0,1,.512.889,1.245,1.245,0,0,1-1.238,1.357,1.184,1.184,0,0,1-.641-.214,2.47,2.47,0,0,0-1.288-.523c-.839-.016-1.246.446-1.246.956s.455.727,1.1,1.058l1.167.6c2.115,1.082,2.938,2.112,2.938,3.675C3114.954,436.72,3113.257,438.189,3110.826,438.189Z" fill="#1c4378"/>
      <path id="Path_406" data-name="Path 406" d="M3145.848,438.189a4.928,4.928,0,0,1-2.946-.9,1.288,1.288,0,0,1-.53-.912,1.27,1.27,0,0,1,1.264-1.4,1.228,1.228,0,0,1,.734.252,2.848,2.848,0,0,0,1.635.638,1.3,1.3,0,0,0,1.441-1.157c0-.6-.553-1-1.384-1.428l-1-.513c-1.872-.947-2.782-2.091-2.782-3.5a3.435,3.435,0,0,1,3.7-3.282,4.657,4.657,0,0,1,2.694.837,1.213,1.213,0,0,1,.512.889,1.241,1.241,0,0,1-.353.986,1.257,1.257,0,0,1-.885.371,1.184,1.184,0,0,1-.641-.214,2.47,2.47,0,0,0-1.288-.523c-.839-.016-1.246.446-1.246.956s.455.727,1.1,1.058l1.167.6c2.115,1.082,2.939,2.112,2.939,3.675C3149.977,436.72,3148.279,438.189,3145.848,438.189Z" fill="#1c4378"/>
      <g id="Group_859" data-name="Group 859">
        <path id="Path_407" data-name="Path 407" d="M3098.685,425.983a6.107,6.107,0,0,0,.029,12.211,5.838,5.838,0,0,0,4.355-1.486,1.232,1.232,0,0,0-1.385-2.014,9.493,9.493,0,0,1-.823.558,4.282,4.282,0,0,1-2.147.468,3.656,3.656,0,0,1,.011-7.306,3.166,3.166,0,0,1,3.128,1.9.3.3,0,0,1-.3.435h-3.874a1.328,1.328,0,0,0-1.082.518,1.418,1.418,0,0,0-.256.488,1.986,1.986,0,0,0-.039.745.529.529,0,0,0,.582.478h6.929a.888.888,0,0,0,.849-.915C3104.528,428.577,3102.155,425.983,3098.685,425.983Z" fill="#1c4378"/>
      </g>
    </g>
  </g>
</svg>
