<svg xmlns="http://www.w3.org/2000/svg" width="17" height="17" viewBox="0 0 17 17">
  <g id="logo" transform="translate(-15.754 0.096)">
    <path id="Path_224" data-name="Path 224" d="M37.91,11.169a6.76,6.76,0,0,1,3.2,1.317.922.922,0,0,1-.044,1.449l-7.2,5.048a.922.922,0,0,0-.263,1.273h0a.922.922,0,0,0,1.317.219l11.9-8.341a.439.439,0,0,0-.044-.746,12.116,12.116,0,0,0-8.911-1.1.44.44,0,1,0,.044.878Z" transform="translate(-15.937 -7.756)" fill="#00a4e3"/>
    <path id="Path_225" data-name="Path 225" d="M29.621,8.532a.714.714,0,0,0-.292.454,5.061,5.061,0,0,1-9.245,2.3A5.19,5.19,0,0,1,21.64,4.055a9.862,9.862,0,0,1,8.207-1.168.357.357,0,0,0,.324-.584,8.5,8.5,0,1,0,2.465,4.7.324.324,0,0,0-.519-.227Z" transform="translate(0 0)" fill="#10609c"/>
  </g>
</svg>
