<svg xmlns="http://www.w3.org/2000/svg" viewBox="0 0 84.1 80"><defs><style>.cls-1{fill:#231815;}.cls-2{fill:#00a4e3;}.cls-3{fill:#10609c;}</style></defs><title>logo</title><g id="Layer_2" data-name="Layer 2"><g id="ログイン"><path class="cls-1" d="M65.8,61.2h3.7l-2.8,6.6H64.3Z"/><path class="cls-1" d="M12.1,74.9l2.4,1.3C13.3,78.9,10.4,80,7.7,80,3.1,80,0,77,0,72.4s3-7.8,7.6-7.8,7.5,2.9,7.5,7a5.2,5.2,0,0,1-.3,1.7H3.2a4.4,4.4,0,0,0,4.4,3.8C9,77.1,11.2,76.7,12.1,74.9Zm-8.8-4H12c-.2-2.1-1.8-3.3-4.4-3.3A4.2,4.2,0,0,0,3.3,70.9Z"/><path class="cls-1" d="M29.9,69.6c-.7-1.7-2.7-2.3-4.6-2.3s-3.4.6-3.4,1.6c0,3.3,10.6,0,10.6,6.2,0,3.3-3.3,4.9-6.5,4.9s-6.7-.8-7.9-4.3l2.6-1.1c.8,1.8,3.4,2.7,5.5,2.7s3.1-.6,3.1-2c0-3.2-10.6,0-10.6-6.2,0-3.3,3.7-4.5,6.7-4.5s6,1.3,6.9,4Z"/><path class="cls-1" d="M45.4,64.8A4.7,4.7,0,0,1,50.2,68a7.8,7.8,0,0,1,6.2-3.3c3.1,0,5.2,2.2,5.2,5.5v9.2H58.3V70.7a2.7,2.7,0,0,0-2.9-2.9,5,5,0,0,0-4.7,4.3v7.3H47.4V70.7a2.8,2.8,0,0,0-3-2.9,5.3,5.3,0,0,0-4.7,3.9v7.7H36.5V65.1h3.2v2.5A7.2,7.2,0,0,1,45.4,64.8Z"/><path class="cls-1" d="M81.6,69.6c-.7-1.7-2.8-2.3-4.7-2.3s-3.4.6-3.4,1.6c0,3.3,10.6,0,10.6,6.2,0,3.3-3.3,4.9-6.5,4.9s-6.6-.8-7.9-4.3l2.7-1.1c.7,1.8,3.3,2.7,5.4,2.7s3.1-.6,3.1-2c0-3.2-10.6,0-10.6-6.2,0-3.3,3.7-4.5,6.7-4.5s6,1.3,7,4Z"/><path class="cls-2" d="M43.6,12.8a15.4,15.4,0,0,1,7.3,3,2.1,2.1,0,0,1-.1,3.3L34.4,30.6a2.1,2.1,0,0,0-.6,2.9h0a2.1,2.1,0,0,0,3,.5L63.9,15a1,1,0,0,0-.1-1.7,27.6,27.6,0,0,0-20.3-2.5A1,1,0,0,0,43.6,12.8Z"/><path class="cls-3" d="M58.5,26.5a2.2,2.2,0,0,0-.9,1.4A15.6,15.6,0,0,1,29.1,35a16,16,0,0,1,4.8-22.3A30.4,30.4,0,0,1,59.2,9.1a1.1,1.1,0,0,0,1-1.8,26.2,26.2,0,1,0,7.6,14.5,1,1,0,0,0-1.6-.7Z"/></g></g></svg>