<svg xmlns="http://www.w3.org/2000/svg" width="572" height="324" viewBox="0 0 572 324">
  <g id="Group_28222" data-name="Group 28222" transform="translate(-6168 -2344)">
    <g id="名刺画像" transform="translate(6168 2344)">
      <rect id="Rectangle_313" data-name="Rectangle 313" width="572" height="324" rx="4" fill="#fda7a7"/>
    </g>
    <g id="Group_451" data-name="Group 451" transform="translate(6329.866 2405.976)">
      <g id="Group_448" data-name="Group 448" transform="translate(41.291)">
        <g id="Group_446" data-name="Group 446">
          <rect id="Rectangle_314" data-name="Rectangle 314" width="112.513" height="106.455" transform="translate(7.514)" fill="#ffc550"/>
          <path id="Path_337" data-name="Path 337" d="M6315.73,2370v34.156H6294.8v-28.231Z" transform="translate(-6195.702 -2370)" fill="#ffd160"/>
          <path id="Path_338" data-name="Path 338" d="M6294.807,2435.819h28.433v-57.411l-28.433-5.925Z" transform="translate(-6195.696 -2366.565)" fill="#f7b64d"/>
          <path id="Path_339" data-name="Path 339" d="M6256.407,2370v34.156h20.918v-28.231Z" transform="translate(-6248.829 -2370)" fill="#ffd160"/>
          <path id="Path_340" data-name="Path 340" d="M6281.684,2435.819h-28.432v-57.411l28.432-5.925Z" transform="translate(-6253.194 -2366.565)" fill="#f7b64d"/>
          <rect id="Rectangle_315" data-name="Rectangle 315" width="127.543" height="188.388" transform="translate(0 11.843)" fill="#ffd160"/>
        </g>
        <g id="Group_447" data-name="Group 447" transform="translate(61.069 35.85)">
          <rect id="Rectangle_316" data-name="Rectangle 316" width="92.366" height="87.388" transform="translate(6.169)" fill="#6bcef5"/>
          <path id="Path_341" data-name="Path 341" d="M6330.154,2385.04v28.038h-17.178V2389.9Z" transform="translate(-6231.62 -2385.04)" fill="#80dcff"/>
          <path id="Path_342" data-name="Path 342" d="M6312.98,2439.063h23.339v-47.127l-23.339-4.858Z" transform="translate(-6231.615 -2382.219)" fill="#52bfeb"/>
          <path id="Path_343" data-name="Path 343" d="M6281.453,2385.04v28.038h17.181V2389.9Z" transform="translate(-6275.24 -2385.04)" fill="#80dcff"/>
          <path id="Path_344" data-name="Path 344" d="M6302.209,2439.063h-23.344v-47.127l23.344-4.858Z" transform="translate(-6278.822 -2382.219)" fill="#52bfeb"/>
          <rect id="Rectangle_317" data-name="Rectangle 317" width="104.704" height="154.665" transform="translate(0 9.716)" fill="#80dcff"/>
        </g>
      </g>
      <path id="Path_345" data-name="Path 345" d="M6244.013,2406.144v93.1a20.964,20.964,0,0,0,20.977,20.97h167.758a20.975,20.975,0,0,0,20.972-20.97v-93.1Zm28.661,91.425a5.873,5.873,0,1,1-11.745,0V2424.6a5.873,5.873,0,1,1,11.745,0Zm27.358,0a5.9,5.9,0,0,1-5.874,5.881h0a5.886,5.886,0,0,1-5.864-5.881V2424.6a5.88,5.88,0,0,1,5.864-5.873h0a5.89,5.89,0,0,1,5.874,5.873Zm27.357,0a5.874,5.874,0,1,1-11.747,0V2424.6a5.874,5.874,0,0,1,11.747,0Zm27.353,0a5.876,5.876,0,1,1-11.753,0V2424.6a5.876,5.876,0,0,1,11.753,0Zm27.351,0a5.873,5.873,0,1,1-11.746,0V2424.6a5.873,5.873,0,0,1,11.746,0Zm27.352,0a5.87,5.87,0,1,1-11.74,0V2424.6a5.87,5.87,0,1,1,11.74,0Zm27.357,0a5.873,5.873,0,1,1-11.745,0V2424.6a5.873,5.873,0,1,1,11.745,0Z" transform="translate(-6224.688 -2319.988)" fill="#fff"/>
      <rect id="Rectangle_318" data-name="Rectangle 318" width="209.705" height="5.515" transform="translate(19.325 86.157)" fill="#e6eaee"/>
      <path id="Rectangle_319" data-name="Rectangle 319" d="M2.815,0h225.04a2.817,2.817,0,0,1,2.817,2.817V26.541a2.818,2.818,0,0,1-2.818,2.818H2.818A2.818,2.818,0,0,1,0,26.54V2.815A2.815,2.815,0,0,1,2.815,0Z" transform="translate(8.842 56.798)" fill="#ff5c5c"/>
      <g id="Group_449" data-name="Group 449" transform="translate(0 63.094)">
        <path id="Path_346" data-name="Path 346" d="M6253.382,2401.6a8.386,8.386,0,1,1,4.477,10.991A8.39,8.39,0,0,1,6253.382,2401.6Z" transform="translate(-6212.636 -2396.469)" fill="#34495e"/>
        <path id="Path_347" data-name="Path 347" d="M6236.565,2441.479a8.386,8.386,0,1,1,4.473,10.984A8.389,8.389,0,0,1,6236.565,2441.479Z" transform="translate(-6235.906 -2341.289)" fill="#ff5c5c"/>
        <path id="Path_348" data-name="Path 348" d="M6237.707,2496.028a5.03,5.03,0,0,0,2.688,6.575h0a5.028,5.028,0,0,0,6.589-2.672l40.094-95.067a5.064,5.064,0,0,0-2.687-6.6h0a5.063,5.063,0,0,0-6.6,2.688Z" transform="translate(-6233.958 -2394.524)" fill="#cdd3da"/>
      </g>
      <g id="Group_450" data-name="Group 450" transform="translate(191.493 63.094)">
        <path id="Path_349" data-name="Path 349" d="M6332.353,2401.6a8.383,8.383,0,1,0-4.474,10.991A8.381,8.381,0,0,0,6332.353,2401.6Z" transform="translate(-6316.24 -2396.469)" fill="#34495e"/>
        <path id="Path_350" data-name="Path 350" d="M6349.17,2441.479a8.385,8.385,0,1,0-4.469,10.984A8.381,8.381,0,0,0,6349.17,2441.479Z" transform="translate(-6292.968 -2341.289)" fill="#ff5c5c"/>
        <path id="Path_351" data-name="Path 351" d="M6367.4,2496.028a5.034,5.034,0,0,1-2.682,6.575h0a5.033,5.033,0,0,1-6.6-2.672l-40.087-95.067a5.067,5.067,0,0,1,2.685-6.6h0a5.065,5.065,0,0,1,6.6,2.688Z" transform="translate(-6314.292 -2394.524)" fill="#cdd3da"/>
      </g>
    </g>
  </g>
</svg>
