<svg xmlns="http://www.w3.org/2000/svg" width="120" height="68" viewBox="0 0 120 68">
  <g id="Group_468" data-name="Group 468" transform="translate(-6608 -2856)">
    <g id="名刺画像">
      <rect id="Rectangle_327" data-name="Rectangle 327" width="120" height="68" rx="4" transform="translate(6608 2856)" fill="#afe6cb"/>
    </g>
    <g id="Group_467" data-name="Group 467">
      <g id="Group_464" data-name="Group 464">
        <g id="Group_462" data-name="Group 462">
          <rect id="Rectangle_328" data-name="Rectangle 328" width="23.6" height="22.33" transform="translate(6652.19 2869)" fill="#ffc550"/>
          <path id="Path_367" data-name="Path 367" d="M6675.791,2869v7.165h-4.39v-5.922Z" fill="#ffd160"/>
          <path id="Path_368" data-name="Path 368" d="M6671.4,2883.526h5.964v-12.042l-5.964-1.243Z" fill="#f7b64d"/>
          <path id="Path_369" data-name="Path 369" d="M6652.2,2869v7.165h4.387v-5.922Z" fill="#ffd160"/>
          <path id="Path_370" data-name="Path 370" d="M6656.589,2883.526h-5.963v-12.042l5.963-1.243Z" fill="#f7b64d"/>
          <rect id="Rectangle_329" data-name="Rectangle 329" width="26.753" height="39.516" transform="translate(6650.614 2871.484)" fill="#ffd160"/>
        </g>
        <g id="Group_463" data-name="Group 463">
          <rect id="Rectangle_330" data-name="Rectangle 330" width="19.374" height="18.33" transform="translate(6664.717 2876.52)" fill="#6bcef5"/>
          <path id="Path_371" data-name="Path 371" d="M6684.092,2876.52v5.881h-3.6v-4.862Z" fill="#80dcff"/>
          <path id="Path_372" data-name="Path 372" d="M6680.49,2888.443h4.9v-9.885l-4.9-1.019Z" fill="#52bfeb"/>
          <path id="Path_373" data-name="Path 373" d="M6664.727,2876.52v5.881h3.6v-4.862Z" fill="#80dcff"/>
          <path id="Path_374" data-name="Path 374" d="M6668.329,2888.443h-4.9v-9.885l4.9-1.019Z" fill="#52bfeb"/>
          <rect id="Rectangle_331" data-name="Rectangle 331" width="21.962" height="32.442" transform="translate(6663.423 2878.558)" fill="#80dcff"/>
        </g>
      </g>
      <path id="Path_375" data-name="Path 375" d="M6646.006,2887.072V2906.6a4.4,4.4,0,0,0,4.4,4.4H6685.6a4.4,4.4,0,0,0,4.4-4.4v-19.529Zm6.012,19.177a1.232,1.232,0,1,1-2.464,0v-15.306a1.232,1.232,0,1,1,2.464,0Zm5.738,0a1.236,1.236,0,0,1-1.231,1.234h0a1.235,1.235,0,0,1-1.23-1.234v-15.306a1.233,1.233,0,0,1,1.23-1.232h0a1.234,1.234,0,0,1,1.231,1.232Zm5.739,0a1.232,1.232,0,1,1-2.464,0v-15.306a1.232,1.232,0,1,1,2.464,0Zm5.737,0a1.232,1.232,0,1,1-2.465,0v-15.306a1.232,1.232,0,0,1,2.465,0Zm5.738,0a1.232,1.232,0,1,1-2.464,0v-15.306a1.232,1.232,0,1,1,2.464,0Zm5.737,0a1.231,1.231,0,1,1-2.463,0v-15.306a1.231,1.231,0,1,1,2.463,0Zm5.738,0a1.231,1.231,0,1,1-2.463,0v-15.306a1.231,1.231,0,1,1,2.463,0Z" fill="#fff"/>
      <rect id="Rectangle_332" data-name="Rectangle 332" width="43.987" height="1.157" transform="translate(6646.006 2887.072)" fill="#e6eaee"/>
      <path id="Rectangle_333" data-name="Rectangle 333" d="M1.407,0H46.977a1.408,1.408,0,0,1,1.408,1.408V4.749a1.409,1.409,0,0,1-1.409,1.409H1.409A1.409,1.409,0,0,1,0,4.749V1.407A1.407,1.407,0,0,1,1.407,0Z" transform="translate(6643.807 2880.914)" fill="#ff5c5c"/>
      <g id="Group_465" data-name="Group 465">
        <path id="Path_376" data-name="Path 376" d="M6650.5,2883.31a1.759,1.759,0,1,1,.938,2.306A1.76,1.76,0,0,1,6650.5,2883.31Z" fill="#34495e"/>
        <path id="Path_377" data-name="Path 377" d="M6642.091,2903.25a1.759,1.759,0,1,1,.938,2.3A1.759,1.759,0,0,1,6642.091,2903.25Z" fill="#ff5c5c"/>
        <path id="Path_378" data-name="Path 378" d="M6642.739,2903.525a1.055,1.055,0,0,0,.564,1.379h0a1.055,1.055,0,0,0,1.382-.56l8.41-19.941a1.064,1.064,0,0,0-.563-1.384h0a1.063,1.063,0,0,0-1.384.564Z" fill="#cdd3da"/>
      </g>
      <g id="Group_466" data-name="Group 466">
        <path id="Path_379" data-name="Path 379" d="M6685.5,2883.31a1.758,1.758,0,1,0-.939,2.306A1.76,1.76,0,0,0,6685.5,2883.31Z" fill="#34495e"/>
        <path id="Path_380" data-name="Path 380" d="M6693.908,2903.25a1.759,1.759,0,1,0-.937,2.3A1.758,1.758,0,0,0,6693.908,2903.25Z" fill="#ff5c5c"/>
        <path id="Path_381" data-name="Path 381" d="M6693.26,2903.525a1.055,1.055,0,0,1-.562,1.379h0a1.056,1.056,0,0,1-1.384-.56l-8.408-19.941a1.063,1.063,0,0,1,.563-1.384h0a1.062,1.062,0,0,1,1.383.564Z" fill="#cdd3da"/>
      </g>
    </g>
  </g>
</svg>
