<svg xmlns="http://www.w3.org/2000/svg" width="212" height="120" viewBox="0 0 212 120">
  <g id="Group_351" data-name="Group 351" transform="translate(-456 -1216)">
    <g id="名刺画像">
      <path id="Rectangle_279" data-name="Rectangle 279" d="M4,0H208a4,4,0,0,1,4,4V120a0,0,0,0,1,0,0H0a0,0,0,0,1,0,0V4A4,4,0,0,1,4,0Z" transform="translate(456 1216)" fill="#afe6cb"/>
    </g>
    <g id="Group_350" data-name="Group 350">
      <g id="Group_349" data-name="Group 349">
        <g id="Group_348" data-name="Group 348">
          <path id="Path_269" data-name="Path 269" d="M516.379,1238.08a4.437,4.437,0,1,1-4.435-4.433A4.435,4.435,0,0,1,516.379,1238.08Z" fill="#ff9a4c"/>
          <rect id="Rectangle_280" data-name="Rectangle 280" width="36.439" height="42.012" transform="translate(543.868 1255.562) rotate(-18.731)" fill="#ff9a4c"/>
          <path id="Path_270" data-name="Path 270" d="M598.444,1309.052h-57.82a6.876,6.876,0,0,1-6.876-6.874v-.183a6.867,6.867,0,0,1,5.406-6.714l48.445-10.645a2.125,2.125,0,1,1,.915,4.151l-48.449,10.647a2.623,2.623,0,0,0-2.061,2.561v.183a2.619,2.619,0,0,0,2.62,2.623h57.82a2.125,2.125,0,1,1,0,4.251Z" fill="#fff"/>
          <path id="Path_271" data-name="Path 271" d="M542.129,1298.928a2.127,2.127,0,0,1-2.1-1.791l-8.745-54.726a2.631,2.631,0,0,0-2.6-2.212H511.944a2.125,2.125,0,1,1,0-4.249h16.745a6.875,6.875,0,0,1,6.8,5.793l8.747,54.723a2.127,2.127,0,0,1-1.765,2.434A1.965,1.965,0,0,1,542.129,1298.928Z" fill="#fff"/>
          <g id="Group_346" data-name="Group 346">
            <path id="Path_272" data-name="Path 272" d="M551.919,1311.575a6.784,6.784,0,1,1-6.781-6.774A6.78,6.78,0,0,1,551.919,1311.575Z" fill="#34495e"/>
            <path id="Path_273" data-name="Path 273" d="M548.524,1311.575a3.389,3.389,0,1,1-3.386-3.386A3.384,3.384,0,0,1,548.524,1311.575Z" fill="#fff"/>
          </g>
          <g id="Group_347" data-name="Group 347">
            <path id="Path_274" data-name="Path 274" d="M600.572,1311.575a6.784,6.784,0,1,1-6.784-6.774A6.781,6.781,0,0,1,600.572,1311.575Z" fill="#34495e"/>
            <path id="Path_275" data-name="Path 275" d="M597.177,1311.575a3.391,3.391,0,1,1-3.389-3.386A3.388,3.388,0,0,1,597.177,1311.575Z" fill="#fff"/>
          </g>
        </g>
        <path id="Path_276" data-name="Path 276" d="M599.836,1256.538a2.484,2.484,0,0,0-1.77-.735H533.379l7.011,43.557v0L598.6,1286.57a2.512,2.512,0,0,0,1.969-2.441V1258.3A2.484,2.484,0,0,0,599.836,1256.538Zm-54.522,37.528a1.847,1.847,0,0,1-.254.018,1.586,1.586,0,0,1-1.564-1.331l-4.988-31a1.585,1.585,0,0,1,3.129-.5l4.989,31A1.581,1.581,0,0,1,545.314,1294.066Zm8.272-1.821a1.566,1.566,0,0,1-.224.016,1.587,1.587,0,0,1-1.569-1.36l-4.155-29.178a1.583,1.583,0,0,1,3.135-.444l4.161,29.176A1.584,1.584,0,0,1,553.586,1292.245Zm8.269-1.82a1.849,1.849,0,0,1-.2.011,1.578,1.578,0,0,1-1.566-1.393l-3.33-27.351a1.586,1.586,0,0,1,3.149-.382l3.325,27.353A1.585,1.585,0,0,1,561.855,1290.425Zm8.264-1.82c-.054,0-.107.006-.157.006a1.582,1.582,0,0,1-1.574-1.43l-2.5-25.527a1.585,1.585,0,0,1,3.155-.307l2.5,25.529A1.586,1.586,0,0,1,570.119,1288.6Zm8.257-1.82c-.039,0-.075.005-.114.005a1.583,1.583,0,0,1-1.577-1.474l-1.664-23.706a1.585,1.585,0,0,1,3.163-.22l1.661,23.7A1.583,1.583,0,0,1,578.376,1286.785Zm8.25-1.824c-.022,0-.039,0-.061,0a1.584,1.584,0,0,1-1.583-1.521l-.831-21.881a1.583,1.583,0,0,1,1.524-1.641,1.562,1.562,0,0,1,1.642,1.52l.83,21.88A1.577,1.577,0,0,1,586.626,1284.961Zm9.827-3.405a1.586,1.586,0,0,1-3.171,0V1261.5a1.586,1.586,0,0,1,3.171,0Z" fill="#fff"/>
      </g>
    </g>
  </g>
</svg>
