<svg xmlns="http://www.w3.org/2000/svg" width="120" height="68" viewBox="0 0 120 68">
  <g id="Group_697" data-name="Group 697" transform="translate(-512 -195.999)">
    <g id="名刺画像">
      <rect id="Rectangle_560" data-name="Rectangle 560" width="120" height="68" rx="4" transform="translate(512 195.999)" fill="#afe6cb"/>
    </g>
    <g id="Group_696" data-name="Group 696">
      <g id="Group_695" data-name="Group 695">
        <g id="Group_694" data-name="Group 694">
          <path id="Path_571" data-name="Path 571" d="M546.177,208.511a2.512,2.512,0,1,1-2.51-2.512A2.511,2.511,0,0,1,546.177,208.511Z" fill="#ff9a4c"/>
          <rect id="Rectangle_561" data-name="Rectangle 561" width="20.628" height="23.804" transform="translate(561.729 218.42) rotate(-18.751)" fill="#ff9a4c"/>
          <path id="Path_572" data-name="Path 572" d="M592.629,248.729H559.9a3.9,3.9,0,0,1-3.893-3.9v-.1a3.891,3.891,0,0,1,3.06-3.8l27.422-6.032a1.2,1.2,0,1,1,.518,2.352l-27.424,6.033a1.486,1.486,0,0,0-1.166,1.452v.1a1.482,1.482,0,0,0,1.483,1.486h32.728a1.2,1.2,0,0,1,0,2.409Z" fill="#fff"/>
          <path id="Path_573" data-name="Path 573" d="M560.752,242.992a1.2,1.2,0,0,1-1.187-1.015l-4.95-31.011a1.489,1.489,0,0,0-1.47-1.254h-9.478a1.2,1.2,0,1,1,0-2.408h9.478a3.894,3.894,0,0,1,3.846,3.283l4.952,31.01a1.206,1.206,0,0,1-1,1.379A1.057,1.057,0,0,1,560.752,242.992Z" fill="#fff"/>
          <g id="Group_692" data-name="Group 692">
            <path id="Path_574" data-name="Path 574" d="M566.294,250.158a3.84,3.84,0,1,1-3.839-3.838A3.84,3.84,0,0,1,566.294,250.158Z" fill="#34495e"/>
            <path id="Path_575" data-name="Path 575" d="M564.372,250.158a1.919,1.919,0,1,1-1.917-1.918A1.917,1.917,0,0,1,564.372,250.158Z" fill="#fff"/>
          </g>
          <g id="Group_693" data-name="Group 693">
            <path id="Path_576" data-name="Path 576" d="M593.833,250.158a3.84,3.84,0,1,1-3.84-3.838A3.84,3.84,0,0,1,593.833,250.158Z" fill="#34495e"/>
            <path id="Path_577" data-name="Path 577" d="M591.912,250.158a1.919,1.919,0,1,1-1.919-1.918A1.919,1.919,0,0,1,591.912,250.158Z" fill="#fff"/>
          </g>
        </g>
        <path id="Path_578" data-name="Path 578" d="M593.417,218.971a1.406,1.406,0,0,0-1-.417H555.8l3.969,24.683v0l32.951-7.25a1.423,1.423,0,0,0,1.114-1.383V219.971A1.408,1.408,0,0,0,593.417,218.971Zm-30.862,21.265a.88.88,0,0,1-.144.011.9.9,0,0,1-.885-.754L558.7,221.925a.9.9,0,0,1,1.772-.284l2.824,17.567A.894.894,0,0,1,562.555,240.236Zm4.682-1.031a.9.9,0,0,1-1.014-.762l-2.352-16.534a.9.9,0,1,1,1.774-.252L568,238.191A.9.9,0,0,1,567.237,239.205Zm4.681-1.031a1.034,1.034,0,0,1-.111.006.894.894,0,0,1-.886-.79l-1.885-15.5a.9.9,0,0,1,1.782-.216l1.882,15.5A.9.9,0,0,1,571.918,238.174Zm4.677-1.032-.088,0a.9.9,0,0,1-.891-.81L574.2,221.87a.9.9,0,1,1,1.786-.174l1.413,14.466A.9.9,0,0,1,576.595,237.142Zm4.675-1.031c-.022,0-.043,0-.065,0a.9.9,0,0,1-.893-.835l-.942-13.433a.9.9,0,0,1,1.791-.124l.94,13.432A.9.9,0,0,1,581.27,236.111Zm4.669-1.034H585.9a.9.9,0,0,1-.9-.862l-.471-12.4a.9.9,0,0,1,.863-.93.885.885,0,0,1,.929.862l.47,12.4A.892.892,0,0,1,585.939,235.077Zm5.563-1.929a.9.9,0,0,1-1.8,0V221.784a.9.9,0,1,1,1.8,0Z" fill="#fff"/>
      </g>
    </g>
  </g>
</svg>
