<svg xmlns="http://www.w3.org/2000/svg" width="120" height="68" viewBox="0 0 120 68">
  <g id="Group_703" data-name="Group 703" transform="translate(-512 -288)">
    <g id="名刺画像">
      <rect id="Rectangle_562" data-name="Rectangle 562" width="120" height="68" rx="4" transform="translate(512 288)" fill="#fda7a7"/>
    </g>
    <g id="Group_702" data-name="Group 702">
      <g id="Group_701" data-name="Group 701">
        <g id="Group_700" data-name="Group 700">
          <path id="Path_579" data-name="Path 579" d="M546.177,300.512a2.512,2.512,0,1,1-2.51-2.512A2.511,2.511,0,0,1,546.177,300.512Z" fill="#ff5c5c"/>
          <rect id="Rectangle_563" data-name="Rectangle 563" width="20.628" height="23.804" transform="translate(561.729 310.421) rotate(-18.751)" fill="#ff5c5c"/>
          <path id="Path_580" data-name="Path 580" d="M592.629,340.729H559.9a3.894,3.894,0,0,1-3.893-3.895v-.1a3.889,3.889,0,0,1,3.06-3.8l27.422-6.032a1.2,1.2,0,1,1,.518,2.352l-27.424,6.033a1.483,1.483,0,0,0-1.166,1.452v.1a1.483,1.483,0,0,0,1.483,1.487h32.728a1.2,1.2,0,0,1,0,2.408Z" fill="#fff"/>
          <path id="Path_581" data-name="Path 581" d="M560.752,334.993a1.2,1.2,0,0,1-1.187-1.015l-4.95-31.012a1.489,1.489,0,0,0-1.47-1.253h-9.478a1.2,1.2,0,1,1,0-2.408h9.478a3.892,3.892,0,0,1,3.846,3.283l4.952,31.01a1.206,1.206,0,0,1-1,1.379A1.154,1.154,0,0,1,560.752,334.993Z" fill="#fff"/>
          <g id="Group_698" data-name="Group 698">
            <path id="Path_582" data-name="Path 582" d="M566.294,342.159a3.84,3.84,0,1,1-3.839-3.838A3.84,3.84,0,0,1,566.294,342.159Z" fill="#34495e"/>
            <path id="Path_583" data-name="Path 583" d="M564.372,342.159a1.919,1.919,0,1,1-1.917-1.919A1.916,1.916,0,0,1,564.372,342.159Z" fill="#fff"/>
          </g>
          <g id="Group_699" data-name="Group 699">
            <path id="Path_584" data-name="Path 584" d="M593.833,342.159a3.84,3.84,0,1,1-3.84-3.838A3.84,3.84,0,0,1,593.833,342.159Z" fill="#34495e"/>
            <path id="Path_585" data-name="Path 585" d="M591.912,342.159a1.919,1.919,0,1,1-1.919-1.919A1.918,1.918,0,0,1,591.912,342.159Z" fill="#fff"/>
          </g>
        </g>
        <path id="Path_586" data-name="Path 586" d="M593.417,310.971a1.409,1.409,0,0,0-1-.416H555.8l3.969,24.683v0l32.951-7.251a1.421,1.421,0,0,0,1.114-1.383V311.972A1.41,1.41,0,0,0,593.417,310.971Zm-30.862,21.266a1.008,1.008,0,0,1-.144.01.9.9,0,0,1-.885-.753L558.7,313.926a.9.9,0,0,1,1.772-.285l2.824,17.568A.9.9,0,0,1,562.555,332.237Zm4.682-1.031a.9.9,0,0,1-1.014-.762l-2.352-16.534a.9.9,0,1,1,1.774-.252L568,330.191A.9.9,0,0,1,567.237,331.206Zm4.681-1.032a1.036,1.036,0,0,1-.111.007.894.894,0,0,1-.886-.79l-1.885-15.5a.9.9,0,1,1,1.782-.216l1.882,15.5A.9.9,0,0,1,571.918,330.174Zm4.677-1.031-.088,0a.9.9,0,0,1-.891-.81L574.2,313.871a.9.9,0,1,1,1.786-.174l1.413,14.466A.9.9,0,0,1,576.595,329.143Zm4.675-1.031-.065,0a.9.9,0,0,1-.893-.835l-.942-13.433a.9.9,0,0,1,1.791-.125l.94,13.433A.9.9,0,0,1,581.27,328.112Zm4.669-1.034H585.9a.9.9,0,0,1-.9-.862l-.471-12.4a.9.9,0,0,1,.863-.93.885.885,0,0,1,.929.861l.47,12.4A.892.892,0,0,1,585.939,327.078Zm5.563-1.929a.9.9,0,0,1-1.8,0V313.784a.9.9,0,0,1,1.8,0Z" fill="#fff"/>
      </g>
    </g>
  </g>
</svg>
