<svg xmlns="http://www.w3.org/2000/svg" width="52.21" height="52.25" viewBox="0 0 52.21 52.25">
  <g id="logoEsm" transform="translate(-1779.827 -184)">
    <path id="Path_70" data-name="Path 70" d="M1807.47,196.8a15.881,15.881,0,0,1,7.268,2.954,2.1,2.1,0,0,1-.093,3.36l-16.419,11.5a2.091,2.091,0,0,0-.514,2.912h0a2.091,2.091,0,0,0,2.912.514l27.148-19.009a1.045,1.045,0,0,0-.093-1.773,28.327,28.327,0,0,0-20.3-2.5A1.046,1.046,0,0,0,1807.47,196.8Z" fill="#00a4e3"/>
    <path id="Path_71" data-name="Path 71" d="M1822.362,210.47a2.092,2.092,0,0,0-.875,1.478A15.662,15.662,0,0,1,1793,219c-5.057-7.366-2.7-17.414,4.786-22.293a30.255,30.255,0,0,1,25.284-3.614,1.046,1.046,0,0,0,1.007-1.765,26.177,26.177,0,1,0,7.6,14.46,1.048,1.048,0,0,0-1.633-.7Z" fill="#10609c"/>
  </g>
</svg>
