<svg xmlns="http://www.w3.org/2000/svg" width="28.874" height="30.4" viewBox="0 0 28.874 30.4">
  <g id="Group_6826" data-name="Group 6826" transform="translate(-3764 -945)">
    <path id="Path_388" data-name="Path 388" d="M3792.61,972.434,3783.646,963a11.891,11.891,0,0,0,1.732-9.2,11.053,11.053,0,0,0-8.1-8.512c-7.875-1.816-14.731,5.4-13.006,13.693a11.059,11.059,0,0,0,8.084,8.533,10.4,10.4,0,0,0,8.742-1.824l8.962,9.437a.873.873,0,0,0,1.278,0l1.276-1.343A.989.989,0,0,0,3792.61,972.434ZM3781.958,957.6a7.448,7.448,0,0,1-5.989,6.306c-4.878.787-9.02-3.574-8.271-8.709a7.447,7.447,0,0,1,5.989-6.3C3778.565,948.106,3782.7,952.465,3781.958,957.6Z" transform="translate(0 0)" fill="#999"/>
    <path id="Path_389" data-name="Path 389" d="M3773,950h-6v2h6Z" transform="translate(4.862 5.32)" fill="#999"/>
  </g>
</svg>
