<svg xmlns="http://www.w3.org/2000/svg" width="16" height="16" viewBox="0 0 16 16">
  <g id="Group_774" data-name="Group 774" transform="translate(-4310 -496)">
    <path id="Path_364" data-name="Path 364" d="M4325.5,508h-1a.5.5,0,0,0-.5.5V510h-12v-1.5a.5.5,0,0,0-.5-.5h-1a.5.5,0,0,0-.5.5V511a1,1,0,0,0,1,1h14a1,1,0,0,0,1-1v-2.5A.5.5,0,0,0,4325.5,508Z" fill="#fff"/>
    <path id="Path_365" data-name="Path 365" d="M4312.853,503.06a.5.5,0,0,0,.708,0l3.439-3.439V507.5a.5.5,0,0,0,.5.5h1a.5.5,0,0,0,.5-.5v-7.879l3.439,3.439a.5.5,0,0,0,.708,0l.707-.706a.5.5,0,0,0,0-.708l-5.5-5.5a.5.5,0,0,0-.708,0l-5.5,5.5a.5.5,0,0,0,0,.708Z" fill="#fff"/>
  </g>
</svg>
