<svg xmlns="http://www.w3.org/2000/svg" width="21.485" height="24.41" viewBox="0 0 21.485 24.41">
  <path id="ic_settings_backup_restore_24px" d="M8.137,13.743a2.326,2.326,0,1,1,2.325,2.387A2.364,2.364,0,0,1,8.137,13.743ZM10.461,3A10.733,10.733,0,0,1,21.074,13.743H24.41L19.76,18.517l-4.649-4.774h2.976c0-4.619-3.127-7.88-7.625-7.88s-7.408,3.261-7.408,7.88,3.07,7.578,7.408,7.616v3.127h0A10.606,10.606,0,0,1,0,13.743,10.606,10.606,0,0,1,10.461,3Z" transform="translate(24.485) rotate(90)" fill="#999"/>
</svg>
