<svg xmlns="http://www.w3.org/2000/svg" width="74.01" height="80" viewBox="0 0 74.01 80">
  <g id="Group_932" data-name="Group 932" transform="translate(-682.995 -532)">
    <g id="Group_930" data-name="Group 930">
      <g id="Group_929" data-name="Group 929">
        <path id="Path_420" data-name="Path 420" d="M737.4,611.656a1.837,1.837,0,0,1-1.835-1.835v-7.229a2.883,2.883,0,0,0-3.029-3.028,3.2,3.2,0,0,0-3.2,3.028v7.229a1.836,1.836,0,0,1-3.671,0v-5.4c0-.765.011-1.291.011-1.825a3.143,3.143,0,0,0-1.17-2.467,2.85,2.85,0,0,0-1.276-.544,1.818,1.818,0,0,0-1.59.507c-.018.019-.091.1-.125.138a.42.42,0,0,1-.736-.312,3.82,3.82,0,0,1,3.653-3.538,4.713,4.713,0,0,1,4.47,2.94c2.211-2.986,4.654-2.942,5.44-2.94a4.811,4.811,0,0,1,3.762,1.694,4.673,4.673,0,0,1,1.131,3.223v8.528A1.838,1.838,0,0,1,737.4,611.656Z" fill="#1c4378"/>
        <path id="Path_421" data-name="Path 421" d="M717.643,611.655a1.828,1.828,0,0,1-1.818-1.835V598.233a1.81,1.81,0,1,1,3.619,0l.017,11.587A1.828,1.828,0,0,1,717.643,611.655Z" fill="#1c4378"/>
        <path id="Path_422" data-name="Path 422" d="M744.261,594.759a1.283,1.283,0,0,0-1.594.866.5.5,0,0,0-.018.08l-.022.124a.22.22,0,0,0-.008.043L741.88,600a.8.8,0,0,0,.561.917.809.809,0,0,0,.232.034.8.8,0,0,0,.738-.5l1.672-3.973a1.192,1.192,0,0,0,.044-.126A1.284,1.284,0,0,0,744.261,594.759Z" fill="#1c4378"/>
        <path id="Path_423" data-name="Path 423" d="M706.375,611.994a6.373,6.373,0,0,1-3.809-1.164,1.667,1.667,0,0,1-.686-1.18,1.642,1.642,0,0,1,1.634-1.814,1.584,1.584,0,0,1,.949.326,3.689,3.689,0,0,0,2.115.826,1.677,1.677,0,0,0,1.864-1.5c0-.77-.716-1.3-1.79-1.847l-1.3-.663c-2.422-1.225-3.6-2.7-3.6-4.521,0-2.42,2.06-4.244,4.792-4.244a6.032,6.032,0,0,1,3.484,1.081,1.574,1.574,0,0,1,.663,1.15,1.611,1.611,0,0,1-1.6,1.755,1.531,1.531,0,0,1-.829-.276,3.2,3.2,0,0,0-1.665-.677c-1.085-.021-1.612.577-1.612,1.237s.589.939,1.418,1.367l1.509.771c2.734,1.4,3.8,2.73,3.8,4.751C711.714,610.095,709.519,611.994,706.375,611.994Z" fill="#1c4378"/>
        <path id="Path_424" data-name="Path 424" d="M751.666,611.994a6.376,6.376,0,0,1-3.81-1.164,1.673,1.673,0,0,1-.686-1.18,1.643,1.643,0,0,1,1.635-1.814,1.584,1.584,0,0,1,.949.326,3.689,3.689,0,0,0,2.114.826,1.676,1.676,0,0,0,1.864-1.5c0-.77-.715-1.3-1.789-1.847l-1.3-.663c-2.422-1.225-3.6-2.7-3.6-4.521,0-2.42,2.06-4.244,4.792-4.244a6.035,6.035,0,0,1,3.484,1.081,1.573,1.573,0,0,1,.662,1.15,1.6,1.6,0,0,1-.457,1.275,1.621,1.621,0,0,1-1.145.48,1.527,1.527,0,0,1-.828-.276,3.2,3.2,0,0,0-1.666-.677c-1.084-.021-1.611.577-1.611,1.237s.589.939,1.417,1.367l1.509.771c2.735,1.4,3.8,2.73,3.8,4.751C757.005,610.095,754.809,611.994,751.666,611.994Z" fill="#1c4378"/>
        <g id="Group_928" data-name="Group 928">
          <path id="Path_425" data-name="Path 425" d="M690.674,596.209A7.9,7.9,0,0,0,690.712,612c3.72,0,5.241-1.58,5.631-1.922a1.593,1.593,0,0,0-1.79-2.6,12.635,12.635,0,0,1-1.065.722,5.532,5.532,0,0,1-2.776.605,4.728,4.728,0,0,1,.015-9.449,4.1,4.1,0,0,1,4.044,2.456.389.389,0,0,1-.385.562h-5.01a1.714,1.714,0,0,0-1.4.67,1.826,1.826,0,0,0-.332.63,2.606,2.606,0,0,0-.05.964.686.686,0,0,0,.753.619h8.961a1.149,1.149,0,0,0,1.1-1.184C698.23,599.564,695.162,596.209,690.674,596.209Z" fill="#1c4378"/>
        </g>
      </g>
    </g>
    <g id="Group_931" data-name="Group 931">
      <path id="Path_426" data-name="Path 426" d="M719.853,552.163l-.019,0h0a6.082,6.082,0,1,0,4.737,11.071h0l0,0c.113-.069,18.112-12.348,19.433-13.308a1.4,1.4,0,0,0-1.148-2.478C741.129,547.8,720,552.123,719.853,552.163Z" fill="#0ba7fd"/>
      <path id="Path_427" data-name="Path 427" d="M744.088,567.3a4.031,4.031,0,0,0-2.11-2.881,4.372,4.372,0,0,0-3.972-.005,8.665,8.665,0,0,0-3.043,2.876c-.873,1.169-5.284,7.527-15.3,6.711a15.982,15.982,0,0,1-14.273-17.674,17.941,17.941,0,0,1,2.446-7.421,17.132,17.132,0,0,1,13.519-7.984,16.328,16.328,0,0,1,5.647.549,7.626,7.626,0,0,1,1.9.9,1.433,1.433,0,0,1,.562.85,1.369,1.369,0,0,1-.126.946.913.913,0,0,0-.125.535.885.885,0,0,0,.435.7,1.09,1.09,0,0,0,.651.1c.368-.075,3.391-.682,4.046-.826l.007,0c2.383-.484,4.629-.949,4.629-.949a2.313,2.313,0,0,0,1.57-1.251,2.228,2.228,0,0,0-.394-2.421,22.492,22.492,0,0,0-2.531-2.34,25.658,25.658,0,0,0-13.393-5.561,25.987,25.987,0,0,0-28.64,23.147c-1.448,14.167,8.92,27.206,23.108,28.431a25.8,25.8,0,0,0,21.5-8.56C740.781,574.524,744.576,570.108,744.088,567.3Z" fill="#0f6db5"/>
    </g>
  </g>
</svg>
