<svg id="ic-flag" xmlns="http://www.w3.org/2000/svg" width="20" height="17" viewBox="0 0 20 17">
  <path id="_2" data-name="2" d="M275.235,835.483a1.073,1.073,0,0,1-.347-.055.863.863,0,0,1-.587-1.141l6.37-15.227a1.034,1.034,0,0,1,1.279-.521.861.861,0,0,1,.585,1.141L276.167,834.9a1,1,0,0,1-.932.578" transform="translate(-274.239 -818.483)" fill="#fe0404"/>
  <path id="_1" data-name="1" d="M280.315,819.5c2.46.38,8.122,3.232,7.365,5.315l-.217.9s1.026,2.714,4.812,2.618c-.759,2.179-2.835,2.837-5.379,2.969-3.843-.2-3.322-1.176-3.322-1.176s3.17-1.5-6.666-2.485Z" transform="translate(-272.275 -817.93)" fill="#fe0404"/>
</svg>
