<svg xmlns="http://www.w3.org/2000/svg" width="13.37" height="11.735" viewBox="0 0 13.37 11.735">
  <g id="Group_986" data-name="Group 986" transform="translate(-274.239 -818.483)">
    <g id="Group_16452" data-name="Group 16452">
      <g id="Group_16453" data-name="Group 16453" transform="translate(274.239 818.483)">
        <path id="Path_18214" data-name="Path 18214" d="M274.905,830.218a.7.7,0,0,1-.232-.038.6.6,0,0,1-.392-.787l4.259-10.512a.683.683,0,0,1,.855-.36.6.6,0,0,1,.391.787l-4.258,10.51a.665.665,0,0,1-.623.4" transform="translate(-274.239 -818.483)" fill="#0f6db5"/>
        <path id="Path_18215" data-name="Path 18215" d="M279.186,819.5c1.644.263,5.43,2.231,4.924,3.669l-.145.624a3.165,3.165,0,0,0,3.217,1.807c-.507,1.5-1.895,1.959-3.6,2.049-2.569-.135-2.221-.812-2.221-.812s2.119-1.035-4.456-1.716Z" transform="translate(-273.811 -818.415)" fill="#0f6db5"/>
      </g>
    </g>
  </g>
</svg>
