<svg xmlns="http://www.w3.org/2000/svg" xmlns:xlink="http://www.w3.org/1999/xlink" width="18" height="17" viewBox="0 0 18 17">
  <defs>
    <clipPath id="clip-path">
      <rect id="Rectangle_11877" data-name="Rectangle 11877" width="18" height="17" transform="translate(-0.435)" fill="none"/>
    </clipPath>
    <clipPath id="clip-path-2">
      <rect id="Rectangle_11876" data-name="Rectangle 11876" width="14.455" height="14.008" fill="none"/>
    </clipPath>
  </defs>
  <g id="Group_14489" data-name="Group 14489" transform="translate(-10912.565 -817)">
    <g id="Group_14488" data-name="Group 14488" transform="translate(10913 817)" clip-path="url(#clip-path)">
      <g id="Group_14487" data-name="Group 14487" transform="translate(2.111 2.453)" opacity="0.3">
        <g id="Group_14486" data-name="Group 14486">
          <g id="Group_14485" data-name="Group 14485" clip-path="url(#clip-path-2)">
            <g id="Group_14484" data-name="Group 14484">
              <g id="Group_14483" data-name="Group 14483" clip-path="url(#clip-path-2)">
                <path id="Path_15932" data-name="Path 15932" d="M10915.4,832.934a.706.706,0,0,1-.253-.046.735.735,0,0,1-.423-.94l4.6-12.547a.717.717,0,0,1,.926-.429.734.734,0,0,1,.422.94l-4.6,12.546a.716.716,0,0,1-.673.476" transform="translate(-10914.684 -818.926)" fill="#040000"/>
                <path id="Path_15933" data-name="Path 15933" d="M10919.815,819.939c1.778.313,5.871,2.663,5.322,4.379l-.156.745a3.442,3.442,0,0,0,3.478,2.157c-.549,1.8-2.049,2.338-3.887,2.446-2.779-.162-2.4-.969-2.4-.969s2.29-1.235-4.819-2.048Z" transform="translate(-10914.005 -818.649)" fill="#040000"/>
              </g>
            </g>
          </g>
        </g>
      </g>
      <path id="Path_15934" data-name="Path 15934" d="M10914.961,832.491a.671.671,0,0,1-.25-.046.733.733,0,0,1-.425-.94l4.6-12.547a.716.716,0,0,1,.925-.429.734.734,0,0,1,.423.94l-4.6,12.546a.717.717,0,0,1-.673.476" transform="translate(-10912.686 -816.595)" fill="#f5b447"/>
      <path id="Path_15935" data-name="Path 15935" d="M10919.371,819.5c1.778.313,5.871,2.663,5.323,4.38l-.156.745a3.442,3.442,0,0,0,3.478,2.157c-.548,1.8-2.05,2.338-3.888,2.446-2.778-.162-2.4-.969-2.4-.969s2.291-1.235-4.818-2.048Z" transform="translate(-10912.004 -816.317)" fill="#e62d2a"/>
    </g>
  </g>
</svg>
