<svg id="ic-notebook" xmlns="http://www.w3.org/2000/svg" width="12.624" height="15.149" viewBox="0 0 12.624 15.149">
  <path id="ic-notebook-2" data-name="ic-notebook" d="M54.344,0H43.614a.948.948,0,0,0-.947.947V3.156h2.209a.316.316,0,0,0,0-.631h-.889a.945.945,0,1,1,.889,1.262H42.667V6.312h2.209a.316.316,0,1,0,0-.631h-.889a.945.945,0,1,1,.889,1.262H42.667V9.468h2.209a.316.316,0,0,0,0-.631h-.889a.945.945,0,1,1,.889,1.262H42.667v2.525h2.209a.316.316,0,1,0,0-.631h-.889a.945.945,0,1,1,.889,1.262H42.667V14.2a.948.948,0,0,0,.947.947H54.344a.948.948,0,0,0,.947-.947V.947A.948.948,0,0,0,54.344,0ZM51.82,11.993H47.4a.316.316,0,1,1,0-.631H51.82a.316.316,0,1,1,0,.631Zm1.262-2.525H47.4a.316.316,0,0,1,0-.631h5.681a.316.316,0,0,1,0,.631Zm0-2.525H47.4a.316.316,0,0,1,0-.631h5.681a.316.316,0,0,1,0,.631Zm0-2.525H47.4a.316.316,0,1,1,0-.631h5.681a.316.316,0,1,1,0,.631Z" transform="translate(-42.667)" fill="#999"/>
</svg>
