<svg xmlns="http://www.w3.org/2000/svg" width="25" height="25" viewBox="0 0 25 25">
  <g id="Component_30_2" data-name="Component 30 – 2" transform="translate(0.5 0.5)">
    <g id="Group_298" data-name="Group 298" transform="translate(-287.938 -5105.944)">
      <g id="Group_297" data-name="Group 297">
        <path id="Path_272" data-name="Path 272" d="M299.938,5111.444a6.5,6.5,0,1,1-6.5,6.5,6.508,6.508,0,0,1,6.5-6.5m0-1.5a8,8,0,1,0,8,8,8,8,0,0,0-8-8Z" fill="#999" stroke="#fb0000" stroke-width="1"/>
        <circle id="Ellipse_28" data-name="Ellipse 28" cx="1" cy="1" r="1" transform="translate(298.938 5119.944)" fill="#999" stroke="#fb0000" stroke-width="1"/>
        <path id="Path_273" data-name="Path 273" d="M300.938,5116.944" fill="#999" stroke="#fb0000" stroke-width="1"/>
        <path id="Path_274" data-name="Path 274" d="M302.329,5116.094a2.083,2.083,0,0,0-2.33-2.15,3,3,0,0,0-2.289,1.084l-.163.185,1.172,1.069.169-.174a1.292,1.292,0,0,1,.931-.484.532.532,0,0,1,.6.57c0,.3-.257.569-.555.879a2.417,2.417,0,0,0-.9,2.161l.032.213h1.773l-.029-.276c-.065-.6.289-.962.7-1.376A2.358,2.358,0,0,0,302.329,5116.094Z" fill="#999" stroke="#fb0000" stroke-width="1"/>
      </g>
    </g>
    <rect id="Rectangle_243" data-name="Rectangle 243" width="24" height="24" rx="8" fill="none" stroke="#fb0000" stroke-width="1"/>
  </g>
</svg>
