<svg xmlns="http://www.w3.org/2000/svg" width="14.795" height="6.493" viewBox="0 0 14.795 6.493">
  <g id="Group_28148" data-name="Group 28148" transform="translate(-25.245 -2.619)">
    <path id="Path_31074" data-name="Path 31074" d="M1780.167,4843.465H1774.5c-.312,0-.566.171-.566.382v4.2c0,.211.254.382.566.382h3.377v1.5c.036.024,0,.034,0,0l1.719-1.5h.566c.313,0,.566-.171.566-.382v-4.2C1780.733,4843.636,1780.479,4843.465,1780.167,4843.465Z" transform="translate(-1748.693 -4840.846)" fill="#0f6eb5"/>
    <path id="Path_31075" data-name="Path 31075" d="M1780.167,4843.465H1774.5c-.312,0-.566.171-.566.382v4.2c0,.211.254.382.566.382h3.377v1.5c.036.024,0,.034,0,0l1.719-1.5h.566c.313,0,.566-.171.566-.382v-4.2C1780.733,4843.636,1780.479,4843.465,1780.167,4843.465Z" transform="translate(-1740.693 -4840.846)" fill="#0f6eb5"/>
  </g>
</svg>
