<svg xmlns="http://www.w3.org/2000/svg" width="16" height="15.266" viewBox="0 0 16 15.266">
    <path id="yellowStar" d="M7331.248,2004.6a.51.51,0,0,0-.5-.469h-5.363l-.668-2.056-.989-3.045a.5.5,0,0,0-.191-.26.519.519,0,0,0-.572,0,.5.5,0,0,0-.191.26l-.989,3.045-.668,2.056h-5.363a.5.5,0,0,0-.5.494.488.488,0,0,0,.208.413l4.339,3.152-1,3.069-.661,2.032a.507.507,0,0,0-.015.226.247.247,0,0,0,.009.049.477.477,0,0,0,.084.184l.009.009a.5.5,0,0,0,.148.12.327.327,0,0,0,.042.022.489.489,0,0,0,.2.047l.006,0a.5.5,0,0,0,.092-.015.448.448,0,0,0,.052-.008.509.509,0,0,0,.149-.075l4.339-3.153,4.339,3.153a.511.511,0,0,0,.149.075.425.425,0,0,0,.052.008.5.5,0,0,0,.092.015l.006,0a.489.489,0,0,0,.2-.047.3.3,0,0,0,.042-.022.486.486,0,0,0,.147-.12l.01-.009a.5.5,0,0,0,.084-.184.427.427,0,0,0,.009-.049.481.481,0,0,0-.016-.226l-.66-2.032-1-3.069,4.339-3.152a.488.488,0,0,0,.208-.413C7331.253,2004.613,7331.249,2004.6,7331.248,2004.6Z" transform="translate(-7315.253 -1998.68)" fill="#ffb946"/>
</svg>
