<svg xmlns="http://www.w3.org/2000/svg" width="20.595" height="16" viewBox="0 0 20.595 16">
  <g id="ic-out" transform="translate(-0.005)">
    <path id="path2" d="M5.7,0H18.6a2,2,0,0,1,2,2V14a2,2,0,0,1-2,2H5.7A2.2,2.2,0,0,1,4,15.1L.3,9.1a2.2,2.2,0,0,1,0-2.2L4,.9A2.2,2.2,0,0,1,5.7,0" fill="#ededed"/>
    <path id="path1" d="M11.8,4.8H15l-.4-.4a.5.5,0,0,1,0-.7l.3-.4c.2-.2.6-.2.7,0l1.9,1.9a.5.5,0,0,1,0,.7L15.6,7.8c-.1.2-.5.2-.7,0l-.3-.4a.5.5,0,0,1,0-.7l.4-.4H11.8A2.5,2.5,0,0,0,9.2,8.5a2.5,2.5,0,0,0,4.9.7.7.7,0,0,1,.5-.4h.5a.6.6,0,0,1,.5.6,4,4,0,0,1-4,3.4A3.9,3.9,0,0,1,7.7,8.4a4,4,0,0,1,4.1-3.6" fill="#0f6db5"/>
  </g>
</svg>
