<svg xmlns="http://www.w3.org/2000/svg" width="16" height="15.267" viewBox="0 0 16 15.267">
  <path id="Path_31072" data-name="Path 31072" d="M1796.469,3949.763a.512.512,0,0,0-.055-.191.482.482,0,0,0-.443-.278h-5.363l-.668-2.056-.99-3.045a.487.487,0,0,0-.191-.26.511.511,0,0,0-.571,0,.487.487,0,0,0-.191.26l-.99,3.045-.668,2.056h-5.363a.5.5,0,0,0-.5.494.489.489,0,0,0,.208.413l4.339,3.152-1,3.068-.66,2.033a.488.488,0,0,0-.016.226.38.38,0,0,0,.009.048.485.485,0,0,0,.085.185l.009.009a.507.507,0,0,0,.148.12.373.373,0,0,0,.041.022.489.489,0,0,0,.2.047l.006,0a.493.493,0,0,0,.093-.015.343.343,0,0,0,.2-.083l4.339-3.153,4.34,3.153a.344.344,0,0,0,.2.083.493.493,0,0,0,.093.015l.005,0a.485.485,0,0,0,.2-.047.312.312,0,0,0,.042-.022.505.505,0,0,0,.148-.12l.009-.009a.483.483,0,0,0,.085-.185c0-.016.006-.031.009-.048a.488.488,0,0,0-.016-.226l-.66-2.033-1-3.068,4.339-3.152a.488.488,0,0,0,.207-.413A.224.224,0,0,0,1796.469,3949.763Z" transform="translate(-1780.473 -3943.846)" fill="#fbea00"/>
</svg>
