<svg id="ic-task" xmlns="http://www.w3.org/2000/svg" width="17" height="10.823" viewBox="0 0 17 10.823">
  <path id="_5" data-name="5" d="M275.8,790.5a.821.821,0,0,1,.7-.9v-.9a.82.82,0,0,1-.7-.9h-1.4a1.641,1.641,0,0,0-1.4,1.8v7.215a1.641,1.641,0,0,0,1.4,1.8h1.4a.821.821,0,0,1,.7-.9v-.9a.931.931,0,0,1,0-1.8v-.9a.931.931,0,0,1,0-1.8v-.9a.82.82,0,0,1-.7-.9" transform="translate(-273 -787.798)" fill="#f69400"/>
  <path id="_4" data-name="4" d="M277.4,795.915a.9.9,0,0,1-.9.9v.9a.9.9,0,0,1,.9.9h10.8a1.8,1.8,0,0,0,1.8-1.8V789.6a1.8,1.8,0,0,0-1.8-1.8H277.4a.9.9,0,0,1-.9.9v.9a.9.9,0,0,1,0,1.8v.9a.9.9,0,0,1,0,1.8v.9a.9.9,0,0,1,.9.9" transform="translate(-273 -787.798)" fill="#f69400"/>
  <rect id="_3" data-name="3" width="2.801" height="1.4" transform="translate(7.099 1.885)" fill="#f69400"/>
  <rect id="_2" data-name="2" width="7" height="1.4" transform="translate(8.6 4.711)" fill="#f69400"/>
  <rect id="_1" data-name="1" width="7" height="1.4" transform="translate(8.6 7.538)" fill="#f69400"/>
</svg>
