<svg xmlns="http://www.w3.org/2000/svg" width="18" height="11.823" viewBox="0 0 18 11.823">
  <g id="Group_984" data-name="Group 984" transform="translate(-359.5 -652.298)">
    <path id="Path_18210" data-name="Path 18210" d="M275.8,790.5a.821.821,0,0,1,.7-.9v-.9a.82.82,0,0,1-.7-.9h-1.4a1.641,1.641,0,0,0-1.4,1.8v7.215a1.641,1.641,0,0,0,1.4,1.8h1.4a.821.821,0,0,1,.7-.9v-.9a.931.931,0,0,1,0-1.8v-.9a.931.931,0,0,1,0-1.8v-.9a.82.82,0,0,1-.7-.9" transform="translate(87 -135)" fill="#0f6db5" stroke="#0f6db5" stroke-width="1"/>
    <path id="Path_18211" data-name="Path 18211" d="M277.4,795.915a.9.9,0,0,1-.9.9v.9a.9.9,0,0,1,.9.9h10.8a1.8,1.8,0,0,0,1.8-1.8V789.6a1.8,1.8,0,0,0-1.8-1.8H277.4a.9.9,0,0,1-.9.9v.9a.9.9,0,0,1,0,1.8v.9a.9.9,0,0,1,0,1.8v.9a.9.9,0,0,1,.9.9" transform="translate(87 -135)" fill="#0f6db5" stroke="#0f6db5" stroke-width="1"/>
    <rect id="Rectangle_13600" data-name="Rectangle 13600" width="2.801" height="1.4" transform="translate(367.099 654.683)" fill="#fff" stroke="#0f6db5" stroke-width="1"/>
    <rect id="Rectangle_13601" data-name="Rectangle 13601" width="7" height="1.4" transform="translate(368.6 657.509)" fill="#fff" stroke="#0f6db5" stroke-width="1"/>
    <rect id="Rectangle_13602" data-name="Rectangle 13602" width="7" height="1.4" transform="translate(368.6 660.336)" fill="#fff" stroke="#0f6db5" stroke-width="1"/>
  </g>
</svg>
