<svg xmlns="http://www.w3.org/2000/svg" xmlns:xlink="http://www.w3.org/1999/xlink" width="14" height="14" viewBox="0 0 14 14">
  <defs>
    <clipPath id="clip-path">
      <rect id="Rectangle_4844" data-name="Rectangle 4844" width="14" height="14" transform="translate(842 189)" fill="none"/>
    </clipPath>
  </defs>
  <g id="Group_6682" data-name="Group 6682" transform="translate(-842 -189)">
    <g id="Group_6681" data-name="Group 6681" clip-path="url(#clip-path)">
      <path id="Path_7050" data-name="Path 7050" d="M844.2,201.642a1.7,1.7,0,0,1-1.7-1.695v-7.894a1.7,1.7,0,0,1,1.7-1.694h9.4a1.9,1.9,0,0,1,1.9,1.9v7.486a1.9,1.9,0,0,1-1.9,1.9Z" fill="#fff"/>
      <path id="Path_7051" data-name="Path 7051" d="M853.6,190.859a1.4,1.4,0,0,1,1.4,1.4v7.486a1.4,1.4,0,0,1-1.4,1.4h-9.4a1.2,1.2,0,0,1-1.2-1.195v-7.893a1.2,1.2,0,0,1,1.2-1.2h9.4m0-1h-9.4a2.2,2.2,0,0,0-2.2,2.2v7.893a2.2,2.2,0,0,0,2.2,2.195h9.4a2.4,2.4,0,0,0,2.4-2.4v-7.486a2.4,2.4,0,0,0-2.4-2.4" fill="#fff"/>
      <path id="Path_7052" data-name="Path 7052" d="M855,197.874l-.855,1.763H843.812v1.5h9.823A1.364,1.364,0,0,0,855,199.773v-1.9Z" fill="#adc7e7"/>
      <path id="Path_7053" data-name="Path 7053" d="M852.958,200.392h-9.026v-9.46h9.034A2.031,2.031,0,0,1,855,192.963v5.389a2.039,2.039,0,0,1-2.039,2.04" fill="#ededed"/>
      <path id="Path_7054" data-name="Path 7054" d="M850.184,193.658H853.2a.343.343,0,0,0,0-.68h-3.013a.342.342,0,0,0,0,.68" fill="#326dab"/>
      <path id="Path_7055" data-name="Path 7055" d="M853.2,192.978h-3.013a.343.343,0,0,0,0,.68H853.2a.342.342,0,0,0,0-.68" fill="#255b9d"/>
      <path id="Path_7056" data-name="Path 7056" d="M853.2,196.379h-3.013a.343.343,0,0,0,0,.68H853.2a.342.342,0,0,0,0-.68" fill="#326dab"/>
      <path id="Path_7057" data-name="Path 7057" d="M853.2,196.379h-3.013a.343.343,0,0,0,0,.681H853.2a.343.343,0,0,0,0-.681" fill="#255b9d"/>
      <path id="Path_7058" data-name="Path 7058" d="M853.2,194.678h-3.013a.343.343,0,0,0,0,.68H853.2a.342.342,0,0,0,0-.68" fill="#326dab"/>
      <path id="Path_7059" data-name="Path 7059" d="M853.2,194.678h-3.013a.343.343,0,0,0,0,.68H853.2a.342.342,0,0,0,0-.68" fill="#255b9d"/>
      <path id="Path_7060" data-name="Path 7060" d="M853.2,198.08h-3.013a.343.343,0,0,0,0,.68H853.2a.342.342,0,0,0,0-.68" fill="#326dab"/>
      <path id="Path_7061" data-name="Path 7061" d="M853.2,198.08h-3.013a.343.343,0,0,0,0,.68H853.2a.342.342,0,0,0,0-.68" fill="#255b9d"/>
      <path id="Path_7062" data-name="Path 7062" d="M847,193.62l.608.6,1.216-1.2" fill="none" stroke="#cc4186" stroke-linecap="round" stroke-miterlimit="10" stroke-width="0.75"/>
      <path id="Path_7063" data-name="Path 7063" d="M847,195.661l.608.6,1.216-1.2" fill="none" stroke="#cc4186" stroke-linecap="round" stroke-miterlimit="10" stroke-width="0.75"/>
      <path id="Path_7064" data-name="Path 7064" d="M847,197.7l.608.6,1.216-1.2" fill="none" stroke="#cc4186" stroke-linecap="round" stroke-miterlimit="10" stroke-width="0.75"/>
      <path id="Path_7065" data-name="Path 7065" d="M844.359,201.141H844a1,1,0,0,1-1-1V191.94a1,1,0,0,1,1-1h.357Z" fill="#47a0b2"/>
      <path id="Path_7066" data-name="Path 7066" d="M844.718,198.42H843v-4.762h1.72a1,1,0,0,1,1,1v2.758a1,1,0,0,1-1,1" fill="#47a0b2"/>
    </g>
  </g>
</svg>
