<svg xmlns="http://www.w3.org/2000/svg" width="70.711" height="70.711" viewBox="0 0 70.711 70.711">
  <path id="Path_241" data-name="Path 241" d="M4963.7,604.5a25,25,0,1,0,25,25A25,25,0,0,0,4963.7,604.5Zm9.927,31.613a1.563,1.563,0,0,1,0,2.209l-1.106,1.106a1.564,1.564,0,0,1-2.209,0l-6.612-6.613-6.613,6.613a1.564,1.564,0,0,1-2.209,0l-1.106-1.106a1.565,1.565,0,0,1,0-2.209l6.613-6.613-6.613-6.613a1.565,1.565,0,0,1,0-2.209l1.106-1.106a1.564,1.564,0,0,1,2.209,0l6.613,6.613,6.612-6.613a1.564,1.564,0,0,1,2.209,0l1.106,1.106a1.563,1.563,0,0,1,0,2.209l-6.611,6.613Z" transform="translate(-3029.387 -3919.634) rotate(45)" fill="#999"/>
</svg>
