<svg xmlns="http://www.w3.org/2000/svg" xmlns:xlink="http://www.w3.org/1999/xlink" width="48" height="48" viewBox="0 0 48 48">
  <defs>
    <linearGradient id="linear-gradient" x1="0.5" y1="1" x2="0.5" gradientUnits="objectBoundingBox">
      <stop offset="0" stop-color="#87ccce"/>
      <stop offset="0.313" stop-color="#d2ebf5"/>
      <stop offset="0.874" stop-color="#fafcfd"/>
    </linearGradient>
    <linearGradient id="linear-gradient-2" x1="1" y1="0.5" x2="0" y2="0.5" gradientUnits="objectBoundingBox">
      <stop offset="0.657" stop-color="#fafcfd"/>
      <stop offset="1" stop-color="#d1eaef"/>
    </linearGradient>
    <linearGradient id="linear-gradient-3" x1="0.5" x2="0.5" y2="1" gradientUnits="objectBoundingBox">
      <stop offset="0" stop-color="#5cbeb8"/>
      <stop offset="1" stop-color="#256bb4"/>
    </linearGradient>
    <linearGradient id="linear-gradient-4" x1="0.918" y1="0.034" x2="-0.044" y2="0.986" gradientUnits="objectBoundingBox">
      <stop offset="0.012" stop-color="#c0e3ee"/>
      <stop offset="0.401" stop-color="#5cbeb8"/>
      <stop offset="1" stop-color="#1f83c6"/>
    </linearGradient>
  </defs>
  <g id="Group_7233" data-name="Group 7233" transform="translate(-696 -152)">
    <g id="Group_7232" data-name="Group 7232">
      <g id="Group_7217" data-name="Group 7217" opacity="0.3" style="mix-blend-mode: multiply;isolation: isolate">
        <path id="Path_4340" data-name="Path 4340" d="M707.29,194.51v-24h28.705a3,3,0,0,1,2.992,2.992v18a3.012,3.012,0,0,1-3.008,3.01Z" fill="#231815"/>
        <path id="Path_4341" data-name="Path 4341" d="M735.995,171.51a1.994,1.994,0,0,1,1.992,1.992v18a2.012,2.012,0,0,1-2.008,2.01H708.29v-22h27.705m0-2H706.29v26h29.689a4.009,4.009,0,0,0,4.008-4.01v-18a3.992,3.992,0,0,0-3.992-3.992Z" fill="#231815"/>
        <path id="Path_4342" data-name="Path 4342" d="M736.129,193.51H706.138v-28h30.008a3.992,3.992,0,0,1,3.992,3.992v20A4.008,4.008,0,0,1,736.129,193.51Z" fill="#231815"/>
        <path id="Path_4343" data-name="Path 4343" d="M706.138,171.5a3.993,3.993,0,0,1,3.993-3.992h28.015a3.97,3.97,0,0,1,1.635.357,3.988,3.988,0,0,0-3.635-2.357H708.131a3.993,3.993,0,0,0-3.993,3.992V179.51h2Z" fill="#231815"/>
        <path id="Path_4344" data-name="Path 4344" d="M725.374,173.51h10a1,1,0,0,0,0-2h-10a1,1,0,0,0,0,2Z" fill="#231815"/>
        <path id="Path_4345" data-name="Path 4345" d="M735.374,171.51h-10a1,1,0,0,0,0,2h10a1,1,0,0,0,0-2Z" fill="#231815"/>
        <path id="Path_4346" data-name="Path 4346" d="M735.374,181.51h-10a1,1,0,0,0,0,2h10a1,1,0,0,0,0-2Z" fill="#231815"/>
        <path id="Path_4347" data-name="Path 4347" d="M735.374,181.51h-10a1,1,0,0,0,0,2h10a1,1,0,0,0,0-2Z" fill="#231815"/>
        <path id="Path_4348" data-name="Path 4348" d="M735.374,176.51h-10a1,1,0,0,0,0,2h10a1,1,0,0,0,0-2Z" fill="#231815"/>
        <path id="Path_4349" data-name="Path 4349" d="M735.374,176.51h-10a1,1,0,0,0,0,2h10a1,1,0,0,0,0-2Z" fill="#231815"/>
        <path id="Path_4350" data-name="Path 4350" d="M735.374,186.51h-10a1,1,0,0,0,0,2h10a1,1,0,0,0,0-2Z" fill="#231815"/>
        <path id="Path_4351" data-name="Path 4351" d="M735.374,186.51h-10a1,1,0,0,0,0,2h10a1,1,0,0,0,0-2Z" fill="#231815"/>
        <path id="Path_4352" data-name="Path 4352" d="M715.9,173.4l1.787,1.763,3.575-3.527" fill="none" stroke="#231815" stroke-linecap="round" stroke-miterlimit="10" stroke-width="2"/>
        <path id="Path_4353" data-name="Path 4353" d="M715.9,179.4l1.787,1.763,3.575-3.527" fill="none" stroke="#231815" stroke-linecap="round" stroke-miterlimit="10" stroke-width="2"/>
        <path id="Path_4354" data-name="Path 4354" d="M715.9,185.4l1.787,1.763,3.575-3.527" fill="none" stroke="#231815" stroke-linecap="round" stroke-miterlimit="10" stroke-width="2"/>
        <path id="Path_4355" data-name="Path 4355" d="M708.138,195.51h-2.005a2,2,0,0,1-1.995-1.995v-26a2.007,2.007,0,0,1,2.007-2.007h1.993Z" fill="#231815"/>
        <path id="Path_4356" data-name="Path 4356" d="M710.134,187.51h-6v-14h6a2,2,0,0,1,2,2v9.991A2,2,0,0,1,710.134,187.51Z" fill="#231815"/>
      </g>
      <g id="Group_7231" data-name="Group 7231">
        <g id="Group_7230" data-name="Group 7230">
          <g id="Group_7219" data-name="Group 7219">
            <path id="Path_4357" data-name="Path 4357" d="M705.29,190.51v-24h28.705a3,3,0,0,1,2.992,2.992v18a3.012,3.012,0,0,1-3.008,3.01Z" fill="#cae1f4"/>
            <g id="Group_7218" data-name="Group 7218">
              <path id="Path_4358" data-name="Path 4358" d="M733.995,167.51a1.994,1.994,0,0,1,1.992,1.992v18a2.012,2.012,0,0,1-2.008,2.01H706.29v-22h27.705m0-2H704.29v26h29.689a4.009,4.009,0,0,0,4.008-4.01v-18a3.992,3.992,0,0,0-3.992-3.992Z" fill="#d4e0f0"/>
            </g>
          </g>
          <g id="Group_7220" data-name="Group 7220">
            <path id="Path_4359" data-name="Path 4359" d="M734.129,189.51H704.138v-28h30.008a3.992,3.992,0,0,1,3.992,3.992v20A4.008,4.008,0,0,1,734.129,189.51Z" fill="url(#linear-gradient)"/>
          </g>
          <g id="Group_7221" data-name="Group 7221">
            <path id="Path_4360" data-name="Path 4360" d="M704.138,167.5a3.993,3.993,0,0,1,3.993-3.992h28.015a3.97,3.97,0,0,1,1.635.357,3.988,3.988,0,0,0-3.635-2.357H706.131a3.993,3.993,0,0,0-3.993,3.992V175.51h2Z" fill="url(#linear-gradient-2)"/>
          </g>
          <g id="Group_7227" data-name="Group 7227">
            <g id="Group_7226" data-name="Group 7226">
              <g id="Group_7222" data-name="Group 7222">
                <path id="Path_4361" data-name="Path 4361" d="M723.374,169.51h10a1,1,0,0,0,0-2h-10a1,1,0,0,0,0,2Z" fill="#3173b9"/>
                <path id="Path_4362" data-name="Path 4362" d="M733.374,167.51h-10a1,1,0,0,0,0,2h10a1,1,0,0,0,0-2Z" fill="#1267a8"/>
              </g>
              <g id="Group_7223" data-name="Group 7223">
                <path id="Path_4363" data-name="Path 4363" d="M733.374,177.51h-10a1,1,0,0,0,0,2h10a1,1,0,0,0,0-2Z" fill="#3173b9"/>
                <path id="Path_4364" data-name="Path 4364" d="M733.374,177.51h-10a1,1,0,0,0,0,2h10a1,1,0,0,0,0-2Z" fill="#1267a8"/>
              </g>
              <g id="Group_7224" data-name="Group 7224">
                <path id="Path_4365" data-name="Path 4365" d="M733.374,172.51h-10a1,1,0,0,0,0,2h10a1,1,0,0,0,0-2Z" fill="#3173b9"/>
                <path id="Path_4366" data-name="Path 4366" d="M733.374,172.51h-10a1,1,0,0,0,0,2h10a1,1,0,0,0,0-2Z" fill="#1267a8"/>
              </g>
              <g id="Group_7225" data-name="Group 7225">
                <path id="Path_4367" data-name="Path 4367" d="M733.374,182.51h-10a1,1,0,0,0,0,2h10a1,1,0,0,0,0-2Z" fill="#3173b9"/>
                <path id="Path_4368" data-name="Path 4368" d="M733.374,182.51h-10a1,1,0,0,0,0,2h10a1,1,0,0,0,0-2Z" fill="#1267a8"/>
              </g>
            </g>
            <path id="Path_4369" data-name="Path 4369" d="M713.9,169.4l1.787,1.763,3.575-3.527" fill="none" stroke="#dc4290" stroke-linecap="round" stroke-miterlimit="10" stroke-width="2"/>
            <path id="Path_4370" data-name="Path 4370" d="M713.9,175.4l1.787,1.763,3.575-3.527" fill="none" stroke="#dc4290" stroke-linecap="round" stroke-miterlimit="10" stroke-width="2"/>
            <path id="Path_4371" data-name="Path 4371" d="M713.9,181.4l1.787,1.763,3.575-3.527" fill="none" stroke="#dc4290" stroke-linecap="round" stroke-miterlimit="10" stroke-width="2"/>
          </g>
          <g id="Group_7228" data-name="Group 7228">
            <path id="Path_4372" data-name="Path 4372" d="M706.138,191.51h-2.005a2,2,0,0,1-1.995-1.995v-26a2.007,2.007,0,0,1,2.007-2.007h1.993Z" fill="url(#linear-gradient-3)"/>
          </g>
          <g id="Group_7229" data-name="Group 7229">
            <path id="Path_4373" data-name="Path 4373" d="M708.134,183.51h-6v-14h6a2,2,0,0,1,2,2v9.991A2,2,0,0,1,708.134,183.51Z" fill="url(#linear-gradient-4)"/>
          </g>
        </g>
      </g>
    </g>
    <rect id="Rectangle_5843" data-name="Rectangle 5843" width="48" height="48" transform="translate(696 152)" fill="none"/>
  </g>
</svg>
