<svg xmlns="http://www.w3.org/2000/svg" xmlns:xlink="http://www.w3.org/1999/xlink" width="28" height="28" viewBox="0 0 28 28">
  <defs>
    <clipPath id="clip-path">
      <rect id="Rectangle_5691" data-name="Rectangle 5691" width="28" height="28" fill="none"/>
    </clipPath>
  </defs>
  <g id="Group_7308" data-name="Group 7308" transform="translate(-1348 -32.001)">
    <g id="Group_6999" data-name="Group 6999" transform="translate(1348 32.001)" clip-path="url(#clip-path)">
      <path id="Path_4207" data-name="Path 4207" d="M1370.084,43.584h-1.98a6.924,6.924,0,0,0-.662-1.657l1.432-1.365a.583.583,0,0,0,.02-.825l-1.61-1.688a.581.581,0,0,0-.823-.02l-1.435,1.367a7.013,7.013,0,0,0-1.941-.833v-1.98A.583.583,0,0,0,1362.5,36h-2.333a.583.583,0,0,0-.583.583v1.98a6.994,6.994,0,0,0-1.688.679l-1.373-1.425a.584.584,0,0,0-.825-.015l-1.68,1.619a.583.583,0,0,0-.015.825l1.375,1.427a6.955,6.955,0,0,0-.814,1.91h-1.98a.584.584,0,0,0-.583.583V46.5a.584.584,0,0,0,.583.583h1.98a6.963,6.963,0,0,0,.7,1.729l-1.417,1.385a.584.584,0,0,0-.009.825l1.631,1.67a.583.583,0,0,0,.825.008l1.418-1.385a7.006,7.006,0,0,0,1.868.789v1.98a.583.583,0,0,0,.583.583h2.333a.583.583,0,0,0,.583-.583V52.1a6.991,6.991,0,0,0,1.943-.834l1.435,1.367a.584.584,0,0,0,.825-.021l1.609-1.688a.584.584,0,0,0-.019-.825l-1.433-1.364a6.964,6.964,0,0,0,.66-1.656h1.98a.583.583,0,0,0,.583-.583V44.167a.583.583,0,0,0-.583-.583m-8.75,4.084a2.333,2.333,0,1,1,2.333-2.333,2.334,2.334,0,0,1-2.333,2.333" transform="translate(-1347.333 -31.334)" fill="#999"/>
    </g>
  </g>
</svg>
