<svg xmlns="http://www.w3.org/2000/svg" xmlns:xlink="http://www.w3.org/1999/xlink" width="72" height="72" viewBox="0 0 72 72">
  <defs>
    <linearGradient id="linear-gradient" x1="0.5" x2="0.5" y2="1" gradientUnits="objectBoundingBox">
      <stop offset="0.012" stop-color="#c0e3ee"/>
      <stop offset="0.401" stop-color="#5cbeb8"/>
      <stop offset="1" stop-color="#1f83c6"/>
    </linearGradient>
    <linearGradient id="linear-gradient-2" x1="0.5" x2="0.5" y2="1" gradientUnits="objectBoundingBox">
      <stop offset="0.012" stop-color="#c0e3ee"/>
      <stop offset="1" stop-color="#5cbeb8"/>
    </linearGradient>
    <linearGradient id="linear-gradient-5" y1="0.5" x2="1.003" y2="0.5" gradientUnits="objectBoundingBox">
      <stop offset="0" stop-color="#f9f9fa"/>
      <stop offset="1" stop-color="#ececeb"/>
    </linearGradient>
    <linearGradient id="linear-gradient-7" y2="1.003" xlink:href="#linear-gradient-2"/>
  </defs>
  <g id="Group_956" data-name="Group 956" transform="translate(-2096 -2184)">
    <g id="Group_955" data-name="Group 955">
      <g id="Group_944" data-name="Group 944" opacity="0.25" style="mix-blend-mode: multiply;isolation: isolate">
        <rect id="Rectangle_1192" data-name="Rectangle 1192" width="33" height="33" transform="translate(2120 2205)" fill="none" stroke="#231815" stroke-linecap="round" stroke-miterlimit="10" stroke-width="3"/>
        <path id="Path_1259" data-name="Path 1259" d="M2154.506,2250h-6.012a4.494,4.494,0,0,1-4.494-4.494V2231.25h15v14.256A4.494,4.494,0,0,1,2154.506,2250Z" fill="#231815"/>
        <ellipse id="Ellipse_13" data-name="Ellipse 13" cx="7.5" cy="3.75" rx="7.5" ry="3.75" transform="translate(2144 2227.5)" fill="#231815"/>
        <path id="Path_1260" data-name="Path 1260" d="M2151.5,2241c-4.142,0-7.5-1.679-7.5-3.75v5.256a4.494,4.494,0,0,0,4.494,4.494h6.012a4.494,4.494,0,0,0,4.494-4.494v-5.256C2159,2239.321,2155.642,2241,2151.5,2241Z" fill="#231815"/>
        <path id="Path_1261" data-name="Path 1261" d="M2151.5,2244c-4.142,0-7.5-1.679-7.5-3.75v5.256a4.494,4.494,0,0,0,4.494,4.494h6.012a4.494,4.494,0,0,0,4.494-4.494v-5.256C2159,2242.321,2155.642,2244,2151.5,2244Z" fill="#231815"/>
        <path id="Path_1262" data-name="Path 1262" d="M2128.858,2249.8h-17.716a3.036,3.036,0,0,1-3.035-3.036v-11.286a3.011,3.011,0,0,1,3.011-3.011h17.764a3.011,3.011,0,0,1,3.011,3.011v11.286A3.036,3.036,0,0,1,2128.858,2249.8Z" fill="#231815"/>
        <path id="Path_1263" data-name="Path 1263" d="M2128.963,2248.467h-17.926a3.038,3.038,0,0,1-3.037-3.038v-12.617a3.013,3.013,0,0,1,3.012-3.012h17.976a3.013,3.013,0,0,1,3.012,3.012v12.617A3.038,3.038,0,0,1,2128.963,2248.467Z" fill="#231815"/>
        <rect id="Rectangle_1193" data-name="Rectangle 1193" width="24" height="2.667" transform="translate(2108 2229.8)" fill="#231815"/>
        <rect id="Rectangle_1194" data-name="Rectangle 1194" width="4.924" height="4.924" transform="translate(2114.566 2234.923)" fill="#231815"/>
        <rect id="Rectangle_1195" data-name="Rectangle 1195" width="4.924" height="4.924" transform="translate(2121.132 2234.923)" fill="#231815"/>
        <rect id="Rectangle_1196" data-name="Rectangle 1196" width="4.924" height="4.924" transform="translate(2114.566 2241.489)" fill="#231815"/>
        <rect id="Rectangle_1197" data-name="Rectangle 1197" width="4.924" height="4.924" transform="translate(2121.132 2241.489)" fill="#231815"/>
        <path id="Path_1264" data-name="Path 1264" d="M2162,2197.488a1.488,1.488,0,0,0-1.488-1.488h-6.024a1.488,1.488,0,0,0-1.488,1.488V2199h-8.994a3.006,3.006,0,0,0-3.006,3.006v8.987a3.006,3.006,0,0,0,3.006,3.007h14.988a3.006,3.006,0,0,0,3.006-3.007V2202h0Z" fill="#231815"/>
        <path id="Path_1265" data-name="Path 1265" d="M2129,2197.488a1.488,1.488,0,0,0-1.488-1.488h-6.024a1.488,1.488,0,0,0-1.488,1.488V2199h-8.994a3.006,3.006,0,0,0-3.006,3.006v8.987a3.006,3.006,0,0,0,3.006,3.007h14.988a3.006,3.006,0,0,0,3.006-3.007V2202h0Z" fill="#231815"/>
      </g>
      <g id="Group_954" data-name="Group 954">
        <g id="Group_953" data-name="Group 953">
          <rect id="Rectangle_1198" data-name="Rectangle 1198" width="33" height="33" transform="translate(2117 2202)" fill="none" stroke="#3173b9" stroke-linecap="round" stroke-miterlimit="10" stroke-width="3"/>
          <g id="Group_945" data-name="Group 945">
            <path id="Path_1266" data-name="Path 1266" d="M2151.506,2247h-6.012a4.494,4.494,0,0,1-4.494-4.494V2228.25h15v14.256A4.494,4.494,0,0,1,2151.506,2247Z" fill="url(#linear-gradient)"/>
          </g>
          <ellipse id="Ellipse_14" data-name="Ellipse 14" cx="7.5" cy="3.75" rx="7.5" ry="3.75" transform="translate(2141 2224.5)" fill="url(#linear-gradient-2)"/>
          <g id="Group_947" data-name="Group 947">
            <g id="Group_946" data-name="Group 946">
              <path id="Path_1267" data-name="Path 1267" d="M2148.5,2238c-4.142,0-7.5-1.679-7.5-3.75v5.256a4.494,4.494,0,0,0,4.494,4.494h6.012a4.494,4.494,0,0,0,4.494-4.494v-5.256C2156,2236.321,2152.642,2238,2148.5,2238Z" fill="#f5b600"/>
            </g>
          </g>
          <g id="Group_948" data-name="Group 948">
            <path id="Path_1268" data-name="Path 1268" d="M2148.5,2241c-4.142,0-7.5-1.679-7.5-3.75v5.256a4.494,4.494,0,0,0,4.494,4.494h6.012a4.494,4.494,0,0,0,4.494-4.494v-5.256C2156,2239.321,2152.642,2241,2148.5,2241Z" fill="url(#linear-gradient)"/>
          </g>
          <g id="Group_952" data-name="Group 952">
            <g id="Group_949" data-name="Group 949">
              <path id="Path_1269" data-name="Path 1269" d="M2125.858,2246.8h-17.716a3.036,3.036,0,0,1-3.035-3.036v-11.286a3.011,3.011,0,0,1,3.011-3.011h17.764a3.011,3.011,0,0,1,3.011,3.011v11.286A3.036,3.036,0,0,1,2125.858,2246.8Z" fill="url(#linear-gradient)"/>
            </g>
            <path id="Path_1270" data-name="Path 1270" d="M2125.963,2245.467h-17.926a3.038,3.038,0,0,1-3.037-3.038v-12.617a3.013,3.013,0,0,1,3.012-3.012h17.976a3.013,3.013,0,0,1,3.012,3.012v12.617A3.038,3.038,0,0,1,2125.963,2245.467Z" fill="url(#linear-gradient-5)"/>
            <g id="Group_950" data-name="Group 950">
              <rect id="Rectangle_1199" data-name="Rectangle 1199" width="24" height="2.667" transform="translate(2105 2226.8)" fill="url(#linear-gradient)"/>
            </g>
            <g id="Group_951" data-name="Group 951">
              <rect id="Rectangle_1200" data-name="Rectangle 1200" width="4.924" height="4.924" transform="translate(2111.566 2231.923)" fill="#3173b9"/>
              <rect id="Rectangle_1201" data-name="Rectangle 1201" width="4.924" height="4.924" transform="translate(2118.132 2231.923)" fill="#3173b9"/>
              <rect id="Rectangle_1202" data-name="Rectangle 1202" width="4.924" height="4.924" transform="translate(2111.566 2238.489)" fill="#3173b9"/>
              <rect id="Rectangle_1203" data-name="Rectangle 1203" width="4.924" height="4.924" transform="translate(2118.132 2238.489)" fill="#3173b9"/>
            </g>
          </g>
          <path id="Path_1271" data-name="Path 1271" d="M2159,2194.488a1.488,1.488,0,0,0-1.488-1.488h-6.024a1.488,1.488,0,0,0-1.488,1.488V2196h-8.994a3.006,3.006,0,0,0-3.006,3.006v8.987a3.006,3.006,0,0,0,3.006,3.007h14.988a3.006,3.006,0,0,0,3.006-3.007V2199h0Z" fill="url(#linear-gradient-7)"/>
          <path id="Path_1272" data-name="Path 1272" d="M2126,2194.488a1.488,1.488,0,0,0-1.488-1.488h-6.024a1.488,1.488,0,0,0-1.488,1.488V2196h-8.994a3.006,3.006,0,0,0-3.006,3.006v8.987a3.006,3.006,0,0,0,3.006,3.007h14.988a3.006,3.006,0,0,0,3.006-3.007V2199h0Z" fill="#f5b600"/>
        </g>
      </g>
    </g>
    <rect id="Rectangle_1204" data-name="Rectangle 1204" width="72" height="72" transform="translate(2096 2184)" fill="none"/>
  </g>
</svg>
