<svg xmlns="http://www.w3.org/2000/svg" width="17.218" height="16" viewBox="0 0 17.218 16">
  <g id="Group_866" data-name="Group 866" transform="translate(-2231.391 -2100)">
    <path id="Path_1137" data-name="Path 1137" d="M2240.959,2100.147a.5.5,0,0,0-.711,0l-.71.71a.5.5,0,0,0,0,.711l6.438,6.437-6.427,6.427a.5.5,0,0,0,0,.711l.71.71a.5.5,0,0,0,.71,0l7.493-7.493a.5.5,0,0,0,0-.71Z" fill="#e5e5e5"/>
    <path id="Path_1138" data-name="Path 1138" d="M2232.959,2100.147a.5.5,0,0,0-.711,0l-.71.71a.5.5,0,0,0,0,.711l6.438,6.437-6.427,6.427a.5.5,0,0,0,0,.711l.71.71a.5.5,0,0,0,.71,0l7.493-7.493a.5.5,0,0,0,0-.71Z" fill="#e5e5e5"/>
  </g>
</svg>
