<svg xmlns="http://www.w3.org/2000/svg" width="16" height="16" viewBox="0 0 16 16">
  <g id="Group_26013" data-name="Group 26013" transform="translate(-627 -716)">
    <g id="Group_26011" data-name="Group 26011" transform="translate(154 -1)">
      <g id="Rectangle_18193" data-name="Rectangle 18193" transform="translate(473 717)" fill="#999" stroke="#999" stroke-width="1">
        <rect width="16" height="16" rx="3" stroke="none"/>
        <rect x="0.5" y="0.5" width="15" height="15" rx="2.5" fill="none"/>
      </g>
    </g>
    <path id="Path_2524" data-name="Path 2524" d="M10,.5A.5.5,0,0,0,9.5,0H3.133a.5.5,0,0,0-.5.5v1a.5.5,0,0,0,.5.5H6.585l-3.1,3.1L.146,8.44a.5.5,0,0,0,0,.707l.707.707a.5.5,0,0,0,.707,0L8,3.421v3.44a.5.5,0,0,0,.5.5h1a.5.5,0,0,0,.5-.5Z" transform="translate(634.973 717.063) rotate(45)" fill="#fff"/>
  </g>
</svg>
