<svg xmlns="http://www.w3.org/2000/svg" width="16" height="16" viewBox="0 0 16 16">
  <g id="Group_26014" data-name="Group 26014" transform="translate(-547 -716)">
    <g id="Group_26010" data-name="Group 26010" transform="translate(74 -1)">
      <g id="Rectangle_18193" data-name="Rectangle 18193" transform="translate(473 717)" fill="#999" stroke="#999" stroke-width="1">
        <rect width="16" height="16" rx="3" stroke="none"/>
        <rect x="0.5" y="0.5" width="15" height="15" rx="2.5" fill="none"/>
      </g>
    </g>
    <path id="Path_2221" data-name="Path 2221" d="M1974,5247.5a.5.5,0,0,0-.5-.5h-6.366a.5.5,0,0,0-.5.5v1a.5.5,0,0,0,.5.5h3.451l-3.1,3.1-3.336,3.337a.5.5,0,0,0,0,.706l.707.708a.5.5,0,0,0,.708,0l6.438-6.433v3.44a.5.5,0,0,0,.5.5h1a.5.5,0,0,0,.5-.5Z" transform="translate(-1413.925 -4528)" fill="#fff"/>
  </g>
</svg>
