<svg id="Layer_1" data-name="Layer 1" xmlns="http://www.w3.org/2000/svg" viewBox="0 0 16 16"><defs><style>.cls-1{fill:#999;}.cls-2{fill:none;stroke:#999;}.cls-3{fill:#fff;}</style></defs><title>ic-setting-down-arrow</title><g id="Group_26014" data-name="Group 26014"><g id="Group_26010" data-name="Group 26010"><g id="Rectangle_18193" data-name="Rectangle 18193"><rect class="cls-1" width="16" height="16" rx="3" ry="3"/><rect class="cls-2" x="0.5" y="0.5" width="15" height="15" rx="2.5" ry="2.5"/></g></g><path id="Path_2221" data-name="Path 2221" class="cls-3" d="M12.9,12.7c.3,0,.5-.3.4-.5l-.4-6.4c0-.3-.2-.5-.5-.4h-1c-.3,0-.5.3-.4.5l.2,3.5L7.9,6.5,4.3,3.4a.5.5,0,0,0-.7,0L3,4.2a.5.5,0,0,0,0,.7H3l6.8,6-3.4.2a.5.5,0,0,0-.5.5v1a.5.5,0,0,0,.5.5Z"/></g></svg>