<svg xmlns="http://www.w3.org/2000/svg" width="5.977" height="10" viewBox="0 0 5.977 10">
  <g id="Group_3629" data-name="Group 3629" transform="translate(-1966.01 -5207)">
    <circle id="Ellipse_193" data-name="Ellipse 193" cx="1.25" cy="1.25" r="1.25" transform="translate(1967.749 5214.5)" fill="#fff"/>
    <path id="Path_2222" data-name="Path 2222" d="M1969.074,5207a3.756,3.756,0,0,0-2.86,1.356l-.2.23,1.465,1.336.211-.217a1.614,1.614,0,0,1,1.164-.6.666.666,0,0,1,.749.713c0,.375-.322.711-.694,1.1a3.022,3.022,0,0,0-1.127,2.7l.039.266h2.217l-.037-.346c-.08-.754.362-1.2.873-1.719a2.95,2.95,0,0,0,1.117-2.127A2.6,2.6,0,0,0,1969.074,5207Z" fill="#fff"/>
  </g>
</svg>
