<svg xmlns="http://www.w3.org/2000/svg" xmlns:xlink="http://www.w3.org/1999/xlink" width="24" height="24" viewBox="0 0 24 24">
  <defs>
    <linearGradient id="linear-gradient" x1="0.5" x2="0.5" y2="1" gradientUnits="objectBoundingBox">
      <stop offset="0.024" stop-color="#e9fff3"/>
      <stop offset="0.512" stop-color="#c0e3ee"/>
      <stop offset="1" stop-color="#4ebab8"/>
    </linearGradient>
  </defs>
  <g id="Group_6372" data-name="Group 6372" transform="translate(-216 -2584)">
    <g id="Group_6371" data-name="Group 6371">
      <g id="Group_6358" data-name="Group 6358" opacity="0.25" style="mix-blend-mode: multiply;isolation: isolate">
        <path id="Path_3743" data-name="Path 3743" d="M236.5,2595h-1.7a5.989,5.989,0,0,0-.566-1.42l1.226-1.17a.5.5,0,0,0,.017-.707l-1.38-1.447a.5.5,0,0,0-.707-.017l-1.229,1.172a6,6,0,0,0-1.664-.714V2589a.5.5,0,0,0-.5-.5h-2a.5.5,0,0,0-.5.5v1.7a6.01,6.01,0,0,0-1.447.582l-1.177-1.221a.5.5,0,0,0-.707-.013l-1.44,1.388a.5.5,0,0,0-.013.707l1.179,1.223a5.967,5.967,0,0,0-.7,1.637h-1.7a.5.5,0,0,0-.5.5v2a.5.5,0,0,0,.5.5h1.7a5.947,5.947,0,0,0,.6,1.483l-1.214,1.186a.5.5,0,0,0-.008.707l1.4,1.43a.5.5,0,0,0,.707.008l1.215-1.187a5.969,5.969,0,0,0,1.6.676v1.7a.5.5,0,0,0,.5.5h2a.5.5,0,0,0,.5-.5v-1.7a5.977,5.977,0,0,0,1.665-.715l1.23,1.172a.5.5,0,0,0,.707-.017l1.38-1.448a.5.5,0,0,0-.017-.707l-1.227-1.169A5.98,5.98,0,0,0,234.8,2598h1.7a.5.5,0,0,0,.5-.5v-2A.5.5,0,0,0,236.5,2595Zm-7.5,3.5a2,2,0,1,1,2-2A2,2,0,0,1,229,2598.5Z" fill="#231815"/>
        <path id="Path_3744" data-name="Path 3744" d="M223.558,2594.013a5.973,5.973,0,0,1,.337-.65l-1.026-1.065-.14.135a.5.5,0,0,0-.013.707Z" fill="#231815"/>
        <path id="Path_3745" data-name="Path 3745" d="M234.564,2594.268l.9-.858a.5.5,0,0,0,.017-.707l-.154-.162-1.089,1.039A6.012,6.012,0,0,1,234.564,2594.268Z" fill="#231815"/>
        <path id="Path_3746" data-name="Path 3746" d="M223.47,2599.806l.331-.323a5.947,5.947,0,0,1-.6-1.483h-1.7a.5.5,0,0,1-.5-.5v1a.5.5,0,0,0,.5.5h1.7A6.1,6.1,0,0,0,223.47,2599.806Z" fill="#231815"/>
        <path id="Path_3747" data-name="Path 3747" d="M229,2594.5a2,2,0,0,0-2,2,1.965,1.965,0,0,0,.071.5,1.99,1.99,0,0,1,3.858,0,1.965,1.965,0,0,0,.071-.5A2,2,0,0,0,229,2594.5Z" fill="#231815"/>
        <path id="Path_3748" data-name="Path 3748" d="M235.327,2601.457l-1.225,1.286a.5.5,0,0,1-.707.017l-1.23-1.172a5.977,5.977,0,0,1-1.665.715v1a5.977,5.977,0,0,0,1.665-.715l1.23,1.172a.5.5,0,0,0,.707-.017l1.38-1.448a.5.5,0,0,0-.017-.707Z" fill="#231815"/>
        <path id="Path_3749" data-name="Path 3749" d="M227.5,2602.3a5.969,5.969,0,0,1-1.6-.676l-1.215,1.187a.5.5,0,0,1-.707-.008l-1.247-1.276-.143.139a.5.5,0,0,0-.008.707l1.4,1.43a.5.5,0,0,0,.707.008l1.215-1.187a5.969,5.969,0,0,0,1.6.676Z" fill="#231815"/>
        <path id="Path_3750" data-name="Path 3750" d="M236.5,2598h-1.7a5.98,5.98,0,0,1-.565,1.419l.327.311a6.167,6.167,0,0,0,.238-.73h1.7a.5.5,0,0,0,.5-.5v-1A.5.5,0,0,1,236.5,2598Z" fill="#231815"/>
        <path id="Path_3751" data-name="Path 3751" d="M230,2604.5h-2a.5.5,0,0,1-.5-.5v1a.5.5,0,0,0,.5.5h2a.5.5,0,0,0,.5-.5v-1A.5.5,0,0,1,230,2604.5Z" fill="#231815"/>
      </g>
      <g id="Group_6370" data-name="Group 6370">
        <g id="Group_6369" data-name="Group 6369">
          <g id="Group_6359" data-name="Group 6359">
            <path id="Path_3752" data-name="Path 3752" d="M235.5,2594h-1.7a5.989,5.989,0,0,0-.566-1.42l1.226-1.17a.5.5,0,0,0,.017-.707l-1.38-1.447a.5.5,0,0,0-.707-.017l-1.229,1.172a6,6,0,0,0-1.664-.714V2588a.5.5,0,0,0-.5-.5h-2a.5.5,0,0,0-.5.5v1.7a6.01,6.01,0,0,0-1.447.582l-1.177-1.221a.5.5,0,0,0-.707-.013l-1.44,1.388a.5.5,0,0,0-.013.707l1.179,1.223a5.967,5.967,0,0,0-.7,1.637h-1.7a.5.5,0,0,0-.5.5v2a.5.5,0,0,0,.5.5h1.7a5.947,5.947,0,0,0,.6,1.483l-1.214,1.186a.5.5,0,0,0-.008.707l1.4,1.43a.5.5,0,0,0,.707.008l1.215-1.187a5.969,5.969,0,0,0,1.6.676v1.7a.5.5,0,0,0,.5.5h2a.5.5,0,0,0,.5-.5v-1.7a5.977,5.977,0,0,0,1.665-.715l1.23,1.172a.5.5,0,0,0,.707-.017l1.38-1.448a.5.5,0,0,0-.017-.707l-1.227-1.169A5.98,5.98,0,0,0,233.8,2597h1.7a.5.5,0,0,0,.5-.5v-2A.5.5,0,0,0,235.5,2594Zm-7.5,3.5a2,2,0,1,1,2-2A2,2,0,0,1,228,2597.5Z" fill="url(#linear-gradient)"/>
          </g>
          <g id="Group_6368" data-name="Group 6368">
            <g id="Group_6360" data-name="Group 6360">
              <path id="Path_3753" data-name="Path 3753" d="M222.558,2593.013a5.973,5.973,0,0,1,.337-.65l-1.026-1.065-.14.135a.5.5,0,0,0-.013.707Z" fill="#1267a8"/>
            </g>
            <g id="Group_6361" data-name="Group 6361">
              <path id="Path_3754" data-name="Path 3754" d="M233.564,2593.268l.9-.858a.5.5,0,0,0,.017-.707l-.154-.162-1.089,1.039A6.012,6.012,0,0,1,233.564,2593.268Z" fill="#1267a8"/>
            </g>
            <g id="Group_6362" data-name="Group 6362">
              <path id="Path_3755" data-name="Path 3755" d="M222.47,2598.806l.331-.323a5.947,5.947,0,0,1-.6-1.483h-1.7a.5.5,0,0,1-.5-.5v1a.5.5,0,0,0,.5.5h1.7A6.1,6.1,0,0,0,222.47,2598.806Z" fill="#1267a8"/>
            </g>
            <g id="Group_6363" data-name="Group 6363">
              <path id="Path_3756" data-name="Path 3756" d="M228,2593.5a2,2,0,0,0-2,2,1.965,1.965,0,0,0,.071.5,1.99,1.99,0,0,1,3.858,0,1.965,1.965,0,0,0,.071-.5A2,2,0,0,0,228,2593.5Z" fill="#1267a8"/>
            </g>
            <g id="Group_6364" data-name="Group 6364">
              <path id="Path_3757" data-name="Path 3757" d="M234.327,2600.457l-1.225,1.286a.5.5,0,0,1-.707.017l-1.23-1.172a5.977,5.977,0,0,1-1.665.715v1a5.977,5.977,0,0,0,1.665-.715l1.23,1.172a.5.5,0,0,0,.707-.017l1.38-1.448a.5.5,0,0,0-.017-.707Z" fill="#1267a8"/>
            </g>
            <g id="Group_6365" data-name="Group 6365">
              <path id="Path_3758" data-name="Path 3758" d="M226.5,2601.3a5.969,5.969,0,0,1-1.6-.676l-1.215,1.187a.5.5,0,0,1-.707-.008l-1.247-1.276-.143.139a.5.5,0,0,0-.008.707l1.4,1.43a.5.5,0,0,0,.707.008l1.215-1.187a5.969,5.969,0,0,0,1.6.676Z" fill="#1267a8"/>
            </g>
            <g id="Group_6366" data-name="Group 6366">
              <path id="Path_3759" data-name="Path 3759" d="M235.5,2597h-1.7a5.98,5.98,0,0,1-.565,1.419l.327.311a6.167,6.167,0,0,0,.238-.73h1.7a.5.5,0,0,0,.5-.5v-1A.5.5,0,0,1,235.5,2597Z" fill="#1267a8"/>
            </g>
            <g id="Group_6367" data-name="Group 6367">
              <path id="Path_3760" data-name="Path 3760" d="M229,2603.5h-2a.5.5,0,0,1-.5-.5v1a.5.5,0,0,0,.5.5h2a.5.5,0,0,0,.5-.5v-1A.5.5,0,0,1,229,2603.5Z" fill="#1267a8"/>
            </g>
          </g>
        </g>
      </g>
    </g>
    <rect id="Rectangle_5177" data-name="Rectangle 5177" width="24" height="24" transform="translate(216 2584)" fill="none"/>
  </g>
</svg>
