<svg xmlns="http://www.w3.org/2000/svg" xmlns:xlink="http://www.w3.org/1999/xlink" width="24" height="23.999" viewBox="0 0 24 23.999">
    <defs>
        <clipPath id="clip-path">
            <rect id="Rectangle_143" data-name="Rectangle 143" width="24" height="23.999" transform="translate(2440 32.001)" fill="none"/>
        </clipPath>
    </defs>
    <g id="Group_110" data-name="Group 110" transform="translate(-2440 -32.001)" clip-path="url(#clip-path)">
        <path id="Path_139" data-name="Path 139" d="M2447.48,45H2445a1,1,0,0,1-1-1V37a1,1,0,0,1,1-1h2.48a1,1,0,0,1,1,1v7a1,1,0,0,1-1,1" fill="#0f6eb5"/>
        <path id="Path_140" data-name="Path 140" d="M2453.24,43h-2.48a1,1,0,0,1-1-1V37a1,1,0,0,1,1-1h2.48a1,1,0,0,1,1,1v5a1,1,0,0,1-1,1" fill="#0f6eb5"/>
        <path id="Path_141" data-name="Path 141" d="M2447.48,52H2445a1,1,0,0,1-1-1V48a1,1,0,0,1,1-1h2.48a1,1,0,0,1,1,1v3a1,1,0,0,1-1,1" fill="#0f6eb5"/>
        <path id="Path_142" data-name="Path 142" d="M2459,45h-2.48a1,1,0,0,1-1-1V37a1,1,0,0,1,1-1H2459a1,1,0,0,1,1,1v7a1,1,0,0,1-1,1" fill="#0f6eb5"/>
        <path id="Path_143" data-name="Path 143" d="M2459,52h-2.48a1,1,0,0,1-1-1V48a1,1,0,0,1,1-1H2459a1,1,0,0,1,1,1v3a1,1,0,0,1-1,1" fill="#0f6eb5"/>
        <path id="Path_144" data-name="Path 144" d="M2453.24,52h-2.48a1,1,0,0,1-1-1V46a1,1,0,0,1,1-1h2.48a1,1,0,0,1,1,1v5a1,1,0,0,1-1,1" fill="#0f6eb5"/>
    </g>
</svg>
