<svg xmlns="http://www.w3.org/2000/svg" width="24" height="24" viewBox="0 0 24 24">
  <g id="Group_11744" data-name="Group 11744" transform="translate(-3236.318 -3156)">
    <circle id="Ellipse_245" data-name="Ellipse 245" cx="12" cy="12" r="12" transform="translate(3236.318 3156)" fill="#77bdd1"/>
    <g id="Group_11743" data-name="Group 11743">
      <path id="Path_13944" data-name="Path 13944" d="M3244.257,3166.959c.073.9-.092,1.636-1.411,1.22a2.283,2.283,0,0,0,2.152,2.377,1.918,1.918,0,0,0,1.8-.969,2.241,2.241,0,0,0,.354-1.343v-1.285Z" fill="#3e3a39" fill-rule="evenodd"/>
      <rect id="Rectangle_9053" data-name="Rectangle 9053" width="3.956" height="5.802" transform="translate(3245.95 3169.137)" fill="#f3c797"/>
      <rect id="Rectangle_9054" data-name="Rectangle 9054" width="7.666" height="11.285" rx="2.637" transform="translate(3245.551 3160.925)" fill="#f3c797"/>
      <path id="Path_13945" data-name="Path 13945" d="M3248.188,3160.925h2.346v5.87l1.01.89a.37.37,0,0,1-.039.584l-.971.651v3.29h-2.346a2.645,2.645,0,0,1-2.637-2.637v-.936a1.031,1.031,0,0,1-.313.088,1.716,1.716,0,0,1-1.642-1.554c-.177-.942.272-1.772,1-1.854a1.267,1.267,0,0,1,.953.325v-2.08A2.645,2.645,0,0,1,3248.188,3160.925Z" fill="#fbe2c4" fill-rule="evenodd"/>
      <path id="Path_13946" data-name="Path 13946" d="M3246.951,3159.875c1.681,0,5.261,1.394,4.253-1.8a3.364,3.364,0,0,1,3.506,3.17,2.828,2.828,0,0,1-1.428,2.657,3.3,3.3,0,0,1-1.979.522h-2.888a1.675,1.675,0,0,1-1-.331,1.432,1.432,0,0,0-1.1,1.392v.856a.655.655,0,0,1-1.31,0v-.85c-.161-.252-.78-.116-.856,0v-2.813A2.812,2.812,0,0,1,3246.951,3159.875Z" fill="#3e3a39" fill-rule="evenodd"/>
      <path id="Path_13947" data-name="Path 13947" d="M3248.967,3169.272a.213.213,0,0,1,.426,0,.449.449,0,0,0,.14.323.487.487,0,0,0,.34.117H3251a.213.213,0,0,1,0,.425c-.385,0-.77,0-1.154,0a.878.878,0,0,1-.6-.236A.86.86,0,0,1,3248.967,3169.272Z" fill="#e6a26c"/>
      <path id="Path_13948" data-name="Path 13948" d="M3251.369,3174.062l-1.463-.559c-.038.494-.909.89-1.979.89s-1.94-.4-1.978-.89l-1.463.559c-1.316.5-2.561,1.152-2.561,2.56v1.534a12.006,12.006,0,0,0,12,.452v-1.986C3253.93,3175.214,3252.685,3174.564,3251.369,3174.062Z" fill="#595757" fill-rule="evenodd"/>
      <path id="Path_13949" data-name="Path 13949" d="M3247.407,3165.516h2.651a.18.18,0,0,1,.18.18v.061h.743v-.061a.18.18,0,0,1,.18-.18h2.65a.18.18,0,0,1,.18.18v.683a.9.9,0,0,1-.9.9h-1.214a.9.9,0,0,1-.9-.9c0-.133.015-.332-.18-.332h-.384c-.2,0-.179.2-.179.332a.9.9,0,0,1-.9.9h-1.213a.9.9,0,0,1-.9-.9v-.683a.18.18,0,0,1,.179-.18Zm3.946.181a.18.18,0,0,0-.179.18v.512a.755.755,0,0,0,.783.719h1.058a.755.755,0,0,0,.783-.719v-.512a.18.18,0,0,0-.179-.18Zm-3.753,0a.181.181,0,0,0-.18.18v.512a.755.755,0,0,0,.783.719h1.059a.755.755,0,0,0,.783-.719v-.512a.18.18,0,0,0-.18-.18Z" fill="#3e3a39" fill-rule="evenodd"/>
    </g>
  </g>
</svg>
