<svg xmlns="http://www.w3.org/2000/svg" xmlns:xlink="http://www.w3.org/1999/xlink" width="24" height="24" viewBox="0 0 24 24">
  <defs>
    <clipPath id="clip-path">
      <rect id="Rectangle_12312" data-name="Rectangle 12312" width="24" height="24" fill="none"/>
    </clipPath>
  </defs>
  <g id="Group_25976" data-name="Group 25976" transform="translate(-2024 -1885)">
    <g id="Group_15764" data-name="Group 15764" transform="translate(2024 1885)" clip-path="url(#clip-path)">
      <path id="Path_18859" data-name="Path 18859" d="M2031.222,1890.422a2.336,2.336,0,1,1,2.335-2.336,2.338,2.338,0,0,1-2.335,2.336" transform="translate(-2020.511 -1884.464)" fill="#f92525"/>
      <path id="Path_18860" data-name="Path 18860" d="M2031.4,1886.357a1.907,1.907,0,1,1-1.908,1.906,1.907,1.907,0,0,1,1.908-1.906m0-.857a2.764,2.764,0,1,0,2.763,2.764,2.767,2.767,0,0,0-2.763-2.764" transform="translate(-2020.689 -1884.643)" fill="#fff"/>
      <path id="Path_18861" data-name="Path 18861" d="M2038.53,1894.292a.774.774,0,1,0,1.428-.6,27.02,27.02,0,0,0-1.277-2.878,1.386,1.386,0,0,0-.684-.706l-2.757-1.3a2.3,2.3,0,0,0-1.407-.182l-.948.175a3.354,3.354,0,0,0-2.4,1.826l-.922,1.893-2.182,1.148a.714.714,0,0,0-.328.907l.009.019a.7.7,0,0,0,.4.391.714.714,0,0,0,.557-.014l2.436-1.1a1.124,1.124,0,0,0,.432-.338l.926-1.176.9,3.408-2.138,2.911a4.576,4.576,0,0,0-.742,1.358l-1.2,3.492a.9.9,0,0,0,.624,1.164l.019,0a.9.9,0,0,0,1.039-.487l1.637-3.47,2.5-2.9.933,2.861,2.04,3.521a.9.9,0,0,0,1.02.417l.073-.021a.9.9,0,0,0,.595-1.2l-1.951-4.406-1.562-7.96,1.809.8,1.126,2.439" transform="translate(-2021.857 -1882.439)" fill="#f92525"/>
      <path id="Path_18862" data-name="Path 18862" d="M2038.53,1894.292a.774.774,0,1,0,1.428-.6,27.02,27.02,0,0,0-1.277-2.878,1.386,1.386,0,0,0-.684-.706l-2.757-1.3a2.3,2.3,0,0,0-1.407-.182l-.948.175a3.354,3.354,0,0,0-2.4,1.826l-.922,1.893-2.182,1.148a.714.714,0,0,0-.328.907l.009.019a.7.7,0,0,0,.4.391.714.714,0,0,0,.557-.014l2.436-1.1a1.124,1.124,0,0,0,.432-.338l.926-1.176.9,3.408-2.138,2.911a4.576,4.576,0,0,0-.742,1.358l-1.2,3.492a.9.9,0,0,0,.624,1.164l.019,0a.9.9,0,0,0,1.039-.487l1.637-3.47,2.5-2.9.933,2.861,2.04,3.521a.9.9,0,0,0,1.02.417l.073-.021a.9.9,0,0,0,.595-1.2l-1.951-4.406-1.562-7.96,1.809.8,1.126,2.439" transform="translate(-2021.857 -1882.439)" fill="none" stroke="#fff" stroke-linecap="round" stroke-linejoin="round" stroke-width="1"/>
      <path id="Path_18863" data-name="Path 18863" d="M2038.53,1894.292a.774.774,0,1,0,1.428-.6,27.02,27.02,0,0,0-1.277-2.878,1.386,1.386,0,0,0-.684-.706l-2.757-1.3a2.3,2.3,0,0,0-1.407-.182l-.948.175a3.354,3.354,0,0,0-2.4,1.826l-.922,1.893-2.182,1.148a.714.714,0,0,0-.328.907l.009.019a.7.7,0,0,0,.4.391.714.714,0,0,0,.557-.014l2.436-1.1a1.124,1.124,0,0,0,.432-.338l.926-1.176.9,3.408-2.138,2.911a4.576,4.576,0,0,0-.742,1.358l-1.2,3.492a.9.9,0,0,0,.624,1.164l.019,0a.9.9,0,0,0,1.039-.487l1.637-3.47,2.5-2.9.933,2.861,2.04,3.521a.9.9,0,0,0,1.02.417l.073-.021a.9.9,0,0,0,.595-1.2l-1.951-4.406-1.562-7.96,1.809.8,1.126,2.439" transform="translate(-2021.857 -1882.439)" fill="#f92525"/>
    </g>
  </g>
</svg>
