<svg id="グループ_27238" data-name="グループ 27238" xmlns="http://www.w3.org/2000/svg" width="12.659" height="14.185" viewBox="0 0 12.659 14.185">
  <path id="パス_30966" data-name="パス 30966" d="M17.7,19.9a4,4,0,1,0-4-4A4,4,0,0,0,17.7,19.9Z" transform="translate(-11.388 -11.9)" fill="#999"/>
  <path id="パス_30967" data-name="パス 30967" d="M24.87,20.377v-.243h-.158l-.316-.243-.316-.162h-.158l-.316-.162h0A6.674,6.674,0,0,0,20.768,19h-4.26a6.674,6.674,0,0,0-2.84.567h0l-.316.162H13.2l-.316.162-.316.243h-.158v.243h0a1.088,1.088,0,0,0,0,.405V23.05H25.028V20.863a1.089,1.089,0,0,0,0-.405Z" transform="translate(-12.388 -8.865)" fill="#999"/>
</svg>
