<svg xmlns="http://www.w3.org/2000/svg" width="12" height="15.5" viewBox="0 0 12 15.5">
  <g id="Group_10653" data-name="Group 10653" transform="translate(-3263.5 -42)">
    <path id="Rectangle_10078" data-name="Rectangle 10078" d="M2,0h8a2,2,0,0,1,2,2V15a0,0,0,0,1,0,0H0a0,0,0,0,1,0,0V2A2,2,0,0,1,2,0Z" transform="translate(3263.5 42)" fill="#999"/>
    <path id="Path_9206" data-name="Path 9206" d="M3271.4,54h-3.8c-.055,0-.1.025-.1.056v3.3h4v-3.3C3271.5,54.025,3271.455,54,3271.4,54Z" transform="translate(0 -0.357)" fill="#fbf8f8" stroke="#fbf8f8" stroke-width="1"/>
    <rect id="Rectangle_10080" data-name="Rectangle 10080" width="2" height="2" transform="translate(3270.5 48.5)" fill="#fff"/>
    <rect id="Rectangle_10081" data-name="Rectangle 10081" width="2" height="2" transform="translate(3270.5 46.063)" fill="#fff"/>
    <rect id="Rectangle_10082" data-name="Rectangle 10082" width="2" height="2" transform="translate(3270.5 44)" fill="#fff"/>
    <rect id="Rectangle_10083" data-name="Rectangle 10083" width="2" height="2" transform="translate(3266.5 48.5)" fill="#fff"/>
    <rect id="Rectangle_10084" data-name="Rectangle 10084" width="2" height="2" transform="translate(3266.5 46.063)" fill="#fff"/>
    <rect id="Rectangle_10085" data-name="Rectangle 10085" width="2" height="2" transform="translate(3266.5 44)" fill="#fff"/>
  </g>
</svg>
