<svg xmlns="http://www.w3.org/2000/svg" width="12" height="15" viewBox="0 0 12 15">
  <path id="Icon_awesome-door-open" data-name="Icon awesome-door-open" d="M11.7,13.125H10.2v-9.8c0-.8-.4-1.449-.9-1.449H7.2V3.75H9V15h2.7c.166,0,.3-.21.3-.469v-.938C12,13.335,11.866,13.125,11.7,13.125ZM5.854.03l-3.6,1.457a1,1,0,0,0-.454.942v10.7H.3c-.166,0-.3.21-.3.469v.938C0,14.79.134,15,.3,15H6.6V.972c0-.632-.367-1.1-.746-.942Zm-.9,8.408c-.248,0-.45-.42-.45-.938s.2-.938.45-.938.45.42.45.938S5.2,8.438,4.95,8.438Z" transform="translate(0 0)" fill="#999"/>
</svg>
