<svg xmlns="http://www.w3.org/2000/svg" width="18.218" height="16" viewBox="0 0 18.218 16">
  <g id="Group_13186" data-name="Group 13186" transform="translate(-2398.391 -10878)">
    <path id="Path_15670" data-name="Path 15670" d="M2407.041,10893.853a.5.5,0,0,0,.711,0l.71-.71a.5.5,0,0,0,0-.711l-6.438-6.437,6.427-6.427a.5.5,0,0,0,0-.711l-.71-.71a.5.5,0,0,0-.71,0l-7.493,7.492a.5.5,0,0,0,0,.71Z" transform="translate(-1)" fill="#e5e5e5"/>
    <path id="Path_15671" data-name="Path 15671" d="M2415.041,10893.853a.5.5,0,0,0,.711,0l.71-.71a.5.5,0,0,0,0-.711l-6.438-6.437,6.427-6.427a.5.5,0,0,0,0-.711l-.71-.71a.5.5,0,0,0-.71,0l-7.493,7.492a.5.5,0,0,0,0,.71Z" fill="#e5e5e5"/>
  </g>
</svg>
