<svg xmlns="http://www.w3.org/2000/svg" width="10.959" height="12.185" viewBox="0 0 10.959 12.185">
  <g id="グループ_27238" data-name="グループ 27238" transform="translate(-12.388 -11.9)">
    <path id="パス_30966" data-name="パス 30966" d="M17.868,17.3c2.3,0,4.167-1.209,4.167-2.7s-1.866-2.7-4.167-2.7S13.7,13.109,13.7,14.6,15.566,17.3,17.868,17.3Z" fill="#999"/>
    <path id="パス_30967" data-name="パス 30967" d="M23.194,20.7v-.3h-.137l-.273-.3-.273-.2h-.137l-.273-.2h0a4.347,4.347,0,0,0-2.458-.7H15.955a4.347,4.347,0,0,0-2.458.7h0l-.273.2h-.137l-.273.2-.273.3H12.4v.3h0a1.908,1.908,0,0,0,0,.5V24H23.331V21.3a1.908,1.908,0,0,0,0-.5Z" transform="translate(0 0.085)" fill="#999"/>
  </g>
</svg>
