<svg xmlns="http://www.w3.org/2000/svg" width="10.938" height="14.572" viewBox="0 0 10.938 14.572">
  <path id="ic_directions_run_24px" d="M6.627,4.191A1.356,1.356,0,1,1,7.986,2.836,1.361,1.361,0,0,1,6.627,4.191Zm2.446,9.421L8.393,10.63,6.966,11.986v4.067H5.608V10.969L7.034,9.613,6.627,7.58A4.98,4.98,0,0,1,2.89,9.275V7.919A3.344,3.344,0,0,0,5.811,6.292l.679-1.084A1.4,1.4,0,0,1,7.646,4.53c.2,0,.34.068.544.068l3.533,1.491V9.275H10.363V6.97L9.14,6.5l1.087,5.49,3.329-.678.272,1.356Z" transform="translate(-2.89 -1.48)" fill="#ff4949"/>
</svg>
