<svg xmlns="http://www.w3.org/2000/svg" width="24" height="24" viewBox="0 0 24 24">
  <g id="ボタン_閉じる" transform="translate(-1767.938 -5017.944)">
    <path id="Path_317" data-name="Path 317" d="M1785.844,5024.8l-.707-.707a.5.5,0,0,0-.707,0l-4.44,4.44-4.439-4.44a.5.5,0,0,0-.707,0l-.707.707a.5.5,0,0,0,0,.707l4.439,4.44-4.439,4.439a.5.5,0,0,0,0,.708l.707.707a.5.5,0,0,0,.707,0l4.439-4.44,4.44,4.44a.5.5,0,0,0,.707,0l.707-.707a.5.5,0,0,0,0-.708l-4.44-4.439,4.44-4.44A.5.5,0,0,0,1785.844,5024.8Z" fill="#0F6DB5"/>
    <rect id="Rectangle_833" data-name="Rectangle 833" width="24" height="24" rx="8" transform="translate(1767.938 5017.944)" fill="none"/>
  </g>
</svg>
