<svg xmlns="http://www.w3.org/2000/svg" viewBox="0 0 19 20"><defs><style>.cls-1{fill:#999;}.cls-2{fill:#fff;}.cls-3{fill:#d1d1d2;}.cls-4{fill:#f66;}.cls-5{fill:#666;}.cls-6{fill:#f99;}</style></defs><title>ic-sb3</title><g id="Layer_2" data-name="Layer 2"><g id="グローバルナビゲーション"><path class="cls-1" d="M15,20H5a4,4,0,0,1-4-4V6A4,4,0,0,1,5,2H15a4,4,0,0,1,4,4V16a4,4,0,0,1-4,4"/><path class="cls-2" d="M14,18H4a4,4,0,0,1-4-4V4A4,4,0,0,1,4,0H14a4,4,0,0,1,4,4V14a4,4,0,0,1-4,4"/><path class="cls-3" d="M18,4H0A4,4,0,0,1,4,0H14a4,4,0,0,1,4,4"/><path class="cls-4" d="M18,5H0V4A4,4,0,0,1,4,0H14a4,4,0,0,1,4,4Z"/><path class="cls-5" d="M6.1,12.8l.8-.2H7a.6.6,0,0,0,.6.5c.4,0,.6-.3.6-.7s-.2-.7-.6-.7H7.3v-.7h.2a.5.5,0,0,0,.6-.6.6.6,0,0,0-.5-.6.6.6,0,0,0-.6.5H6.1A1.4,1.4,0,0,1,7.6,9a1.3,1.3,0,0,1,1.5,1.3,1.1,1.1,0,0,1-.5,1h0a1.1,1.1,0,0,1,.6,1.1A1.4,1.4,0,0,1,7.6,14a1.4,1.4,0,0,1-1.5-1.1h0"/><path class="cls-5" d="M10.9,10.2h0l-.8.5h0V9.8h0l.8-.6h1v4.7h-1Z"/><path class="cls-2" d="M6,3A.9.9,0,0,1,5,4,.9.9,0,0,1,4,3,.9.9,0,0,1,5,2,.9.9,0,0,1,6,3"/><path class="cls-2" d="M14,3a1,1,0,0,1-2,0,1,1,0,0,1,2,0"/><rect class="cls-6" y="5" width="18" height="1"/></g></g></svg>