<svg xmlns="http://www.w3.org/2000/svg" width="18" height="11.164" viewBox="0 0 18 11.164">
  <g id="iconTask" transform="translate(-3632 -5523)">
    <path id="_5" data-name="5" d="M275.8,790.589c0-.513.313-.93.7-.93v-.93c-.387,0-.7-.416-.7-.93h-1.4c-.774,0-1.4.833-1.4,1.861V797.1c0,1.027.627,1.861,1.4,1.861h1.4c0-.513.313-.93.7-.93v-.93c-.387,0-.7-.416-.7-.93s.313-.93.7-.93v-.93c-.387,0-.7-.416-.7-.93s.313-.93.7-.93v-.93c-.387,0-.7-.416-.7-.93" transform="translate(3359 4735.202)" fill="#d22323"/>
    <path id="_4" data-name="4" d="M277.467,796.171a.949.949,0,0,1-.967.93v.93a.948.948,0,0,1,.967.93h11.6A1.9,1.9,0,0,0,291,797.1v-7.443a1.9,1.9,0,0,0-1.935-1.861h-11.6a.949.949,0,0,1-.967.93v.93a.931.931,0,1,1,0,1.861v.93a.931.931,0,1,1,0,1.861v.93a.948.948,0,0,1,.967.93" transform="translate(3359 4735.202)" fill="#eb7e11"/>
    <rect id="_3" data-name="3" width="4" height="1.4" transform="translate(3638.052 5524.953)" fill="#fff"/>
    <rect id="_2" data-name="2" width="9" height="1.4" transform="translate(3638 5527.882)" fill="#fff"/>
    <rect id="_1" data-name="1" width="9" height="1.4" transform="matrix(1, -0.017, 0.017, 1, 3637.999, 5530.929)" fill="#fff"/>
  </g>
</svg>
