<svg xmlns="http://www.w3.org/2000/svg" width="13.214" height="16.263" viewBox="0 0 13.214 16.263">
  <path id="Path_6079" data-name="Path 6079" d="M6330.279,3371.812h-1.27v-1.859a4.184,4.184,0,0,0-3.666-4.221,4.068,4.068,0,0,0-4.466,4.047v2.033h-1.27a1.271,1.271,0,0,0-1.271,1.27v7.624a1.27,1.27,0,0,0,1.271,1.27h10.672a1.27,1.27,0,0,0,1.271-1.27v-7.624a1.271,1.271,0,0,0-1.271-1.27m-4.827,5.5v2.633h-1.018v-2.633a1.525,1.525,0,1,1,1.018,0m1.524-5.5h-4.066v-1.918a2.113,2.113,0,0,1,1.69-2.119,2.035,2.035,0,0,1,2.376,2Z" transform="translate(-6318.336 -3365.713)" fill="#999"/>
</svg>
