<svg id="Group_9" data-name="Group 9" xmlns="http://www.w3.org/2000/svg" width="232" height="64.762" viewBox="0 0 232 64.762">
  <g id="Group_6" data-name="Group 6">
    <path id="Path_12" data-name="Path 12" d="M9754.478,309.193l-.022.005h0a7.6,7.6,0,1,0,5.919,13.834h0l0,0c.141-.086,22.631-15.43,24.281-16.628a1.745,1.745,0,0,0-1.436-3.1C9781.062,303.744,9754.664,309.144,9754.478,309.193Z" transform="translate(-9724 -284)" fill="#0ba7fd"/>
    <path id="Path_13" data-name="Path 13" d="M9784.758,328.1a5.029,5.029,0,0,0-2.636-3.6,5.461,5.461,0,0,0-4.963-.006,10.835,10.835,0,0,0-3.8,3.593c-1.091,1.461-6.6,9.4-19.113,8.385-10.667-.869-18.99-10.724-17.835-22.082a22.423,22.423,0,0,1,3.057-9.274,21.408,21.408,0,0,1,16.892-9.975,20.4,20.4,0,0,1,7.056.686,9.5,9.5,0,0,1,2.374,1.122,1.8,1.8,0,0,1,.7,1.063,1.708,1.708,0,0,1-.157,1.182,1.133,1.133,0,0,0-.156.668,1.108,1.108,0,0,0,.543.88,1.377,1.377,0,0,0,.814.125c.459-.093,4.236-.852,5.055-1.032l.008,0c2.979-.605,5.784-1.186,5.784-1.186a2.892,2.892,0,0,0,1.962-1.563,2.78,2.78,0,0,0-.493-3.025,28.034,28.034,0,0,0-3.162-2.924,32.064,32.064,0,0,0-16.733-6.949,32.469,32.469,0,0,0-35.784,28.923c-1.81,17.7,11.146,33.993,28.872,35.524a32.23,32.23,0,0,0,26.869-10.7C9780.628,337.133,9785.369,331.615,9784.758,328.1Z" transform="translate(-9724 -284)" fill="#0f6db5"/>
  </g>
  <g id="Group_8" data-name="Group 8" transform="translate(77.572 13.008)">
    <path id="Path_14" data-name="Path 14" d="M9915.089,332.378a3.834,3.834,0,0,1-3.83-3.83V313.463a6.014,6.014,0,0,0-6.319-6.317c-3.073,0-6.678,2.5-6.678,6.317l0,3.808v11.277a3.83,3.83,0,1,1-7.659,0V317.271c.006-1.6.021-2.694.021-3.808a6.558,6.558,0,0,0-2.442-5.147,5.931,5.931,0,0,0-2.661-1.136,3.787,3.787,0,0,0-3.317,1.059c-.037.038-.19.212-.261.288a.883.883,0,0,1-.595.3.871.871,0,0,1-.941-.95,7.97,7.97,0,0,1,7.622-7.381,9.831,9.831,0,0,1,9.327,6.134c4.613-6.231,9.711-6.138,11.351-6.135a10.032,10.032,0,0,1,7.85,3.535,9.742,9.742,0,0,1,2.36,6.726v17.794A3.834,3.834,0,0,1,9915.089,332.378Z" transform="translate(-9801.572 -297.008)" fill="#1c4476"/>
    <path id="Path_15" data-name="Path 15" d="M9873.867,332.375a3.816,3.816,0,0,1-3.794-3.83V304.368a3.777,3.777,0,1,1,7.554,0l.035,24.177A3.817,3.817,0,0,1,9873.867,332.375Z" transform="translate(-9801.572 -297.008)" fill="#1c4476"/>
    <path id="Path_16" data-name="Path 16" d="M9929.409,297.119a2.678,2.678,0,0,0-3.326,1.807,1.115,1.115,0,0,0-.038.167l-.045.258a.425.425,0,0,0-.016.091l-1.544,8.608a1.675,1.675,0,0,0,3.194.946l3.489-8.291a2.3,2.3,0,0,0,.093-.261A2.68,2.68,0,0,0,9929.409,297.119Zm-3.206,2.359Z" transform="translate(-9801.572 -297.008)" fill="#1c4476"/>
    <path id="Path_17" data-name="Path 17" d="M9850.356,333.082a13.3,13.3,0,0,1-7.949-2.428,3.485,3.485,0,0,1-1.432-2.463,3.424,3.424,0,0,1,3.41-3.784,3.3,3.3,0,0,1,1.981.679,7.69,7.69,0,0,0,4.412,1.723c2.353,0,3.889-1.481,3.889-3.124,0-1.607-1.493-2.7-3.734-3.853l-2.707-1.383c-5.053-2.556-7.508-5.642-7.508-9.435,0-5.048,4.3-8.855,10-8.855a12.58,12.58,0,0,1,7.271,2.257,3.279,3.279,0,0,1,1.382,2.4,3.362,3.362,0,0,1-3.342,3.662,3.2,3.2,0,0,1-1.729-.576,6.669,6.669,0,0,0-3.476-1.413c-2.264-.044-3.362,1.2-3.362,2.581s1.229,1.96,2.958,2.853l3.148,1.608c5.707,2.918,7.93,5.7,7.93,9.915C9861.5,329.119,9856.915,333.082,9850.356,333.082Z" transform="translate(-9801.572 -297.008)" fill="#1c4476"/>
    <path id="Path_18" data-name="Path 18" d="M9944.86,333.082a13.3,13.3,0,0,1-7.949-2.428,3.477,3.477,0,0,1-1.431-2.463,3.424,3.424,0,0,1,3.409-3.784,3.3,3.3,0,0,1,1.981.679,7.69,7.69,0,0,0,4.412,1.723c2.352,0,3.889-1.481,3.889-3.124,0-1.607-1.493-2.7-3.735-3.853l-2.705-1.383c-5.054-2.556-7.509-5.642-7.509-9.435,0-5.048,4.3-8.855,10-8.855a12.575,12.575,0,0,1,7.271,2.257,3.277,3.277,0,0,1,1.383,2.4,3.362,3.362,0,0,1-3.343,3.662,3.2,3.2,0,0,1-1.729-.576,6.666,6.666,0,0,0-3.476-1.413c-2.263-.044-3.362,1.2-3.362,2.581s1.229,1.96,2.958,2.853l3.148,1.608c5.707,2.918,7.93,5.7,7.93,9.915C9956,329.119,9951.419,333.082,9944.86,333.082Z" transform="translate(-9801.572 -297.008)" fill="#1c4476"/>
    <g id="Group_7" data-name="Group 7" transform="translate(0 3.136)">
      <path id="Path_19" data-name="Path 19" d="M9817.594,300.144c-10.4,0-16.021,8.687-16.021,16.535a16.008,16.008,0,0,0,16.1,16.415c7.763,0,10.937-3.3,11.751-4.01a3.051,3.051,0,0,0,.648-4.156c-1.213-1.853-3.067-2.185-4.386-1.277a25.689,25.689,0,0,1-2.222,1.505,11.526,11.526,0,0,1-5.792,1.263,9.865,9.865,0,0,1,.031-19.715c4.437,0,7.265,2.248,8.438,5.123a.81.81,0,0,1-.8,1.172h-10.453a3.579,3.579,0,0,0-2.919,1.4,3.835,3.835,0,0,0-.692,1.316,5.39,5.39,0,0,0-.1,2.011,1.428,1.428,0,0,0,1.571,1.29h18.7a2.394,2.394,0,0,0,2.29-2.47C9833.36,307.145,9826.958,300.144,9817.594,300.144Z" transform="translate(-9801.572 -300.144)" fill="#1c4476"/>
    </g>
  </g>
</svg>
