<?xml version="1.0" encoding="utf-8"?>
<!-- Generator: Adobe Illustrator 21.1.0, SVG Export Plug-In . SVG Version: 6.00 Build 0)  -->
<svg version="1.1" id="レイヤー_2" xmlns="http://www.w3.org/2000/svg" xmlns:xlink="http://www.w3.org/1999/xlink" x="0px"
	 y="0px" viewBox="0 0 645.261 444.258" enable-background="new 0 0 645.261 444.258" xml:space="preserve">
<g>
	<g>
		<g>
			<g>
				<polygon fill="#88A8A4" points="327.937,202.375 362.239,182.571 362.239,182.571 				"/>
				<polygon fill="#88A8A4" points="342.435,148.269 362.239,136.835 362.239,136.835 				"/>
				<polygon fill="#88A8A4" points="322.631,159.703 322.63,159.703 349.036,174.948 				"/>
				<polygon fill="#88A8A4" points="322.63,205.439 283.022,182.571 322.63,159.703 283.022,136.835 283.022,136.835 
					322.63,159.703 283.022,182.571 322.63,205.439 				"/>
				<polygon fill="#88A8A4" points="348.687,129.011 322.63,113.967 287.805,134.074 322.63,113.967 				"/>
				<g>
					<path fill="#88A8A4" d="M283.022,136.835l4.783-2.761l34.825-20.107l26.056,15.044l13.552,7.824l0,0l0,0l25.337-14.629
						c6.343-3.662,6.343-12.817,0-16.479l-60.189-34.75c-2.944-1.7-6.57-1.7-9.514,0l-60.189,34.75
						c-6.343,3.662-6.343,12.817,0,16.479L283.022,136.835L283.022,136.835L283.022,136.835z"/>
				</g>
				<g>
					<path fill="#88A8A4" d="M387.576,197.199l-25.337-14.628l-34.302,19.804l-5.306,3.064l0,0l0,0l-39.609-22.868l-25.337,14.628
						c-6.343,3.662-6.343,12.817,0,16.479l60.189,34.75c2.944,1.7,6.57,1.7,9.514,0l60.189-34.75
						C393.919,210.016,393.919,200.861,387.576,197.199z"/>
				</g>
				<g>
					<path fill="#88A8A4" d="M283.022,136.835l-25.337,14.628c-6.343,3.662-6.343,12.817,0,16.479l25.337,14.628l39.608-22.868
						L283.022,136.835z"/>
				</g>
				<g>
					<path fill="#88A8A4" d="M322.631,159.703l26.405,15.245l13.203,7.623h0l0,0l25.337-14.628c6.343-3.662,6.343-12.817,0-16.479
						l-25.337-14.628l-19.804,11.434L322.631,159.703z"/>
				</g>
				<g>
					<polygon fill="#88A8A4" points="322.63,205.439 327.937,202.375 322.63,205.439 					"/>
				</g>
				<g>
					<polygon fill="#88A8A4" points="362.239,182.571 349.036,174.948 362.239,182.571 					"/>
				</g>
				<g>
					<polygon fill="#88A8A4" points="283.022,136.835 283.022,136.835 287.805,134.074 					"/>
				</g>
				<g>
					<polygon fill="#88A8A4" points="362.239,136.835 348.687,129.011 362.239,136.835 					"/>
				</g>
				<g>
					<polygon fill="#88A8A4" points="322.631,159.703 342.435,148.269 322.63,159.703 					"/>
				</g>
			</g>
		</g>
	</g>
	<g>
		<g>
			<path fill="#88A8A4" d="M114.36,300.496c-4.767,0-9.05,1.884-12.85,5.652v-4.347H90.592v47.052h10.918v-22.705
				c0-5.861,0.74-9.968,2.222-12.319c1.514-2.384,4.074-3.575,7.681-3.575c3.317,0,5.604,0.902,6.86,2.705
				c1.287,1.771,1.932,4.976,1.932,9.614v26.279h10.918v-28.841c0-6.633-1.321-11.416-3.961-14.347
				C124.102,302.219,119.834,300.496,114.36,300.496z"/>
		</g>
		<g>
			<path fill="#88A8A4" d="M156.549,319.144c-4.187-1.77-6.28-3.558-6.28-5.362c0-1.03,0.354-1.876,1.063-2.537
				c0.708-0.659,1.562-0.99,2.56-0.99c2.093,0,3.849,1.449,5.266,4.348l8.986-4.783c-2.931-6.215-7.408-9.324-13.43-9.324
				c-4.09,0-7.569,1.338-10.435,4.011c-2.801,2.673-4.203,6.054-4.203,10.144c0,3.092,0.821,5.62,2.464,7.584
				c1.287,1.545,3.51,3.092,6.667,4.637c1.126,0.549,2.238,1.08,3.333,1.595c1.094,0.515,2.189,1.047,3.284,1.593
				c2.834,1.675,4.252,3.479,4.252,5.411c0,3.35-1.836,5.024-5.508,5.024c-1.835,0-3.414-0.611-4.733-1.836
				c-0.676-0.611-1.66-2.045-2.947-4.299l-9.275,4.299c3.284,7.698,8.872,11.546,16.762,11.546c4.606,0,8.534-1.448,11.788-4.347
				c3.349-3.06,5.024-6.86,5.024-11.402c0-3.542-0.999-6.359-2.996-8.454C166.194,323.911,162.313,321.624,156.549,319.144z"/>
		</g>
		<g>
			<path fill="#88A8A4" d="M234.174,307.115c-3.93-4.412-8.857-6.619-14.783-6.619c-6.763,0-12.206,2.545-16.327,7.634
				c-3.833,4.798-5.75,10.627-5.75,17.487c0,7.054,2.061,12.931,6.184,17.633c4.089,4.637,9.339,6.956,15.749,6.956
				c5.635,0,10.611-2.205,14.927-6.618v6.57c0,9.759-3.978,14.638-11.932,14.638c-4.316,0-7.601-1.466-9.855-4.396
				c-0.967-1.256-1.659-3.043-2.077-5.363h-10.918c0.644,6.152,3.06,10.967,7.247,14.444c4.058,3.381,9.227,5.073,15.507,5.073
				c7.439,0,13.285-2.448,17.535-7.343c2.254-2.544,3.768-5.589,4.542-9.131c0.257-1.288,0.458-2.778,0.603-4.469
				c0.145-1.691,0.218-3.647,0.218-5.869v-45.941h-10.87V307.115z M231.275,335.955c-2.415,3.028-5.7,4.541-9.855,4.541
				c-4.155,0-7.408-1.497-9.758-4.492c-2.159-2.738-3.237-6.248-3.237-10.532c0-4.347,1.078-7.889,3.237-10.627
				c2.383-3.06,5.635-4.589,9.758-4.589c3.866,0,7.037,1.401,9.516,4.203c2.447,2.738,3.672,6.393,3.672,10.966
				C234.609,329.708,233.498,333.218,231.275,335.955z"/>
		</g>
		<g>
			<path fill="#88A8A4" d="M277.843,300.496c-4.671,0-8.938,1.74-12.802,5.217v-21.159h-10.87v64.299h10.87V326.1
				c0-5.796,0.755-9.886,2.269-12.27c1.547-2.351,4.22-3.527,8.02-3.527c2.962,0,5.112,0.846,6.449,2.537
				c1.336,1.691,2.005,4.419,2.005,8.188v27.826h10.87v-28.841c0-6.57-1.353-11.352-4.059-14.347
				C287.407,302.219,283.156,300.496,277.843,300.496z"/>
		</g>
		<g>
			<polygon fill="#88A8A4" points="318.736,284.555 318.556,284.555 307.867,284.555 307.686,284.555 307.686,301.936 
				299.413,301.936 299.413,312.08 307.686,312.08 307.686,348.854 307.867,348.854 318.556,348.854 318.736,348.854 
				318.736,312.08 327.01,312.08 327.01,301.936 318.736,301.936 			"/>
		</g>
		<g>
			<rect x="69.703" y="301.802" fill="#88A8A4" width="10.87" height="47.052"/>
		</g>
		<g>
			<circle fill="#88A8A4" cx="75.138" cy="289.989" r="5.435"/>
		</g>
		<g>
			<rect x="178.978" y="301.802" fill="#88A8A4" width="10.87" height="47.052"/>
		</g>
		<g>
			<circle fill="#88A8A4" cx="184.413" cy="289.989" r="5.435"/>
		</g>
		<g>
			<polygon fill="#88A8A4" points="389.619,301.867 388.764,301.867 381.184,330.328 370.446,301.867 369.59,301.867 362.7,301.867 
				361.845,301.867 351.756,330.1 344.188,301.867 343.333,301.867 333.704,301.867 332.848,301.867 346.166,348.854 
				347.021,348.854 354.572,348.854 355.427,348.854 366.523,318.088 377.618,348.854 378.474,348.854 385.93,348.854 
				386.786,348.854 400.197,301.867 399.342,301.867 			"/>
		</g>
		<g>
			<path fill="#88A8A4" d="M438.807,307.26c-4.348-4.509-9.259-6.764-14.734-6.764c-6.345,0-11.626,2.351-15.846,7.054
				c-4.22,4.702-6.328,10.579-6.328,17.633c0,7.182,2.108,13.173,6.328,17.971c4.252,4.702,9.629,7.052,16.135,7.052
				c5.153,0,9.968-2.093,14.444-6.279v4.927h10.918v-47.052h-10.918V307.26z M435.764,336.341c-2.481,2.77-5.734,4.155-9.759,4.155
				c-3.768,0-6.893-1.432-9.372-4.299c-2.415-2.834-3.623-6.506-3.623-11.015c0-4.218,1.239-7.761,3.72-10.628
				c2.512-2.833,5.635-4.251,9.372-4.251c3.96,0,7.181,1.401,9.662,4.203c2.48,2.868,3.719,6.506,3.719,10.918
				C439.483,329.837,438.243,333.476,435.764,336.341z"/>
		</g>
		<g>
			<path fill="#88A8A4" d="M495.108,307.743c-4.961,4.831-7.44,10.757-7.44,17.778s2.447,12.898,7.343,17.633
				c4.896,4.702,10.983,7.052,18.261,7.052c4.412,0,8.825-1.143,13.236-3.429v-14.347c-2.608,3.156-4.879,5.282-6.811,6.376
				c-1.997,1.128-4.3,1.691-6.908,1.691c-4.09,0-7.456-1.417-10.096-4.251c-2.609-2.834-3.913-6.457-3.913-10.87
				c0-4.316,1.353-7.906,4.057-10.772c2.705-2.866,6.104-4.3,10.194-4.3c2.609,0,4.879,0.58,6.812,1.739
				c1.963,1.129,4.186,3.205,6.666,6.232V303.83c-4.122-2.221-8.502-3.333-13.139-3.333
				C506.154,300.496,500.068,302.912,495.108,307.743z"/>
		</g>
		<g>
			<path fill="#88A8A4" d="M571.499,305.666c-3.188-3.446-7.439-5.169-12.752-5.169c-4.671,0-8.938,1.74-12.802,5.217v-21.159
				h-10.87v64.299h10.87V326.1c0-5.796,0.755-9.886,2.269-12.27c1.547-2.351,4.22-3.527,8.02-3.527c2.962,0,5.112,0.846,6.449,2.537
				c1.336,1.691,2.005,4.419,2.005,8.188v27.826h10.87v-28.841C575.558,313.443,574.204,308.661,571.499,305.666z"/>
		</g>
		<g>
			<polygon fill="#88A8A4" points="475.691,284.555 475.511,284.555 464.821,284.555 464.641,284.555 464.641,301.936 
				456.368,301.936 456.368,312.08 464.641,312.08 464.641,348.854 464.821,348.854 475.511,348.854 475.691,348.854 
				475.691,312.08 483.964,312.08 483.964,301.936 475.691,301.936 			"/>
		</g>
	</g>
</g>
</svg>
