<svg xmlns="http://www.w3.org/2000/svg" xmlns:xlink="http://www.w3.org/1999/xlink" viewBox="0 0 14 14"><defs><style>.cls-1{fill:none;}.cls-2{clip-path:url(#clip-path);}.cls-3{fill:#ff5c5c;}.cls-4{fill:#fff;}</style><clipPath id="clip-path"><rect class="cls-1" width="14" height="14"/></clipPath></defs><title>Asset 2</title><g id="Layer_2" data-name="Layer 2"><g id="Layer_1-2" data-name="Layer 1"><g class="cls-2"><rect class="cls-3" x="0.5" y="0.5" width="13" height="13" rx="3.7" ry="3.7"/><path class="cls-4" d="M9.8,1A3.2,3.2,0,0,1,13,4.2V9.8A3.2,3.2,0,0,1,9.8,13H4.2A3.2,3.2,0,0,1,1,9.8V4.2A3.2,3.2,0,0,1,4.2,1H9.8m0-1H4.2A4.2,4.2,0,0,0,0,4.2V9.8A4.2,4.2,0,0,0,4.2,14H9.8A4.2,4.2,0,0,0,14,9.8V4.2A4.2,4.2,0,0,0,9.8,0"/><path class="cls-4" d="M9,6.1a8.3,8.3,0,0,0,2,3,2.3,2.3,0,0,0-.7.7A6.2,6.2,0,0,1,8.6,7.2v3.6h-1V7.4A7.9,7.9,0,0,1,5.9,9.9l-.7-.7v1.6h-1V6.6l-.6.8A6,6,0,0,0,3,6.3,8.9,8.9,0,0,0,5.1,3.2l1,.3L5.2,5.2V9.1a7.2,7.2,0,0,0,2-3H5.5v-1H7.6V3.3h1V5.1h2.2v1Z"/></g></g></g></svg>