<svg xmlns="http://www.w3.org/2000/svg" xmlns:xlink="http://www.w3.org/1999/xlink" viewBox="0 0 14 12"><defs><style>.cls-1{fill:none;}.cls-2{clip-path:url(#clip-path);}.cls-3{fill:#e61f1e;}.cls-4{fill:#fff;}.cls-5{fill:#fa5151;}.cls-6{fill:#fb7d7d;}</style><clipPath id="clip-path" transform="translate(0 -1)"><rect class="cls-1" width="14" height="14"/></clipPath></defs><title>Asset 7</title><g id="Layer_2" data-name="Layer 2"><g id="Layer_1-2" data-name="Layer 1"><g class="cls-2"><path class="cls-3" d="M2,12.5A1.6,1.6,0,0,1,.5,11V4.6A1.5,1.5,0,0,1,2,3.1H4.2V2.9a1.4,1.4,0,0,1,.5-1,1.2,1.2,0,0,1,1-.4H8.3a1.5,1.5,0,0,1,1.1.4,1.8,1.8,0,0,1,.4,1v.2H12a1.5,1.5,0,0,1,1.5,1.5V11A1.6,1.6,0,0,1,12,12.5Z" transform="translate(0 -1)"/><path class="cls-4" d="M8.3,2l.7.2a1.1,1.1,0,0,1,.3.7v.7H12a.9.9,0,0,1,1,1V11a1.2,1.2,0,0,1-1,1H2a1.2,1.2,0,0,1-1-1V4.6a1.1,1.1,0,0,1,1-1H4.7V2.9A1.1,1.1,0,0,1,5,2.2L5.7,2H8.3M5.6,3.6H8.5V2.9H5.6v.7M8.3,1H5.7a2.4,2.4,0,0,0-1.4.5,1.6,1.6,0,0,0-.5,1.1H2a2,2,0,0,0-2,2V11a2.2,2.2,0,0,0,2,2H12a2.2,2.2,0,0,0,2-2V4.6a2,2,0,0,0-2-2H10.3a2.4,2.4,0,0,0-.6-1.1A2.2,2.2,0,0,0,8.3,1" transform="translate(0 -1)"/><rect class="cls-5" x="1" y="6.5" width="12" height="1"/><path class="cls-6" d="M7,9H7A1,1,0,0,1,7,7,.9.9,0,0,1,8,8,.9.9,0,0,1,7,9" transform="translate(0 -1)"/><path class="cls-5" d="M7,8.8H7a.5.5,0,0,1-.5-.5V7.8a.5.5,0,0,1,1,0v.5a.5.5,0,0,1-.5.5" transform="translate(0 -1)"/></g></g></g></svg>