<svg xmlns="http://www.w3.org/2000/svg" xmlns:xlink="http://www.w3.org/1999/xlink" viewBox="0 0 13.5 13.5"><defs><style>.cls-1,.cls-3,.cls-7{fill:none;}.cls-2{clip-path:url(#clip-path);}.cls-3,.cls-7{stroke:#fff;stroke-miterlimit:10;}.cls-3{stroke-width:2.5px;}.cls-4{fill:#1ea1da;}.cls-5{fill:#999;}.cls-6{fill:#e5e5e5;}.cls-7{stroke-width:2px;}</style><clipPath id="clip-path" transform="translate(-0.2 -0.3)"><rect class="cls-1" width="14" height="14"/></clipPath></defs><title>Asset 5</title><g id="Layer_2" data-name="Layer 2"><g id="Layer_1-2" data-name="Layer 1"><g class="cls-2"><path class="cls-3" d="M4.4,4.3A1.4,1.4,0,0,0,5.8,2.9,1.4,1.4,0,0,0,4.4,1.5,1.4,1.4,0,0,0,3,2.9,1.4,1.4,0,0,0,4.4,4.3Z" transform="translate(-0.2 -0.3)"/><path class="cls-3" d="M10.6,6A2.2,2.2,0,0,0,8.4,4,2.2,2.2,0,0,0,6.2,5.9V5.5A.5.5,0,0,0,5.7,5H3.1a.5.5,0,0,0-.5.5V6H1.5v4H5.3v2.5h6.3V10h.9V6Z" transform="translate(-0.2 -0.3)"/><path class="cls-4" d="M5.8,2.9A1.4,1.4,0,0,1,4.4,4.3,1.4,1.4,0,0,1,3,2.9,1.4,1.4,0,0,1,4.4,1.5,1.4,1.4,0,0,1,5.8,2.9" transform="translate(-0.2 -0.3)"/><path class="cls-4" d="M5.7,8.5H3.1A.5.5,0,0,1,2.6,8V5.5A.5.5,0,0,1,3.1,5H5.7a.6.6,0,0,1,.6.5V8a.6.6,0,0,1-.6.5" transform="translate(-0.2 -0.3)"/><rect class="cls-5" x="1.3" y="5.7" width="11" height="2.84"/><rect class="cls-6" x="1.3" y="6.7" width="11" height="3"/><path class="cls-7" d="M8.4,8.4A2.2,2.2,0,1,0,6.2,6.2,2.2,2.2,0,0,0,8.4,8.4Z" transform="translate(-0.2 -0.3)"/><path class="cls-7" d="M10.7,9.5H6.1a.8.8,0,0,0-.8.8v2.2h6.3V10.3A.9.9,0,0,0,10.7,9.5Z" transform="translate(-0.2 -0.3)"/><path class="cls-4" d="M10.6,6.2A2.2,2.2,0,1,1,8.4,4a2.2,2.2,0,0,1,2.2,2.2" transform="translate(-0.2 -0.3)"/><path class="cls-4" d="M11.6,12.5H5.3V10a.5.5,0,0,1,.5-.5h5.3a.5.5,0,0,1,.5.5Z" transform="translate(-0.2 -0.3)"/></g></g></g></svg>