<svg xmlns="http://www.w3.org/2000/svg" xmlns:xlink="http://www.w3.org/1999/xlink" viewBox="0 0 13 12.3"><defs><style>.cls-1{fill:none;}.cls-2{clip-path:url(#clip-path);}.cls-3{fill:#38c07c;}.cls-4{fill:#fff;}</style><clipPath id="clip-path" transform="translate(-0.5 -0.8)"><rect class="cls-1" width="14" height="14"/></clipPath></defs><title>Asset 11</title><g id="Layer_2" data-name="Layer 2"><g id="Layer_1-2" data-name="Layer 1"><g class="cls-2"><path class="cls-3" d="M9.8,12.7a4.1,4.1,0,0,1-2.3-.9L2.1,6.9a3.4,3.4,0,0,1-.2-4.8l.2-.2a1.4,1.4,0,0,1,1.1-.6,2.1,2.1,0,0,1,1.1.4l1.1,1a1.6,1.6,0,0,1,.5,1.1,1.5,1.5,0,0,1-.4,1.1l-.4.5L8.8,8.7l.4-.5a1.7,1.7,0,0,1,1.2-.5,2.1,2.1,0,0,1,1,.4l1.1,1a1.4,1.4,0,0,1,.5,1.1,1.5,1.5,0,0,1-.4,1.1l-.2.2a3.6,3.6,0,0,1-2.6,1.2" transform="translate(-0.5 -0.8)"/><path class="cls-4" d="M3.2,1.8a1.1,1.1,0,0,1,.8.3l1,1a1,1,0,0,1,.1,1.5l-.7.8,4.4,4,.8-.8a.9.9,0,0,1,.8-.4,1.1,1.1,0,0,1,.7.3l1,.9a1.1,1.1,0,0,1,.1,1.6l-.2.2a3,3,0,0,1-2.2,1,2.7,2.7,0,0,1-1.9-.8L2.5,6.6a3,3,0,0,1-.2-4.2V2.2c.3-.2.5-.4.8-.4m0-1h0a2.3,2.3,0,0,0-1.5.7l-.2.2a3.8,3.8,0,0,0-1,2.9A4.1,4.1,0,0,0,1.8,7.3l5.4,4.9a4.2,4.2,0,0,0,2.6,1,3.9,3.9,0,0,0,3-1.4l.2-.2a2.1,2.1,0,0,0-.2-2.9l-1.1-1a1.9,1.9,0,0,0-1.3-.5,2.4,2.4,0,0,0-1.6.7h0l-3-2.7h.1a3,3,0,0,0,.5-1.5,2.1,2.1,0,0,0-.7-1.5L4.6,1.4A1.8,1.8,0,0,0,3.2.8" transform="translate(-0.5 -0.8)"/></g></g></g></svg>