<svg xmlns="http://www.w3.org/2000/svg" xmlns:xlink="http://www.w3.org/1999/xlink" viewBox="0 0 10.8 12"><defs><style>.cls-1{fill:none;}.cls-2{clip-path:url(#clip-path);}.cls-3{fill:#fff;}.cls-4{fill:#1c4476;}.cls-5{fill:#2a905c;}.cls-6{fill:#206c45;}.cls-7{fill:#38c07c;}</style><clipPath id="clip-path" transform="translate(-1.4 -1)"><rect class="cls-1" width="14" height="14"/></clipPath></defs><title>Asset 15</title><g id="Layer_2" data-name="Layer 2"><g id="Layer_1-2" data-name="Layer 1"><g class="cls-2"><path class="cls-3" d="M2.8,12.5a.9.9,0,0,1-.9-.9V2.4a.9.9,0,0,1,.9-.9,1.1,1.1,0,0,1,1.1.9H7a1.1,1.1,0,0,1,1.1.7h2.7a.9.9,0,0,1,.8.5.8.8,0,0,1-.1.8l-1.3,2,1.3,1.8a1,1,0,0,1,.1.9.9.9,0,0,1-.8.4H6.9l-.5-.5H3.9v2.8a1,1,0,0,1-1,.9Z" transform="translate(-1.4 -1)"/><path class="cls-3" d="M2.9,2a.5.5,0,0,1,.5.4v.5H7a.7.7,0,0,1,.7.6h3.1c.3,0,.5.3.3.5L9.6,6.4l1.5,2.1c.2.2,0,.5-.3.5H7.2a.5.5,0,0,1-.4-.6H3.4v3.3a.5.5,0,0,1-.5.4H2.8a.4.4,0,0,1-.4-.4V2.4A.4.4,0,0,1,2.8,2h.1m0-1H2.8A1.4,1.4,0,0,0,1.4,2.4v9.2A1.4,1.4,0,0,0,2.8,13h.1a1.5,1.5,0,0,0,1.5-1.4V9.3H6.1c.1.2.3.3.6.5h4.1A1.2,1.2,0,0,0,12,9.3a1.4,1.4,0,0,0-.1-1.4L10.8,6.4,12,4.7a1.2,1.2,0,0,0,0-1.3,1.3,1.3,0,0,0-1.2-.8H8.4A1.7,1.7,0,0,0,7,1.9H4.2A1.4,1.4,0,0,0,2.9,1" transform="translate(-1.4 -1)"/><path class="cls-4" d="M2.9,12h0a.5.5,0,0,1-.5-.5v-9A.5.5,0,0,1,2.9,2a.5.5,0,0,1,.5.5v9a.5.5,0,0,1-.5.5" transform="translate(-1.4 -1)"/><path class="cls-5" d="M11.1,8.5c.2.2,0,.5-.3.5H7.6a.8.8,0,0,1-.8-.7V3.6h4c.3,0,.5.3.3.5L9.6,6.4Z" transform="translate(-1.4 -1)"/><path class="cls-6" d="M7.7,3.6H6.8V8.1a.9.9,0,0,0,.9.9Z" transform="translate(-1.4 -1)"/><path class="cls-7" d="M6.9,8.3H3.3V2.9H6.9a.8.8,0,0,1,.8.7V7.5a.9.9,0,0,1-.8.8" transform="translate(-1.4 -1)"/></g></g></g></svg>