<svg xmlns="http://www.w3.org/2000/svg" xmlns:xlink="http://www.w3.org/1999/xlink" viewBox="0 0 11 13"><defs><style>.cls-1,.cls-3{fill:none;}.cls-2{clip-path:url(#clip-path);}.cls-3{stroke:#fff;stroke-miterlimit:10;}.cls-4{fill:#0f6db5;}</style><clipPath id="clip-path" transform="translate(-1.5 -0.5)"><rect class="cls-1" width="14" height="14"/></clipPath></defs><title>Asset 1</title><g id="Layer_2" data-name="Layer 2"><g id="Layer_1-2" data-name="Layer 1"><g class="cls-2"><circle class="cls-3" cx="5.5" cy="12" r="0.5"/><circle class="cls-3" cx="8" cy="12" r="0.5"/><circle class="cls-3" cx="3" cy="12" r="0.5"/><path class="cls-3" d="M10.4,7H10L9.2,1.8a1,1,0,0,0-1-.8H5.8a1,1,0,0,0-1,.8L4,7H3.6a1,1,0,0,0-.9.6A1,1,0,0,0,3.6,9H6.5v1H5a.9.9,0,0,0-1,1v.5H5V11H6.5v.5h1V11H9v.5h1V11a.9.9,0,0,0-1-1H7.5V9h2.9a1,1,0,0,0,.9-1.4A1,1,0,0,0,10.4,7Z" transform="translate(-1.5 -0.5)"/><path class="cls-3" d="M4,5.5A.5.5,0,0,0,3.5,5h-1a.5.5,0,0,0-.5.5.5.5,0,0,0,.5.5h1A.5.5,0,0,0,4,5.5Z" transform="translate(-1.5 -0.5)"/><path class="cls-3" d="M11.5,5h-1a.5.5,0,0,0-.5.5.5.5,0,0,0,.5.5h1a.5.5,0,0,0,.5-.5A.5.5,0,0,0,11.5,5Z" transform="translate(-1.5 -0.5)"/><path class="cls-4" d="M7,12a.5.5,0,1,0,.5.5A.5.5,0,0,0,7,12" transform="translate(-1.5 -0.5)"/><path class="cls-4" d="M9.5,12a.5.5,0,1,0,.5.5.5.5,0,0,0-.5-.5" transform="translate(-1.5 -0.5)"/><path class="cls-4" d="M4.5,12a.5.5,0,0,0,0,1,.5.5,0,0,0,0-1" transform="translate(-1.5 -0.5)"/><path class="cls-4" d="M10.4,7H10L9.2,1.8a1,1,0,0,0-1-.8H5.8a1,1,0,0,0-1,.8L4,7H3.6a1,1,0,0,0-.9.6A1,1,0,0,0,3.6,9H6.5v1H5a.9.9,0,0,0-1,1v.5H5V11H6.5v.5h1V11H9v.5h1V11a.9.9,0,0,0-1-1H7.5V9h2.9a1,1,0,0,0,.9-1.4,1,1,0,0,0-.9-.6" transform="translate(-1.5 -0.5)"/><path class="cls-4" d="M4,5.5A.5.5,0,0,0,3.5,5h-1a.5.5,0,0,0-.5.5.5.5,0,0,0,.5.5h1A.5.5,0,0,0,4,5.5" transform="translate(-1.5 -0.5)"/><path class="cls-4" d="M11.5,5h-1a.5.5,0,0,0-.5.5.5.5,0,0,0,.5.5h1a.5.5,0,0,0,.5-.5.5.5,0,0,0-.5-.5" transform="translate(-1.5 -0.5)"/></g></g></g></svg>