<svg id="Layer_1" data-name="Layer 1" xmlns="http://www.w3.org/2000/svg" xmlns:xlink="http://www.w3.org/1999/xlink" viewBox="0 0 13 12.3"><defs><style>.cls-1{fill:none;}.cls-2{clip-path:url(#clip-path);}.cls-3{fill:#38c07c;}.cls-4{fill:#fff;}</style><clipPath id="clip-path" transform="translate(0 -0.7)"><rect class="cls-1" x="-0.5" y="-0.1" width="14" height="14"/></clipPath></defs><title>ic-calendar-phone</title><g class="cls-2"><path class="cls-3" d="M9.4,12.5a3.6,3.6,0,0,1-2.3-.8L1.7,6.8A3.4,3.4,0,0,1,1.4,2l.2-.3a1.7,1.7,0,0,1,1.2-.5,1.8,1.8,0,0,1,1,.4l1.1,1a1.4,1.4,0,0,1,.5,1.1A1.5,1.5,0,0,1,5,4.8l-.4.4L8.3,8.6l.4-.5a1.7,1.7,0,0,1,1.2-.5,1.3,1.3,0,0,1,1,.4L12,9a1.2,1.2,0,0,1,.5,1,1.6,1.6,0,0,1-.4,1.2l-.2.2a3.4,3.4,0,0,1-2.5,1.1" transform="translate(0 -0.7)"/><path class="cls-4" d="M2.8,1.7a1.1,1.1,0,0,1,.7.3L4.6,3a1.1,1.1,0,0,1,0,1.5l-.7.8,4.5,4,.7-.8a.9.9,0,0,1,.8-.4,1.1,1.1,0,0,1,.7.3l1.1.9a1.3,1.3,0,0,1,.1,1.6l-.2.2a3.1,3.1,0,0,1-2.2.9,3.1,3.1,0,0,1-2-.7L2,6.4a2.9,2.9,0,0,1-.2-4.1L2,2.1a.9.9,0,0,1,.8-.4m0-1h0a2.4,2.4,0,0,0-1.6.7L1,1.6A4.3,4.3,0,0,0,0,4.5,4.6,4.6,0,0,0,1.3,7.2L6.7,12a3.9,3.9,0,0,0,2.7,1,3.6,3.6,0,0,0,2.9-1.3l.2-.2a2,2,0,0,0-.2-2.9l-1-1a2.4,2.4,0,0,0-1.4-.5,2.4,2.4,0,0,0-1.6.7h0l-3-2.6h.1a2,2,0,0,0,.5-1.5,2.1,2.1,0,0,0-.7-1.4l-1-.9A2,2,0,0,0,2.8.7" transform="translate(0 -0.7)"/><path class="cls-4" d="M2.8,1.7a1.1,1.1,0,0,1,.7.3L4.6,3a1.1,1.1,0,0,1,0,1.5l-.7.8,4.5,4,.7-.8a.9.9,0,0,1,.8-.4,1.1,1.1,0,0,1,.7.3l1.1.9a1.3,1.3,0,0,1,.1,1.6l-.2.2a3.1,3.1,0,0,1-2.2.9,3.1,3.1,0,0,1-2-.7L2,6.4a2.9,2.9,0,0,1-.2-4.1L2,2.1a.9.9,0,0,1,.8-.4m0-1h0a2.4,2.4,0,0,0-1.6.7L1,1.6A4.3,4.3,0,0,0,0,4.5,4.6,4.6,0,0,0,1.3,7.2L6.7,12a3.9,3.9,0,0,0,2.7,1,3.6,3.6,0,0,0,2.9-1.3l.2-.2a2,2,0,0,0-.2-2.9l-1-1a2.4,2.4,0,0,0-1.4-.5,2.4,2.4,0,0,0-1.6.7h0l-3-2.6h.1a2,2,0,0,0,.5-1.5,2.1,2.1,0,0,0-.7-1.4l-1-.9A2,2,0,0,0,2.8.7" transform="translate(0 -0.7)"/></g></svg>