<svg xmlns="http://www.w3.org/2000/svg" xmlns:xlink="http://www.w3.org/1999/xlink" viewBox="0 0 14 12"><defs><style>.cls-1{fill:none;}.cls-2{clip-path:url(#clip-path);}.cls-3{fill:#fff;}.cls-4{fill:#1ea1da;}.cls-5{fill:#999;}.cls-6{opacity:0.1;}.cls-7{clip-path:url(#clip-path-2);}.cls-8{clip-path:url(#clip-path-3);}.cls-9{fill:#333;}</style><clipPath id="clip-path" transform="translate(0 -1)"><rect class="cls-1" width="14" height="14"/></clipPath><clipPath id="clip-path-2" transform="translate(0 -1)"><rect class="cls-1" x="1" y="9" width="11.5" height="3"/></clipPath><clipPath id="clip-path-3" transform="translate(0 -1)"><rect class="cls-1" x="1" y="9" width="11.5" height="3"/></clipPath></defs><title>Asset 3</title><g id="Layer_2" data-name="Layer 2"><g id="Layer_1-2" data-name="Layer 1"><g class="cls-2"><path class="cls-3" d="M4,2A1.8,1.8,0,0,1,5.7,3.8,1.8,1.8,0,0,1,4,5.6,1.8,1.8,0,0,1,4,2M4,1A2.8,2.8,0,0,0,4,6.6,2.8,2.8,0,0,0,6.7,3.8,2.8,2.8,0,0,0,4,1" transform="translate(0 -1)"/><path class="cls-3" d="M10.9,6.5a1.6,1.6,0,0,1,1.2.4h0l.2.2h0v.2l.2.2h0c0,.1,0,.2.1.2H13v4H1V8h.3c.1,0,.1-.1.1-.2h0l.2-.2V7.1h0l.2-.2a1.6,1.6,0,0,1,1.2-.4H4.8A1.6,1.6,0,0,1,6,6.9H6l.2.2h0v.2l.2.2h0c0,.1,0,.2.1.2h.8c.1,0,.1-.1.1-.2h0l.2-.2V7.1h0L8,6.9a1.6,1.6,0,0,1,1.2-.4h1.7m0-1H9.2a2.6,2.6,0,0,0-1.9.7l-.2.2H6.9c0-.1-.1-.1-.2-.2H6.6a2.8,2.8,0,0,0-1.8-.6H3.1a2.6,2.6,0,0,0-1.9.7c-.1.1-.2.1-.2.2H.9c-.1.1-.1.2-.2.2V7H0v6H14V7h-.6V6.7c-.1,0-.1-.1-.2-.2H13c0-.1-.1-.1-.2-.2h-.1a2.8,2.8,0,0,0-1.8-.6" transform="translate(0 -1)"/><path class="cls-3" d="M10,2a1.8,1.8,0,1,1,0,3.6A1.8,1.8,0,0,1,8.3,3.8,1.8,1.8,0,0,1,10,2m0-1A2.8,2.8,0,0,0,7.3,3.8,2.8,2.8,0,1,0,10,1" transform="translate(0 -1)"/><path class="cls-4" d="M4,5.6A1.8,1.8,0,0,0,5.7,3.8,1.8,1.8,0,0,0,4,2,1.8,1.8,0,0,0,4,5.6" transform="translate(0 -1)"/><path class="cls-4" d="M6.6,7.9h0c-.1,0-.1-.1-.1-.2h0l-.2-.2V7.1h0L6,6.9H6a1.6,1.6,0,0,0-1.2-.4H3.1a1.6,1.6,0,0,0-1.2.4l-.2.2h0v.2l-.2.2h0c0,.1,0,.2-.1.2H6.6" transform="translate(0 -1)"/><path class="cls-5" d="M12.7,8v3.1a.8.8,0,0,1-.2.5V12H13V8Z" transform="translate(0 -1)"/><path class="cls-5" d="M6.6,8H1V9H7.4V8Z" transform="translate(0 -1)"/><g class="cls-6"><g class="cls-7"><g class="cls-8"><path class="cls-9" d="M11.8,12H8.3a.9.9,0,0,1-.9-.9V9H1v3H12.5v-.4a.8.8,0,0,1-.7.4" transform="translate(0 -1)"/></g></g></g><path class="cls-4" d="M10,5.6A1.8,1.8,0,1,0,10,2,1.8,1.8,0,0,0,8.3,3.8,1.8,1.8,0,0,0,10,5.6" transform="translate(0 -1)"/><path class="cls-4" d="M12.7,7.9h0c-.1,0-.1-.1-.1-.2h0l-.2-.2V7.1h0l-.2-.2h0a1.6,1.6,0,0,0-1.2-.4H9.2A1.6,1.6,0,0,0,8,6.9l-.2.2h0v.2l-.2.2h0c0,.1,0,.2-.1.2h5.3" transform="translate(0 -1)"/><path class="cls-4" d="M7.4,9h5.1v2.6a.8.8,0,0,0,.2-.5V8H7.4V9Z" transform="translate(0 -1)"/><path class="cls-4" d="M7.4,9v2.1a.9.9,0,0,0,.9.9h3.5a.8.8,0,0,0,.7-.4V9Z" transform="translate(0 -1)"/></g></g></g></svg>