<svg xmlns="http://www.w3.org/2000/svg" xmlns:xlink="http://www.w3.org/1999/xlink" viewBox="0 0 13.5 13.5"><defs><style>.cls-1,.cls-3{fill:none;}.cls-2{clip-path:url(#clip-path);}.cls-3{stroke:#fff;stroke-miterlimit:10;stroke-width:2.5px;}.cls-4{fill:#f9f9f9;}.cls-5{fill:#e5e5e5;}.cls-6{fill:#1ea1da;}.cls-7{fill:#666;}</style><clipPath id="clip-path" transform="translate(-0.2 -0.3)"><rect class="cls-1" width="14" height="14"/></clipPath></defs><title>Asset 9</title><g id="Layer_2" data-name="Layer 2"><g id="Layer_1-2" data-name="Layer 1"><g class="cls-2"><path class="cls-3" d="M3.4,7.3a1.3,1.3,0,0,0,1.3-.8H9.3a1.3,1.3,0,0,0,1.3.8A1.4,1.4,0,0,0,12,5.9a1.5,1.5,0,0,0-1.4-1.5h-.1V1.5h-7V4.4H3.4A1.5,1.5,0,0,0,2,5.9,1.4,1.4,0,0,0,3.4,7.3Z" transform="translate(-0.2 -0.3)"/><path class="cls-3" d="M12,7.9H9.2a.5.5,0,0,0-.5.5V9.7H5.3V8.4a.5.5,0,0,0-.5-.5H2a.5.5,0,0,0-.5.5V12a.5.5,0,0,0,.5.5H12a.5.5,0,0,0,.5-.5V8.4A.5.5,0,0,0,12,7.9Z" transform="translate(-0.2 -0.3)"/><rect class="cls-4" x="3.8" y="1.7" width="6" height="4"/><path class="cls-5" d="M9.5,5.5h-5v-3h5Zm1-4h-7v5h7Z" transform="translate(-0.2 -0.3)"/><path class="cls-6" d="M4.9,5.9A1.5,1.5,0,0,1,3.4,7.3,1.4,1.4,0,0,1,2,5.9,1.5,1.5,0,0,1,3.4,4.4,1.5,1.5,0,0,1,4.9,5.9" transform="translate(-0.2 -0.3)"/><path class="cls-6" d="M4.8,12.5H2a.5.5,0,0,1-.5-.5V8.4A.5.5,0,0,1,2,7.9H4.8a.5.5,0,0,1,.5.5V12a.5.5,0,0,1-.5.5" transform="translate(-0.2 -0.3)"/><path class="cls-6" d="M12,5.9a1.4,1.4,0,0,1-1.4,1.4A1.5,1.5,0,0,1,9.1,5.9a1.5,1.5,0,0,1,1.5-1.5A1.5,1.5,0,0,1,12,5.9" transform="translate(-0.2 -0.3)"/><path class="cls-6" d="M12,12.5H9.2a.5.5,0,0,1-.5-.5V8.4a.5.5,0,0,1,.5-.5H12a.5.5,0,0,1,.5.5V12a.5.5,0,0,1-.5.5" transform="translate(-0.2 -0.3)"/><polygon class="cls-7" points="11.4 12.2 2.2 12.2 4.1 9.5 9.4 9.5 11.4 12.2"/></g></g></g></svg>