<svg xmlns="http://www.w3.org/2000/svg" xmlns:xlink="http://www.w3.org/1999/xlink" viewBox="0 0 11.6 14"><defs><style>.cls-1,.cls-3{fill:none;}.cls-2{clip-path:url(#clip-path);}.cls-3{stroke:#fff;stroke-miterlimit:10;stroke-width:2.5px;}.cls-4{fill:#e5e5e5;}.cls-5{fill:#1ea1da;}.cls-6{fill:#fff;}</style><clipPath id="clip-path" transform="translate(-1.3 0)"><rect class="cls-1" width="14" height="14"/></clipPath></defs><title>Asset 4</title><g id="Layer_2" data-name="Layer 2"><g id="Layer_1-2" data-name="Layer 1"><g class="cls-2"><path class="cls-3" d="M3,1.3a.5.5,0,0,0-.5.5v9.4a.5.5,0,0,0,.5.5H5.3v.6a.5.5,0,0,0,.5.5l5.8-1.1h0V1.3Z" transform="translate(-1.3 0)"/><path class="cls-4" d="M11.6,11.7H3a.5.5,0,0,1-.5-.5V1.8A.5.5,0,0,1,3,1.3h8.6Z" transform="translate(-1.3 0)"/><path class="cls-5" d="M11.6,1.3l-6,1.1c-.2,0-.3.2-.3.5v9.4a.5.5,0,0,0,.5.5l5.8-1.1" transform="translate(-1.3 0)"/><rect class="cls-6" x="4.7" y="7.3" width="1" height="0.48"/><path class="cls-6" d="M7,7.6c0,.3-.1.7-.3.7s-.4-.4-.4-.7.2-.7.4-.7.3.3.3.7" transform="translate(-1.3 0)"/><line class="cls-5" x1="9.6" y1="10.9" x2="9.6" y2="2.2"/></g></g></g></svg>