<svg xmlns="http://www.w3.org/2000/svg" xmlns:xlink="http://www.w3.org/1999/xlink" viewBox="0 0 13.2 13.9"><defs><style>.cls-1,.cls-3{fill:none;}.cls-2{clip-path:url(#clip-path);}.cls-3{stroke:#fff;stroke-miterlimit:10;stroke-width:2.5px;}.cls-4{fill:#1ea1da;}.cls-5{fill:#0f6db5;}</style><clipPath id="clip-path" transform="translate(-0.5 -0.1)"><rect class="cls-1" width="14" height="14"/></clipPath></defs><title>Asset 6</title><g id="Layer_2" data-name="Layer 2"><g id="Layer_1-2" data-name="Layer 1"><g class="cls-2"><path class="cls-3" d="M4.1,3.3A1,1,0,0,0,5,2.2a1,1,0,0,0-1.2-.9A1,1,0,0,0,3,2.5.9.9,0,0,0,4.1,3.3Z" transform="translate(-0.5 -0.1)"/><path class="cls-3" d="M10,3.3a.9.9,0,0,0,1.1-.8,1,1,0,1,0-2-.3A1,1,0,0,0,10,3.3Z" transform="translate(-0.5 -0.1)"/><path class="cls-3" d="M11.8,9.6l-.2-2.3s.1-3.5-1.3-3.5h-.2a1.2,1.2,0,0,0-1,.6l-.7.9-1.2.4H7a.1.1,0,0,0-.1-.1L5.7,5.4,5,4.5a1.2,1.2,0,0,0-1-.6H3.8c-1.4,0-1.3,3.5-1.3,3.5L2.3,9.6l-.6,2.5a.6.6,0,0,0,.1.4l.3.2h.1a.5.5,0,0,0,.5-.3l.7-2.1L3.6,9,4,10.3l.3,2a.5.5,0,0,0,.5.4h0l.3-.2c.1-.1.2-.2.1-.3l-.2-2a2.4,2.4,0,0,0-.2-.8L4.4,7.9V5.6l.6.5h.2l1.4.4h.7l1.4-.4H9l.6-.5V7.9L9.3,9.4a2.4,2.4,0,0,0-.2.8l-.3,2c0,.1.1.2.2.3l.3.2h0a.5.5,0,0,0,.5-.4l.3-2L10.5,9l.2,1.3.7,2.1a.5.5,0,0,0,.5.3H12l.3-.2a.6.6,0,0,0,.1-.4Z" transform="translate(-0.5 -0.1)"/><path class="cls-4" d="M4.1,3.3A1,1,0,0,0,5,2.2a1,1,0,0,0-1.2-.9A1,1,0,0,0,3,2.5a.9.9,0,0,0,1.1.8" transform="translate(-0.5 -0.1)"/><path class="cls-4" d="M4.3,8.5l.2-2.9.6.5h.2l1.4.4H7a.2.2,0,0,0,.2-.2h0a.5.5,0,0,0-.3-.5L5.7,5.4,5,4.5a1.2,1.2,0,0,0-1-.6H3.8c-1.4,0-1.3,3.5-1.3,3.5L2.3,9.6l-.6,2.5a.6.6,0,0,0,.1.4l.3.2h.1a.5.5,0,0,0,.5-.3l.7-2.1.2-1.6" transform="translate(-0.5 -0.1)"/><path class="cls-4" d="M3.5,8.7,4,10.3l.3,2a.5.5,0,0,0,.5.4h0l.3-.2c.1-.1.2-.2.1-.3l-.2-2a2.4,2.4,0,0,0-.2-.8L4.3,7.6" transform="translate(-0.5 -0.1)"/><path class="cls-5" d="M10,3.3a1,1,0,0,1-.9-1.1,1,1,0,1,1,2,.3.9.9,0,0,1-1.1.8" transform="translate(-0.5 -0.1)"/><path class="cls-5" d="M9.8,8.5,9.6,5.6,9,6.1H8.8l-1.4.4H7.1a.2.2,0,0,1-.2-.2h0a.5.5,0,0,1,.3-.5l1.2-.4.7-.9a1.2,1.2,0,0,1,1-.6h.2c1.4,0,1.3,3.5,1.3,3.5l.2,2.3.6,2.5a.6.6,0,0,1-.1.4l-.3.2h-.1a.5.5,0,0,1-.5-.3l-.7-2.1-.2-1.6" transform="translate(-0.5 -0.1)"/><path class="cls-5" d="M10.6,8.7l-.5,1.6-.3,2a.5.5,0,0,1-.5.4h0L9,12.5c-.1-.1-.2-.2-.2-.3l.3-2a2.4,2.4,0,0,1,.2-.8l.5-1.8" transform="translate(-0.5 -0.1)"/></g></g></g></svg>