<svg xmlns="http://www.w3.org/2000/svg" xmlns:xlink="http://www.w3.org/1999/xlink" viewBox="0 0 14 13"><defs><style>.cls-1{fill:none;}.cls-2{clip-path:url(#clip-path);}.cls-3{fill:#0f6db5;}.cls-4{fill:#fff;}.cls-5{fill:#3698d5;}</style><clipPath id="clip-path" transform="translate(0 -0.5)"><rect class="cls-1" width="14" height="14"/></clipPath></defs><title>Asset 8</title><g id="Layer_2" data-name="Layer 2"><g id="Layer_1-2" data-name="Layer 1"><g class="cls-2"><path class="cls-3" d="M2.5,13a.9.9,0,0,1-1-1V4a.9.9,0,0,1-1-1V2a1,1,0,0,1,1-1h11a1,1,0,0,1,1,1V3a.9.9,0,0,1-1,1v8a.9.9,0,0,1-1,1Z" transform="translate(0 -0.5)"/><path class="cls-4" d="M12.5,1.5A.5.5,0,0,1,13,2V3a.5.5,0,0,1-.5.5H12V12a.5.5,0,0,1-.5.5h-9A.5.5,0,0,1,2,12V3.5H1.5A.5.5,0,0,1,1,3V2a.5.5,0,0,1,.5-.5h11m0-1H1.5A1.5,1.5,0,0,0,0,2V3A1.4,1.4,0,0,0,1,4.4V12a1.5,1.5,0,0,0,1.5,1.5h9A1.5,1.5,0,0,0,13,12V4.4A1.4,1.4,0,0,0,14,3V2A1.5,1.5,0,0,0,12.5.5" transform="translate(0 -0.5)"/><rect class="cls-4" x="3" y="3" width="8" height="8"/><rect class="cls-4" x="3" y="3" width="8" height="8"/><rect class="cls-4" x="3" y="3" width="8" height="8"/><polygon class="cls-5" points="9.8 5.6 9.1 4.9 7 7 6.3 6.3 4.2 8.4 4.9 9.1 6.3 7.7 7 8.4 9.8 5.6"/></g></g></g></svg>