<svg xmlns="http://www.w3.org/2000/svg" xmlns:xlink="http://www.w3.org/1999/xlink" width="14" height="14" viewBox="0 0 14 14">
  <defs>
    <clipPath id="clip-path">
      <rect id="Rectangle_1" data-name="Rectangle 1" width="14" height="14" transform="translate(-2.5 -0.5)" fill="none"/>
    </clipPath>
  </defs>
  <g id="ic-calendar-person1" transform="translate(2.5 0.5)" clip-path="url(#clip-path)">
    <path id="Path_2" data-name="Path 2" d="M6.8.9A1.1,1.1,0,1,1,5.7,2,1.1,1.1,0,0,1,6.8.9m0-.5A1.6,1.6,0,1,0,8.4,2,1.6,1.6,0,0,0,6.8.4" transform="translate(-3 -0.4)" fill="#fff"/>
    <path id="Path_3" data-name="Path 3" d="M10.3,6.8c.2.5,1,.3.8-.4a11.1,11.1,0,0,0-.8-1.6.4.4,0,0,0-.4-.4L8.3,3.6a1.1,1.1,0,0,0-.8-.1H7A1.8,1.8,0,0,0,5.6,4.7L5,5.8l-1.2.6a.5.5,0,0,0-.2.6h0l.2.2h.3l1.4-.7h.3l.5-.7.6,2L5.6,9.4a2.5,2.5,0,0,0-.4.7l-.7,2.1a.3.3,0,0,0,0,.4l.3.3h.1a.7.7,0,0,0,.6-.3l.9-2L7.9,8.9l.5,1.6,1.2,2.1a.5.5,0,0,0,.6.2h0c.2,0,.3-.1.4-.3v-.4L9.5,9.5l-1-4.6,1.1.5.7,1.4" transform="translate(-3 -0.4)" fill="#f92525"/>
    <path id="Path_4" data-name="Path 4" d="M10.3,6.8c.2.5,1,.3.8-.4a11.1,11.1,0,0,0-.8-1.6.4.4,0,0,0-.4-.4L8.3,3.6a1.1,1.1,0,0,0-.8-.1H7A1.8,1.8,0,0,0,5.6,4.7L5,5.8l-1.2.6a.5.5,0,0,0-.2.6h0l.2.2h.3l1.4-.7h.3l.5-.7.6,2L5.6,9.4a2.5,2.5,0,0,0-.4.7l-.7,2.1a.3.3,0,0,0,0,.4l.3.3h.1a.7.7,0,0,0,.6-.3l.9-2L7.9,8.9l.5,1.6,1.2,2.1a.5.5,0,0,0,.6.2h0c.2,0,.3-.1.4-.3v-.4L9.5,9.5l-1-4.6,1.1.5.7,1.4" transform="translate(-3 -0.4)" fill="none" stroke="#fff" stroke-linecap="round" stroke-linejoin="round" stroke-width="1"/>
    <g id="Group_1" data-name="Group 1">
      <path id="Path_1" data-name="Path 1" d="M6.8,3.4A1.4,1.4,0,0,1,6.8.6,1.3,1.3,0,0,1,8.1,2,1.4,1.4,0,0,1,6.8,3.4" transform="translate(-3 -0.4)" fill="#f92525"/>
      <path id="Path_5" data-name="Path 5" d="M10.3,6.8c.2.5,1,.3.8-.4a11.1,11.1,0,0,0-.8-1.6.4.4,0,0,0-.4-.4L8.3,3.6a1.1,1.1,0,0,0-.8-.1H7A1.8,1.8,0,0,0,5.6,4.7L5,5.8l-1.2.6a.5.5,0,0,0-.2.6h0l.2.2h.3l1.4-.7h.3l.5-.7.6,2L5.6,9.4a2.5,2.5,0,0,0-.4.7l-.7,2.1a.3.3,0,0,0,0,.4l.3.3h.1a.7.7,0,0,0,.6-.3l.9-2L7.9,8.9l.5,1.6,1.2,2.1a.5.5,0,0,0,.6.2h0c.2,0,.3-.1.4-.3v-.4L9.5,9.5l-1-4.6,1.1.5.7,1.4" transform="translate(-3 -0.4)" fill="#f92525"/>
    </g>
  </g>
</svg>
