<svg xmlns="http://www.w3.org/2000/svg" xmlns:xlink="http://www.w3.org/1999/xlink" viewBox="0 0 14 10.6"><defs><style>.cls-1,.cls-7{fill:none;}.cls-2{clip-path:url(#clip-path);}.cls-3{fill:#0f6db5;}.cls-4{fill:#fff;}.cls-5{fill:#85acdc;}.cls-6{fill:#255b9d;}.cls-7{stroke:#fff;stroke-linecap:round;stroke-linejoin:round;stroke-width:0.75px;}</style><clipPath id="clip-path" transform="translate(0 -1.4)"><rect class="cls-1" width="14" height="14"/></clipPath></defs><title>Asset 12</title><g id="Layer_2" data-name="Layer 2"><g id="Layer_1-2" data-name="Layer 1"><g class="cls-2"><rect class="cls-3" x="0.5" y="0.5" width="13" height="9.64" rx="2.2" ry="2.2"/><path class="cls-4" d="M11.3,2.4A1.7,1.7,0,0,1,13,4.1V9.3A1.7,1.7,0,0,1,11.3,11H2.7A1.7,1.7,0,0,1,1,9.3V4.1A1.7,1.7,0,0,1,2.7,2.4h8.6m0-1H2.7A2.7,2.7,0,0,0,0,4.1V9.3A2.7,2.7,0,0,0,2.7,12h8.6A2.7,2.7,0,0,0,14,9.3V4.1a2.7,2.7,0,0,0-2.7-2.7" transform="translate(0 -1.4)"/><path class="cls-5" d="M10.9,10H3.3A1.1,1.1,0,0,1,2.2,8.9V4.5A1.1,1.1,0,0,1,3.3,3.4h7.6A1.1,1.1,0,0,1,12,4.5V8.9A1.1,1.1,0,0,1,10.9,10" transform="translate(0 -1.4)"/><path class="cls-6" d="M3.4,5.2v3a.9.9,0,0,1-.9.9H1V4.3H2.5a.9.9,0,0,1,.9.9" transform="translate(0 -1.4)"/><polyline class="cls-7" points="4.3 6.6 5.1 7.5 6.9 5.7"/><polyline class="cls-7" points="4.3 4.1 5.1 5 6.9 3.2"/><rect class="cls-4" x="8" y="6.2" width="3" height="0.96"/><rect class="cls-4" x="8" y="3.7" width="3" height="0.96"/></g></g></g></svg>