<svg xmlns="http://www.w3.org/2000/svg" width="42" height="47" viewBox="0 0 42 47">
  <g id="Group_3" data-name="Group 3" transform="translate(-763 -125)" opacity="0.5">
    <g id="Ellipse_280" data-name="Ellipse 280" transform="translate(771 164)" stroke="#000" stroke-width="1" opacity="0.125">
      <circle cx="4" cy="4" r="4" stroke="none"/>
      <circle cx="4" cy="4" r="3.5" fill="none"/>
    </g>
    <g id="Ellipse_281" data-name="Ellipse 281" transform="translate(765 157)" stroke="#000" stroke-width="1" opacity="0.25">
      <circle cx="4" cy="4" r="4" stroke="none"/>
      <circle cx="4" cy="4" r="3.5" fill="none"/>
    </g>
    <g id="Ellipse_282" data-name="Ellipse 282" transform="translate(763 148)" stroke="#000" stroke-width="1" opacity="0.375">
      <circle cx="4" cy="4" r="4" stroke="none"/>
      <circle cx="4" cy="4" r="3.5" fill="none"/>
    </g>
    <g id="Ellipse_283" data-name="Ellipse 283" transform="translate(764 138)" stroke="#000" stroke-width="1" opacity="0.5">
      <circle cx="4" cy="4" r="4" stroke="none"/>
      <circle cx="4" cy="4" r="3.5" fill="none"/>
    </g>
    <g id="Ellipse_284" data-name="Ellipse 284" transform="translate(770 130)" stroke="#000" stroke-width="1" opacity="0.66">
      <circle cx="4" cy="4" r="4" stroke="none"/>
      <circle cx="4" cy="4" r="3.5" fill="none"/>
    </g>
    <g id="Ellipse_285" data-name="Ellipse 285" transform="translate(779 126)" stroke="#000" stroke-width="1" opacity="0.75">
      <circle cx="4" cy="4" r="4" stroke="none"/>
      <circle cx="4" cy="4" r="3.5" fill="none"/>
    </g>
    <g id="Ellipse_286" data-name="Ellipse 286" transform="translate(788 125)" stroke="#000" stroke-width="1" opacity="0.875">
      <circle cx="4" cy="4" r="4" stroke="none"/>
      <circle cx="4" cy="4" r="3.5" fill="none"/>
    </g>
    <g id="Ellipse_287" data-name="Ellipse 287" transform="translate(797 128)" stroke="#000" stroke-width="1">
      <circle cx="4" cy="4" r="4" stroke="none"/>
      <circle cx="4" cy="4" r="3.5" fill="none"/>
    </g>
  </g>
</svg>
