<svg xmlns="http://www.w3.org/2000/svg" width="40" height="40" viewBox="0 0 40 40">
    <g id="Group_25968" data-name="Group 25968" transform="translate(1755.938 3233.502) rotate(180)">
        <g id="Group_25967" data-name="Group 25967" transform="translate(-52 -30)">
            <g id="Group_25965" data-name="Group 25965" transform="translate(-12 2)">
                <g id="Group_1204" data-name="Group 1204" transform="translate(1783.513 3232.16)">
                    <g id="Path_31077" data-name="Path 31077" transform="translate(-0.513 1.41)" fill="#0f6db5">
                        <path d="M 2.08878231048584 0.7177677154541016 L 2.261613845825195 12.17441272735596 L 9.172301292419434 15.15209579467773 L 9.00908088684082 4.359967231750488 L 2.08878231048584 0.7177677154541016 M 1.0634765625 -0.9519004821777344 L 9.999996185302734 3.751450538635254 L 10.195556640625 16.68188095092773 L 1.271486282348633 12.836669921875 L 1.0634765625 -0.9519004821777344 Z" stroke="none" fill="#0f6db5"/>
                    </g>
                    <path id="Path_31078" data-name="Path 31078" d="M1792.475,3234.21c7.381-3.931,7.243-3.846,7.243-3.846l.927-.537v13.093l-5.15,2.2-1.9.81a.737.737,0,0,1-.358.333" transform="translate(-1783.783 -3228.59)" fill="none" stroke="#0f6db5" stroke-width="1"/>
                </g>
            </g>
            <path id="Path_31079" data-name="Path 31079" d="M1788.654,3235c6.945,3.539,7.394,3.882,7.394,3.882l.132,13.388-8.344-3.8" fill="none" stroke="#0f6db5" stroke-width="1"/>
            <path id="Path_31080" data-name="Path 31080" d="M1796.18,3238.893c6.81-3.307,7.274-3.539,7.274-3.539v13.459s-5.113,2.869-6.932,3.739" fill="none" stroke="#0f6db5" stroke-width="1"/>
            <path id="Path_31081" data-name="Path 31081" d="M1789.422,3224.033a3.764,3.764,0,0,0-2.968,0,3.366,3.366,0,0,0-1.44,4.822l2.656,4.722a.313.313,0,0,0,.536,0l2.656-4.722A3.366,3.366,0,0,0,1789.422,3224.033Zm-1.484,4.07a1.25,1.25,0,1,1,1.25-1.25A1.25,1.25,0,0,1,1787.938,3228.1Z" transform="translate(3568.876 6480.457) rotate(180)" fill="#0f6db5"/>
        </g>
    </g>
</svg>
