<svg id="ボタン_別窓" xmlns="http://www.w3.org/2000/svg" width="24" height="24" viewBox="0 0 24 24">
  <path id="Path_270" data-name="Path 270" d="M1784.135,4949.219s-.244-4.135.8-6.242,2.35-2.191,2.35-2.191l1.948,2.089s.59-1.156.6-8.849l-9.075.091,2.222,2.383c-.934,1.124-2.835,3.252-2.374,6.13S1783.973,4949.4,1784.135,4949.219Z" transform="translate(2078.218 -4820.771) rotate(43)" fill="#0f6db5"/>
  <path id="Path_271" data-name="Path 271" d="M1785.938,4944.423v3.521h-12v-12h3.5a.5.5,0,0,0,.5-.5v-1a.5.5,0,0,0-.5-.5h-4.5a1,1,0,0,0-1,1v14a1,1,0,0,0,1,1h14a1,1,0,0,0,1-1v-4.521a.5.5,0,0,0-.5-.5h-1A.5.5,0,0,0,1785.938,4944.423Z" transform="translate(-1767.938 -4929.944)" fill="#0f6db5"/>
  <rect id="Rectangle_786" data-name="Rectangle 786" width="24" height="24" rx="8" fill="none"/>
</svg>
