<svg xmlns="http://www.w3.org/2000/svg" xmlns:xlink="http://www.w3.org/1999/xlink" width="18.974" height="15.184" viewBox="0 0 18.974 15.184">
  <defs>
    <clipPath id="clip-path">
      <rect id="Rectangle_12377" data-name="Rectangle 12377" width="17" height="15" fill="none"/>
    </clipPath>
  </defs>
  <g id="Group_26007" data-name="Group 26007" transform="translate(-292 -176)">
    <g id="Group_15878" data-name="Group 15878" transform="translate(292 176)" clip-path="url(#clip-path)">
      <path id="Path_19005" data-name="Path 19005" d="M1984.559,2062.467a1.951,1.951,0,0,1-2.058-1.819v-8.471a1.951,1.951,0,0,1,2.058-1.818h11.419a2.186,2.186,0,0,1,2.306,2.037v8.033a2.187,2.187,0,0,1-2.306,2.038Z" transform="translate(-1981.893 -2048.9)" fill="#fff"/>
      <path id="Path_19006" data-name="Path 19006" d="M1996.086,2050.932a1.609,1.609,0,0,1,1.7,1.5v8.033a1.609,1.609,0,0,1-1.7,1.5h-11.419a1.375,1.375,0,0,1-1.451-1.282v-8.47a1.375,1.375,0,0,1,1.451-1.282h11.419m0-1.073h-11.419a2.528,2.528,0,0,0-2.666,2.355v8.47a2.528,2.528,0,0,0,2.666,2.355h11.419a2.762,2.762,0,0,0,2.912-2.574v-8.033a2.762,2.762,0,0,0-2.912-2.573" transform="translate(-1982 -2048.937)" fill="#fff"/>
      <path id="Path_19007" data-name="Path 19007" d="M1997.4,2057.874l-1.038,1.892h-12.546v1.61h11.929a1.569,1.569,0,0,0,1.655-1.464v-2.038Z" transform="translate(-1981.611 -2048.351)" fill="#adc7e7"/>
      <path id="Path_19008" data-name="Path 19008" d="M1994.893,2061.083h-10.961v-10.152h10.97a2.336,2.336,0,0,1,2.467,2.179v5.783a2.346,2.346,0,0,1-2.476,2.189" transform="translate(-1981.586 -2048.858)" fill="#ededed"/>
      <path id="Path_19009" data-name="Path 19009" d="M1990.249,2053.708h3.659a.365.365,0,1,0,0-.729h-3.659a.365.365,0,1,0,0,.729" transform="translate(-1980.31 -2048.709)" fill="#326dab"/>
      <path id="Path_19010" data-name="Path 19010" d="M1993.906,2052.978h-3.659a.365.365,0,0,0,0,.729h3.659a.365.365,0,1,0,0-.729" transform="translate(-1980.31 -2048.709)" fill="#255b9d"/>
      <path id="Path_19011" data-name="Path 19011" d="M1993.906,2056.379h-3.659a.365.365,0,1,0,0,.73h3.659a.365.365,0,1,0,0-.73" transform="translate(-1980.31 -2048.46)" fill="#326dab"/>
      <path id="Path_19012" data-name="Path 19012" d="M1993.906,2056.379h-3.659a.365.365,0,0,0,0,.731h3.659a.365.365,0,1,0,0-.731" transform="translate(-1980.31 -2048.46)" fill="#255b9d"/>
      <path id="Path_19013" data-name="Path 19013" d="M1993.906,2054.678h-3.659a.365.365,0,1,0,0,.73h3.659a.365.365,0,1,0,0-.73" transform="translate(-1980.31 -2048.585)" fill="#326dab"/>
      <path id="Path_19014" data-name="Path 19014" d="M1993.906,2054.678h-3.659a.365.365,0,0,0,0,.73h3.659a.365.365,0,1,0,0-.73" transform="translate(-1980.31 -2048.585)" fill="#255b9d"/>
      <path id="Path_19015" data-name="Path 19015" d="M1993.906,2058.08h-3.659a.365.365,0,1,0,0,.729h3.659a.365.365,0,1,0,0-.729" transform="translate(-1980.31 -2048.336)" fill="#326dab"/>
      <path id="Path_19016" data-name="Path 19016" d="M1993.906,2058.08h-3.659a.365.365,0,0,0,0,.729h3.659a.365.365,0,1,0,0-.729" transform="translate(-1980.31 -2048.336)" fill="#255b9d"/>
      <path id="Path_19017" data-name="Path 19017" d="M1987,2053.664l.739.644,1.477-1.287" transform="translate(-1980.928 -2048.706)" fill="none" stroke="#cc4186" stroke-linecap="round" stroke-miterlimit="10" stroke-width="0.75"/>
      <path id="Path_19018" data-name="Path 19018" d="M1987,2055.705l.739.644,1.477-1.288" transform="translate(-1980.928 -2048.557)" fill="none" stroke="#cc4186" stroke-linecap="round" stroke-miterlimit="10" stroke-width="0.75"/>
      <path id="Path_19019" data-name="Path 19019" d="M1987,2057.746l.739.644,1.477-1.288" transform="translate(-1980.928 -2048.407)" fill="none" stroke="#cc4186" stroke-linecap="round" stroke-miterlimit="10" stroke-width="0.75"/>
      <path id="Path_19020" data-name="Path 19020" d="M1984.651,2061.888h-.441a1.146,1.146,0,0,1-1.211-1.07v-8.8a1.154,1.154,0,0,1,1.218-1.077h.434Z" transform="translate(-1981.786 -2048.858)" fill="#47a0b2"/>
      <path id="Path_19021" data-name="Path 19021" d="M1985.087,2058.768H1983v-5.11h2.089a1.152,1.152,0,0,1,1.217,1.075v2.96a1.152,1.152,0,0,1-1.217,1.075" transform="translate(-1981.786 -2048.659)" fill="#47a0b2"/>
    </g>
    <g id="Group_25980" data-name="Group 25980" transform="translate(90 23)">
      <g id="Group_25978" data-name="Group 25978" transform="translate(-3305 -5922.002)">
        <g id="Group_891" data-name="Group 891" transform="translate(3517 6081.54)">
          <rect id="Rectangle_729" data-name="Rectangle 729" width="8.474" height="8.147" rx="4.073" fill="#37bb2e" stroke="#fff" stroke-width="1"/>
          <path id="Path_296" data-name="Path 296" d="M3544.331,6090.726l-.743-1.165-.594.817c-.007.008-.013.011-.02.019l-.892,1.235-.079.108h0l-.926,1.282-1.513-2.225-.768,1.128,1.514,2.225.767,1.127.767-1.127.9-1.245h0Z" transform="translate(-3537.298 -6088.571)" fill="#fff"/>
        </g>
      </g>
    </g>
  </g>
</svg>
