<svg xmlns="http://www.w3.org/2000/svg" width="10.44" height="11.474" viewBox="0 0 10.44 11.474">
  <g id="Group_3453" data-name="Group 3453" transform="translate(-7925.016 -3746.513)">
    <g id="Group_3452" data-name="Group 3452">
      <g id="Group_3447" data-name="Group 3447" opacity="0.5" style="mix-blend-mode: multiply;isolation: isolate">
        <path id="Path_2895" data-name="Path 2895" d="M7926.85,3755.242a.459.459,0,0,0-.458.463l.015,1.367a1.457,1.457,0,0,0,2.706,0l.014-1.367a.457.457,0,0,0-.457-.463Z" fill="#666"/>
        <path id="Path_2896" data-name="Path 2896" d="M7927.989,3747.019a4.343,4.343,0,0,0-.458,0c-1.229.119-2.058,2.256-2.014,3.49a10.438,10.438,0,0,0,.39,2.277l.38,1.22a.458.458,0,0,0,.437.321h2.072a.456.456,0,0,0,.436-.321l.381-1.22a10.5,10.5,0,0,0,.39-2.277C7930.047,3749.275,7929.218,3747.138,7927.989,3747.019Z" fill="#666"/>
        <path id="Path_2897" data-name="Path 2897" d="M7932.3,3755.242a.457.457,0,0,0-.458.463l.015,1.367a1.457,1.457,0,0,0,2.705,0l.015-1.367a.458.458,0,0,0-.457-.463Z" fill="#666"/>
        <path id="Path_2898" data-name="Path 2898" d="M7933.441,3747.019a4.361,4.361,0,0,0-.459,0c-1.229.119-2.057,2.256-2.013,3.49a10.408,10.408,0,0,0,.39,2.277l.38,1.22a.458.458,0,0,0,.437.321h2.072a.456.456,0,0,0,.436-.321l.381-1.22a10.465,10.465,0,0,0,.389-2.277C7935.5,3749.275,7934.67,3747.138,7933.441,3747.019Z" fill="#666"/>
      </g>
      <g id="Group_3451" data-name="Group 3451">
        <g id="Group_3450" data-name="Group 3450">
          <g id="Group_3448" data-name="Group 3448">
            <path id="Path_2899" data-name="Path 2899" d="M7926.35,3754.742a.459.459,0,0,0-.458.463l.015,1.367a1.457,1.457,0,0,0,2.706,0l.014-1.367a.457.457,0,0,0-.457-.463Z" fill="#1ea1da"/>
            <path id="Path_2900" data-name="Path 2900" d="M7927.489,3746.519a4.343,4.343,0,0,0-.458,0c-1.229.119-2.058,2.256-2.014,3.49a10.438,10.438,0,0,0,.39,2.277l.38,1.22a.458.458,0,0,0,.437.321h2.072a.456.456,0,0,0,.436-.321l.381-1.22a10.5,10.5,0,0,0,.39-2.277C7929.547,3748.775,7928.718,3746.638,7927.489,3746.519Z" fill="#1ea1da"/>
          </g>
          <g id="Group_3449" data-name="Group 3449">
            <path id="Path_2901" data-name="Path 2901" d="M7931.8,3754.742a.457.457,0,0,0-.458.463l.015,1.367a1.457,1.457,0,0,0,2.705,0l.015-1.367a.458.458,0,0,0-.457-.463Z" fill="#1ea1da"/>
            <path id="Path_2902" data-name="Path 2902" d="M7932.941,3746.519a4.361,4.361,0,0,0-.459,0c-1.229.119-2.057,2.256-2.013,3.49a10.408,10.408,0,0,0,.39,2.277l.38,1.22a.458.458,0,0,0,.437.321h2.072a.456.456,0,0,0,.436-.321l.381-1.22a10.465,10.465,0,0,0,.389-2.277C7935,3748.775,7934.17,3746.638,7932.941,3746.519Z" fill="#1ea1da"/>
          </g>
        </g>
      </g>
    </g>
  </g>
</svg>
