<svg xmlns="http://www.w3.org/2000/svg" xmlns:xlink="http://www.w3.org/1999/xlink" width="20" height="22" viewBox="0 0 20 22">
  <defs>
    <clipPath id="clip-path">
      <rect id="Rectangle_12394" data-name="Rectangle 12394" width="20" height="22" fill="none"/>
    </clipPath>
  </defs>
  <g id="Group_26011" data-name="Group 26011" transform="translate(-2242 -2189)">
    <g id="Group_15902" data-name="Group 15902" transform="translate(2242 2189)" clip-path="url(#clip-path)">
      <path id="Path_19057" data-name="Path 19057" d="M2245.148,2287.236a1.352,1.352,0,0,1-1.257-1.429v-13.88a1.317,1.317,0,1,1,2.628-.091h4.254a1.547,1.547,0,0,1,1.437,1.17h3.652a1.127,1.127,0,0,1,1.012.683,1.374,1.374,0,0,1-.066,1.273l-1.784,2.975,1.754,2.806a1.373,1.373,0,0,1,.081,1.283,1.125,1.125,0,0,1-1.016.694h-4.22a1.685,1.685,0,0,1-.685-.123,1.3,1.3,0,0,1-.3-.166,1.823,1.823,0,0,1-.739-.882h-3.377v4.259a1.353,1.353,0,0,1-1.257,1.429Z" transform="translate(-2241.359 -2268.219)" fill="#fff"/>
      <path id="Path_19058" data-name="Path 19058" d="M2245.433,2271.52a.632.632,0,0,1,.588.668v.668h4.922a.913.913,0,0,1,.849.966v.206h4.241a.5.5,0,0,1,.392.765l-2.047,3.415,2.023,3.236a.5.5,0,0,1-.39.776h-4.336a.922.922,0,0,1-.345-.081l-.023,0a1.194,1.194,0,0,1-.173-.108,1.03,1.03,0,0,1-.521-.869v-.108h-4.593v5.018a.632.632,0,0,1-.588.668h-.115a.632.632,0,0,1-.588-.668v-13.88a.632.632,0,0,1,.588-.668h.115m0-1.521h-.115a2.072,2.072,0,0,0-1.927,2.189v13.88a2.072,2.072,0,0,0,1.927,2.19h.115a2.072,2.072,0,0,0,1.927-2.19v-3.5h2.327a2.558,2.558,0,0,0,.8.79,2,2,0,0,0,.34.2l.147.064.05.008a2,2,0,0,0,.648.113h4.336a1.791,1.791,0,0,0,1.612-1.1,2.224,2.224,0,0,0-.128-2.073l-1.487-2.375,1.522-2.539a2.218,2.218,0,0,0,.1-2.055,1.787,1.787,0,0,0-1.6-1.09H2252.8a2.145,2.145,0,0,0-1.856-1.172h-3.735a1.944,1.944,0,0,0-1.775-1.336" transform="translate(-2241.528 -2268.48)" fill="#fff"/>
      <path id="Path_19059" data-name="Path 19059" d="M2245.036,2286.213h0a.692.692,0,0,1-.645-.733v-13.748a.651.651,0,1,1,1.291,0v13.748a.692.692,0,0,1-.645.733" transform="translate(-2241.189 -2267.958)" fill="#1c4476"/>
      <path id="Path_19060" data-name="Path 19060" d="M2254.572,2280.063a.5.5,0,0,1-.388.774h-4.262a1.1,1.1,0,0,1-1.136-1.061v-7.132h5.417a.5.5,0,0,1,.394.767l-2.049,3.413Z" transform="translate(-2239.699 -2267.099)" fill="#902a2a"/>
      <path id="Path_19061" data-name="Path 19061" d="M2249.963,2272.645h-1.177v6.855a1.266,1.266,0,0,0,1.177,1.337Z" transform="translate(-2239.699 -2267.099)" fill="#206c45"/>
      <path id="Path_19062" data-name="Path 19062" d="M2250.189,2280.068h-4.92v-8.192h4.92a1.039,1.039,0,0,1,.967,1.1v6a1.039,1.039,0,0,1-.967,1.1" transform="translate(-2240.892 -2267.5)" fill="#f6694c"/>
    </g>
  </g>
</svg>
