<svg xmlns="http://www.w3.org/2000/svg" width="22" height="18.5" viewBox="0 0 22 18.5">
  <g id="Group_415" data-name="Group 415" transform="translate(-8808 -1948)">
    <path id="Path_623" data-name="Path 623" d="M8829.508,1951.73l-2.388-3.336a1,1,0,0,0-.812-.394h-14.627a1,1,0,0,0-.812.394l-2.371,3.314a2.727,2.727,0,0,0,2.1,4.264,4.2,4.2,0,0,0,.489.028,3.872,3.872,0,0,1,5.271,0,3.871,3.871,0,0,1,5.27,0,3.872,3.872,0,0,1,5.271,0c.114,0,.226,0,.336-.013A2.737,2.737,0,0,0,8829.508,1951.73Z" fill="#0f6eb5"/>
    <path id="Path_624" data-name="Path 624" d="M8827.232,1957.631c-.11.009-.222.014-.336.014a3.605,3.605,0,0,0-5.271,0,3.6,3.6,0,0,0-5.27,0,3.605,3.605,0,0,0-5.271,0,3.794,3.794,0,0,1-.489-.031,2.947,2.947,0,0,1-.6-.161v7.94a1.058,1.058,0,0,0,1,1.107h9.944v-6.641h4v6.641H8827a1.058,1.058,0,0,0,1-1.107v-7.932A3.054,3.054,0,0,1,8827.232,1957.631Zm-10.288,5.548h-3v-3.32h3Z" fill="#0f6eb5"/>
  </g>
</svg>
