<svg xmlns="http://www.w3.org/2000/svg" width="12.156" height="12.5" viewBox="0 0 12.156 12.5">
  <g id="Group_3472" data-name="Group 3472" transform="translate(-7924.172 -4090)">
    <g id="Group_3471" data-name="Group 3471">
      <g id="Group_3468" data-name="Group 3468" opacity="0.5" style="mix-blend-mode: multiply;isolation: isolate">
        <path id="Path_2919" data-name="Path 2919" d="M7930.672,4093.5h0l-1.5,8.438c0,.31.335.562.75.562h1.5c.414,0,.75-.252.75-.562Z" fill="#666"/>
        <path id="Path_2920" data-name="Path 2920" d="M7930.672,4093.5s-4,0-4,3Z" fill="#666"/>
        <path id="Path_2921" data-name="Path 2921" d="M7930.672,4093.5a5.13,5.13,0,0,0-6,0Z" fill="#666"/>
        <path id="Path_2922" data-name="Path 2922" d="M7934.793,4097.708a5.13,5.13,0,0,0-4.243-4.243Z" fill="#666"/>
        <path id="Path_2923" data-name="Path 2923" d="M7930.672,4093.5h5.656a4.836,4.836,0,0,0-5.656,0" fill="#666"/>
        <path id="Path_2924" data-name="Path 2924" d="M7930.672,4093.5l4-3s-4,0-4,3" fill="#666"/>
        <path id="Path_2925" data-name="Path 2925" d="M7929.754,4098.661h1.835l-.2-1.125h-1.435Z" fill="#666"/>
        <path id="Path_2926" data-name="Path 2926" d="M7929.371,4100.817h2.6l-.2-1.125h-2.2Z" fill="#666"/>
        <path id="Path_2927" data-name="Path 2927" d="M7931.005,4095.379h-.668l-.2,1.125h1.068Z" fill="#666"/>
      </g>
      <g id="Group_3470" data-name="Group 3470">
        <g id="Group_3469" data-name="Group 3469">
          <path id="Path_2928" data-name="Path 2928" d="M7930.172,4093h0l-1.5,8.438c0,.31.335.562.75.562h1.5c.414,0,.75-.252.75-.562Z" fill="#e9c329"/>
          <path id="Path_2929" data-name="Path 2929" d="M7930.172,4093s-4,0-4,3Z" fill="#2a8a5a"/>
          <path id="Path_2930" data-name="Path 2930" d="M7930.172,4093a5.13,5.13,0,0,0-6,0Z" fill="#2a8a5a"/>
          <path id="Path_2931" data-name="Path 2931" d="M7934.293,4097.208a5.13,5.13,0,0,0-4.243-4.243Z" fill="#2a8a5a"/>
          <path id="Path_2932" data-name="Path 2932" d="M7930.172,4093h5.656a4.836,4.836,0,0,0-5.656,0" fill="#2a8a5a"/>
          <path id="Path_2933" data-name="Path 2933" d="M7930.172,4093l4-3s-4,0-4,3" fill="#2a8a5a"/>
          <path id="Path_2934" data-name="Path 2934" d="M7929.254,4098.161h1.835l-.2-1.125h-1.435Z" fill="#f4a01a"/>
          <path id="Path_2935" data-name="Path 2935" d="M7928.871,4100.317h2.6l-.2-1.125h-2.2Z" fill="#f4a01a"/>
          <path id="Path_2936" data-name="Path 2936" d="M7930.505,4094.879h-.668l-.2,1.125h1.068Z" fill="#f4a01a"/>
        </g>
      </g>
    </g>
  </g>
</svg>
