<svg xmlns="http://www.w3.org/2000/svg" width="281.036" height="103" viewBox="0 0 281.036 103">
  <g id="Group_26158" data-name="Group 26158" transform="translate(-384.234 -4732)">
    <g id="Group_25710" data-name="Group 25710" transform="translate(-19 1964)">
      <path id="Path_14138" data-name="Path 14138" d="M7185.7,2353.335s4.024-6.994,10.859-6.961,49.495,0,53.273,0,4.8-2.339,5.137-3.824a26.554,26.554,0,0,0,.235-4.7" transform="translate(-6743 452)" fill="none" stroke="#707070" stroke-width="1"/>
      <path id="Path_14139" data-name="Path 14139" d="M7255.482,2353.335s-4.04-6.994-10.9-6.961-49.682,0-53.475,0-4.817-2.339-5.156-3.824a26.471,26.471,0,0,1-.235-4.7" transform="translate(-6673.482 452)" fill="none" stroke="#707070" stroke-width="1"/>
    </g>
    <text id="_5days" data-name="5days" transform="translate(472 4732)" fill="#171615" font-size="14" font-family="NotoSansCJKjp-Medium, Noto Sans CJK JP" font-weight="500"><tspan x="0" y="16">5days</tspan></text>
    <rect id="Rectangle_10586" data-name="Rectangle 10586" width="114.792" height="2" rx="1" transform="translate(534 4782.9)" fill="#999"/>
    <g id="Group_1144" data-name="Group 1144" transform="translate(665.27 4795.844) rotate(180)">
      <rect id="Rectangle_986" data-name="Rectangle 986" width="24" height="24" rx="8" transform="translate(0)" fill="none"/>
      <path id="Path_14127" data-name="Path 14127" d="M15.5,5H7.061c.01-.312.042-2.687,0-4.147L6.354.146a.5.5,0,0,0-.708,0L1.207,4.586.146,5.646a.5.5,0,0,0,0,.707L1.207,7.414l4.439,4.439a.5.5,0,0,0,.708,0l.707-.706c.01-3.115-.005-3.49,0-4.147H15.5a.5.5,0,0,0,.5-.5v-1A.5.5,0,0,0,15.5,5Z" transform="translate(3 5.943)" fill="#999"/>
    </g>
    <path id="Path_14146" data-name="Path 14146" d="M3.306,0H123.2c1.162,0,2.1.448,2.1,1h0c0,.552-.942,1-2.1,1H3.306C3.309.272,3.306,0,3.306,0Z" transform="translate(380.928 4782.9)" fill="#999"/>
    <circle id="Ellipse_277" data-name="Ellipse 277" cx="4" cy="4" r="4" transform="translate(561 4779.9)" fill="#f92525"/>
    <circle id="Ellipse_278" data-name="Ellipse 278" cx="4" cy="4" r="4" transform="translate(503 4779.9)" fill="#f92525"/>
    <rect id="Rectangle_11330" data-name="Rectangle 11330" width="59" height="2" rx="1" transform="translate(506 4782.9)" fill="#f92525"/>
    <g id="Group_25711" data-name="Group 25711" transform="translate(423.701 4799.854)">
      <path id="Path_14138-2" data-name="Path 14138" d="M7185.7,2337.853s2.415,6.994,6.514,6.961,29.689,0,31.956,0,2.878,2.339,3.082,3.824a44.232,44.232,0,0,1,.141,4.7" transform="translate(-7185.701 -2337.853)" fill="none" stroke="#707070" stroke-width="1"/>
      <path id="Path_14139-2" data-name="Path 14139" d="M7227.3,2337.853s-2.408,6.994-6.5,6.961-29.617,0-31.877,0-2.871,2.339-3.074,3.824a44.326,44.326,0,0,0-.14,4.7" transform="translate(-7144 -2337.853)" fill="none" stroke="#707070" stroke-width="1"/>
    </g>
    <text id="_3days" data-name="3days" transform="translate(445 4815)" fill="#171615" font-size="14" font-family="NotoSansCJKjp-Medium, Noto Sans CJK JP" font-weight="500"><tspan x="0" y="16">3days</tspan></text>
    <text id="Today" transform="translate(401 4814)" fill="#171615" font-size="14" font-family="NotoSansCJKjp-Medium, Noto Sans CJK JP" font-weight="500"><tspan x="0" y="16">Today</tspan></text>
    <path id="Path_14168" data-name="Path 14168" d="M1,0H16.312c0,1.859,0,.063,0,2H1Z" transform="translate(423.5 4775.532) rotate(90)" fill="#171615"/>
  </g>
</svg>
