<svg xmlns="http://www.w3.org/2000/svg" width="281.036" height="100" viewBox="0 0 281.036 100">
  <g id="Group_26155" data-name="Group 26155" transform="translate(-404.234 -2657)">
    <g id="Group_25728" data-name="Group 25728" transform="translate(1 -111)">
      <path id="Path_14138" data-name="Path 14138" d="M7185.7,2353.335s4.024-6.994,10.859-6.961,49.495,0,53.273,0,4.8-2.339,5.137-3.824a26.554,26.554,0,0,0,.235-4.7" transform="translate(-6743 452)" fill="none" stroke="#707070" stroke-width="1"/>
      <path id="Path_14139" data-name="Path 14139" d="M7255.482,2353.335s-4.04-6.994-10.9-6.961-49.682,0-53.475,0-4.817-2.339-5.156-3.824a26.471,26.471,0,0,1-.235-4.7" transform="translate(-6673.482 452)" fill="none" stroke="#707070" stroke-width="1"/>
    </g>
    <text id="_5天" data-name="5天" transform="translate(501 2657)" fill="#171615" font-size="14" font-family="NotoSansCJKjp-Medium, Noto Sans CJK JP" font-weight="500"><tspan x="0" y="16">5天</tspan></text>
    <g id="Group_25729" data-name="Group 25729" transform="translate(-64 1533.9)">
      <rect id="Rectangle_10586" data-name="Rectangle 10586" width="158.792" height="2" rx="1" transform="translate(574 1174)" fill="#999"/>
      <g id="Group_1144" data-name="Group 1144" transform="translate(749.27 1186.944) rotate(180)">
        <rect id="Rectangle_986" data-name="Rectangle 986" width="24" height="24" rx="8" transform="translate(0)" fill="none"/>
        <path id="Path_14127" data-name="Path 14127" d="M15.5,5H7.061c.01-.312.042-2.687,0-4.147L6.354.146a.5.5,0,0,0-.708,0L1.207,4.586.146,5.646a.5.5,0,0,0,0,.707L1.207,7.414l4.439,4.439a.5.5,0,0,0,.708,0l.707-.706c.01-3.115-.005-3.49,0-4.147H15.5a.5.5,0,0,0,.5-.5v-1A.5.5,0,0,0,15.5,5Z" transform="translate(3 5.943)" fill="#999"/>
      </g>
    </g>
    <path id="Path_14160" data-name="Path 14160" d="M3.306,0H40.955c.365,0,.661.448.661,1h0c0,.552-.3,1-.661,1H3.306C3.307.272,3.306,0,3.306,0Z" transform="translate(400.928 2707.9)" fill="#999"/>
    <circle id="Ellipse_285" data-name="Ellipse 285" cx="4" cy="4" r="4" transform="translate(439 2704.9)" fill="#f92525"/>
    <circle id="Ellipse_286" data-name="Ellipse 286" cx="4" cy="4" r="4" transform="translate(503 2703.9)" fill="#f92525"/>
    <rect id="Rectangle_11339" data-name="Rectangle 11339" width="64" height="2" rx="1" transform="translate(443 2707.9)" fill="#f92525"/>
    <text id="今天" transform="translate(574 2737)" fill="#171615" font-size="14" font-family="NotoSansCJKjp-Medium, Noto Sans CJK JP" font-weight="500"><tspan x="0" y="16">今天</tspan></text>
    <path id="Path_14162" data-name="Path 14162" d="M1,0H16.312c0,1.859,0,.063,0,2H1Z" transform="translate(585.5 2700.532) rotate(90)" fill="#171615"/>
    <g id="Group_26101" data-name="Group 26101" transform="translate(520.701 2723.108)">
      <path id="Path_14138-2" data-name="Path 14138" d="M7185.7,2337.854s2.146,5.67,5.791,5.643,26.392,0,28.406,0,2.559,1.9,2.739,3.1a32.5,32.5,0,0,1,.126,3.809" transform="translate(-7196 -2337.853)" fill="none" stroke="#707070" stroke-width="1"/>
      <path id="Path_14139-2" data-name="Path 14139" d="M7221.048,2337.853s-2.046,5.67-5.521,5.643-25.167,0-27.089,0-2.439,1.9-2.61,3.1a34.307,34.307,0,0,0-.119,3.808" transform="translate(-7158.931 -2337.853)" fill="none" stroke="#707070" stroke-width="1"/>
    </g>
    <text id="_3天" data-name="3天" transform="translate(539 2736)" fill="#171615" font-size="14" font-family="NotoSansCJKjp-Medium, Noto Sans CJK JP" font-weight="500"><tspan x="0" y="16">3天</tspan></text>
  </g>
</svg>
