<svg xmlns="http://www.w3.org/2000/svg" width="300.478" height="43.944" viewBox="0 0 300.478 43.944">
  <g id="Group_25978" data-name="Group 25978" transform="translate(-387 -1131)">
    <rect id="Rectangle_10585" data-name="Rectangle 10585" width="41" height="2" rx="1" transform="translate(387 1162)" fill="#999"/>
    <g id="Group_25679" data-name="Group 25679" transform="translate(-24 -12)">
      <rect id="Rectangle_10586" data-name="Rectangle 10586" width="100" height="2" rx="1" transform="translate(595 1174)" fill="#999"/>
      <g id="Group_1144" data-name="Group 1144" transform="translate(711.478 1186.944) rotate(180)">
        <rect id="Rectangle_986" data-name="Rectangle 986" width="24" height="24" rx="8" transform="translate(0)" fill="none"/>
        <path id="Path_14127" data-name="Path 14127" d="M15.5,5H7.061c.01-.312.042-2.687,0-4.147L6.354.146a.5.5,0,0,0-.708,0L1.207,4.586.146,5.646a.5.5,0,0,0,0,.707L1.207,7.414l4.439,4.439a.5.5,0,0,0,.708,0l.707-.706c.01-3.115-.005-3.49,0-4.147H15.5a.5.5,0,0,0,.5-.5v-1A.5.5,0,0,0,15.5,5Z" transform="translate(3 5.943)" fill="#999"/>
      </g>
    </g>
    <g id="Group_25678" data-name="Group 25678" transform="translate(70.321 -16)">
      <rect id="Rectangle_10584" data-name="Rectangle 10584" width="152" height="2" rx="1" transform="translate(358.679 1178)" fill="#f92525"/>
      <circle id="Ellipse_265" data-name="Ellipse 265" cx="4" cy="4" r="4" transform="translate(356.679 1175)" fill="#f92525"/>
      <circle id="Ellipse_266" data-name="Ellipse 266" cx="4" cy="4" r="4" transform="translate(509.679 1175)" fill="#f92525"/>
    </g>
    <text id="_2005_01_01" data-name="2005/01/01" transform="translate(399 1131)" fill="#171615" font-size="14" font-family="NotoSansCJKjp-Regular, Noto Sans CJK JP"><tspan x="0" y="16">2005/01/01</tspan></text>
    <text id="_2010_12_31" data-name="2010/12/31" transform="translate(544 1131)" fill="#171615" font-size="14" font-family="NotoSansCJKjp-Regular, Noto Sans CJK JP"><tspan x="0" y="16">2010/12/31</tspan></text>
  </g>
</svg>
