<svg xmlns="http://www.w3.org/2000/svg" width="281.036" height="103" viewBox="0 0 281.036 103">
  <g id="Group_26156" data-name="Group 26156" transform="translate(-404.234 -2887)">
    <g id="Group_25731" data-name="Group 25731" transform="translate(1 119)">
      <path id="Path_14138" data-name="Path 14138" d="M7185.7,2353.335s4.024-6.994,10.859-6.961,49.495,0,53.273,0,4.8-2.339,5.137-3.824a26.554,26.554,0,0,0,.235-4.7" transform="translate(-6743 452)" fill="none" stroke="#707070" stroke-width="1"/>
      <path id="Path_14139" data-name="Path 14139" d="M7255.482,2353.335s-4.04-6.994-10.9-6.961-49.682,0-53.475,0-4.817-2.339-5.156-3.824a26.471,26.471,0,0,1-.235-4.7" transform="translate(-6673.482 452)" fill="none" stroke="#707070" stroke-width="1"/>
    </g>
    <text id="_5天" data-name="5天" transform="translate(501 2887)" fill="#171615" font-size="14" font-family="NotoSansCJKjp-Medium, Noto Sans CJK JP" font-weight="500"><tspan x="0" y="16">5天</tspan></text>
    <g id="Group_1144" data-name="Group 1144" transform="translate(685.27 2950.844) rotate(180)">
      <rect id="Rectangle_986" data-name="Rectangle 986" width="24" height="24" rx="8" transform="translate(0)" fill="none"/>
      <path id="Path_14127" data-name="Path 14127" d="M15.5,5H7.061c.01-.312.042-2.687,0-4.147L6.354.146a.5.5,0,0,0-.708,0L1.207,4.586.146,5.646a.5.5,0,0,0,0,.707L1.207,7.414l4.439,4.439a.5.5,0,0,0,.708,0l.707-.706c.01-3.115-.005-3.49,0-4.147H15.5a.5.5,0,0,0,.5-.5v-1A.5.5,0,0,0,15.5,5Z" transform="translate(3 5.943)" fill="#f92525"/>
    </g>
    <path id="Path_14164" data-name="Path 14164" d="M1,0H16.312c0,1.859,0,.063,0,2H1Z" transform="translate(585.5 2930.532) rotate(90)" fill="#171615"/>
    <path id="Path_14163" data-name="Path 14163" d="M3.306,0H40.955c.365,0,.661.448.661,1h0c0,.552-.3,1-.661,1H3.306C3.307.272,3.306,0,3.306,0Z" transform="translate(400.928 2937.9)" fill="#999"/>
    <circle id="Ellipse_287" data-name="Ellipse 287" cx="4" cy="4" r="4" transform="translate(439 2934.9)" fill="#f92525"/>
    <rect id="Rectangle_11340" data-name="Rectangle 11340" width="232" height="2" rx="1" transform="translate(443 2937.9)" fill="#f92525"/>
    <text id="今天" transform="translate(570 2970)" fill="#171615" font-size="14" font-family="NotoSansCJKjp-Medium, Noto Sans CJK JP" font-weight="500"><tspan x="0" y="16">今天</tspan></text>
  </g>
</svg>
