<svg xmlns="http://www.w3.org/2000/svg" width="454.478" height="63" viewBox="0 0 454.478 63">
  <g id="Group_25982" data-name="Group 25982" transform="translate(-377 -1711.9)">
    <rect id="Rectangle_11308" data-name="Rectangle 11308" width="37" height="2" rx="1" transform="translate(403 1742.9)" fill="#999"/>
    <path id="Path_14127" data-name="Path 14127" d="M15.5,5H7.061c.01-.312.042-2.687,0-4.147L6.354.146a.5.5,0,0,0-.708,0L1.207,4.586.146,5.646a.5.5,0,0,0,0,.707L1.207,7.414l4.439,4.439a.5.5,0,0,0,.708,0l.707-.706c.01-3.115-.005-3.49,0-4.147H15.5a.5.5,0,0,0,.5-.5v-1A.5.5,0,0,0,15.5,5Z" transform="translate(831.478 1749.901) rotate(180)" fill="#999"/>
    <path id="Path_14133" data-name="Path 14133" d="M1,0H58a1,1,0,0,1,1,1h0a1,1,0,0,1-1,1H1A1,1,0,0,1,0,1H0A1,1,0,0,1,1,0Z" transform="translate(580 1742.9)" fill="#999"/>
    <rect id="Rectangle_11311" data-name="Rectangle 11311" width="70" height="2" rx="1" transform="translate(513 1742.9)" fill="#999"/>
    <rect id="Rectangle_10584" data-name="Rectangle 10584" width="97" height="2" rx="1" transform="translate(441 1742.9)" fill="#f92525"/>
    <circle id="Ellipse_267" data-name="Ellipse 267" cx="4" cy="4" r="4" transform="translate(435 1739.9)" fill="#f92525"/>
    <circle id="Ellipse_268" data-name="Ellipse 268" cx="4" cy="4" r="4" transform="translate(534 1740.9)" fill="#f92525"/>
    <text id="_2008_01_01_9:30" data-name="2008/01/01 9:30" transform="translate(377 1711.9)" fill="#171615" font-size="14" font-family="NotoSansCJKjp-Regular, Noto Sans CJK JP"><tspan x="0" y="16">2008/01/01 9:30</tspan></text>
    <text id="_2008_01_01_9:45" data-name="2008/01/01 9:45" transform="translate(479 1753.9)" fill="#171615" font-size="14" font-family="NotoSansCJKjp-Regular, Noto Sans CJK JP"><tspan x="0" y="16">2008/01/01 9:45</tspan></text>
    <circle id="Ellipse_271" data-name="Ellipse 271" cx="4" cy="4" r="4" transform="translate(638 1739.9)" fill="#f92525"/>
    <text id="_2008_01_02_9:45" data-name="2008/01/02 9:45" transform="translate(702 1754.9)" fill="#171615" font-size="14" font-family="NotoSansCJKjp-Regular, Noto Sans CJK JP"><tspan x="0" y="16">2008/01/02 9:45</tspan></text>
    <text id="_2008_01_02_9:30" data-name="2008/01/02 9:30" transform="translate(593 1711.9)" fill="#171615" font-size="14" font-family="NotoSansCJKjp-Regular, Noto Sans CJK JP"><tspan x="0" y="16">2008/01/02 9:30</tspan></text>
    <path id="Path_31005" data-name="Path 31005" d="M1.084,0H62.89a1.045,1.045,0,0,1,1.084,1h0A1.045,1.045,0,0,1,62.89,2H1.084A1.045,1.045,0,0,1,0,1H0A1.045,1.045,0,0,1,1.084,0Z" transform="translate(756 1742.9)" fill="#999"/>
    <rect id="Rectangle_11509" data-name="Rectangle 11509" width="118" height="2" rx="1" transform="translate(642 1742.9)" fill="#f92525"/>
    <circle id="Ellipse_314" data-name="Ellipse 314" cx="4" cy="4" r="4" transform="translate(756 1739.9)" fill="#f92525"/>
  </g>
</svg>
