<svg xmlns="http://www.w3.org/2000/svg" width="281.036" height="85" viewBox="0 0 281.036 85">
  <g id="Group_26169" data-name="Group 26169" transform="translate(-385.234 -8364.443)">
    <path id="Path_30987" data-name="Path 30987" d="M1,0H16.312c0,1.859,0,.063,0,2H1Z" transform="translate(485.5 8407.976) rotate(90)" fill="#171615"/>
    <rect id="Rectangle_10586" data-name="Rectangle 10586" width="83.792" height="2" rx="1" transform="translate(566 8415.344)" fill="#999"/>
    <g id="Group_1144" data-name="Group 1144" transform="translate(666.27 8428.287) rotate(180)">
      <rect id="Rectangle_986" data-name="Rectangle 986" width="24" height="24" rx="8" transform="translate(0)" fill="none"/>
      <path id="Path_14127" data-name="Path 14127" d="M15.5,5H7.061c.01-.312.042-2.687,0-4.147L6.354.146a.5.5,0,0,0-.708,0L1.207,4.586.146,5.646a.5.5,0,0,0,0,.707L1.207,7.414l4.439,4.439a.5.5,0,0,0,.708,0l.707-.706c.01-3.115-.005-3.49,0-4.147H15.5a.5.5,0,0,0,.5-.5v-1A.5.5,0,0,0,15.5,5Z" transform="translate(3 5.943)" fill="#999"/>
    </g>
    <path id="Path_30988" data-name="Path 30988" d="M3.306,0H41.126c.366,0,.663.448.663,1h0c0,.552-.3,1-.663,1H3.306C3.307.272,3.306,0,3.306,0Z" transform="translate(381.928 8415.344)" fill="#999"/>
    <circle id="Ellipse_309" data-name="Ellipse 309" cx="4" cy="4" r="4" transform="translate(562 8412.344)" fill="#f92525"/>
    <circle id="Ellipse_310" data-name="Ellipse 310" cx="4" cy="4" r="4" transform="translate(418 8412.344)" fill="#f92525"/>
    <rect id="Rectangle_11494" data-name="Rectangle 11494" width="140" height="2" rx="1" transform="translate(425 8415.344)" fill="#f92525"/>
    <g id="Group_25803" data-name="Group 25803" transform="translate(423.7 8385.297)">
      <path id="Path_14138" data-name="Path 14138" d="M7185.7,2353.335s1.758-6.994,4.742-6.961,21.617,0,23.267,0,2.1-2.339,2.244-3.824.1-4.7.1-4.7" transform="translate(-7185.7 -2337.853)" fill="none" stroke="#707070" stroke-width="1"/>
      <path id="Path_14139" data-name="Path 14139" d="M7216.138,2353.335s-1.762-6.994-4.754-6.961-21.671,0-23.326,0-2.1-2.339-2.249-3.824-.1-4.7-.1-4.7" transform="translate(-7155.338 -2337.853)" fill="none" stroke="#707070" stroke-width="1"/>
    </g>
    <text id="_3years" data-name="3years" transform="translate(431 8364.443)" fill="#171615" font-size="14" font-family="NotoSansCJKjp-Medium, Noto Sans CJK JP" font-weight="500"><tspan x="0" y="16">3years</tspan></text>
    <text id="_5years" data-name="5years" transform="translate(504 8364.443)" fill="#171615" font-size="14" font-family="NotoSansCJKjp-Medium, Noto Sans CJK JP" font-weight="500"><tspan x="0" y="16">5years</tspan></text>
    <text id="This_year" data-name="This year" transform="translate(456 8429.443)" fill="#171615" font-size="14" font-family="NotoSansCJKjp-Medium, Noto Sans CJK JP" font-weight="500"><tspan x="0" y="16">This year</tspan></text>
    <g id="Group_25804" data-name="Group 25804" transform="translate(485.5 8385.297)">
      <path id="Path_14138-2" data-name="Path 14138" d="M7185.7,2353.335s2.331-6.994,6.288-6.961,28.655,0,30.842,0,2.778-2.339,2.974-3.824a45.768,45.768,0,0,0,.136-4.7" transform="translate(-7185.7 -2337.853)" fill="none" stroke="#707070" stroke-width="1"/>
      <path id="Path_14139-2" data-name="Path 14139" d="M7225.952,2353.335s-2.331-6.994-6.288-6.961-28.658,0-30.846,0-2.778-2.339-2.974-3.824a45.768,45.768,0,0,1-.136-4.7" transform="translate(-7145.452 -2337.853)" fill="none" stroke="#707070" stroke-width="1"/>
    </g>
  </g>
</svg>
