<svg xmlns="http://www.w3.org/2000/svg" width="17" height="16.1" viewBox="0 0 17 16.1">
  <g id="ic-add-favorites" transform="translate(0.5 0.5)">
    <path id="Path_31033" data-name="Path 31033" d="M16,5.9c0-.1,0-.1-.1-.2a.4.4,0,0,0-.4-.3H10.1l-.6-2L8.5.3,8.3.1H7.7c-.1,0-.1.1-.2.2l-1,3.1-.6,2H.5a.5.5,0,0,0-.5.5c0,.2.1.3.2.5L4.5,9.5l-1,3.1-.6,2v.2h0V15h.7L8,12l4.3,3.2H13V15h0v-.2l-.6-2-1-3.1,4.3-3.1c.1-.2.2-.3.2-.5Z" transform="translate(0 -0.1)" fill="#fff" stroke="#999" stroke-width="1"/>
  </g>
</svg>
