<svg xmlns="http://www.w3.org/2000/svg" width="23.891" height="23.891" viewBox="0 0 23.891 23.891">
  <g id="Group_16476" data-name="Group 16476" transform="translate(-961.938 -310.611)">
    <g id="Group_16469" data-name="Group 16469" transform="translate(266 20.109)">
      <g id="Path_30957" data-name="Path 30957" transform="translate(695.938 290.502)" fill="#fff" stroke-linecap="round">
        <path d="M 11.945556640625 23.39111709594727 C 8.888336181640625 23.39111709594727 6.014106750488281 22.2005672454834 3.852326631546021 20.03878593444824 C 1.690546631813049 17.87700653076172 0.4999966323375702 15.00277709960938 0.4999966323375702 11.945556640625 C 0.4999966323375702 8.888336181640625 1.690546631813049 6.014106750488281 3.852326631546021 3.852326631546021 C 6.014106750488281 1.690546631813049 8.888336181640625 0.4999966323375702 11.945556640625 0.4999966323375702 C 15.00277709960938 0.4999966323375702 17.87700653076172 1.690546631813049 20.03878593444824 3.852326631546021 C 22.2005672454834 6.014106750488281 23.39111709594727 8.888336181640625 23.39111709594727 11.945556640625 C 23.39111709594727 15.00277709960938 22.2005672454834 17.87700653076172 20.03878593444824 20.03878593444824 C 17.87700653076172 22.2005672454834 15.00277709960938 23.39111709594727 11.945556640625 23.39111709594727 Z" stroke="none"/>
        <path d="M 11.945556640625 0.9999961853027344 C 9.021896362304688 0.9999961853027344 6.273216247558594 2.13853645324707 4.205877304077148 4.205877304077148 C 2.13853645324707 6.273216247558594 0.9999961853027344 9.021896362304688 0.9999961853027344 11.945556640625 C 0.9999961853027344 14.86921691894531 2.13853645324707 17.61789703369141 4.205877304077148 19.68523597717285 C 6.273216247558594 21.75257682800293 9.021896362304688 22.89111709594727 11.945556640625 22.89111709594727 C 14.86921691894531 22.89111709594727 17.61789703369141 21.75257682800293 19.68523597717285 19.68523597717285 C 21.75257682800293 17.61789703369141 22.89111709594727 14.86921691894531 22.89111709594727 11.945556640625 C 22.89111709594727 9.021896362304688 21.75257682800293 6.273216247558594 19.68523597717285 4.205877304077148 C 17.61789703369141 2.13853645324707 14.86921691894531 0.9999961853027344 11.945556640625 0.9999961853027344 M 11.945556640625 -3.814697265625e-06 C 18.54290771484375 -3.814697265625e-06 23.89111709594727 5.348207473754883 23.89111709594727 11.945556640625 C 23.89111709594727 18.54290771484375 18.54290771484375 23.89111709594727 11.945556640625 23.89111709594727 C 5.348207473754883 23.89111709594727 -3.814697265625e-06 18.54290771484375 -3.814697265625e-06 11.945556640625 C -3.814697265625e-06 5.348207473754883 5.348207473754883 -3.814697265625e-06 11.945556640625 -3.814697265625e-06 Z" stroke="none" fill="#999"/>
      </g>
    </g>
    <path id="Path_30956" data-name="Path 30956" d="M1945.5,6197H1941v-4.5a.5.5,0,0,0-.5-.5h-1a.5.5,0,0,0-.5.5v4.5h-4.5a.5.5,0,0,0-.5.5v1a.5.5,0,0,0,.5.5h4.5v4.5a.5.5,0,0,0,.5.5h1a.5.5,0,0,0,.5-.5V6199h4.5a.5.5,0,0,0,.5-.5v-1A.5.5,0,0,0,1945.5,6197Z" transform="translate(-966 -5876)" fill="#999"/>
  </g>
</svg>
