<svg xmlns="http://www.w3.org/2000/svg" width="21.451" height="17.094" viewBox="0 0 21.451 17.094">
  <g id="Group_27212" data-name="Group 27212" transform="translate(-386.738 -155.492)">
    <path id="Path_11708" data-name="Path 11708" d="M390.385,1003.1v16.586h11.33V1007.9l-5.219-4.31h-5.734" transform="translate(5.974 -847.6)" fill="#999" stroke="#999" stroke-width="1"/>
    <path id="Path_11709" data-name="Path 11709" d="M1782.791,3156.441a.5.5,0,0,1,.708,0l3.439,3.44V3152a.5.5,0,0,1,.5-.5h1a.5.5,0,0,1,.5.5v7.879l3.439-3.44a.5.5,0,0,1,.708,0l.707.707a.5.5,0,0,1,0,.707l-5.5,5.5a.5.5,0,0,1-.707,0l-5.5-5.5a.5.5,0,0,1,0-.707Z" transform="translate(3550.44 -1623.436) rotate(90)" fill="#999" stroke="#fff" stroke-width="0.4"/>
  </g>
</svg>
