<svg id="Component_6_1" data-name="Component 6 – 1" xmlns="http://www.w3.org/2000/svg" width="19" height="19" viewBox="0 0 19 19">
  <path id="Path_3566" data-name="Path 3566" d="M44,328H30a2,2,0,0,1-2-2v-9H46v9a2,2,0,0,1-2,2" transform="translate(-27 -309)" fill="#0b537f"/>
  <path id="Path_3567" data-name="Path 3567" d="M43,326H29a2,2,0,0,1-2-2v-9H45v9a2,2,0,0,1-2,2" transform="translate(-27 -309)" fill="#fff"/>
  <rect id="Rectangle_2774" data-name="Rectangle 2774" width="4" height="2" transform="translate(7 2)" fill="#0f6eb5"/>
  <path id="Path_3568" data-name="Path 3568" d="M43,322H29a2,2,0,0,1-2-2v-5H45v5a2,2,0,0,1-2,2" transform="translate(-27 -310.63)" fill="#ccc"/>
  <path id="Path_3569" data-name="Path 3569" d="M38,311.564H34a2,2,0,0,0-2,2v3a1,1,0,0,0,2,0v-3h4v3a1,1,0,0,0,2,0v-3a2,2,0,0,0-2-2" transform="translate(-27 -311.564)" fill="#666"/>
  <rect id="Rectangle_2775" data-name="Rectangle 2775" width="2.5" height="4.5" transform="translate(7.75 10.63)" fill="#09f"/>
  <path id="Path_3570" data-name="Path 3570" d="M37,324.564H35v-4h2Zm.5-4.5h-3v5h3v-5Z" transform="translate(-27 -309.658)" fill="#fff"/>
</svg>
