<svg xmlns="http://www.w3.org/2000/svg" width="190" height="177" viewBox="0 0 190 177">
  <g id="Group_27164" data-name="Group 27164" transform="translate(-635 -1955)">
    <rect id="Rectangle_18420" data-name="Rectangle 18420" width="190" height="177" transform="translate(635 1955)" fill="#fff"/>
    <g id="Rectangle_18421" data-name="Rectangle 18421" transform="translate(667 2000)" fill="#333" stroke="#666" stroke-width="2">
      <rect width="128" height="62" stroke="none"/>
      <rect x="1" y="1" width="126" height="60" fill="none"/>
    </g>
    <g id="Group_27162" data-name="Group 27162" transform="translate(-122 -27)">
      <g id="Group_27160" data-name="Group 27160" transform="translate(2)">
        <path id="Path_11794" data-name="Path 11794" d="M0,0H60.424L82,21.777V88H0Z" transform="translate(809 1992)" fill="#f9f9f9"/>
        <path id="Path_11795" data-name="Path 11795" d="M8.186-11.92,29.843,10.3H8.186Z" transform="translate(861 2004)" fill="#ededed"/>
      </g>
      <text id="Customer" transform="translate(821 2013)" fill="#999" font-size="10" font-family="SegoeUI, Segoe UI"><tspan x="0" y="0">Customer</tspan></text>
      <line id="Line_2907" data-name="Line 2907" x2="62" transform="translate(821.5 2019.5)" fill="none" stroke="#999" stroke-width="1"/>
      <rect id="Rectangle_18419" data-name="Rectangle 18419" width="93.8" height="19.87" transform="translate(806 2029.1)" fill="#2ecc71"/>
      <text id="CSV" transform="translate(834 2045)" fill="#fff" stroke="#fff" stroke-width="1" font-size="18" font-family="SegoeUI, Segoe UI" letter-spacing="0.15em"><tspan x="0" y="0">CSV</tspan></text>
      <line id="Line_2908" data-name="Line 2908" x2="62" transform="translate(821.5 2024.5)" fill="none" stroke="#999" stroke-width="1"/>
      <line id="Line_2909" data-name="Line 2909" x2="62" transform="translate(821.5 2053.5)" fill="none" stroke="#999" stroke-width="1"/>
      <line id="Line_2910" data-name="Line 2910" x2="62" transform="translate(821.5 2058.5)" fill="none" stroke="#999" stroke-width="1"/>
      <line id="Line_2911" data-name="Line 2911" x2="62" transform="translate(821.5 2063.5)" fill="none" stroke="#999" stroke-width="1"/>
      <line id="Line_2912" data-name="Line 2912" x2="62" transform="translate(821.5 2068.5)" fill="none" stroke="#999" stroke-width="1"/>
    </g>
    <path id="Path_11796" data-name="Path 11796" d="M0,0H128l10.369,48.945H-16.749Z" transform="translate(667 2061)" fill="#f9f9f9"/>
    <path id="Path_11797" data-name="Path 11797" d="M0,0H122l4.485,22.475H-6.533Z" transform="translate(669 2068)" fill="#ededed"/>
    <path id="Path_11798" data-name="Path 11798" d="M0,0H32l2.024,12H-3.229Z" transform="translate(712 2094)" fill="#ededed"/>
    <line id="Line_2913" data-name="Line 2913" x2="155" transform="translate(650.5 2111.5)" fill="none" stroke="#ededed" stroke-width="4"/>
    <g id="Group_27163" data-name="Group 27163" transform="translate(-1 -1)">
      <g id="Ellipse_1" data-name="Ellipse 1" transform="translate(765 2035)" fill="#2ecc71" stroke="#2ecc71" stroke-width="1">
        <circle cx="12.5" cy="12.5" r="12.5" stroke="none"/>
        <circle cx="12.5" cy="12.5" r="12" fill="none"/>
      </g>
      <g id="Path_11799" data-name="Path 11799" transform="translate(774 2044)" fill="#fff">
        <path d="M 5.308593273162842 11.90124988555908 L 1.380863308906555 11.90124988555908 L 1.380863308906555 0.4970696866512299 L 1.380863308906555 -0.002930312417447567 L 0.8808633089065552 -0.002930312417447567 L -2.12142276763916 -0.002930312417447567 L 3.578755378723145 -4.858304023742676 L 9.06696605682373 -0.002930312417447567 L 5.808593273162842 -0.002930312417447567 L 5.308593273162842 -0.002930312417447567 L 5.308593273162842 0.4970696866512299 L 5.308593273162842 11.90124988555908 Z" stroke="none"/>
        <path d="M 3.572542428970337 -4.196203231811523 L -0.7633366584777832 -0.5029301643371582 L 0.8808631896972656 -0.5029301643371582 L 1.880863189697266 -0.5029301643371582 L 1.880863189697266 0.4970698356628418 L 1.880863189697266 11.40124988555908 L 4.808593273162842 11.40124988555908 L 4.808593273162842 0.4970698356628418 L 4.808593273162842 -0.5029301643371582 L 5.808593273162842 -0.5029301643371582 L 7.74718713760376 -0.5029301643371582 L 3.572542428970337 -4.196203231811523 M 3.584963321685791 -5.520390510559082 L 10.38672351837158 0.4970698356628418 L 5.808593273162842 0.4970698356628418 L 5.808593273162842 12.40124988555908 L 0.8808631896972656 12.40124988555908 L 0.8808631896972656 0.4970698356628418 L -3.479496955871582 0.4970698356628418 L 3.584963321685791 -5.520390510559082 Z" stroke="none" fill="#fff"/>
      </g>
    </g>
  </g>
</svg>
