<svg xmlns="http://www.w3.org/2000/svg" width="23.382" height="18.745" viewBox="0 0 23.382 18.745">
  <g id="Group_26174" data-name="Group 26174" transform="translate(-8.36 -10.574)">
    <g id="ic-chane" transform="translate(-648.938 -354.502)">
      <path id="Path_2" data-name="Path 2" d="M667.994,383.822q-3.977,0-7.953,0a2.655,2.655,0,0,1-1.968-.791,2.564,2.564,0,0,1-.771-1.855q-.009-6.713,0-13.426a2.576,2.576,0,0,1,.787-1.872,2.67,2.67,0,0,1,1.963-.8q2.6-.007,5.2,0a2.7,2.7,0,0,1,2.723,2.4,4.273,4.273,0,0,1,.019.659c-.005.13.041.158.159.152.179-.01.359,0,.539,0,.092,0,.1.024.05.1a2.452,2.452,0,0,0-.339,2.019c.017.064.017.1-.066.094q-1.227,0-2.454,0c-.108,0-.1-.062-.1-.13q0-1.268,0-2.535a.491.491,0,0,0-.542-.544q-2.6,0-5.2,0a.491.491,0,0,0-.537.548v13.237a.475.475,0,0,0,.488.551,1.462,1.462,0,0,0,.148,0h15.825a.5.5,0,0,0,.52-.544c0-.351,0-.7,0-1.052,0-.1.03-.127.129-.126q.978.006,1.955,0c.1,0,.129.03.127.13-.009.4,0,.808-.015,1.212a2.661,2.661,0,0,1-2.1,2.515,3.182,3.182,0,0,1-.682.061Z" fill="#999"/>
      <path id="Path_3" data-name="Path 3" d="M676.6,378.454c-1.3,0-2.6,0-3.9,0-.127,0-.154-.037-.153-.157,0-.831,0-1.663,0-2.494a2.763,2.763,0,0,1,1.924-2.672,2.716,2.716,0,0,1,.809-.121c.885-.005,1.771-.017,2.655,0a2.68,2.68,0,0,1,2.457,1.538,2.389,2.389,0,0,1,.266,1.088c.01.9,0,1.8.008,2.7,0,.115-.051.119-.138.118Z" fill="#999"/>
      <path id="Path_4" data-name="Path 4" d="M679.326,368.974a2.683,2.683,0,0,1-2.718,2.7,2.569,2.569,0,0,1-2.691-2.711,2.671,2.671,0,0,1,2.724-2.7A2.584,2.584,0,0,1,679.326,368.974Z" fill="#999"/>
      <path id="Path_5" data-name="Path 5" d="M672.266,373.04a5.7,5.7,0,0,0-.515.616,3.639,3.639,0,0,0-.622,1.783c-.047.51-.016,1.023-.02,1.534,0,.109-.032.135-.136.134q-1.206-.006-2.412,0c-.109,0-.135-.032-.134-.136.005-.566,0-1.132,0-1.7a2.272,2.272,0,0,1,1.934-2.233,2.632,2.632,0,0,1,.376-.028c.463,0,.925,0,1.388,0C672.171,373.012,672.219,372.995,672.266,373.04Z" fill="#999"/>
      <path id="Path_6" data-name="Path 6" d="M671.777,371.683a2.058,2.058,0,0,1-1.858-2.9,1.868,1.868,0,0,1,1.6-1.146,2.032,2.032,0,0,1,1.137.193c.127.057.126.109.061.217a2.557,2.557,0,0,0,.143,2.782,1,1,0,0,0,.166.193c.1.081.09.132-.007.209A2.067,2.067,0,0,1,671.777,371.683Z" fill="#999"/>
    </g>
  </g>
</svg>
