<svg xmlns="http://www.w3.org/2000/svg" width="34" height="17" viewBox="0 0 34 17">
  <g id="Group_26174" data-name="Group 26174" transform="translate(-2.5 -10)">
    <path id="ic_content_paste_24px" d="M15.444,1.545H12.193a2.329,2.329,0,0,0-4.387,0H4.556A1.555,1.555,0,0,0,3,3.091V15.455A1.555,1.555,0,0,0,4.556,17H15.444A1.555,1.555,0,0,0,17,15.455V3.091A1.555,1.555,0,0,0,15.444,1.545ZM10,1.545a.773.773,0,1,1-.778.773A.778.778,0,0,1,10,1.545Zm5.444,13.909H4.556V3.091H6.111V5.409h7.778V3.091h1.556Z" transform="translate(-0.5 10)" fill="#0f6eb5"/>
    <path id="ic_content_paste_24px-2" data-name="ic_content_paste_24px" d="M15.444,1.545H12.193a2.329,2.329,0,0,0-4.387,0H4.556A1.555,1.555,0,0,0,3,3.091V15.455A1.555,1.555,0,0,0,4.556,17H15.444A1.555,1.555,0,0,0,17,15.455V3.091A1.555,1.555,0,0,0,15.444,1.545ZM10,1.545a.773.773,0,1,1-.778.773A.778.778,0,0,1,10,1.545Zm5.444,13.909H4.556V3.091H6.111V5.409h7.778V3.091h1.556Z" transform="translate(19.5 10)" fill="#0f6eb5"/>
  </g>
</svg>
