<svg id="Component_29_3" data-name="Component 29 – 3" xmlns="http://www.w3.org/2000/svg" width="24" height="24" viewBox="0 0 24 24">
    <rect id="ic-no-farame" width="24" height="24" rx="12" fill="none"/>
    <path id="ic-close-up" d="M1413.854,26.853l-.707-.707a.5.5,0,0,0-.708,0L1408,30.586l-4.439-4.44a.5.5,0,0,0-.708,0l-.707.707a.5.5,0,0,0,0,.708l4.44,4.439-4.44,4.439a.5.5,0,0,0,0,.708l.707.707a.5.5,0,0,0,.708,0l4.439-4.44,4.439,4.44a.5.5,0,0,0,.708,0l.707-.707a.5.5,0,0,0,0-.708L1409.414,32l4.44-4.439A.5.5,0,0,0,1413.854,26.853Z" transform="translate(-1396 -20)" fill="#f9f9f9"/>
</svg>
