<svg xmlns="http://www.w3.org/2000/svg" width="18.5" height="17" viewBox="0 0 18.5 17">
  <g id="Group_26172" data-name="Group 26172" transform="translate(-604.5 -35)">
    <path id="ic_content_paste_24px" d="M15.444,1.545H12.193a2.329,2.329,0,0,0-4.387,0H4.556A1.555,1.555,0,0,0,3,3.091V15.455A1.555,1.555,0,0,0,4.556,17H15.444A1.555,1.555,0,0,0,17,15.455V3.091A1.555,1.555,0,0,0,15.444,1.545ZM10,1.545a.773.773,0,1,1-.778.773A.778.778,0,0,1,10,1.545Zm5.444,13.909H4.556V3.091H6.111V5.409h7.778V3.091h1.556Z" transform="translate(601.5 35)" fill="#0f6eb5"/>
    <g id="部署の削除" transform="translate(617 43.5)">
      <g id="ic-erase">
        <path id="path1" d="M5.75.5H3.5V.25A.25.25,0,0,0,3.25,0h-.5A.25.25,0,0,0,2.5.25V.5H.25A.25.25,0,0,0,0,.75v.5a.25.25,0,0,0,.25.25H.5v6A.45.45,0,0,0,1,8H5a.45.45,0,0,0,.5-.5v-6h.25A.25.25,0,0,0,6,1.25V.75A.25.25,0,0,0,5.75.5ZM2,7H1.5V2.5H2ZM3.25,7h-.5V2.5h.5ZM4.5,7H4V2.5h.5Z" fill="#0f6eb5"/>
      </g>
    </g>
  </g>
</svg>
