<svg xmlns="http://www.w3.org/2000/svg" width="13" height="9" viewBox="0 0 13 9">
  <g id="Group_17152" data-name="Group 17152" transform="translate(-935 -392)">
    <g id="ic_today_24px" transform="translate(935 392)">
      <path id="ic_today_24px-2" data-name="ic_today_24px" d="M12.778,1.882h-.611V1H10.944v.882H6.056V1H4.833v.882H4.222c-.678,0-1.216.4-1.216.882L3,8.937c0,.485.544.882,1.222.882h8.556c.672,0,1.222-.4,1.222-.882V2.764C14,2.279,13.45,1.882,12.778,1.882Zm0,7.055H4.222V4.087h8.556ZM5.444,4.969H8.5v2.2H5.444Z" transform="translate(-3 -1)" fill="#ffab00"/>
    </g>
    <g id="Component_5_1" data-name="Component 5 – 1" transform="translate(940 393)">
      <g id="Ellipse_201" data-name="Ellipse 201" transform="translate(0 0.44)" fill="#c04138" stroke="#f4f5f6" stroke-miterlimit="10" stroke-width="1">
        <ellipse cx="4" cy="3.667" rx="4" ry="3.667" stroke="none"/>
        <ellipse cx="4" cy="3.667" rx="3.5" ry="3.167" fill="none"/>
      </g>
      <text id="X" transform="translate(2 6)" fill="#fff" font-size="6" font-family="SegoeUI, Segoe UI"><tspan x="0" y="0">X</tspan></text>
    </g>
  </g>
</svg>
