<svg id="Layer_1" data-name="Layer 1" xmlns="http://www.w3.org/2000/svg" viewBox="0 0 23.4 18.8"><defs><style>.cls-1{fill:#0f6db5;}</style></defs><title>ic-convert-shared-list-blue</title><g id="Group_26174" data-name="Group 26174"><g id="ic-chane"><path id="Path_2" data-name="Path 2" class="cls-1" d="M10.7,18.7h-8A2.3,2.3,0,0,1,.8,18,2.7,2.7,0,0,1,0,16.1V2.7A2.7,2.7,0,0,1,.8.8a2.8,2.8,0,0,1,2-.8H8a2.8,2.8,0,0,1,2.7,2.4v.7c0,.1,0,.1.2.1h.5c.1,0,.1,0,0,.1a2.4,2.4,0,0,0-.3,2c0,.1,0,.1-.1.1H8.6c-.1,0-.1,0-.1-.1V2.8c0-.3-.2-.6-.4-.6H2.7a.5.5,0,0,0-.5.5h0V16c0,.3.1.5.4.5a.1.1,0,0,0,.1.1h16a.5.5,0,0,0,.5-.5h0V15c0-.1,0-.2.1-.2h2c.1,0,.1.1.1.2v1.2a2.8,2.8,0,0,1-2.1,2.5c-.2,0-.5.1-.7,0Z" transform="translate(0 0)"/><path id="Path_3" data-name="Path 3" class="cls-1" d="M19.3,13.4H15.4a.2.2,0,0,1-.2-.2V10.7a2.7,2.7,0,0,1,2-2.6l.8-.2h2.6a2.7,2.7,0,0,1,2.5,1.6,2,2,0,0,1,.3,1.1v2.7H19.3Z" transform="translate(0 0)"/><path id="Path_4" data-name="Path 4" class="cls-1" d="M22,3.9a2.7,2.7,0,0,1-2.6,2.7h-.1a2.6,2.6,0,0,1-2.7-2.4V3.9a2.7,2.7,0,0,1,2.7-2.7h0A2.5,2.5,0,0,1,22,3.7Z" transform="translate(0 0)"/><path id="Path_5" data-name="Path 5" class="cls-1" d="M15,8l-.5.6a3.6,3.6,0,0,0-.7,1.8v1.5H11.1V10.2a2.3,2.3,0,0,1,2-2.2H15Z" transform="translate(0 0)"/><path id="Path_6" data-name="Path 6" class="cls-1" d="M14.5,6.6a2.1,2.1,0,0,1-2.1-2.1,2.4,2.4,0,0,1,.2-.8,1.9,1.9,0,0,1,1.6-1.1,1.7,1.7,0,0,1,1.2.2c.1,0,.1.1,0,.2a2.6,2.6,0,0,0,.2,2.8h.1a.2.2,0,0,1,0,.3A2.5,2.5,0,0,1,14.5,6.6Z" transform="translate(0 0)"/></g></g></svg>