<svg xmlns="http://www.w3.org/2000/svg" width="17" height="22.004" viewBox="0 0 17 22.004">
  <g id="Group_26104" data-name="Group 26104" transform="translate(-229 -1939.823)">
    <path id="Path_336" data-name="Path 336" d="M1781.84,5382.987l-.471-.662a.271.271,0,0,0-.471,0l-2.293,3.225v-11.138c0-.258-.149-.469-.333-.469h-.667c-.184,0-.333.21-.333.469v11.138l-2.292-3.225a.271.271,0,0,0-.472,0l-.471.662a.615.615,0,0,0,0,.664l3.667,5.154a.27.27,0,0,0,.472,0l.707-.992,2.96-4.163A.614.614,0,0,0,1781.84,5382.987Z" transform="translate(-1535.938 -3429.541)" fill="#999"/>
    <text id="Z" transform="translate(229 1947.827)" fill="#999" font-size="10" font-family="SegoeUI, Segoe UI"><tspan x="0" y="11">Z</tspan></text>
    <text id="A" transform="translate(229 1939.823)" fill="#999" font-size="10" font-family="SegoeUI, Segoe UI"><tspan x="0" y="11">A</tspan></text>
  </g>
</svg>
