<svg xmlns="http://www.w3.org/2000/svg" viewBox="0 0 11.6 17.3"><defs><style>.cls-1{fill:#9e9e9e;}</style></defs><title>ic-delete</title><g id="Layer_2" data-name="Layer 2"><g id="レイヤー_1" data-name="レイヤー 1"><path class="cls-1" d="M0,1.9a1.4,1.4,0,0,1,.2-.6l.4-.2H3.5L3.8.4c0-.1.1-.2.2-.3H7.6c.1.1.2.2.2.3l.3.7H11l.4.2a1.4,1.4,0,0,1,.2.6v.9a.4.4,0,0,1-.1.3H.1A.4.4,0,0,1,0,2.8ZM10.8,15.7a1.5,1.5,0,0,1-.4,1.1,1.1,1.1,0,0,1-.9.5H2.1a1.1,1.1,0,0,1-.9-.5,1.5,1.5,0,0,1-.4-1.1V4.7c0-.1.1-.2.1-.3h9.8c0,.1.1.2.1.3ZM3.6,6.6H3a.6.6,0,0,0-.1.4v7.6A.6.6,0,0,0,3,15h.6a.6.6,0,0,0,.1-.4V7A.6.6,0,0,0,3.6,6.6Zm2.5,0H5.5a.6.6,0,0,0-.1.4v7.6a.6.6,0,0,0,.1.4h.6a.6.6,0,0,0,.1-.4V7A.6.6,0,0,0,6.1,6.6Zm2.5,0H8a.6.6,0,0,0-.1.4v7.6A.6.6,0,0,0,8,15h.6a.6.6,0,0,0,.1-.4V7A.6.6,0,0,0,8.6,6.6Z"/></g></g></svg>