<svg xmlns="http://www.w3.org/2000/svg" viewBox="0 0 10 10"><defs><style>.cls-1{fill:#999;}</style></defs><title>ic-Expansion</title><g id="Layer_2" data-name="Layer 2"><g id="コンテンツ"><path class="cls-1" d="M9.7,5.3H9.1a.3.3,0,0,0-.3.3V7.9L6.3,5.4c-.2-.2-.4-.2-.5,0l-.4.4c-.2.1-.2.3,0,.5L7.9,8.8H5.6a.3.3,0,0,0-.3.3v.6a.3.3,0,0,0,.3.3H9.7a.3.3,0,0,0,.3-.3V5.6A.3.3,0,0,0,9.7,5.3Z"/><path class="cls-1" d="M2.1,1.2H4.4A.3.3,0,0,0,4.7.9V.3A.3.3,0,0,0,4.4,0H.3A.3.3,0,0,0,0,.3V4.4a.3.3,0,0,0,.3.3H.9a.3.3,0,0,0,.3-.3V2.1L3.8,4.6a.2.2,0,0,0,.4,0l.4-.4a.2.2,0,0,0,0-.4Z"/></g></g></svg>