<svg xmlns="http://www.w3.org/2000/svg" viewBox="0 0 16 16"><defs><style>.cls-1{fill:#0f6eb5;}</style></defs><title>ic-export-blue</title><g id="Layer_2" data-name="Layer 2"><g id="コンテンツ"><path class="cls-1" d="M15.5,12h-1a.5.5,0,0,0-.5.5V14H2V12.5a.5.5,0,0,0-.5-.5H.5a.5.5,0,0,0-.5.5V15a.9.9,0,0,0,1,1H15a.9.9,0,0,0,1-1V12.5A.5.5,0,0,0,15.5,12Z"/><path class="cls-1" d="M2.9,7.1c.1.2.5.2.7,0L7,3.6v7.9a.5.5,0,0,0,.5.5h1a.5.5,0,0,0,.5-.5V3.6l3.4,3.5c.2.2.6.2.7,0l.8-.7a1.1,1.1,0,0,0,0-.8L8.4.1H7.6L2.1,5.6a1.1,1.1,0,0,0,0,.8Z"/></g></g></svg>