<svg xmlns="http://www.w3.org/2000/svg" viewBox="0 0 20 13.5"><defs><style>.cls-1{fill:#166bb2;}.cls-2{fill:#3e6788;}.cls-3{fill:#a9334b;}.cls-4{fill:#39be73;}</style></defs><title>Asset 5</title><g id="Layer_2" data-name="Layer 2"><g id="レイヤー_1" data-name="レイヤー 1"><rect class="cls-1" x="0.3" y="0.3" width="19.4" height="12.9" rx="1.1" ry="1.1"/><path class="cls-2" d="M18.5,13.2v-.3H1.5a.9.9,0,0,1-.9-.8V1.5A.9.9,0,0,1,1.5.6h17a.9.9,0,0,1,.9.9V12.1a.9.9,0,0,1-.9.8v.6A1.5,1.5,0,0,0,20,12.1V1.5A1.5,1.5,0,0,0,18.5,0H1.5A1.5,1.5,0,0,0,0,1.5V12.1a1.5,1.5,0,0,0,1.5,1.4h17Z"/><circle class="cls-3" cx="8.4" cy="5.2" r="1.6"/><polygon class="cls-4" points="3.5 10 13.2 3.5 16.5 10 3.5 10"/></g></g></svg>