<svg id="Layer_1" data-name="Layer 1" xmlns="http://www.w3.org/2000/svg" viewBox="0 0 18.3 16.8"><defs><style>.cls-1{fill:#d71c51;}.cls-2{fill:#d81950;}.cls-3{fill:#fff;}</style></defs><title>ic-file-ppt</title><g id="Layer_2" data-name="Layer 2"><g id="レイヤー_1" data-name="レイヤー 1"><rect class="cls-1" y="5.1" width="14.8" height="7.87"/><polygon class="cls-2" points="5.9 0.4 5.5 0.4 5.5 16.8 18.3 16.8 18.3 4.2 14.1 0 5.5 0 5.5 0.4 5.9 0.4 5.9 0.8 13.8 0.8 17.5 4.6 17.5 16 6.3 16 6.3 0.4 5.9 0.4 5.9 0.8 5.9 0.4"/><path class="cls-3" d="M4.2,9.4v.8H3.6V7.9H5.4a.5.5,0,0,1,.4.3.4.4,0,0,1,.1.3.7.7,0,0,1-.3.6l-.8.2Zm0-.4h1c0-.1.1-.1.1-.2a.4.4,0,0,0-.1-.3h-1Z"/><path class="cls-3" d="M7,9.4v.8H6.3V7.9H8.1c.2,0,.3.1.4.3a.4.4,0,0,1,.1.3.7.7,0,0,1-.3.6l-.8.2ZM7,9h.9c.1-.1.1-.1.1-.2s0-.3-.1-.3H7Z"/><path class="cls-3" d="M11.3,8.3h-.9v1.9H9.8V8.3H8.9V7.9h2.4Z"/></g></g></svg>