<svg xmlns="http://www.w3.org/2000/svg" viewBox="0 0 18.3 16.8"><defs><style>.cls-1{fill:#62af85;}.cls-2{fill:#fff;}</style></defs><title>Asset 6</title><g id="Layer_2" data-name="Layer 2"><g id="レイヤー_1" data-name="レイヤー 1"><polygon class="cls-1" points="5.9 0.4 5.5 0.4 5.5 16.8 18.3 16.8 18.3 4.2 14.1 0 5.5 0 5.5 0.4 5.9 0.4 5.9 0.8 13.8 0.8 17.5 4.6 17.5 16 6.3 16 6.3 0.4 5.9 0.4 5.9 0.8 5.9 0.4"/><rect class="cls-1" y="5.1" width="14.8" height="7.87"/><path class="cls-2" d="M4.3,8.6,5,7.3h.9L4.8,9.2,6,11.1H5.1L4.3,9.8l-.7,1.3H2.7L3.8,9.2,2.7,7.3h.9Z"/><path class="cls-2" d="M7.1,10.5H8.8v.6H6.3V7.3h.8Z"/><path class="cls-2" d="M11.1,10.1c0-.2,0-.3-.1-.3l-.6-.3-.6-.3a1,1,0,0,1-.6-.9.7.7,0,0,1,.1-.5,1,1,0,0,1,.5-.4h1.5l.4.4a.7.7,0,0,1,.2.6h-.8A.6.6,0,0,0,11,8h-.9c-.1.1-.2.2-.2.3l.2.3.6.3a1.9,1.9,0,0,1,.9.5.8.8,0,0,1,.3.7.7.7,0,0,1-.4.7,1.2,1.2,0,0,1-.9.3H9.8a1,1,0,0,1-.6-.5A1.4,1.4,0,0,1,9,9.9h.8c0,.4.3.6.8.6H11A.4.4,0,0,0,11.1,10.1Z"/></g></g></svg>