<svg id="Group_1796" data-name="Group 1796" xmlns="http://www.w3.org/2000/svg" width="16.04" height="16.097" viewBox="0 0 16.04 16.097">
  <path id="Path_1016" data-name="Path 1016" d="M1232.02,6292a8.049,8.049,0,1,0,8.02,8.048A8.033,8.033,0,0,0,1232.02,6292Zm3.259,5.282a1.006,1.006,0,1,1-1,1.006A1,1,0,0,1,1235.279,6297.282Zm-6.516,0a1.006,1.006,0,1,1-1,1.006A1,1,0,0,1,1228.763,6297.282Zm7.364,5.564-.017.019a5.484,5.484,0,0,1-8.175,0,5.454,5.454,0,0,1-.6-.8l.815-.614a4.464,4.464,0,0,0,7.148.81c.027-.026.059-.047.084-.076h0a4.492,4.492,0,0,0,.521-.725l.807.607A5.456,5.456,0,0,1,1236.126,6302.847Z" transform="translate(-1224 -6292)" fill="#0f6db4"/>
</svg>
