<svg xmlns="http://www.w3.org/2000/svg" viewBox="0 0 18.3 16.8"><defs><style>.cls-1{fill:#6c6c6c;}.cls-2{fill:#fff;}</style></defs><title>Asset 2</title><g id="Layer_2" data-name="Layer 2"><g id="レイヤー_1" data-name="レイヤー 1"><rect class="cls-1" y="6.1" width="14.8" height="7.87"/><polygon class="cls-1" points="5.9 0.4 5.5 0.4 5.5 16.8 18.3 16.8 18.3 4.2 14.1 0 5.5 0 5.5 0.4 5.9 0.4 5.9 0.8 13.8 0.8 17.5 4.6 17.5 16 6.3 16 6.3 0.4 5.9 0.4 5.9 0.8 5.9 0.4"/><path class="cls-2" d="M.9,11.6V8.5H2.6l.5.6a1.1,1.1,0,0,1,.2.8h0a1.2,1.2,0,0,1-.2.8.8.8,0,0,1-.5.5l-.7.2ZM1.6,9v2h.3l.5-.2a1.4,1.4,0,0,0,.2-.7h0a1.2,1.2,0,0,0-.2-.7A.5.5,0,0,0,1.9,9Z"/><path class="cls-2" d="M5.5,11h-1l-.2.6H3.5L4.6,8.5h.7l1.2,3.1H5.7Zm-.8-.6h.6L5,9.3Z"/><path class="cls-2" d="M9.2,9H8.3v2.6H7.5V9H6.6V8.5H9.2Z"/><path class="cls-2" d="M11.3,11h-1l-.2.6H9.3l1.2-3.1h.7l1.1,3.1h-.8Zm-.8-.6h.7l-.4-1.1Z"/></g></g></svg>