<svg id="Component_8_4" data-name="Component 8 – 4" xmlns="http://www.w3.org/2000/svg" width="18" height="18" viewBox="0 0 18 18">
  <circle id="Ellipse_29" data-name="Ellipse 29" cx="9" cy="9" r="9" fill="#0f6eb5"/>
  <g id="ic_sentiment_satisfied_24px" transform="translate(-2 -2)">
    <circle id="Ellipse_27" data-name="Ellipse 27" cx="1.5" cy="1.5" r="1.5" transform="translate(12.588 7.294)" fill="#fff"/>
    <circle id="Ellipse_28" data-name="Ellipse 28" cx="1.5" cy="1.5" r="1.5" transform="translate(6.412 7.294)" fill="#fff"/>
    <path id="Path_106" data-name="Path 106" d="M10.991,2A9,9,0,1,0,20,11,9,9,0,0,0,10.991,2ZM11,18.2A7.2,7.2,0,1,1,18.2,11,7.2,7.2,0,0,1,11,18.2Zm0-3.6a3.6,3.6,0,0,1-3.1-1.8h-1.5a4.945,4.945,0,0,0,9.216,0H14.1A3.6,3.6,0,0,1,11,14.6Z" fill="#fff"/>
  </g>
</svg>
