<svg xmlns="http://www.w3.org/2000/svg" viewBox="0 0 21.9 21.6"><defs><style>.cls-1{fill:#106fb5;}</style></defs><title>Asset 7</title><g id="Layer_2" data-name="Layer 2"><g id="Layer_1-2" data-name="Layer 1"><path class="cls-1" d="M14.8,12.3c0-.1,0-.1.1-.2l3.2-3.2h.5l3.2,3.2c0,.1.1.1.1.2v.3h-.2l-.3.2-.2-.2-2.3-2.3V20.8a.4.4,0,0,1-.1.3H18a.4.4,0,0,1-.1-.3V10.4l-2.3,2.3-.3.2c-.1,0-.1-.1-.2-.2h-.2A.4.4,0,0,1,14.8,12.3Z"/><path class="cls-1" d="M20.6,0a.9.9,0,0,1,.7.3.9.9,0,0,1,.3.7.9.9,0,0,1-.3.7L13.5,9.5V20.6a1.1,1.1,0,0,1-.5.9.9.9,0,0,1-1.1-.1L8.5,19.1a1,1,0,0,1-.4-.9V9.5L.3,1.7A.9.9,0,0,1,0,1,.9.9,0,0,1,.3.3.9.9,0,0,1,1,0Z"/></g></g></svg>