<svg xmlns="http://www.w3.org/2000/svg" width="24" height="31" viewBox="0 0 24 31">
  <g id="Group_25979" data-name="Group 25979" transform="translate(-313 -1277)">
    <text id="A" transform="translate(313 1288)" fill="#0f6db5" font-size="14" font-family="NotoSansCJKjp-Medium, Noto Sans CJK JP" font-weight="500"><tspan x="0" y="16">A</tspan></text>
    <text id="Z" transform="translate(313 1277)" fill="#c825c8" font-size="14" font-family="NotoSansCJKjp-Medium, Noto Sans CJK JP" font-weight="500"><tspan x="0" y="16">Z</tspan></text>
    <path id="Path_31016" data-name="Path 31016" d="M7821.854,888.8l-.707.812a.454.454,0,0,1-.707,0l-3.44-3.951v16.648a.541.541,0,0,1-.5.574h-1a.541.541,0,0,1-.5-.574V885.663l-3.44,3.951a.454.454,0,0,1-.707,0l-.707-.812a.638.638,0,0,1,0-.812l5.5-6.319a.457.457,0,0,1,.708,0l1.06,1.219,4.44,5.1A.638.638,0,0,1,7821.854,888.8Z" transform="translate(-7485 401.291)" fill="#999"/>
  </g>
</svg>
