<svg xmlns="http://www.w3.org/2000/svg" viewBox="0 0 18.3 16.8"><defs><style>.cls-1{fill:#d71c51;}.cls-2{fill:#d81950;}.cls-3{fill:#fff;}</style></defs><title>Asset 3</title><g id="Layer_2" data-name="Layer 2"><g id="レイヤー_1" data-name="レイヤー 1"><rect class="cls-1" y="5.1" width="14.8" height="7.87"/><polygon class="cls-2" points="5.9 0.4 5.5 0.4 5.5 16.8 18.3 16.8 18.3 4.2 14.1 0 5.5 0 5.5 0.4 5.9 0.4 5.9 0.8 13.8 0.8 17.5 4.6 17.5 16 6.3 16 6.3 0.4 5.9 0.4 5.9 0.8 5.9 0.4"/><path class="cls-3" d="M3.6,9.8v1.3H2.9V7.3H4.3l.8.2.5.4a1.5,1.5,0,0,1,.1.7.9.9,0,0,1-.4.8,1.3,1.3,0,0,1-1,.4Zm0-.7H4.8a.6.6,0,0,0,.1-.4.7.7,0,0,0-.1-.5H3.6Z"/><path class="cls-3" d="M6.3,11.1V7.3H7.4l.9.2a1.3,1.3,0,0,1,.6.7,2.9,2.9,0,0,1,.2.9v.2a2.9,2.9,0,0,1-.2.9.9.9,0,0,1-.6.6l-.9.3ZM7,8v2.5h.4a.9.9,0,0,0,.7-.3c.2-.2.2-.5.2-.9V9.1c0-.4,0-.7-.2-.9A.8.8,0,0,0,7.4,8Z"/><path class="cls-3" d="M11.9,9.5H10.5v1.6H9.7V7.3h2.4V8H10.5v.9h1.4Z"/></g></g></svg>