<svg xmlns="http://www.w3.org/2000/svg" viewBox="0 0 18.3 16.8"><defs><style>.cls-1{fill:#5b9ad8;}.cls-2{fill:#fff;}</style></defs><title>Asset 4</title><g id="Layer_2" data-name="Layer 2"><g id="レイヤー_1" data-name="レイヤー 1"><rect class="cls-1" y="5.1" width="14.8" height="7.87"/><polygon class="cls-1" points="5.9 0.4 5.5 0.4 5.5 16.8 18.3 16.8 18.3 4.2 14.1 0 5.5 0 5.5 0.4 5.9 0.4 5.9 0.8 13.8 0.8 17.5 4.6 17.5 16 6.3 16 6.3 0.4 5.9 0.4 5.9 0.8 5.9 0.4"/><path class="cls-2" d="M2.5,11.1V7.3H3.6l.9.2a1.3,1.3,0,0,1,.6.7,2.9,2.9,0,0,1,.2.9v.2a2.9,2.9,0,0,1-.2.9.9.9,0,0,1-.6.6l-.9.3ZM3.2,8v2.5h.4a.9.9,0,0,0,.7-.3c.2-.2.2-.5.2-.9V9.1c0-.4,0-.7-.2-.9A.8.8,0,0,0,3.6,8Z"/><path class="cls-2" d="M9,9.3a3,3,0,0,1-.2,1l-.6.6-.8.2-.9-.2a1.5,1.5,0,0,1-.5-.6,1.6,1.6,0,0,1-.2-1V9.1a1.6,1.6,0,0,1,.2-1,1.5,1.5,0,0,1,.5-.6,1.5,1.5,0,0,1,.9-.2,1.1,1.1,0,0,1,.8.2c.2.1.4.4.6.6a3,3,0,0,1,.2,1Zm-.8-.2A2,2,0,0,0,8,8.2l-.6-.3a.6.6,0,0,0-.6.3c-.2.2-.2.5-.2.9v.2c0,.4,0,.7.2.9a.6.6,0,0,0,.6.3.9.9,0,0,0,.6-.3,2,2,0,0,0,.2-.9Z"/><path class="cls-2" d="M12.5,9.8a1.9,1.9,0,0,1-.5,1,1.7,1.7,0,0,1-1,.3,1.3,1.3,0,0,1-1.2-.5,1.7,1.7,0,0,1-.4-1.3V9.1a3,3,0,0,1,.2-1,1.5,1.5,0,0,1,.5-.6,1.5,1.5,0,0,1,.9-.2,1.7,1.7,0,0,1,1,.3,1.9,1.9,0,0,1,.5,1h-.8a.8.8,0,0,0-.2-.5L11,7.9a.6.6,0,0,0-.6.3,1.9,1.9,0,0,0-.2.8v.3a2,2,0,0,0,.2.9.6.6,0,0,0,.6.3l.5-.2a.6.6,0,0,0,.2-.5Z"/></g></g></svg>