<svg xmlns="http://www.w3.org/2000/svg" width="16.008" height="14" viewBox="0 0 16.008 14">
  <path id="Path_2210" data-name="Path 2210" d="M5819.5,4359h-1v-3a.5.5,0,0,0-.5-.5h-5.5V4353h1a.5.5,0,0,0,.5-.5v-3a.5.5,0,0,0-.5-.5h-3a.5.5,0,0,0-.5.5v3a.5.5,0,0,0,.5.5h1v2.5H5806a.5.5,0,0,0-.5.5v3H5804.5a.5.5,0,0,0-.5.5v3a.5.5,0,0,0,.5.5h3a.5.5,0,0,0,.5-.5v-3a.5.5,0,0,0-.5-.5h-.992v-2.409a.091.091,0,0,1,.091-.091h4.909v2.5h-1a.5.5,0,0,0-.5.5v3a.5.5,0,0,0,.5.5h3a.5.5,0,0,0,.5-.5v-3a.5.5,0,0,0-.5-.5h-1v-2.5h4.909a.091.091,0,0,1,.091.091V4359h-1a.5.5,0,0,0-.5.5v3a.5.5,0,0,0,.5.5h3a.5.5,0,0,0,.5-.5v-3A.5.5,0,0,0,5819.5,4359Z" transform="translate(-5803.996 -4349)" fill="#999"/>
</svg>
