<svg xmlns="http://www.w3.org/2000/svg" width="16.912" height="16.578" viewBox="0 0 16.912 16.578">
  <g id="ic-group-duplication.svg" transform="translate(-387.788 -675.622)">
    <path id="_6" data-name="6" d="M14.5,16.7A2.7,2.7,0,0,0,18.1,13a2.3,2.3,0,0,0-1-1,2.7,2.7,0,0,0-3.7,3.7A2.3,2.3,0,0,0,14.5,16.7Zm-.4-3.4a2,2,0,0,1,1.7-.9l1,.2a1.6,1.6,0,0,1,.7.7,2.1,2.1,0,0,1-.1,2,2,2,0,0,1-1.7.9h0l-1-.2a1.6,1.6,0,0,1-.7-.7,2.1,2.1,0,0,1,.1-2ZM20.4,17a2,2,0,0,0,1.7-3.2l-.5-.5a2.1,2.1,0,0,0-2.6.3,3.2,3.2,0,0,1-.3,2.3A2,2,0,0,0,20.4,17Zm-.7-3.1.7-.2.8.2.3.3a1.4,1.4,0,0,1,.1,1.5,1.307,1.307,0,0,1-2.1.3,3.9,3.9,0,0,0,.3-1.5,3.8,3.8,0,0,0,0-.6Zm-.1,6.5v-.3h-.1l-.2-.3-.2-.2H19l-.2-.2h0a2.6,2.6,0,0,0-1.8-.7H14.4a2.6,2.6,0,0,0-1.8.7h0l-.2.2h-.1l-.2.2-.2.3h-.1v.3h0a2.6,2.6,0,0,0,0,.5v2.7h8V21a2.6,2.6,0,0,0,0-.5ZM19.1,23H12.5V21a1.9,1.9,0,0,1,0-.3h0v-.2h0V20H13l.2-.2a2,2,0,0,1,1.3-.5h2.7a2,2,0,0,1,1.3.5h.3v.3h0v.2h0a2,2,0,0,1,0,.3Zm2.5-4.6H19.1A3.3,3.3,0,0,1,20.4,21v1.3h3.3V20.6a2.2,2.2,0,0,0-2.2-2.3Zm1.5,3.3h-2V21a4,4,0,0,0-.5-2h.9A1.6,1.6,0,0,1,23,20.5Z" transform="translate(376 664)" fill="#0f6eb5"/>
    <path id="_5" data-name="5" d="M28.5,24.6a3,3,0,0,0-3-2.9h-.6a2.7,2.7,0,0,0,1.8-1.3,2.8,2.8,0,0,0-.1-2.9,2.1,2.1,0,0,0-.8-.8,3,3,0,0,0-1.5-.4,2.7,2.7,0,0,0-1.6.6v-.2a3,3,0,0,0-1.4-1.4,3.7,3.7,0,0,0-1.6-.4,3.3,3.3,0,0,0-2.9,1.6,3.4,3.4,0,0,0-.1,3.4,3,3,0,0,0,1.4,1.4l1.1.3h-.8a3.4,3.4,0,0,0-2.3.9l-.3.3V23l-.2.2-.2.4v.6h0a3.3,3.3,0,0,0-.1.6v3.4h9.4V27h4Z" transform="translate(376 664)" fill="#fff"/>
    <path id="_4" data-name="4" d="M24.4,21a2,2,0,0,0,1.7-3.2l-.5-.5a2.1,2.1,0,0,0-2.6.3,3.2,3.2,0,0,1-.3,2.3A2,2,0,0,0,24.4,21Z" transform="translate(376 664)" fill="#0f6eb5"/>
    <path id="_3" data-name="3" d="M18.5,20.7A2.7,2.7,0,0,0,22.1,17a2.3,2.3,0,0,0-1-1,2.7,2.7,0,0,0-3.7,3.7,2.3,2.3,0,0,0,1.1,1Z" transform="translate(376 664)" fill="#0f6eb5"/>
    <path id="_2" data-name="2" d="M23.7,24.4v-.3h-.1l-.2-.3-.2-.2h-.1l-.2-.2h0a2.6,2.6,0,0,0-1.8-.7H18.4a2.6,2.6,0,0,0-1.8.7h0l-.2.2h-.1l-.2.2-.2.3h-.1v.3h0a2.6,2.6,0,0,0,0,.5v2.7h8V25a2.6,2.6,0,0,0,0-.5Z" transform="translate(376 664)" fill="#0f6eb5"/>
    <path id="_1" data-name="1" d="M25.5,22.3H23.1A3.3,3.3,0,0,1,24.4,25v1.3h3.3V24.6a2.2,2.2,0,0,0-2.2-2.3Z" transform="translate(376 664)" fill="#0f6eb5"/>
  </g>
</svg>
