<svg xmlns="http://www.w3.org/2000/svg" viewBox="0 0 16 16"><defs><style>.cls-1{fill:#999;}</style></defs><title>ic-help</title><g id="Layer_2" data-name="Layer 2"><g id="コンテンツ"><path class="cls-1" d="M8,1.5A6.5,6.5,0,1,1,1.5,8,6.5,6.5,0,0,1,8,1.5M8,0a8,8,0,1,0,8,8A8,8,0,0,0,8,0Z"/><circle class="cls-1" cx="8" cy="11" r="1"/><path class="cls-1" d="M10.4,6.1A2.1,2.1,0,0,0,8.1,4,3,3,0,0,0,5.8,5.1l-.2.2,1.2,1H7a1.1,1.1,0,0,1,.9-.5.5.5,0,0,1,.6.6c0,.3-.3.5-.6.8A2.8,2.8,0,0,0,7,9.3v.2H8.8V9.2c-.1-.6.3-.9.7-1.3A2.8,2.8,0,0,0,10.4,6.1Z"/></g></g></svg>