<svg xmlns="http://www.w3.org/2000/svg" width="20" height="21.135" viewBox="0 0 20 21.135">
  <g id="Group_28302" data-name="Group 28302" transform="translate(-918 -877.865)">
    <path id="Path_31016" data-name="Path 31016" d="M2,0H16c1.1,0,1.58,1.062,1.58,2.167L17.9,13.38a2.543,2.543,0,0,1-2.234,2.356H2.224A1.818,1.818,0,0,1,.4,13.786L.294,2.167C.294,1.062.9,0,2,0Z" transform="translate(918 878)" fill="#999"/>
    <path id="Path_31015" data-name="Path 31015" d="M24.585,33.082a2.018,2.018,0,0,1-1.467.758q-6.825.051-13.651,0a2.535,2.535,0,0,1-2.161-2.625q-.028-5.349,0-10.7a2.537,2.537,0,0,1,2.161-2.625q6.825-.052,13.651,0a2.531,2.531,0,0,1,2.161,2.625q.026,5.349,0,10.7a3.008,3.008,0,0,1-.4,1.458.4.4,0,0,1-.082.255.31.31,0,0,1-.208.154ZM18.52,26.157l-.352.412a2.521,2.521,0,0,1-3.908,0l-.077-.09L8.63,32.745a1.36,1.36,0,0,0,.844.335q6.818.051,13.636,0a1.41,1.41,0,0,0,.943-.426l-5.533-6.5Zm-10.3-6.68a2.138,2.138,0,0,0-.291,1.049q-.028,5.34,0,10.68a2.161,2.161,0,0,0,.262,1l5.541-6.253L8.221,19.476Zm16.078-.1L18.97,25.629l5.488,6.445a2.16,2.16,0,0,0,.2-.868q.026-5.34,0-10.68a2.144,2.144,0,0,0-.354-1.147Zm-.48-.492a1.314,1.314,0,0,0-.709-.236c-4.538-.034-9.077,0-13.616,0a1.354,1.354,0,0,0-.82.3c2.012,2.365,4.015,4.742,6.039,7.091a1.961,1.961,0,0,0,3.021-.023l6.083-7.135Z" transform="translate(910.709 860)" fill="#fff"/>
    <rect id="Rectangle_18248" data-name="Rectangle 18248" width="8" height="8" transform="translate(928 888)" fill="#fff"/>
    <text id="_" data-name="@" transform="translate(928 896)" fill="#999" font-size="10" font-family="SegoeUI-Semibold, Segoe UI" font-weight="600"><tspan x="0" y="0">@</tspan></text>
  </g>
</svg>
