<svg xmlns="http://www.w3.org/2000/svg" width="16" height="17" viewBox="0 0 16 17">
  <g id="Group_28272" data-name="Group 28272" transform="translate(-498.938 -35.502)">
    <g id="Group_1148" data-name="Group 1148" transform="translate(-1281 -3115)">
      <path id="Path_460" data-name="Path 460" d="M1795.438,3163.5h-1a.5.5,0,0,0-.5.5v1.5h-12V3164a.5.5,0,0,0-.5-.5h-1a.5.5,0,0,0-.5.5v2.5a1,1,0,0,0,1,1h14a1,1,0,0,0,1-1V3164A.5.5,0,0,0,1795.438,3163.5Z" fill="#999"/>
    </g>
    <path id="Path_31074" data-name="Path 31074" d="M1782.791,3158.563a.5.5,0,0,0,.708,0l3.439-3.44V3163a.5.5,0,0,0,.5.5h1a.5.5,0,0,0,.5-.5v-7.879l3.439,3.44a.5.5,0,0,0,.708,0l.707-.707a.5.5,0,0,0,0-.707l-5.5-5.5a.5.5,0,0,0-.707,0l-5.5,5.5a.5.5,0,0,0,0,.707Z" transform="translate(2294.876 3199.004) rotate(180)" fill="#999"/>
  </g>
</svg>
