<svg xmlns="http://www.w3.org/2000/svg" width="16.036" height="16" viewBox="0 0 16.036 16">
  <g id="Group_28307" data-name="Group 28307" transform="translate(-917.98 -1058)">
    <g id="Rectangle_18235" data-name="Rectangle 18235" transform="translate(918 1058)" fill="#fff" stroke="#999" stroke-width="1.5">
      <rect width="16" height="16" rx="2" stroke="none"/>
      <rect x="0.75" y="0.75" width="14.5" height="14.5" rx="1.25" fill="none"/>
    </g>
    <path id="Path_31013" data-name="Path 31013" d="M2,0H14a2,2,0,0,1,2,2c0,1.1.036,1.072,0,2H0c-.046-.77,0-.9,0-2A2,2,0,0,1,2,0Z" transform="translate(918 1058)" fill="#666"/>
    <line id="Line_2191" data-name="Line 2191" x2="11" transform="translate(920.5 1068.5)" fill="none" stroke="#999" stroke-width="1.5"/>
    <line id="Line_2192" data-name="Line 2192" x2="11" transform="translate(920.5 1065.5)" fill="none" stroke="#999" stroke-width="1.5"/>
    <g id="Path_31005" data-name="Path 31005" transform="translate(923 1063)" fill="#fff">
      <path d="M 9.861142158508301 9.219517707824707 C 9.745632171630859 9.219517707824707 9.610772132873535 9.195587158203125 9.471132278442383 9.150297164916992 C 8.967032432556152 8.986817359924316 7.964622497558594 7.89174747467041 7.413832664489746 7.166377067565918 L 7.210732460021973 6.89890718460083 L 6.886322498321533 6.985757350921631 L 5.063164710998535 7.47384786605835 L 2.929810285568237 6.614964962005615 C 2.262698411941528 5.784722328186035 2.022857666015625 4.921841621398926 2.216782569885254 4.048457145690918 C 2.454442501068115 2.978087186813354 3.2991623878479 2.150697231292725 3.983442544937134 1.834907293319702 C 4.541562557220459 1.577327251434326 5.364392280578613 1.435477256774902 6.300332546234131 1.435477256774902 C 7.405862331390381 1.435477256774902 8.263822555541992 1.629547357559204 8.623692512512207 1.821887254714966 C 8.685551643371582 1.854945421218872 8.714334487915039 1.879558086395264 8.725831985473633 1.891069054603577 C 8.725062370300293 1.966366291046143 8.648652076721191 2.161781549453735 8.597192764282227 2.293367385864258 C 8.44077205657959 2.693397283554077 8.226532936096191 3.241247415542603 8.370332717895508 3.916627407073975 C 8.572432518005371 4.865747451782227 8.059632301330566 5.672967433929443 7.86658239364624 5.97685718536377 L 7.842682361602783 6.014557361602783 L 7.608302593231201 6.386277198791504 L 7.946842670440674 6.666447162628174 C 8.052202224731445 6.753647327423096 8.176772117614746 6.851477146148682 8.308662414550781 6.955047130584717 C 8.912172317504883 7.429017066955566 9.824222564697266 8.14527702331543 10.06821250915527 8.787787437438965 C 10.15062236785889 9.004796981811523 10.13211250305176 9.120517730712891 10.1108226776123 9.151387214660645 C 10.08818244934082 9.184197425842285 10.00039291381836 9.219517707824707 9.861142158508301 9.219517707824707 Z" stroke="none"/>
      <path d="M 6.300332546234131 1.935477256774902 C 5.447742462158203 1.935477256774902 4.679632663726807 2.064287185668945 4.192952632904053 2.288887023925781 C 3.598692417144775 2.563137054443359 2.896732330322266 3.292827129364014 2.704892158508301 4.156837463378906 C 2.553158760070801 4.840219974517822 2.733688354492188 5.527099132537842 3.241582870483398 6.201482772827148 L 5.095078945159912 6.947695732116699 L 6.757012367248535 6.502767086029053 L 6.981664657592773 6.442622661590576 L 7.419742584228516 5.74787712097168 L 7.444542407989502 5.708747386932373 C 7.622982501983643 5.427857398986816 8.040852546691895 4.770077228546143 7.881302833557129 4.02075719833374 C 7.712350845336914 3.227313995361328 7.944921016693115 2.590024948120117 8.113582611083984 2.157224655151367 C 7.745955467224121 2.046290397644043 7.11461877822876 1.935477256774902 6.300332546234131 1.935477256774902 M 6.300329208374023 0.9354791641235352 C 7.350765228271484 0.9354791641235352 8.355311393737793 1.111514091491699 8.859373092651367 1.380917549133301 C 9.797852516174316 1.88250732421875 8.605472564697266 2.620057106018066 8.859373092651367 3.812497138977051 C 9.113282203674316 5.004947185516357 8.45947265625 5.973817348480225 8.265623092651367 6.281247138977051 C 8.871902465820313 6.782997131347656 10.18408203125 7.684507369995117 10.53564262390137 8.610286712646484 C 10.80984783172607 9.332365989685059 10.45023441314697 9.71951961517334 9.861147880554199 9.71951961517334 C 9.694964408874512 9.71951961517334 9.510522842407227 9.68871021270752 9.316892623901367 9.625917434692383 C 8.436892509460449 9.340527534484863 7.015622615814209 7.468747138977051 7.015622615814209 7.468747138977051 L 5.031252384185791 7.999997138977051 L 2.625002861022949 7.031247138977051 C 0.503422737121582 4.519747257232666 2.301272392272949 2.060546875 3.773922443389893 1.380917549133301 C 4.455603122711182 1.066328048706055 5.395044803619385 0.9354791641235352 6.300329208374023 0.9354791641235352 Z" stroke="none" fill="#fff"/>
    </g>
    <path id="Path_2082" data-name="Path 2082" d="M979.927,43.22l-2.483-2.484a3.011,3.011,0,1,0-.708.707l2.484,2.484a.249.249,0,0,0,.353,0l.354-.354a.249.249,0,0,0,0-.354m-2.951-3.9a2,2,0,1,1-2.292-2.292,2.009,2.009,0,0,1,2.292,2.292" transform="translate(-46.663 1028.491)" fill="#999"/>
  </g>
</svg>
