<svg xmlns="http://www.w3.org/2000/svg" width="17" height="17.424" viewBox="0 0 17 17.424">
  <g id="Group_28308" data-name="Group 28308" transform="translate(-917.43 -1100)">
    <path id="iconfinder_folder-o_1608887" d="M79.692,142.3v-8.5a1.228,1.228,0,0,0-.286-.821.879.879,0,0,0-.695-.338H71.519a.879.879,0,0,1-.695-.338,1.228,1.228,0,0,1-.286-.821V130.7a1.228,1.228,0,0,0-.286-.821.879.879,0,0,0-.695-.338H66.288a.879.879,0,0,0-.695.338,1.228,1.228,0,0,0-.286.821V142.3a1.228,1.228,0,0,0,.286.821.879.879,0,0,0,.695.338H78.712a.879.879,0,0,0,.695-.338A1.228,1.228,0,0,0,79.692,142.3ZM81,133.8v8.5a2.857,2.857,0,0,1-.674,1.908,2.049,2.049,0,0,1-1.614.8H66.288a2.049,2.049,0,0,1-1.614-.8A2.857,2.857,0,0,1,64,142.3V130.7a2.857,2.857,0,0,1,.674-1.908,2.049,2.049,0,0,1,1.614-.8h3.269a2.049,2.049,0,0,1,1.614.8,2.857,2.857,0,0,1,.674,1.908v.386h6.865a2.049,2.049,0,0,1,1.614.8A2.857,2.857,0,0,1,81,133.8Z" transform="translate(853.43 972.424)" fill="#999"/>
    <rect id="Rectangle_18247" data-name="Rectangle 18247" width="8" height="3" rx="1.5" transform="translate(926 1100)" fill="#999"/>
  </g>
</svg>
