<svg xmlns="http://www.w3.org/2000/svg" xmlns:xlink="http://www.w3.org/1999/xlink" width="23" height="22" viewBox="0 0 23 22"><defs><clipPath id="b"><rect width="23" height="22"/></clipPath></defs><g id="a" clip-path="url(#b)"><rect width="23" height="22" fill="#fff"/><g transform="translate(-647 -32)"><g transform="translate(1097 254)"><g transform="translate(-1173 -450)"><path d="M735.029,230.971h1.779s1.232.116,1.232,1.2v15.652a1.232,1.232,0,0,1-1.232,1.229H725.192s-1.22-.142-1.22-1.229V232.174c0-1.087,1.22-1.2,1.22-1.2h1.78v-.963l-1.78-.008A2.141,2.141,0,0,0,723,232.174v15.652A2.141,2.141,0,0,0,725.192,250h11.616A2.141,2.141,0,0,0,739,247.826V232.174A2.141,2.141,0,0,0,736.808,230h-1.779ZM731,228a1.934,1.934,0,0,0-2,2.008,1.023,1.023,0,0,0-1,1.018.972.972,0,0,0,1,.974h4a.917.917,0,0,0,1-.974.963.963,0,0,0-1-1.018A1.934,1.934,0,0,0,731,228Zm1,2a1,1,0,1,0-1,1A1,1,0,0,0,732,230Z" fill="#116eb3" fill-rule="evenodd"/></g></g><path d="M1940.489,6195h-2.539v-2.7a.292.292,0,0,0-.282-.3h-.564a.292.292,0,0,0-.282.3v2.7h-2.539a.292.292,0,0,0-.282.3v.6a.292.292,0,0,0,.282.3h2.539v2.7a.292.292,0,0,0,.282.3h.564a.292.292,0,0,0,.282-.3v-2.7h2.539a.292.292,0,0,0,.282-.3v-.6A.292.292,0,0,0,1940.489,6195Z" transform="translate(-1271 -6152)" fill="#116eb3"/></g></g></svg>