<svg xmlns="http://www.w3.org/2000/svg" width="18" height="20.17" viewBox="0 0 18 20.17">
  <g id="Group_28311" data-name="Group 28311" transform="translate(-917 -651)">
    <g id="Rectangle_18226" data-name="Rectangle 18226" transform="translate(918 653)" fill="#fff" stroke="#999" stroke-width="1.5">
      <rect width="16" height="16" stroke="none"/>
      <rect x="0.75" y="0.75" width="14.5" height="14.5" fill="none"/>
    </g>
    <g id="Rectangle_18227" data-name="Rectangle 18227" transform="translate(917 651)" fill="#fff" stroke="#999" stroke-width="0.5">
      <rect width="3" height="2.5" stroke="none"/>
      <rect x="0.25" y="0.25" width="2.5" height="2" fill="none"/>
    </g>
    <g id="Rectangle_18228" data-name="Rectangle 18228" transform="translate(932 651)" fill="#fff" stroke="#999" stroke-width="0.5">
      <rect width="3" height="2.5" stroke="none"/>
      <rect x="0.25" y="0.25" width="2.5" height="2" fill="none"/>
    </g>
    <g id="Path_31001" data-name="Path 31001" transform="translate(932 669)" fill="#fff">
      <path d="M 2.75 1.750001430511475 L 0.25 1.750001430511475 L 0.25 -0.2380385547876358 L 2.75 -0.2380385547876358 L 2.75 1.750001430511475 Z" stroke="none"/>
      <path d="M 0.5 0.01196146011352539 L 0.5 1.500001430511475 L 2.5 1.500001430511475 L 2.5 0.01196146011352539 L 0.5 0.01196146011352539 M 0 -0.4880385398864746 L 3 -0.4880385398864746 L 3 2.000001430511475 L 0 2.000001430511475 L 0 -0.4880385398864746 Z" stroke="none" fill="#999"/>
    </g>
    <g id="Path_31000" data-name="Path 31000" transform="translate(917 669)" fill="#fff">
      <path d="M 2.75 1.92041015625 L 0.25 1.92041015625 L 0.25 -0.07958984375 L 2.75 -0.07958984375 L 2.75 1.92041015625 Z" stroke="none"/>
      <path d="M 0.5 0.17041015625 L 0.5 1.67041015625 L 2.5 1.67041015625 L 2.5 0.17041015625 L 0.5 0.17041015625 M 0 -0.32958984375 L 3 -0.32958984375 L 3 2.17041015625 L 0 2.17041015625 L 0 -0.32958984375 Z" stroke="none" fill="#999"/>
    </g>
    <text id="A" transform="translate(921 660)" fill="#999" font-size="6.5" font-family="SegoeUI-Semibold, Segoe UI" font-weight="600"><tspan x="0" y="0">A</tspan></text>
    <line id="Line_2179" data-name="Line 2179" x2="5" transform="translate(926.5 656.5)" fill="none" stroke="#999" stroke-width="1.2"/>
    <line id="Line_2180" data-name="Line 2180" x2="5" transform="translate(926.5 659.5)" fill="none" stroke="#999" stroke-width="1.2"/>
    <line id="Line_2181" data-name="Line 2181" x2="11" transform="translate(920.5 662.5)" fill="none" stroke="#999" stroke-width="1.2"/>
    <line id="Line_2182" data-name="Line 2182" x2="11" transform="translate(920.5 665.5)" fill="none" stroke="#999" stroke-width="1.2"/>
  </g>
</svg>
