<svg xmlns="http://www.w3.org/2000/svg" width="15.86" height="16.867" viewBox="0 0 15.86 16.867">
  <path id="Path_31018" data-name="Path 31018" d="M19.751,7.485,14.7,11.823a2.63,2.63,0,0,0,0,4.118,3.674,3.674,0,0,0,2.4.853h0a3.67,3.67,0,0,0,2.4-.853L24.549,11.6a2.611,2.611,0,0,0,.636-3.363l-1.11.953a1.542,1.542,0,0,1-.532,1.546l-5.182,4.447,0,0a2.2,2.2,0,0,1-1.324.427,2.114,2.114,0,0,1-1.381-.488,1.55,1.55,0,0,1-.569-1.2,1.593,1.593,0,0,1,.5-1.12l0,0,.071-.061.029-.025.009-.007.017-.015,5.054-4.339a2.13,2.13,0,0,1,1.391-.494,2.3,2.3,0,0,1,.4.036l1.111-.954a3.861,3.861,0,0,0-1.514-.3,3.673,3.673,0,0,0-2.4.853M29.563,2.84A2.7,2.7,0,0,0,28.569.781a3.8,3.8,0,0,0-4.8,0L18.717,5.119a2.611,2.611,0,0,0-.637,3.361l1.063-.912A1.564,1.564,0,0,1,19.6,6.094l0,0,.07-.06.028-.025L19.706,6l.018-.015,5.054-4.338a2.205,2.205,0,0,1,2.784,0,1.527,1.527,0,0,1,0,2.389L22.381,8.482l0,0a2.2,2.2,0,0,1-1.324.427,2.318,2.318,0,0,1-.391-.033L19.6,9.785a3.864,3.864,0,0,0,1.516.306,3.672,3.672,0,0,0,2.4-.853L28.569,4.9a2.7,2.7,0,0,0,.994-2.06" transform="translate(-13.703 0.072)" fill="#999"/>
</svg>
