<svg xmlns="http://www.w3.org/2000/svg" viewBox="0 0 16 16"><defs><style>.cls-1{fill:#999;}</style></defs><title>ic-Integration</title><g id="Layer_2" data-name="Layer 2"><g id="コンテンツ"><path class="cls-1" d="M15,5H11V1a.9.9,0,0,0-1-1H1A.9.9,0,0,0,0,1v9a.9.9,0,0,0,1,1H5v4a.9.9,0,0,0,1,1h9a.9.9,0,0,0,1-1V6A.9.9,0,0,0,15,5Zm-4.4-.3.7.7-.6.6L10,5.3ZM2,2.7,2.7,2,5.6,4.9V3.6h1v3h-3v-1H4.9Zm3.4,8.6-.7-.7.6-.6.7.7ZM6.7,10,6,9.3l.7-.7.7.7ZM8,8.7,7.3,8,8,7.3l.7.7Zm.6-2L9.3,6l.7.7-.7.7ZM13.3,14l-2.9-2.9v1.3h-1v-3h3v1H11.1L14,13.3Z"/></g></g></svg>