<svg xmlns="http://www.w3.org/2000/svg" width="11.998" height="11.322" viewBox="0 0 11.998 11.322">
  <path id="Path_30343" data-name="Path 30343" d="M302.843,577.661a3.434,3.434,0,0,1-2.3-.88l-5.4-4.844a3.446,3.446,0,0,1-.264-4.86l.192-.214a1.573,1.573,0,0,1,2.225-.12l1.066.955a1.576,1.576,0,0,1,.12,2.226l-.384.428,3.7,3.32.385-.429a1.576,1.576,0,0,1,2.225-.12l1.066.955a1.576,1.576,0,0,1,.12,2.226l-.19.212a3.448,3.448,0,0,1-2.564,1.145" transform="translate(-294.002 -566.339)" fill="#999"/>
</svg>
