<svg xmlns="http://www.w3.org/2000/svg" width="12.004" height="18.5" viewBox="0 0 12.004 18.5">
  <g id="Group_26109" data-name="Group 26109" transform="translate(0.002 0)">
    <path id="iconfinder_102_111044" d="M70.182,36.272V38.6h-.811a1.225,1.225,0,0,0-1.081,1.33v6.65a1.225,1.225,0,0,0,1.081,1.33h8.651A1.225,1.225,0,0,0,79.1,46.58V39.93a1.225,1.225,0,0,0-1.081-1.33h-.811V36.272c0-2.387-1.574-4.322-3.515-4.322S70.182,33.885,70.182,36.272ZM71.534,38.6V36.272a2.209,2.209,0,1,1,4.326,0V38.6Zm1.081,3.657a1.1,1.1,0,1,1,2.163,0,1.424,1.424,0,0,1-.495,1.117s.106.785.224,1.709a.459.459,0,0,1-.406.5h-.811a.459.459,0,0,1-.405-.5l.224-1.709A1.424,1.424,0,0,1,72.616,42.257Z" transform="translate(-67.712 -31.95)" fill="#0f6eb5" fill-rule="evenodd"/>
    <path id="Path_31017" data-name="Path 31017" d="M.422.047l12-.047" transform="translate(-0.422 17.953)" fill="none" stroke="#0f6eb5" stroke-width="1"/>
  </g>
</svg>
