<svg id="Layer_1" data-name="Layer 1" xmlns="http://www.w3.org/2000/svg" viewBox="0 0 12 12"><defs><style>.cls-1{fill:#f4f4f4;}.cls-2{fill:#38c07c;}</style></defs><title>ic-label-share</title><circle class="cls-1" cx="6" cy="6" r="6"/><path class="cls-2" d="M7.7,7.3a1.1,1.1,0,0,0-.8.3L5,6.3V5.7L6.9,4.4a1.1,1.1,0,0,0,.8.3A1.3,1.3,0,0,0,9,3.4,1.3,1.3,0,0,0,7.7,2,1.3,1.3,0,0,0,6.4,3.4v.3L4.5,5a1.1,1.1,0,0,0-.8-.3,1.3,1.3,0,0,0,0,2.6A1.1,1.1,0,0,0,4.5,7L6.4,8.3v.3A1.3,1.3,0,0,0,7.7,10,1.3,1.3,0,0,0,9,8.6,1.3,1.3,0,0,0,7.7,7.3Z" transform="translate(0 0)"/></svg>