<svg id="ボタン_別窓" xmlns="http://www.w3.org/2000/svg" width="24" height="24" viewBox="0 0 24 24">
    <path id="Path_270" data-name="Path 270" d="M1781.231,4942.065l4.707-4.707V4941a.5.5,0,0,0,.5.5h1a.5.5,0,0,0,.5-.5v-6.557a.5.5,0,0,0-.5-.5h-6.557a.5.5,0,0,0-.5.5v1a.5.5,0,0,0,.5.5h3.643l-4.707,4.707a.5.5,0,0,0,0,.707l.707.707A.5.5,0,0,0,1781.231,4942.065Z" transform="translate(-1767.938 -4929.944)" fill="#f9f9f9"/>
    <path id="Path_271" data-name="Path 271" d="M1785.938,4944.423v3.521h-12v-12h3.5a.5.5,0,0,0,.5-.5v-1a.5.5,0,0,0-.5-.5h-4.5a1,1,0,0,0-1,1v14a1,1,0,0,0,1,1h14a1,1,0,0,0,1-1v-4.521a.5.5,0,0,0-.5-.5h-1A.5.5,0,0,0,1785.938,4944.423Z" transform="translate(-1767.938 -4929.944)" fill="#f9f9f9"/>
    <rect id="Rectangle_786" data-name="Rectangle 786" width="24" height="24" rx="8" fill="none"/>
</svg>
