<svg xmlns="http://www.w3.org/2000/svg" width="18.581" height="25.087" viewBox="0 0 18.581 25.087">
  <g id="Group_25856" data-name="Group 25856" transform="translate(0.001)">
    <path id="iconfinder_102_111044" d="M71.334,38.057v3.288h-1.3a1.813,1.813,0,0,0-1.739,1.879v9.395A1.813,1.813,0,0,0,70.029,54.5H83.943a1.813,1.813,0,0,0,1.739-1.879V43.224a1.813,1.813,0,0,0-1.739-1.879h-1.3V38.057a5.669,5.669,0,1,0-11.3,0Zm2.174,3.288V38.057a3.489,3.489,0,1,1,6.957,0v3.288Zm1.739,5.167a1.744,1.744,0,1,1,3.478,0,1.917,1.917,0,0,1-.8,1.578s.17,1.109.361,2.414a.679.679,0,0,1-.652.7h-1.3a.679.679,0,0,1-.652-.7l.361-2.414A1.917,1.917,0,0,1,75.247,46.512Z" transform="translate(-67.712 -31.95)" fill="#010101" fill-rule="evenodd"/>
    <path id="Path_31017" data-name="Path 31017" d="M.422.047,19,0" transform="translate(-0.422 24.54)" fill="none" stroke="#010101" stroke-width="1"/>
  </g>
</svg>
