<svg xmlns="http://www.w3.org/2000/svg" viewBox="0 0 15.8 16"><defs><style>.cls-1{fill:#0f6eb5;}</style></defs><title>ic-map-blue</title><g id="Layer_2" data-name="Layer 2"><g id="コンテンツ"><path class="cls-1" d="M9.4.3,7.9,0A3.3,3.3,0,0,0,5,5.1L7.6,9.8c.1.3.4.3.5,0l2.7-4.7A3.4,3.4,0,0,0,9.4.3ZM7.9,4.4A1.3,1.3,0,0,1,6.6,3.1,1.2,1.2,0,0,1,7.9,1.9,1.2,1.2,0,0,1,9.1,3.1,1.2,1.2,0,0,1,7.9,4.4Z"/><path class="cls-1" d="M14,7.4a.7.7,0,0,0-.5-.4H10.9l-.6,1h.2l.2,1.5H9.5l-.5.9h1.8l.2,2H8.4V10.9h-1v1.6H4.8l.2-2H6.9l-.2-.2-.4-.8H5.1L5.3,8h.1L4.9,7H2.3a.5.5,0,0,0-.5.4L0,15.4a.5.5,0,0,0,.5.6H15.3a.4.4,0,0,0,.4-.6ZM3.5,15H1.1l.4-1.5H3.7Zm.3-2.5H1.7l.4-2H4Zm.3-3H2.3L2.7,8H4.3ZM7.4,15H4.5l.2-1.5H7.4Zm1,0V13.5h2.7l.2,1.5Zm3.1-7h1.6l.3,1.5H11.7Zm.3,2.5h1.8l.5,2H12Zm.5,4.5-.2-1.5h2.2l.3,1.5Z"/></g></g></svg>