<svg xmlns="http://www.w3.org/2000/svg" width="21.096" height="16.073" viewBox="0 0 21.096 16.073">
  <g id="ic-category" transform="translate(-870.223 -338.11)">
    <path id="Path_2" data-name="Path 2" d="M885.326,354.182q-2.283,0-4.566,0c-.173,0-.346-.01-.519-.019a.968.968,0,0,1-.977-.956c-.018-1.29-.005-2.581-.01-3.871,0-.158.087-.17.206-.169.372,0,.744.008,1.116,0,.178-.005.223.065.222.233-.007.976,0,1.952,0,2.928,0,.327,0,.328.314.328,2.788,0,5.575,0,8.363.006.255,0,.313-.07.312-.317q-.013-3.636,0-7.271a.712.712,0,0,0-.229-.547q-2.331-2.319-4.65-4.65a.741.741,0,0,0-.571-.237q-1.638.011-3.276,0c-.2,0-.267.054-.266.263.008,1.646,0,3.292.01,4.938,0,.234-.07.294-.291.283-.355-.017-.712-.009-1.067,0-.137,0-.189-.039-.189-.182.005-1.944,0-3.888.009-5.832a.972.972,0,0,1,1.022-.988q2.11-.01,4.219,0a1.885,1.885,0,0,1,1.362.568q2.445,2.435,4.878,4.878a1.983,1.983,0,0,1,.576,1.46q0,4.02,0,8.04a1.024,1.024,0,0,1-1.128,1.123C888.569,354.185,886.947,354.182,885.326,354.182Z" fill="#999"/>
    <path id="Path_3" data-name="Path 3" d="M873.974,348.156a.431.431,0,0,0,.174.245q1.041,1.045,2.086,2.088c.336.337.338.579.009.911-.2.2-.394.4-.6.6a.5.5,0,0,1-.77,0q-2.241-2.232-4.472-4.473a.5.5,0,0,1,.006-.768q2.232-2.239,4.473-4.472a.5.5,0,0,1,.752,0c.2.193.4.395.6.6.343.345.345.579,0,.93-.688.692-1.38,1.38-2.068,2.071-.061.062-.146.108-.168.21.091.064.193.033.287.033q3.386,0,6.772,0c.589,0,.739.148.739.727v.644c0,.494-.162.659-.65.659h-7.166Z" fill="#999"/>
  </g>
</svg>
