<svg xmlns="http://www.w3.org/2000/svg" width="15.602" height="16.1" viewBox="0 0 15.602 16.1">
  <g id="Group_26604" data-name="Group 26604" transform="translate(-508 -580)">
    <path id="_3" data-name="3" d="M15.46,12.9l-2.7-2.7a.3.3,0,0,0-.4,0l-.4.4a.3.3,0,0,0,0,.4l1.5,1.5h-3.4a.3.3,0,0,0-.3.3v.6a.3.3,0,0,0,.3.3h3.5l-1.5,1.5a.3.3,0,0,0,0,.4l.4.4a.3.3,0,0,0,.4,0l2.7-2.7a.29.29,0,0,0-.1-.4Z" transform="translate(508 580)" fill="#0f6db5"/>
    <path id="_2" data-name="2" d="M5,7.2A3.6,3.6,0,1,0,1.4,3.6,3.6,3.6,0,0,0,5,7.2Z" transform="translate(508 580)" fill="#0f6db5"/>
    <path id="_1" data-name="1" d="M7.7,13.1A5,5,0,0,1,9,9.8,3.54,3.54,0,0,0,6.8,9H3.3a3.53,3.53,0,0,0-2.4.9h0l-.3.3v.2l-.2.3-.3.5V12a4.17,4.17,0,0,0-.1.6v3.5H9a5,5,0,0,1-1.3-3Z" transform="translate(508 580)" fill="#0f6db5"/>
  </g>
</svg>
