<svg id="Layer_1" data-name="Layer 1" xmlns="http://www.w3.org/2000/svg" viewBox="0 0 15 17"><defs><style>.cls-1{fill:#0f6db5;}</style></defs><title>ic-person-delete-blue</title><g id="Group_28273" data-name="Group 28273"><g id="ic-add-manager"><path id="_2" data-name=" 2" class="cls-1" d="M5,0A3.6,3.6,0,1,1,1.4,3.6,3.6,3.6,0,0,1,5,0Z"/><path id="_1" data-name=" 1" class="cls-1" d="M9,9.7a3.5,3.5,0,0,0-2.2-.8H3.3a3.6,3.6,0,0,0-2.4.9h0l-.3.3v.2l-.2.3-.3.5v.8a1.3,1.3,0,0,0-.1.6V16H3.8l1-4h1l1,4H8.7A5,5,0,0,1,9,9.7ZM5.6,11.4H4.5L4,9.6H6.1Z"/></g><path id="ic-close-up" class="cls-1" d="M15,11.4l-.4-.4h-.4L12,13.3,9.8,11H9.4l-.4.4v.4L11.3,14,9,16.2v.4l.4.4h.4L12,14.7,14.2,17h.4l.4-.4v-.4L12.7,14,15,11.8Z"/></g></svg>