<svg xmlns="http://www.w3.org/2000/svg" width="15.6" height="16.1" viewBox="0 0 15.6 16.1">
  <g id="ic-undo-employee" transform="translate(-12.3 -11.9)">
    <path id="_3" data-name="3" d="M22.1,25.2l2.7,2.7a.3.3,0,0,0,.4,0l.4-.4a.3.3,0,0,0,0-.4l-1.5-1.5h3.5a.3.3,0,0,0,.3-.3v-.6a.3.3,0,0,0-.3-.3H24.2l1.5-1.5a.3.3,0,0,0,0-.4l-.4-.4a.3.3,0,0,0-.4,0l-2.7,2.7a.3.3,0,0,0-.1.4Z" fill="#0f6db5"/>
    <path id="_2" data-name="2" d="M17.3,19.1a3.6,3.6,0,1,0-3.6-3.6A3.6,3.6,0,0,0,17.3,19.1Z" fill="#0f6db5"/>
    <path id="_1" data-name="1" d="M20,25a5,5,0,0,1,1.3-3.3,3.5,3.5,0,0,0-2.2-.8H15.6a3.5,3.5,0,0,0-2.4.9h0l-.3.3v.2l-.2.3-.3.5v.8a3.5,3.5,0,0,0-.1.6V28h9A5,5,0,0,1,20,25Z" fill="#0f6db5"/>
  </g>
</svg>
