<svg xmlns="http://www.w3.org/2000/svg" width="15.05" height="21.5" viewBox="0 0 15.05 21.5">
  <path id="ic_directions_run_24px" d="M12.8,5.48a1.944,1.944,0,0,0,1.87-2,1.944,1.944,0,0,0-1.87-2,1.944,1.944,0,0,0-1.87,2A1.944,1.944,0,0,0,12.8,5.48ZM9.433,19.38l.935-4.4,1.963,2v6H14.2v-7.5l-1.963-2,.561-3a6.666,6.666,0,0,0,5.141,2.5v-2a4.547,4.547,0,0,1-4.02-2.4l-.935-1.6a1.91,1.91,0,0,0-1.589-1c-.28,0-.467.1-.748.1L5.788,8.28v4.7h1.87V9.58l1.683-.7-1.5,8.1-4.58-1-.374,2Z" transform="translate(-2.89 -1.48)" fill="#ffba46"/>
</svg>
