<svg xmlns="http://www.w3.org/2000/svg" width="16" height="16" viewBox="0 0 16 16">
  <g id="Group_27198" data-name="Group 27198" transform="translate(-514.885 -19)">
    <path id="Path_8788" data-name="Path 8788" d="M3609,1732h-4.167a.833.833,0,0,0-.833.833V1744.5a.836.836,0,0,0,.833.833h8.334a.836.836,0,0,0,.833-.833V1737Z" transform="translate(-3089.115 -1713)" fill="#0f6eb5"/>
    <path id="Path_8793" data-name="Path 8793" d="M3618.707,1742.081l-4.388,4.387-.309,1.36c-.04.121.041.2.162.161l1.359-.309,4.387-4.387c.085-.084.107-.2.051-.253l-1.009-1.009c-.056-.056-.17-.033-.253.05" transform="translate(-3089.115 -1713)" fill="#0f6eb5"/>
  </g>
</svg>
