<svg id="Layer_1" data-name="Layer 1" xmlns="http://www.w3.org/2000/svg" viewBox="0 0 12 14"><defs><style>.cls-1{fill:#999;}</style></defs><title>ic-popup-social</title><path class="cls-1" d="M10,13.3H9.5l-8-5.3a1.1,1.1,0,0,1-.3-.7.8.8,0,0,1,.3-.7S10.4,1,10.7,1.4,3.5,7.2,3.5,7.2l7,4.6a1.1,1.1,0,0,1,.2,1.2.9.9,0,0,1-.7.3" transform="translate(0)"/><path class="cls-1" d="M10,13.3H9.5l-8-5.3a1.1,1.1,0,0,1-.3-.7.8.8,0,0,1,.3-.7S10.4,1,10.7,1.4,3.5,7.2,3.5,7.2l7,4.6a1.1,1.1,0,0,1,.2,1.2.9.9,0,0,1-.7.3" transform="translate(0)"/><path class="cls-1" d="M10,13.3H9.5l-8-5.3a1.1,1.1,0,0,1-.3-.7.8.8,0,0,1,.3-.7S10.4,1,10.7,1.4,3.5,7.2,3.5,7.2l7,4.6a1.1,1.1,0,0,1,.2,1.2.9.9,0,0,1-.7.3" transform="translate(0)"/><path class="cls-1" d="M12,2.5a2.5,2.5,0,0,1-5,0,2.5,2.5,0,0,1,5,0" transform="translate(0)"/><path class="cls-1" d="M5,7.5A2.5,2.5,0,0,1,2.5,10a2.5,2.5,0,0,1,0-5A2.5,2.5,0,0,1,5,7.5" transform="translate(0)"/><path class="cls-1" d="M12,11.5A2.5,2.5,0,1,1,9.5,9,2.5,2.5,0,0,1,12,11.5" transform="translate(0)"/></svg>