<svg xmlns="http://www.w3.org/2000/svg" width="15" height="17" viewBox="0 0 15 17">
  <g id="Group_28273" data-name="Group 28273" transform="translate(-15.062 -12)">
    <g id="ic-add-manager" transform="translate(2.762)">
      <path id="_2" data-name="2" d="M17.3,12a3.6,3.6,0,1,1-3.6,3.6A3.6,3.6,0,0,1,17.3,12Z" fill="#999"/>
      <path id="_1" data-name="1" d="M21.3,21.7a3.5,3.5,0,0,0-2.2-.8H15.6a3.5,3.5,0,0,0-2.4.9h0l-.3.3v.2l-.2.3-.3.5v.8a3.5,3.5,0,0,0-.1.6V28h3.8l1-4h1l1,4H21a4.9,4.9,0,0,1,.3-6.3Zm-3.4,1.7H16.8l-.5-1.8h2.1Z" fill="#999"/>
    </g>
    <path id="ic-close-up" d="M5.979.507,5.578.1H5.227L3.019,2.388.812.1H.461L.06.507a.412.412,0,0,0,0,.356L2.317,3.1.06,5.337a.412.412,0,0,0,0,.356l.4.407H.812L3.019,3.812,5.227,6.1h.351l.4-.407a.412.412,0,0,0,0-.356L3.722,3.1,5.979.863A.412.412,0,0,0,5.979.507Z" transform="translate(24.043 22.9)" fill="#999"/>
  </g>
</svg>
