<svg xmlns="http://www.w3.org/2000/svg" width="15" height="16" viewBox="0 0 15 16">
  <g id="Group_28272" data-name="Group 28272" transform="translate(-603 -37)">
    <g id="ic-add-manager" transform="translate(590.7 25)">
      <path id="_2" data-name="2" d="M17.3,12a3.6,3.6,0,1,1-3.6,3.6A3.6,3.6,0,0,1,17.3,12Z" fill="#999"/>
      <path id="_1" data-name="1" d="M21.3,21.7a3.5,3.5,0,0,0-2.2-.8H15.6a3.5,3.5,0,0,0-2.4.9h0l-.3.3v.2l-.2.3-.3.5v.8a3.5,3.5,0,0,0-.1.6V28h3.8l1-4h1l1,4H21a4.9,4.9,0,0,1,.3-6.3Zm-3.4,1.7H16.8l-.5-1.8h2.1Z" fill="#999"/>
    </g>
    <path id="ic_check_24px" d="M5.317,8.746,3.894,7.5l-.484.421L5.317,9.59,9.41,6.011,8.929,5.59Z" transform="translate(608.59 42.41)" fill="#999"/>
  </g>
</svg>
