<svg id="ic-plus" xmlns="http://www.w3.org/2000/svg" width="14.534" height="14.534" viewBox="0 0 14.534 14.534">
  <path id="ic-plus-2" data-name="ic-plus" d="M4.358,2.233A7,7,0,0,1,9.5.109a7,7,0,0,1,5.142,2.124,7,7,0,0,1,2.124,5.142,7,7,0,0,1-2.124,5.142A7,7,0,0,1,9.5,14.641a7,7,0,0,1-5.142-2.124A7,7,0,0,1,2.234,7.375,7,7,0,0,1,4.358,2.233ZM13.719,8.2V6.555a.311.311,0,0,0-.352-.352h-2.7V3.5a.311.311,0,0,0-.352-.352H8.68a.311.311,0,0,0-.352.352V6.2h-2.7a.311.311,0,0,0-.352.352V8.2a.311.311,0,0,0,.352.352h2.7v2.7a.311.311,0,0,0,.352.352h1.64a.311.311,0,0,0,.352-.352v-2.7h2.7a.311.311,0,0,0,.347-.352Z" transform="translate(-2.233 -0.108)" fill="#0f6db5"/>
</svg>
