<svg xmlns="http://www.w3.org/2000/svg" viewBox="0 0 21.9 18"><defs><style>.cls-1{fill:#999;}</style></defs><title>Asset 1</title><g id="Layer_2" data-name="Layer 2"><g id="Layer_1-2" data-name="Layer 1"><path class="cls-1" d="M10.7,10.1a3.7,3.7,0,0,1,2.3.7,4.6,4.6,0,0,1,2.3,4v1.5a1.3,1.3,0,0,1-.5,1.2,1.6,1.6,0,0,1-1.1.5H1.6a1.6,1.6,0,0,1-1.1-.5A1.7,1.7,0,0,1,0,16.3V14.8a4.6,4.6,0,0,1,2.3-4,3.9,3.9,0,0,1,2.3-.7h.6a5.4,5.4,0,0,0,2.5.6,5.7,5.7,0,0,0,2.5-.6ZM7.7,9a4,4,0,0,1-2.2-.6A4.1,4.1,0,0,1,3.9,6.8a4.7,4.7,0,0,1,0-4.6A4.1,4.1,0,0,1,5.5.6,4,4,0,0,1,7.7,0,4.3,4.3,0,0,1,9.9.6a4.9,4.9,0,0,1,1.6,1.6A5.9,5.9,0,0,1,12,4.5a5.9,5.9,0,0,1-.5,2.3A4.9,4.9,0,0,1,9.9,8.4,4.3,4.3,0,0,1,7.7,9ZM21.3,7.3a.5.5,0,0,1,.4.2.5.5,0,0,1,.2.4V9a.5.5,0,0,1-.2.4l-.4.2H19.2v2.2a.5.5,0,0,1-.2.4l-.4.2H17.5l-.4-.2c-.1-.1-.1-.2-.1-.4V9.6H14.8l-.4-.2a.5.5,0,0,1-.2-.4V7.9a.5.5,0,0,1,.2-.4.5.5,0,0,1,.4-.2H17V5.1c0-.2,0-.3.1-.4l.4-.2h1.1l.4.2a.5.5,0,0,1,.2.4V7.3Z"/></g></g></svg>