<svg xmlns="http://www.w3.org/2000/svg" width="11.029" height="10.411" viewBox="0 0 11.029 10.411">
  <path id="iconfinder_09_111025" d="M37.464,31.949c-1.964,0-3.934.332-4.648.993a3.524,3.524,0,0,0-.857,2.132s-.009.061-.009.087a.447.447,0,0,0,.459.434c.03,0,1.135-.085,1.8-.137a.382.382,0,0,0,.048-.009.447.447,0,0,0,.448-.434l0-.855a.493.493,0,0,1,.508-.477h4.494a.493.493,0,0,1,.508.477l0,.855a.447.447,0,0,0,.448.434.371.371,0,0,0,.048.009c.666.052,1.771.137,1.8.137a.447.447,0,0,0,.46-.434c0-.026-.009-.087-.009-.087a3.524,3.524,0,0,0-.857-2.132C41.4,32.281,39.429,31.949,37.464,31.949Zm0,5.639a.869.869,0,1,0,.919.868A.894.894,0,0,0,37.464,37.588Zm-.689-1.952v-.542a.575.575,0,0,0-1.149,0v.542l-3.1,3.125a1.056,1.056,0,0,0-.347.776v.87a.894.894,0,0,0,.919.868h.23v.542a.575.575,0,0,0,1.149,0v-.542h5.974v.542a.575.575,0,0,0,1.149,0v-.542h.23a.894.894,0,0,0,.919-.868v-.87a1.056,1.056,0,0,0-.347-.776l-3.1-3.125v-.542a.575.575,0,0,0-1.149,0v.542Zm.689,1.084a1.738,1.738,0,1,1-1.838,1.735A1.788,1.788,0,0,1,37.464,36.721Z" transform="translate(-31.95 -31.949)" fill="#707070" fill-rule="evenodd"/>
</svg>
