<svg xmlns="http://www.w3.org/2000/svg" width="16" height="16" viewBox="0 0 16 16">
  <g id="Group_27199" data-name="Group 27199" transform="translate(-610.885 -18.977)">
    <path id="Path_8791" data-name="Path 8791" d="M3710.586,1732.977l4.414,4.415v6.918h-8v-11.333h3.586m.414-1h-4.167a.833.833,0,0,0-.833.833v11.667a.836.836,0,0,0,.833.833h8.334a.836.836,0,0,0,.833-.833v-7.5Z" transform="translate(-3089.115 -1713)" fill="#999"/>
    <path id="Path_8792" data-name="Path 8792" d="M3704.586,1735.644l4.414,4.415v6.918h-8v-11.333h3.586m.414-1h-4.167a.834.834,0,0,0-.833.833v11.667a.836.836,0,0,0,.833.833h8.334a.836.836,0,0,0,.833-.833v-7.5Z" transform="translate(-3089.115 -1713)" fill="#999"/>
  </g>
</svg>
