<svg xmlns="http://www.w3.org/2000/svg" width="15.049" height="21.5" viewBox="0 0 15.049 21.5">
    <path id="ic_directions_run_24px" d="M8.031,5.48a1.944,1.944,0,0,1-1.869-2,1.944,1.944,0,0,1,1.869-2,1.944,1.944,0,0,1,1.869,2A1.944,1.944,0,0,1,8.031,5.48ZM11.4,19.38l-.935-4.4-1.963,2v6H6.629v-7.5l1.963-2-.561-3a6.666,6.666,0,0,1-5.141,2.5v-2a4.546,4.546,0,0,0,4.019-2.4l.935-1.6a1.91,1.91,0,0,1,1.589-1c.28,0,.467.1.748.1l4.861,2.2v4.7H13.172V9.58l-1.683-.7,1.5,8.1,4.58-1,.374,2Z" transform="translate(-2.89 -1.48)" fill="#0f6eb5"/>
</svg>
