<svg xmlns="http://www.w3.org/2000/svg" width="15.1" height="16.2" viewBox="0 0 15.1 16.2">
  <g id="ic-del-employee" transform="translate(-12.6 -11.9)">
    <path id="_3" data-name="3" d="M17.7,19.1a3.6,3.6,0,1,0-3.6-3.6A3.6,3.6,0,0,0,17.7,19.1Z" fill="#0f6db5"/>
    <path id="_2" data-name="2" d="M20.4,25a5,5,0,0,1,1.3-3.3,3.5,3.5,0,0,0-2.2-.8H15.9a3.5,3.5,0,0,0-2.4.9h0l-.3.3v.2l-.2.3-.3.5v.8a3.5,3.5,0,0,0-.1.6V28h9a5,5,0,0,1-1.2-3Z" fill="#0f6db5"/>
    <path id="_1" data-name="1" d="M27.5,22.4H25.8v-.2a.2.2,0,0,0-.2-.2h-.4a.2.2,0,0,0-.2.2v.2H23.3l-.2.2V23l.2.2h.2v4.5a.4.4,0,0,0,.4.4h3a.4.4,0,0,0,.4-.4V23.1h.2l.2-.2v-.4Zm-2.8,4.9h-.4V23.9h.4Zm.9,0h-.4V23.9h.4Zm.9,0h-.4V23.9h.4Z" fill="#0f6db5"/>
  </g>
</svg>
