<svg id="矢印" xmlns="http://www.w3.org/2000/svg" width="16" height="12" viewBox="0 0 16 12">
    <g id="Group_680" data-name="Group 680" transform="translate(-3172 -1046)">
        <path id="Path_1022" data-name="Path 1022" d="M3187.5,1051h-11.879l3.439-3.44a.5.5,0,0,0,0-.707l-.706-.707a.5.5,0,0,0-.708,0l-4.439,4.44-1.061,1.06a.5.5,0,0,0,0,.708l1.061,1.06,4.439,4.44a.5.5,0,0,0,.708,0l.706-.707a.5.5,0,0,0,0-.708l-3.439-3.439H3187.5a.5.5,0,0,0,.5-.5v-1A.5.5,0,0,0,3187.5,1051Z" fill="#f9f9f9"/>
    </g>
</svg>
