<svg id="Layer_1" data-name="Layer 1" xmlns="http://www.w3.org/2000/svg" viewBox="0 0 24 23.5"><defs><style>.cls-1{fill:#ededed;}.cls-2{fill:#0f6eb5;}</style></defs><title>ic-search-hover</title><rect class="cls-1" width="24" height="23.5" rx="8" ry="8"/><path class="cls-2" d="M19.7,8.9H16.9a2,2,0,0,0-3.8,0H4.2L4,9.1v1c0,.1.1.3.2.3h8.9a2.1,2.1,0,0,0,3.8,0h2.8a.3.3,0,0,0,.3-.3v-1C20,9,19.9,8.9,19.7,8.9Z" transform="translate(0 -0.5)"/><path class="cls-2" d="M19.7,14.9H10.9a2,2,0,0,0-3.8,0H4.2l-.2.2v1c0,.1.1.3.2.3H7.1a2.1,2.1,0,0,0,3.8,0h8.8a.3.3,0,0,0,.3-.3v-1C20,15,19.9,14.9,19.7,14.9Z" transform="translate(0 -0.5)"/></svg>