<svg xmlns="http://www.w3.org/2000/svg" width="27" height="27" viewBox="0 0 27 27">
  <g id="Group_1216" data-name="Group 1216" transform="translate(-1919 -6255.002)">
    <g id="Rectangle_1013" data-name="Rectangle 1013" transform="translate(1919 6255.002)" fill="#ededed" stroke="#e5e5e5" stroke-miterlimit="10" stroke-width="1">
      <rect width="27" height="27" rx="12" stroke="none"/>
      <rect x="0.5" y="0.5" width="26" height="26" rx="11.5" fill="none"/>
    </g>
    <path id="Path_566" data-name="Path 566" d="M1944.5,6274H1940v-4.5a.5.5,0,0,0-.5-.5h-1a.5.5,0,0,0-.5.5v4.5h-4.5a.5.5,0,0,0-.5.5v1a.5.5,0,0,0,.5.5h4.5v4.5a.5.5,0,0,0,.5.5h1a.5.5,0,0,0,.5-.5V6276h4.5a.5.5,0,0,0,.5-.5v-1A.5.5,0,0,0,1944.5,6274Z" transform="translate(-6.5 -6.5)" fill="#999"/>
  </g>
</svg>
