<?xml version="1.0" encoding="utf-8"?>
<!-- Generator: Adobe Illustrator 23.0.0, SVG Export Plug-In . SVG Version: 6.00 Build 0)  -->
<svg version="1.1" id="Layer_1" xmlns="http://www.w3.org/2000/svg" xmlns:xlink="http://www.w3.org/1999/xlink" x="0px" y="0px"
	 viewBox="0 0 16 10" style="enable-background:new 0 0 16 10;" xml:space="preserve">
<style type="text/css">
	.st0{fill:#0F6EB5;}
</style>
<path class="st0" d="M15.8,1.3h-2.9C12.6,0.5,11.8,0,11,0c-0.8,0-1.6,0.5-1.9,1.3H0.3C0.1,1.3,0,1.4,0,1.5v1c0,0.2,0.1,0.3,0.3,0.3
	h0h8.8c0.5,1,1.7,1.5,2.8,1c0.4-0.2,0.8-0.6,1-1h2.9c0.1,0,0.2-0.1,0.2-0.3v-1L15.8,1.3z"/>
<path class="st0" d="M15.8,7.3H6.9c-0.5-1-1.7-1.5-2.8-1c-0.4,0.2-0.8,0.6-1,1H0.3C0.1,7.3,0,7.4,0,7.6l0,0v1c0,0.1,0.1,0.2,0.3,0.2
	h2.8c0.3,0.8,1.1,1.3,1.9,1.3c0.8,0,1.6-0.5,1.9-1.3h8.9L16,8.6v-1C16,7.4,15.9,7.3,15.8,7.3z"/>
</svg>
