<svg xmlns="http://www.w3.org/2000/svg" width="27" height="27" viewBox="0 0 27 27">
  <g id="Group_1216" data-name="Group 1216" transform="translate(-1919 -6255.002)">
    <g id="Path_6844" data-name="Path 6844" transform="translate(1919 6255.002)" fill="#ededed">
      <path d="M 15 26.5 L 12 26.5 C 8.928239822387695 26.5 6.040329933166504 25.30378913879395 3.868269920349121 23.13172912597656 C 1.696210026741028 20.95966911315918 0.5 18.0717601776123 0.5 15 L 0.5 12 C 0.5 8.928239822387695 1.696210026741028 6.040329933166504 3.868269920349121 3.868269920349121 C 6.040329933166504 1.696210026741028 8.928239822387695 0.5 12 0.5 L 15 0.5 C 18.0717601776123 0.5 20.95966911315918 1.696210026741028 23.13172912597656 3.868269920349121 C 25.30378913879395 6.040329933166504 26.5 8.928239822387695 26.5 12 L 26.5 15 C 26.5 18.0717601776123 25.30378913879395 20.95966911315918 23.13172912597656 23.13172912597656 C 20.95966911315918 25.30378913879395 18.0717601776123 26.5 15 26.5 Z" stroke="none"/>
      <path d="M 12 1 C 9.061790466308594 1 6.299449920654297 2.144199371337891 4.221820831298828 4.221820831298828 C 2.144199371337891 6.299449920654297 1 9.061790466308594 1 12 L 1 15 C 1 17.93820953369141 2.144199371337891 20.7005500793457 4.221820831298828 22.77817916870117 C 6.299449920654297 24.85580062866211 9.061790466308594 26 12 26 L 15 26 C 17.93820953369141 26 20.7005500793457 24.85580062866211 22.77817916870117 22.77817916870117 C 24.85580062866211 20.7005500793457 26 17.93820953369141 26 15 L 26 12 C 26 9.061790466308594 24.85580062866211 6.299449920654297 22.77817916870117 4.221820831298828 C 20.7005500793457 2.144199371337891 17.93820953369141 1 15 1 L 12 1 M 12 0 L 15 0 C 21.62742042541504 0 27 5.372579574584961 27 12 L 27 15 C 27 21.62742042541504 21.62742042541504 27 15 27 L 12 27 C 5.372579574584961 27 0 21.62742042541504 0 15 L 0 12 C 0 5.372579574584961 5.372579574584961 0 12 0 Z" stroke="none" fill="#0d6db5"/>
    </g>
    <path id="Path_566" data-name="Path 566" d="M1944.5,6274H1940v-4.5a.5.5,0,0,0-.5-.5h-1a.5.5,0,0,0-.5.5v4.5h-4.5a.5.5,0,0,0-.5.5v1a.5.5,0,0,0,.5.5h4.5v4.5a.5.5,0,0,0,.5.5h1a.5.5,0,0,0,.5-.5V6276h4.5a.5.5,0,0,0,.5-.5v-1A.5.5,0,0,0,1944.5,6274Z" transform="translate(-6.5 -6.5)" fill="#0d6db5"/>
  </g>
</svg>
