<svg id="Layer_1" data-name="Layer 1" xmlns="http://www.w3.org/2000/svg" viewBox="0 0 16 10"><defs><style>.cls-1{fill:#999;}</style></defs><title>ic-search</title><path class="cls-1" d="M19.8,8H16.9A2.2,2.2,0,0,0,15,6.7,2.2,2.2,0,0,0,13.1,8H4.3c-.2,0-.3.1-.3.2v1a.3.3,0,0,0,.3.3h8.8a2.1,2.1,0,0,0,3.8,0h2.9c.1,0,.2-.1.2-.3v-1Z" transform="translate(-4 -6.7)"/><path class="cls-1" d="M19.8,14H10.9a2.1,2.1,0,0,0-3.8,0H4.3a.3.3,0,0,0-.3.3v1c0,.1.1.2.3.2H7.1A2.2,2.2,0,0,0,9,16.8a2.2,2.2,0,0,0,1.9-1.3h8.9l.2-.2v-1C20,14.1,19.9,14,19.8,14Z" transform="translate(-4 -6.7)"/></svg>