<svg xmlns="http://www.w3.org/2000/svg" width="16" height="16" viewBox="0 0 16 16">
  <g id="Group_1137" data-name="Group 1137" transform="translate(-1771.938 -5199.944)">
    <path id="Path_326" data-name="Path 326" d="M1787.438,5206.444h-1.7a5.992,5.992,0,0,0-.566-1.42l1.226-1.17a.5.5,0,0,0,.017-.707l-1.38-1.447a.5.5,0,0,0-.707-.017l-1.229,1.172a6,6,0,0,0-1.664-.714v-1.7a.5.5,0,0,0-.5-.5h-2a.5.5,0,0,0-.5.5v1.7a6.012,6.012,0,0,0-1.447.582l-1.177-1.221a.5.5,0,0,0-.706-.013l-1.441,1.388a.5.5,0,0,0-.013.707l1.179,1.223a5.963,5.963,0,0,0-.7,1.637h-1.7a.5.5,0,0,0-.5.5v2a.5.5,0,0,0,.5.5h1.7a5.992,5.992,0,0,0,.6,1.483l-1.214,1.186a.5.5,0,0,0-.008.707l1.4,1.43a.5.5,0,0,0,.707.008l1.215-1.187a5.96,5.96,0,0,0,1.6.676v1.7a.5.5,0,0,0,.5.5h2a.5.5,0,0,0,.5-.5v-1.7a5.991,5.991,0,0,0,1.665-.715l1.23,1.172a.5.5,0,0,0,.707-.017l1.38-1.448a.5.5,0,0,0-.017-.707l-1.227-1.169a5.982,5.982,0,0,0,.565-1.419h1.7a.5.5,0,0,0,.5-.5v-2A.5.5,0,0,0,1787.438,5206.444Zm-7.5,3.5a2,2,0,1,1,2-2A2,2,0,0,1,1779.938,5209.944Z" fill="#0f6eb5"/>
  </g>
</svg>
