<svg xmlns="http://www.w3.org/2000/svg" viewBox="0 0 16 16"><defs><style>.cls-1{fill:#999;}</style></defs><title>ic-Switch display</title><g id="Layer_2" data-name="Layer 2"><g id="コンテンツ"><path class="cls-1" d="M15.5,5h-6C9.2,5,9,4.7,9,4.3V3.7c0-.4.2-.7.5-.7h6c.3,0,.5.3.5.7v.6C16,4.7,15.8,5,15.5,5Z"/><path class="cls-1" d="M15.5,13h-6c-.3,0-.5-.3-.5-.7v-.6c0-.4.2-.7.5-.7h6c.3,0,.5.3.5.7v.6C16,12.7,15.8,13,15.5,13Z"/><path class="cls-1" d="M6.5,0H.5A.5.5,0,0,0,0,.5v6A.5.5,0,0,0,.5,7h6A.5.5,0,0,0,7,6.5V.5A.5.5,0,0,0,6.5,0ZM3,5.2,1.3,3.5,2,2.8l1,1,2-2,.7.7Z"/><path class="cls-1" d="M6.5,9H.5a.5.5,0,0,0-.5.5v6a.5.5,0,0,0,.5.5h6a.5.5,0,0,0,.5-.5v-6A.5.5,0,0,0,6.5,9ZM3,14.2,1.3,12.5l.7-.7,1,1,2-2,.7.7Z"/></g></g></svg>