<svg xmlns="http://www.w3.org/2000/svg" viewBox="0 0 12 16"><defs><style>.cls-1{fill:#0f6eb5;}</style></defs><title>ic-Timeline-blue</title><g id="Layer_2" data-name="Layer 2"><g id="コンテンツ"><path class="cls-1" d="M11,0H1A.9.9,0,0,0,0,1V12a.9.9,0,0,0,1,1H7l2.8,3H10V13h1a.9.9,0,0,0,1-1V1A.9.9,0,0,0,11,0ZM5,6H7.9V7H5ZM3,11a.9.9,0,0,1-1-1A.9.9,0,0,1,3,9a.9.9,0,0,1,1,1A.9.9,0,0,1,3,11ZM3,7.5a.9.9,0,0,1-1-1,.9.9,0,0,1,1-1,.9.9,0,0,1,1,1A.9.9,0,0,1,3,7.5ZM3,4A.9.9,0,0,1,2,3,.9.9,0,0,1,3,2,.9.9,0,0,1,4,3,.9.9,0,0,1,3,4ZM5,9.5H8.6v1H5Zm5-6H5v-1h5Z"/></g></g></svg>