<svg xmlns="http://www.w3.org/2000/svg" viewBox="0 0 20 20"><defs><style>.cls-1{fill:none;}.cls-2,.cls-5{fill:#666;}.cls-2{opacity:0.5;}.cls-3{fill:#ccc;}.cls-4{fill:#8c8b8b;}.cls-6{fill:#999;}.cls-7{fill:#fff;}</style></defs><title>ic-title-modal</title><g id="Layer_2" data-name="Layer 2"><g id="コンテンツ"><rect class="cls-1" width="20" height="20" rx="8" ry="8"/><path class="cls-2" d="M9,2h4a4,4,0,0,1,4,4V20a0,0,0,0,1,0,0H5a0,0,0,0,1,0,0V6A4,4,0,0,1,9,2Z"/><path class="cls-3" d="M16,18H4V2A2,2,0,0,1,6,0h8a2,2,0,0,1,2,2Z"/><path class="cls-4" d="M11.9,12H8V18h4V12.1Z"/><rect class="cls-5" x="8.5" y="12.5" width="3" height="5"/><path class="cls-6" d="M11,13v4H9V13h2m1-1H8v6h4V12Z"/><rect class="cls-7" x="11" y="8" width="2" height="2"/><rect class="cls-7" x="11" y="5" width="2" height="2"/><rect class="cls-7" x="11" y="2" width="2" height="2"/><rect class="cls-7" x="7" y="8" width="2" height="2"/><rect class="cls-7" x="7" y="5" width="2" height="2"/><rect class="cls-7" x="7" y="2" width="2" height="2"/></g></g></svg>