<svg id="Component_4_1" data-name="Component 4 – 1" xmlns="http://www.w3.org/2000/svg" width="19" height="19" viewBox="0 0 19 19">
  <path id="Path_3624" data-name="Path 3624" d="M42,251H32c-2.209,0-4-2.175-4-4.857v-7.286c0-2.682,1.791-4.857,4-4.857H42c2.209,0,4,2.175,4,4.857v7.286c0,2.682-1.791,4.857-4,4.857" transform="translate(-27 -232)" fill="#0b537f"/>
  <path id="Path_3625" data-name="Path 3625" d="M41,249H31c-2.209,0-4-2.175-4-4.857v-7.286c0-2.682,1.791-4.857,4-4.857H41c2.209,0,4,2.175,4,4.857v7.286c0,2.682-1.791,4.857-4,4.857" transform="translate(-27 -232)" fill="#fff"/>
  <rect id="Rectangle_2806" data-name="Rectangle 2806" width="6" height="1" transform="translate(9 7.2)" fill="#666"/>
  <rect id="Rectangle_2807" data-name="Rectangle 2807" width="6" height="1" transform="translate(9 4.8)" fill="#666"/>
  <rect id="Rectangle_2808" data-name="Rectangle 2808" width="6" height="2" transform="translate(9 9.714)" fill="#666"/>
  <path id="Path_3626" data-name="Path 3626" d="M34,236.5a1.5,1.5,0,1,1-1.5-1.5,1.5,1.5,0,0,1,1.5,1.5" transform="translate(-27 -231.308)" fill="#09f"/>
  <path id="Path_3627" data-name="Path 3627" d="M35,242H30v-1a2,2,0,0,1,2-2h1a2,2,0,0,1,2,2Z" transform="translate(-27 -230.385)" fill="#09f"/>
</svg>
