<svg xmlns="http://www.w3.org/2000/svg" viewBox="0 0 13 16"><defs><style>.cls-1{fill:#999;}</style></defs><title>ic-update</title><g id="Layer_2" data-name="Layer 2"><g id="コンテンツ"><path class="cls-1" d="M12.4,10h-1a.7.7,0,0,0-.5.4,4.4,4.4,0,0,1-5.1,3.5,4.8,4.8,0,0,1-3.7-3.4A4.5,4.5,0,0,1,6.5,5H9.4L7.9,6.4c-.2.2-.2.6,0,.7l.7.8h.8l2.4-2.5,1.1-1a1.1,1.1,0,0,0,0-.8l-1.1-1L9.4.1H8.6L7.9.9c-.2.1-.2.5,0,.7L9.4,3H6A6.6,6.6,0,0,0,.1,10.4a6.4,6.4,0,0,0,5.5,5.5,6.5,6.5,0,0,0,7.3-5.3A.5.5,0,0,0,12.4,10Z"/></g></g></svg>