<svg xmlns="http://www.w3.org/2000/svg" xmlns:xlink="http://www.w3.org/1999/xlink" width="25" height="19" viewBox="0 0 25 19"><defs><clipPath id="b"><rect width="25" height="19"/></clipPath></defs><g id="a" clip-path="url(#b)"><rect width="25" height="19" fill="#fff"/><g transform="translate(0 -27.06)"><ellipse cx="2.454" cy="3.268" rx="2.454" ry="3.268" transform="translate(16.833 31.076)" fill="#999"/><ellipse cx="2.454" cy="3.268" rx="2.454" ry="3.268" transform="translate(2.462 31.076)" fill="#999"/><path d="M29.248,67.906h0q-.081.154-.159.312h0A11.29,11.29,0,0,0,28,73.136H41.614a11.3,11.3,0,0,0-1.08-4.895h0q-.078-.159-.159-.312h0A6.5,6.5,0,0,0,34.817,64.1a6.5,6.5,0,0,0-5.559,3.833Z" transform="translate(-22.706 -26.963)" fill="#999"/><path d="M0,72.55H3.922a12.408,12.408,0,0,1,2.594-6.189,3.929,3.929,0,0,0-4.455.861A7.4,7.4,0,0,0,0,72.55Z" transform="translate(0 -28.391)" fill="#999"/><ellipse cx="3.398" cy="4.524" rx="3.398" ry="4.524" transform="translate(8.704 28.06)" fill="#999"/><path d="M95.14,66a3.828,3.828,0,0,0-1.6.358,12.408,12.408,0,0,1,2.594,6.189h3.922C100.056,68.931,97.855,66,95.14,66Z" transform="translate(-75.853 -28.387)" fill="#999"/></g></g></svg>