<svg xmlns="http://www.w3.org/2000/svg" width="23" height="18" viewBox="0 0 23 18">
  <g id="Group_27974" data-name="Group 27974" transform="translate(-753 -629)">
    <g id="Polygon_1" data-name="Polygon 1" transform="translate(753 629)" fill="#ffc86c">
      <path d="M 22.08722305297852 17.5 L 0.9127769470214844 17.5 L 11.5 0.9286943674087524 L 22.08722305297852 17.5 Z" stroke="none"/>
      <path d="M 11.5 1.857398986816406 L 1.825559616088867 17 L 21.17444038391113 17 L 11.5 1.857398986816406 M 11.5 0 L 23 18 L 0 18 L 11.5 0 Z" stroke="none" fill="#ffc86c"/>
    </g>
    <g id="Path_31086" data-name="Path 31086" transform="translate(763 635)" fill="#fff">
      <path d="M 2.075833082199097 5.687438488006592 L 1.017299294471741 5.687438488006592 L 0.5246797800064087 0.2498255372047424 C 0.7969903349876404 0.08443938940763474 1.21766996383667 -0.1215815320611 1.567379951477051 -0.1215815320611 C 1.899666786193848 -0.1215815320611 2.25631046295166 0.07226062566041946 2.481613874435425 0.2288255542516708 L 2.075833082199097 5.687438488006592 Z" stroke="none"/>
      <path d="M 1.567379951477051 0.3784184455871582 C 1.426185369491577 0.3784184455871582 1.235066413879395 0.4446334838867188 1.052260875701904 0.5316672325134277 L 1.47404956817627 5.187438488006592 L 1.611617088317871 5.187438488006592 L 1.96024489402771 0.4976520538330078 C 1.824607253074646 0.4288582801818848 1.682135581970215 0.3784184455871582 1.567379951477051 0.3784184455871582 M 1.567379951477051 -0.6215815544128418 C 2.317379951477051 -0.6215815544128418 3 -1.430511474609375e-06 3 -1.430511474609375e-06 L 2.540040016174316 6.187438488006592 L 0.5605499744415283 6.187438488006592 L 0 -1.430511474609375e-06 C 0 -1.430511474609375e-06 0.8173799514770508 -0.6215815544128418 1.567379951477051 -0.6215815544128418 Z" stroke="none" fill="#fff"/>
    </g>
    <g id="Ellipse_83" data-name="Ellipse 83" transform="translate(763 642)" fill="#fff" stroke="#fff" stroke-width="1">
      <circle cx="1.5" cy="1.5" r="1.5" stroke="none"/>
      <circle cx="1.5" cy="1.5" r="1" fill="none"/>
    </g>
  </g>
</svg>
