<svg xmlns="http://www.w3.org/2000/svg" width="29.526" height="30.848" viewBox="0 0 29.526 30.848">
  <g id="ボタン_閉じる" transform="translate(-12583.792 -5804.027)">
    <path id="Path_68" data-name="Path 68" d="M12613.033,5811.646l-1.383-1.342a1,1,0,0,0-1.384,0l-8.686,8.42-8.684-8.42a1,1,0,0,0-1.383,0l-1.383,1.342a.922.922,0,0,0,0,1.34l8.683,8.421-8.683,8.42a.924.924,0,0,0,0,1.342l1.383,1.341a1,1,0,0,0,1.383,0l8.684-8.422,8.686,8.422a1,1,0,0,0,1.384,0l1.383-1.341a.929.929,0,0,0,0-1.342l-8.686-8.42,8.686-8.421A.927.927,0,0,0,12613.033,5811.646Z" transform="translate(-0.001 2.087)" fill="#dedcdc" opacity="0.36"/>
    <rect id="Rectangle_340" data-name="Rectangle 340" width="24" height="30.012" rx="8" transform="translate(12583.792 5804.027)" fill="none"/>
  </g>
</svg>
