<svg id="Layer_2" data-name="Layer 2" xmlns="http://www.w3.org/2000/svg" width="40" height="38" viewBox="0 0 40 38">
  <g id="レイヤー_1" data-name="レイヤー 1">
    <path id="Path_32" data-name="Path 32" d="M6.578.9H5.5V38H40V9.5L28.68,0H5.5V.9H6.578v.9H27.871l9.973,8.6V36.19H7.656V.9H6.578v0Z" fill="#62af85"/>
    <rect id="Rectangle_14" data-name="Rectangle 14" width="24.8" height="7.87" transform="translate(0 17.208)" fill="#62af85"/>
    <path id="Path_33" data-name="Path 33" d="M4.639,8.668,5.488,7.3H6.579l-1.333,2,1.455,2H5.609l-.97-1.368L3.791,11.3H2.7l1.333-2L2.7,7.3H3.791Z" transform="translate(0 11.905)" fill="#fff"/>
    <path id="Path_34" data-name="Path 34" d="M7.58,10.668H10.3V11.3h-4v-4H7.58Z" transform="translate(3.653 11.905)" fill="#fff"/>
    <path id="Path_35" data-name="Path 35" d="M11.889,10.316c0-.216,0-.324-.138-.324l-.825-.324L10.1,9.344a1.111,1.111,0,0,1-.825-.972.626.626,0,0,1,.138-.54A1.367,1.367,0,0,1,10.1,7.4h2.064l.55.432a.664.664,0,0,1,.275.648h-1.1a.545.545,0,0,0-.138-.432H10.513c-.138.108-.275.216-.275.324l.275.324.825.324a2.873,2.873,0,0,1,1.238.54.793.793,0,0,1,.413.756.747.747,0,0,1-.55.756A1.955,1.955,0,0,1,11.2,11.4H10.1a1.346,1.346,0,0,1-.825-.54A1.281,1.281,0,0,1,9,10.1h1.1c0,.432.413.648,1.1.648h.55A.37.37,0,0,0,11.889,10.316Z" transform="translate(6.688 11.98)" fill="#fff"/>
  </g>
</svg>
