<svg id="Layer_2" data-name="Layer 2" xmlns="http://www.w3.org/2000/svg" width="18.3" height="16.8" viewBox="0 0 18.3 16.8">
  <g id="レイヤー_1" data-name="レイヤー 1">
    <rect id="Rectangle_10" data-name="Rectangle 10" width="14.8" height="7.87" transform="translate(0 5.1)" fill="#5b9ad8"/>
    <path id="Path_18" data-name="Path 18" d="M5.9.4H5.5V16.8H18.3V4.2L14.1,0H5.5V.4h.4V.8h7.9l3.7,3.8V16H6.3V.4H5.9v0Z" fill="#5b9ad8"/>
    <path id="Path_19" data-name="Path 19" d="M2.5,11.1V7.3H3.6l.9.2a1.3,1.3,0,0,1,.6.7,2.9,2.9,0,0,1,.2.9v.2a2.9,2.9,0,0,1-.2.9.9.9,0,0,1-.6.6l-.9.3ZM3.2,8v2.5h.4a.9.9,0,0,0,.7-.3c.2-.2.2-.5.2-.9V9.1c0-.4,0-.7-.2-.9A.8.8,0,0,0,3.6,8Z" fill="#fff"/>
    <path id="Path_20" data-name="Path 20" d="M9,9.3a3,3,0,0,1-.2,1l-.6.6-.8.2-.9-.2a1.5,1.5,0,0,1-.5-.6,1.6,1.6,0,0,1-.2-1V9.1a1.6,1.6,0,0,1,.2-1,1.5,1.5,0,0,1,.5-.6,1.5,1.5,0,0,1,.9-.2,1.1,1.1,0,0,1,.8.2c.2.1.4.4.6.6a3,3,0,0,1,.2,1Zm-.8-.2A2,2,0,0,0,8,8.2l-.6-.3a.6.6,0,0,0-.6.3c-.2.2-.2.5-.2.9v.2c0,.4,0,.7.2.9a.6.6,0,0,0,.6.3.9.9,0,0,0,.6-.3,2,2,0,0,0,.2-.9Z" fill="#fff"/>
    <path id="Path_21" data-name="Path 21" d="M12.5,9.8a1.9,1.9,0,0,1-.5,1,1.7,1.7,0,0,1-1,.3,1.3,1.3,0,0,1-1.2-.5,1.7,1.7,0,0,1-.4-1.3V9.1a3,3,0,0,1,.2-1A1.319,1.319,0,0,1,11,7.3a1.7,1.7,0,0,1,1,.3,1.9,1.9,0,0,1,.5,1h-.8a.8.8,0,0,0-.2-.5L11,7.9a.6.6,0,0,0-.6.3,1.9,1.9,0,0,0-.2.8v.3a2,2,0,0,0,.2.9.6.6,0,0,0,.6.3l.5-.2a.6.6,0,0,0,.2-.5Z" fill="#fff"/>
  </g>
</svg>
