<svg id="レイヤー_1" data-name="レイヤー 1" xmlns="http://www.w3.org/2000/svg" width="42.482" height="39" viewBox="0 0 42.482 39">
  <rect id="Rectangle_12" data-name="Rectangle 12" width="27.8" height="7.87" transform="translate(0 17.779)" fill="#d71c51"/>
  <path id="Path_24" data-name="Path 24" d="M6.656.929H5.5V39H42.482V9.75L30.347,0H5.5V.929H6.656v.929H29.481l10.69,8.821V37.143H7.811V.929H6.656v0Z" fill="#d81950"/>
  <path id="Path_25" data-name="Path 25" d="M3.9,9.932V11.3h-1v-4h2l1.14.211.713.421a1.208,1.208,0,0,1,.143.737.9.9,0,0,1-.57.842A2.235,2.235,0,0,1,4.9,9.932Zm0-.737h1.71a.511.511,0,0,0,.143-.421.584.584,0,0,0-.143-.526H3.9Z" transform="translate(0.526 12.466)" fill="#fff"/>
  <path id="Path_26" data-name="Path 26" d="M6.3,11.3v-4H7.871l1.286.211a1.589,1.589,0,0,1,.857.737,2.4,2.4,0,0,1,.286.947v.211a2.4,2.4,0,0,1-.286.947,1.171,1.171,0,0,1-.857.632L7.871,11.3Zm1-3.263v2.632h.571a1.533,1.533,0,0,0,1-.316c.286-.211.286-.526.286-.947V9.195c0-.421,0-.737-.286-.947a1.437,1.437,0,0,0-1-.211Z" transform="translate(3.829 12.466)" fill="#fff"/>
  <path id="Path_27" data-name="Path 27" d="M13.367,9.616H11.033V11.3H9.7v-4h4v.737H11.033v.947h2.333Z" transform="translate(6.753 12.466)" fill="#fff"/>
</svg>
