<svg xmlns="http://www.w3.org/2000/svg" width="16" height="16" viewBox="0 0 16 16">
  <g id="Group_275" data-name="Group 275" transform="translate(-704 -1880.097)">
    <g id="Ellipse_4" data-name="Ellipse 4" transform="translate(704 1880.097)" fill="none" stroke="#979797" stroke-miterlimit="10" stroke-width="1.5">
      <circle cx="8" cy="8" r="8" stroke="none"/>
      <circle cx="8" cy="8" r="7.25" fill="none"/>
    </g>
    <g id="Ellipse_5" data-name="Ellipse 5" transform="translate(708.5 1886.097)" fill="none" stroke="#979797" stroke-miterlimit="10" stroke-width="1">
      <circle cx="1" cy="1" r="1" stroke="none"/>
      <circle cx="1" cy="1" r="0.5" fill="none"/>
    </g>
    <g id="Ellipse_6" data-name="Ellipse 6" transform="translate(713.5 1886.097)" fill="none" stroke="#979797" stroke-miterlimit="10" stroke-width="1">
      <circle cx="1" cy="1" r="1" stroke="none"/>
      <circle cx="1" cy="1" r="0.5" fill="none"/>
    </g>
    <g id="Path_159" data-name="Path 159" fill="none" stroke-miterlimit="10">
      <path d="M716.051,1890.384l-.018.018a5.5,5.5,0,0,1-8.756-.8l.813-.609a4.463,4.463,0,0,0,7.131.8c.027-.028.059-.048.085-.076h0a4.451,4.451,0,0,0,.519-.721l.806.605A5.492,5.492,0,0,1,716.051,1890.384Z" stroke="none"/>
      <path d="M 708.0900268554688 1888.989013671875 C 708.260986328125 1889.277954101563 708.4559936523438 1889.548950195313 708.6849975585938 1889.7919921875 C 709.5059814453125 1890.663940429688 710.6630249023438 1891.217041015625 711.9520263671875 1891.217041015625 C 713.1920166015625 1891.217041015625 714.3729858398438 1890.693969726563 715.2210083007813 1889.7939453125 C 715.2479858398438 1889.765991210938 715.280029296875 1889.745971679688 715.3060302734375 1889.718017578125 L 715.3070068359375 1889.718017578125 C 715.5059814453125 1889.494995117188 715.677001953125 1889.251953125 715.8259887695313 1888.996948242188 L 716.6320190429688 1889.60205078125 C 716.4619750976563 1889.876953125 716.27001953125 1890.140014648438 716.051025390625 1890.384033203125 L 716.0330200195313 1890.401977539063 C 714.9910278320313 1891.555053710938 713.5059814453125 1892.217041015625 711.9520263671875 1892.217041015625 C 710.3359985351563 1892.217041015625 708.885009765625 1891.511962890625 707.8779907226563 1890.39794921875 C 707.6539916992188 1890.150024414063 707.4530029296875 1889.883056640625 707.2769775390625 1889.598022460938 L 708.0900268554688 1888.989013671875 Z" stroke="none" fill="#979797"/>
    </g>
  </g>
</svg>
