<svg id="レイヤー_1" data-name="レイヤー 1" xmlns="http://www.w3.org/2000/svg" width="40" height="39" viewBox="0 0 40 39">
  <rect id="Rectangle_10" data-name="Rectangle 10" width="24.8" height="7.87" transform="translate(0 17.779)" fill="#5b9ad8"/>
  <path id="Path_18" data-name="Path 18" d="M6.578.929H5.5V39H40V9.75L28.68,0H5.5V.929H6.578v.929H27.871l9.973,8.821V37.143H7.656V.929H6.578v0Z" fill="#5b9ad8"/>
  <path id="Path_19" data-name="Path 19" d="M2.5,11.3v-4H4.071l1.286.211a1.589,1.589,0,0,1,.857.737,2.4,2.4,0,0,1,.286.947v.211a2.4,2.4,0,0,1-.286.947,1.171,1.171,0,0,1-.857.632L4.071,11.3Zm1-3.263v2.632h.571a1.533,1.533,0,0,0,1-.316c.286-.211.286-.526.286-.947V9.195c0-.421,0-.737-.286-.947a1.437,1.437,0,0,0-1-.211Z" transform="translate(0 12.466)" fill="#fff"/>
  <path id="Path_20" data-name="Path 20" d="M9.787,9.4a2.725,2.725,0,0,1-.249,1.05l-.747.63-1,.21-1.12-.21a1.673,1.673,0,0,1-.622-.63A1.463,1.463,0,0,1,5.8,9.4V9.19a1.463,1.463,0,0,1,.249-1.05,1.673,1.673,0,0,1,.622-.63A2.156,2.156,0,0,1,7.8,7.3a1.568,1.568,0,0,1,1,.21,3.97,3.97,0,0,1,.747.63,2.725,2.725,0,0,1,.249,1.05Zm-1-.21a1.83,1.83,0,0,0-.249-.945L7.8,7.93a.8.8,0,0,0-.747.315c-.249.21-.249.525-.249.945V9.4c0,.42,0,.735.249.945a.8.8,0,0,0,.747.315,1.206,1.206,0,0,0,.747-.315A1.83,1.83,0,0,0,8.791,9.4Z" transform="translate(2.324 12.458)" fill="#fff"/>
  <path id="Path_21" data-name="Path 21" d="M13.389,9.92a1.883,1.883,0,0,1-.643,1.048,2.552,2.552,0,0,1-1.286.314,1.865,1.865,0,0,1-1.543-.524A1.572,1.572,0,0,1,9.4,9.4v-.21A2.645,2.645,0,0,1,9.66,8.139,1.7,1.7,0,0,1,10.3,7.51,2.293,2.293,0,0,1,11.46,7.3a2.552,2.552,0,0,1,1.286.314,1.883,1.883,0,0,1,.643,1.048H12.36a.762.762,0,0,0-.257-.524l-.643-.21a.834.834,0,0,0-.771.314,1.7,1.7,0,0,0-.257.838V9.4a1.779,1.779,0,0,0,.257.943.834.834,0,0,0,.771.314l.643-.21a.576.576,0,0,0,.257-.524Z" transform="translate(4.414 12.472)" fill="#fff"/>
</svg>
