<svg id="Layer_2" data-name="Layer 2" xmlns="http://www.w3.org/2000/svg" width="40" height="38" viewBox="0 0 40 38">
  <g id="レイヤー_1" data-name="レイヤー 1">
    <rect id="Rectangle_13" data-name="Rectangle 13" width="24" height="7.87" transform="translate(0 17.208)" fill="#d71c51"/>
    <path id="Path_28" data-name="Path 28" d="M6.578.9H5.5V38H40V9.5L28.68,0H5.5V.9H6.578v.9H27.871l9.973,8.6V36.19H7.656V.9H6.578v0Z" fill="#d81950"/>
    <path id="Path_29" data-name="Path 29" d="M4.643,10.509V11.9H3.6v-4H6.728a.869.869,0,0,1,.7.522.7.7,0,0,1,.174.522,1.218,1.218,0,0,1-.521,1.043l-1.39.348Zm0-.7H6.381c0-.174.174-.174.174-.348a.7.7,0,0,0-.174-.522H4.643Z" transform="translate(0.883 11.55)" fill="#fff"/>
    <path id="Path_30" data-name="Path 30" d="M7.517,10.509V11.9H6.3v-4H9.428c.348,0,.521.174.7.522a.7.7,0,0,1,.174.522,1.218,1.218,0,0,1-.521,1.043l-1.39.348Zm0-.7H9.081c.174-.174.174-.174.174-.348s0-.522-.174-.522H7.517Z" transform="translate(3.545 11.55)" fill="#fff"/>
    <path id="Path_31" data-name="Path 31" d="M12.9,8.6H11.4v3.3h-1V8.6H8.9V7.9h4Z" transform="translate(6.147 11.55)" fill="#fff"/>
  </g>
</svg>
