<svg id="Component_115_1" data-name="Component 115 – 1" xmlns="http://www.w3.org/2000/svg" width="24" height="18.04" viewBox="0 0 24 18.04">
  <g id="ic-group-duplication.svg">
    <path id="パス_31191" data-name="パス 31191" d="M17.7,17.983a1.242,1.242,0,0,0,1.463-.242,1.262,1.262,0,0,0,.2-1.479,1.066,1.066,0,0,0-.462-.465,1.242,1.242,0,0,0-1.519.192,1.262,1.262,0,0,0-.191,1.529,1.065,1.065,0,0,0,.508.465Z" transform="translate(-13.62 -15.622)" fill="#666"/>
    <path id="パス_31192" data-name="パス 31192" d="M25.785,26.027c.461-2.48-1.492-2.7-1.492-2.7l-5.364.2c-1.313-.013-1.766,6.11-1.766,6.11l1.026.214,1.258-4.326c.483,1.72.619,11.889.619,11.889H21.3s.621-7.441,1.349-7.441c.75,0,1.378,7.441,1.378,7.441l1.29.245-.733-10.349v-2.6A6.051,6.051,0,0,0,25.785,26.027Z" transform="translate(-17.163 -19.622)" fill="#666"/>
  </g>
  <g id="ic-group-duplication.svg-2" data-name="ic-group-duplication.svg" transform="translate(14.799)">
    <path id="パス_31191-2" data-name="パス 31191" d="M17.7,17.983a1.242,1.242,0,0,0,1.463-.242,1.262,1.262,0,0,0,.2-1.479,1.066,1.066,0,0,0-.462-.465,1.242,1.242,0,0,0-1.519.192,1.262,1.262,0,0,0-.191,1.529,1.065,1.065,0,0,0,.508.465Z" transform="translate(-13.867 -15.622)" fill="#666"/>
    <path id="パス_31192-2" data-name="パス 31192" d="M26.339,29.6,27,29.26l-.878-3.509c-.714-2.277-.346-2.457-1.614-2.445H19.129C17.861,23.294,18,25.933,18,25.933l.207.769,1.243-1.752c.466,1.729,0,12.465,0,12.465h1.189s.6-7.479,1.3-7.479c.724,0,1.331,7.479,1.331,7.479l1.246.246V24.828C24.7,25.295,26.339,29.6,26.339,29.6Z" transform="translate(-17.804 -19.622)" fill="#666"/>
  </g>
  <g id="ic-group-duplication.svg-3" data-name="ic-group-duplication.svg" transform="translate(6.574)">
    <path id="パス_31191-3" data-name="パス 31191" d="M17.7,17.983a1.242,1.242,0,0,0,1.463-.242,1.262,1.262,0,0,0,.2-1.479,1.066,1.066,0,0,0-.462-.465,1.242,1.242,0,0,0-1.519.192,1.262,1.262,0,0,0-.191,1.529,1.065,1.065,0,0,0,.508.465Z" transform="translate(-12.587 -15.622)" fill="#666"/>
    <path id="パス_31192-3" data-name="パス 31192" d="M26.9,29.606l.669-.338-.882-3.505c-.717-2.274-.347-2.425-1.621-2.412h-5.09c-1.274-.013-2.815,6.255-2.815,6.255l1,.215,1.475-4.255c.468,1.727.345,11.849.345,11.849h1.194s.6-7.471,1.308-7.471c.727,0,1.337,7.471,1.337,7.471l1.251.246V24.841C25.258,25.307,26.9,29.606,26.9,29.606Z" transform="translate(-17.163 -19.622)" fill="#666"/>
  </g>
</svg>
