<svg xmlns="http://www.w3.org/2000/svg" width="13.786" height="15.9" viewBox="0 0 13.786 15.9">
  <path id="Path_160" data-name="Path 160" d="M790.517,1895.3a1.546,1.546,0,0,1-1.363-.908l-3.11-4.435a1.606,1.606,0,0,1,.2-1.736h0a1.147,1.147,0,0,1,1.779,0l.68.779v-4.95a1.272,1.272,0,0,1,1.177-1.35h0a1.272,1.272,0,0,1,1.177,1.35v-1.8a1.272,1.272,0,0,1,1.177-1.35h0a1.272,1.272,0,0,1,1.177,1.35v1.8a1.272,1.272,0,0,1,1.177-1.35h0a1.272,1.272,0,0,1,1.177,1.35v1.8a1.272,1.272,0,0,1,1.177-1.35h0a1.272,1.272,0,0,1,1.177,1.35v5.847a3.6,3.6,0,0,1-3.6,3.6h-4" transform="translate(-785.086 -1880.147)" fill="none" stroke="#0f6eb4" stroke-miterlimit="10" stroke-width="1.5"/>
</svg>
