<svg xmlns="http://www.w3.org/2000/svg" width="24.052" height="24.052" viewBox="0 0 24.052 24.052">
  <g id="Group_5516" data-name="Group 5516" transform="translate(-6900.939 -1920.654)">
    <circle id="Ellipse_153" data-name="Ellipse 153" cx="12" cy="12" r="12" transform="translate(6900.939 1920.706) rotate(-0.124)" fill="#f0e5d2"/>
    <path id="Path_3484" data-name="Path 3484" d="M6918.766,1933.962a1.671,1.671,0,0,0-.611-1.293,1.614,1.614,0,0,0-.187-2.871,1.413,1.413,0,0,0-.5-2.329,4.653,4.653,0,0,0-4.751-4.541,4.793,4.793,0,0,0-4.3,2.581,7.975,7.975,0,0,1-1.854,3.351,1.413,1.413,0,0,0,.419,1.005,1.615,1.615,0,0,0-.232,2.843,1.673,1.673,0,0,0,1.108,2.928h9.235A1.692,1.692,0,0,0,6918.766,1933.962Z" fill="#eb7324" fill-rule="evenodd"/>
    <rect id="Rectangle_3636" data-name="Rectangle 3636" width="3.956" height="7.671" transform="translate(6910.371 1931.226)" fill="#f2c696"/>
    <path id="Path_3485" data-name="Path 3485" d="M6913.805,1924.034c2.118,0,3.836,2.346,3.836,5.468s-2.183,5.841-3.836,5.841-3.835-2.719-3.835-5.841S6911.687,1924.034,6913.805,1924.034Z" fill="#f2c696" fill-rule="evenodd"/>
    <path id="Path_3486" data-name="Path 3486" d="M6914.062,1924.045a2.882,2.882,0,0,1,.893.23v5.361l.8,1.108a.455.455,0,0,1,.125.3.336.336,0,0,1-.163.282l-.762.433v3.2a2.379,2.379,0,0,1-.962.366h-.376c-1.224-.146-2.673-1.674-3.313-3.7a.827.827,0,0,1-.325.11,1.368,1.368,0,0,1-1.309-1.239c-.141-.75.217-1.411.8-1.477a.913.913,0,0,1,.51.095c.129-2.8,1.658-4.9,3.569-5.072Z" fill="#fae1c3" fill-rule="evenodd"/>
    <path id="Path_3487" data-name="Path 3487" d="M6913.731,1923.495a4.072,4.072,0,0,1,4.209,3.8.563.563,0,0,1-.562.587H6911.7a1.126,1.126,0,0,0-1.124,1.124v.366a.527.527,0,1,1-1.054,0v-1.914A4.166,4.166,0,0,1,6913.731,1923.495Z" fill="#eb7324" fill-rule="evenodd"/>
    <path id="Path_3488" data-name="Path 3488" d="M6915.859,1932.6a1.33,1.33,0,0,1-2.541,0Z" fill="#fff" fill-rule="evenodd"/>
    <path id="Path_3489" data-name="Path 3489" d="M6908.907,1937.331l1.463-.558c.038.494.91,1.837,1.979,1.837s1.94-1.343,1.978-1.837l1.463.558c1.316.5,2.561,1.153,2.561,2.561v3.514a12,12,0,0,1-12-.719v-2.8C6906.346,1938.484,6907.591,1937.834,6908.907,1937.331Z" fill="#fff" fill-rule="evenodd"/>
    <path id="Path_3490" data-name="Path 3490" d="M6908.907,1937.331l1.092-.416,2.35,7.727,2.373-7.718,1.068.407c1.316.5,2.561,1.153,2.561,2.561v3.514a12,12,0,0,1-12-.719v-2.8C6906.346,1938.484,6907.591,1937.834,6908.907,1937.331Z" fill="#77bcd0" fill-rule="evenodd"/>
  </g>
</svg>
