<svg xmlns="http://www.w3.org/2000/svg" width="24" height="24" viewBox="0 0 24 24">
  <g id="Group_5514" data-name="Group 5514" transform="translate(-6872.965 -1920.68)">
    <circle id="Ellipse_152" data-name="Ellipse 152" cx="12" cy="12" r="12" transform="translate(6872.965 1920.68)" fill="#89c790"/>
    <path id="Path_3477" data-name="Path 3477" d="M6881.537,1927.532a1.58,1.58,0,1,1-1.579,1.579A1.579,1.579,0,0,1,6881.537,1927.532Z" fill="#69493f" fill-rule="evenodd"/>
    <rect id="Rectangle_3634" data-name="Rectangle 3634" width="3.956" height="6.251" transform="translate(6882.411 1932.903)" fill="#eeb17c"/>
    <path id="Path_3478" data-name="Path 3478" d="M6880.947,1938.415h6.883a2.569,2.569,0,0,1,2.561,2.561v2.409a12,12,0,0,1-12-.669v-1.74A2.568,2.568,0,0,1,6880.947,1938.415Z" fill="#f0e5d2" fill-rule="evenodd"/>
    <path id="Path_3479" data-name="Path 3479" d="M6883.722,1938.415h1.333l-.269,1.231.376,5.032-.2,0a12.245,12.245,0,0,1-1.374-.078l.4-4.956Z" fill="#eb724c" fill-rule="evenodd"/>
    <rect id="Rectangle_3635" data-name="Rectangle 3635" width="7.666" height="11.285" rx="2.637" transform="translate(6882.012 1925.14)" fill="#eeb17c"/>
    <path id="Path_3480" data-name="Path 3480" d="M6884.649,1925.14H6887v6.057l1.01.89a.37.37,0,0,1-.039.584l-.971.651v3.1h-2.346a2.645,2.645,0,0,1-2.637-2.637v-.936a1.028,1.028,0,0,1-.313.088,1.715,1.715,0,0,1-1.642-1.554c-.176-.941.272-1.771,1-1.854a1.266,1.266,0,0,1,.953.325v-2.08A2.645,2.645,0,0,1,6884.649,1925.14Z" fill="#f8cb98" fill-rule="evenodd"/>
    <path id="Path_3481" data-name="Path 3481" d="M6883.412,1924.09h.368a2.324,2.324,0,0,1,3.473-.759,2.834,2.834,0,0,1,1.437-.388,2.946,2.946,0,0,1,2.853,2.852,2.717,2.717,0,0,1-1.617,2.571,3.24,3.24,0,0,1-1.445.274h-3.6a1.669,1.669,0,0,1-1-.331,1.433,1.433,0,0,0-1.1,1.392v.856a.655.655,0,1,1-1.31,0v-2.287h-.856v-1.376A2.812,2.812,0,0,1,6883.412,1924.09Z" fill="#69493f" fill-rule="evenodd"/>
    <path id="Path_3482" data-name="Path 3482" d="M6882.322,1937.274l2.055,1.133,2.055-1.133.429,1.169-1.584,1.511-.9-1.537-.9,1.537-1.583-1.511Z" fill="#fff" fill-rule="evenodd"/>
    <path id="Path_3483" data-name="Path 3483" d="M6885.43,1933.47a.213.213,0,1,1,.426,0,.447.447,0,0,0,.141.323.487.487,0,0,0,.34.117h1.122a.212.212,0,0,1,0,.425c-.384,0-.769,0-1.154,0a.875.875,0,0,1-.6-.236A.864.864,0,0,1,6885.43,1933.47Z" fill="#e5a16c"/>
  </g>
</svg>
