<svg xmlns="http://www.w3.org/2000/svg" width="24" height="24" viewBox="0 0 24 24">
  <g id="Group_5512" data-name="Group 5512" transform="translate(-6844.965 -1920.68)">
    <circle id="Ellipse_151" data-name="Ellipse 151" cx="12" cy="12" r="12" transform="translate(6844.965 1920.68)" fill="#77bcd0"/>
    <path id="Path_3471" data-name="Path 3471" d="M6852.9,1931.639c.073.9-.091,1.636-1.411,1.22a2.281,2.281,0,0,0,2.152,2.376,1.915,1.915,0,0,0,1.8-.969,2.238,2.238,0,0,0,.354-1.342v-1.285Z" fill="#3e3a39" fill-rule="evenodd"/>
    <rect id="Rectangle_3632" data-name="Rectangle 3632" width="3.956" height="5.802" transform="translate(6854.597 1933.817)" fill="#f2c696"/>
    <rect id="Rectangle_3633" data-name="Rectangle 3633" width="7.666" height="11.285" rx="2.637" transform="translate(6854.198 1925.604)" fill="#f2c696"/>
    <path id="Path_3472" data-name="Path 3472" d="M6856.835,1925.6h2.346v5.871l1.01.89a.37.37,0,0,1-.039.584l-.971.651v3.289h-2.346a2.644,2.644,0,0,1-2.637-2.637v-.936a1,1,0,0,1-.313.088,1.715,1.715,0,0,1-1.642-1.554c-.176-.941.272-1.771,1-1.854a1.267,1.267,0,0,1,.953.326v-2.08A2.645,2.645,0,0,1,6856.835,1925.6Z" fill="#fae1c3" fill-rule="evenodd"/>
    <path id="Path_3473" data-name="Path 3473" d="M6855.6,1924.555c1.681,0,5.261,1.394,4.254-1.8a3.364,3.364,0,0,1,3.5,3.171,2.83,2.83,0,0,1-1.428,2.657,3.31,3.31,0,0,1-1.978.522h-2.889a1.671,1.671,0,0,1-1-.332,1.433,1.433,0,0,0-1.1,1.392v.857a.655.655,0,0,1-1.31,0v-.85c-.161-.253-.78-.117-.856,0v-2.814A2.812,2.812,0,0,1,6855.6,1924.555Z" fill="#3e3a39" fill-rule="evenodd"/>
    <path id="Path_3474" data-name="Path 3474" d="M6857.614,1933.952a.213.213,0,0,1,.426,0,.447.447,0,0,0,.141.323.482.482,0,0,0,.339.117h1.123a.212.212,0,0,1,0,.424c-.385,0-.77,0-1.154,0a.868.868,0,0,1-.6-.236A.858.858,0,0,1,6857.614,1933.952Z" fill="#e5a16c"/>
    <path id="Path_3475" data-name="Path 3475" d="M6860.016,1938.741l-1.463-.558c-.038.494-.909.889-1.978.889s-1.94-.4-1.979-.889l-1.463.558c-1.316.5-2.56,1.152-2.56,2.561v1.534a12,12,0,0,0,12,.451V1941.3C6862.577,1939.893,6861.332,1939.243,6860.016,1938.741Z" fill="#595757" fill-rule="evenodd"/>
    <path id="Path_3476" data-name="Path 3476" d="M6856.055,1930.2h2.65a.179.179,0,0,1,.18.179v.062h.743v-.062a.18.18,0,0,1,.18-.179h2.65a.179.179,0,0,1,.18.179v.683a.9.9,0,0,1-.9.9h-1.214a.9.9,0,0,1-.9-.9c0-.133.015-.332-.179-.332h-.384c-.2,0-.18.2-.18.332a.9.9,0,0,1-.9.9h-1.214a.9.9,0,0,1-.9-.9v-.683a.18.18,0,0,1,.18-.179Zm3.946.181a.18.18,0,0,0-.18.179v.512a.756.756,0,0,0,.783.72h1.058a.754.754,0,0,0,.783-.72v-.512a.179.179,0,0,0-.179-.179Zm-3.754,0a.179.179,0,0,0-.179.179v.512a.756.756,0,0,0,.783.72h1.058a.755.755,0,0,0,.783-.72v-.512a.179.179,0,0,0-.179-.179Z" fill="#3e3a39" fill-rule="evenodd"/>
  </g>
</svg>
